<svg xmlns="http://www.w3.org/2000/svg" width="24" height="24" viewBox="0 0 24 24">
    <g fill="#FFF" fill-rule="evenodd">
        <path d="M16 16.395a.8.8 0 1 1 1.6 0v4.003a.8.8 0 1 1-1.6 0v-4.003zm-8 0v4.003a.8.8 0 1 1-1.6 0v-4.003a.8.8 0 1 1 1.6 0zm4.8 0v4.003a.8.8 0 1 1-1.6 0v-4.003a.8.8 0 1 1 1.6 0zm10-6.804h-5.836l.8-.8c.161.077.337.118.516.12a1.2 1.2 0 0 0 .848-.353l4.52-4.522a1.201 1.201 0 0 0 0-1.698 1.231 1.231 0 0 0-1.696 0l-4.528 4.527A1.201 1.201 0 0 0 17.2 8.23l-1.364 1.361H8.164L6.8 8.231a1.201 1.201 0 0 0-.228-1.366L2.048 2.338a1.231 1.231 0 0 0-1.696 0 1.201 1.201 0 0 0 0 1.698l4.524 4.526a1.2 1.2 0 0 0 .848.353c.179-.004.355-.046.516-.125l.8.801H1.2a1.2 1.2 0 0 0-1.2 1.2v1.602a1.2 1.2 0 0 0 1.2 1.2h.097l.705 2.622c0 .061.013.123.042.18l1.648 6.124A2 2 0 0 0 5.628 24h12.744a2 2 0 0 0 1.936-1.48l2.4-8.926h.092a1.2 1.2 0 0 0 1.2-1.201v-1.601a1.2 1.2 0 0 0-1.2-1.201z"/>
        <path d="M11.513 7.8a.69.69 0 0 0 .974 0l3.311-3.314a.691.691 0 0 0-.486-1.178h-.895V.69a.69.69 0 0 0-.69-.691h-3.454a.69.69 0 0 0-.69.691v2.617h-.895a.69.69 0 0 0-.487 1.178l3.312 3.313z"/>
    </g>
</svg>
