<svg xmlns="http://www.w3.org/2000/svg" width="543" height="436" viewBox="0 0 543 436">
    <g fill="none" fill-rule="nonzero">
        <path fill="#DA97B8" d="M542.652 396.103c0 3.55-27.966 6.438-62.461 6.438s-62.462-2.888-62.462-6.438 27.967-6.482 62.462-6.482c34.495 0 62.461 2.91 62.461 6.482z" opacity=".2"/>
        <path fill="#A8BCFF" d="M340.225 396.83c0 2.867-76.003 5.182-169.828 5.182S.568 399.697.568 396.831s76.026-5.203 169.829-5.203c93.803 0 169.828 2.337 169.828 5.203z" opacity=".3"/>
        <path fill="#A8BCFF" d="M433.609 397.051c0 2.205-22.453 4.057-50.132 4.057-27.68 0-50.155-1.808-50.155-4.057 0-2.249 22.453-4.034 50.155-4.034 27.701 0 50.132 1.807 50.132 4.034z" opacity=".3"/>
        <path fill="#5C75C3" d="M166.736 57.119c.04.5-.319.946-.816 1.014a.926.926 0 0 1-.816-1.014v-3.263a.926.926 0 0 1 .816-1.014.948.948 0 0 1 .816 1.014v3.263zM166.736 44.287c.04.501-.319.946-.816 1.014a.926.926 0 0 1-.816-1.014v-3.263a.926.926 0 0 1 .816-1.014.948.948 0 0 1 .816 1.014v3.263zM173.352 52.4c.448.21.652.734.464 1.191a.949.949 0 0 1-1.28.22l-2.845-1.63a.838.838 0 1 1 .816-1.434l2.845 1.654zM162.325 45.985a.904.904 0 0 1 .463 1.19.949.949 0 0 1-1.28.22l-2.845-1.63a.838.838 0 1 1 .816-1.434l2.846 1.654zM172.558 44.331a.949.949 0 0 1 1.28.22.948.948 0 0 1-.464 1.213l-2.845 1.632a.927.927 0 0 1-1.279-.22.904.904 0 0 1 .463-1.191l2.845-1.654zM161.442 50.747a.838.838 0 1 1 .816 1.433l-2.845 1.632a.927.927 0 0 1-1.279-.22.904.904 0 0 1 .463-1.191l2.845-1.654z"/>
        <path fill="#B0BCD8" d="M474.809 433.562c0 1.147-9.043 2.073-20.225 2.073-11.182 0-20.225-.926-20.225-2.073 0-1.146 9.065-2.204 20.225-2.204 11.16 0 20.225 1.036 20.225 2.204z"/>
        <path fill="#7AB6F6" d="M449.335 432.923c-1.015-10.142-3-20.747-1.941-31.043.287-2.822 2.669-15.434 7.212-12.48 3.617 2.316 1.235 10.826 1.213 14.354a107.866 107.866 0 0 1-4.565 28.53l-1.92.639z"/>
        <path fill="#FFC5C0" d="M449.18 434.62v-.44a63.39 63.39 0 0 1 2.096-8.82c.352-1.256.727-2.535 1.058-3.792 0-.419.22-1.08.375-1.83.64-3.571 1.61-8.973 4.411-8.973.407.003.807.101 1.17.287 4.013 1.962 1.874 9.568 0 14.53a3.486 3.486 0 0 1 1.653-.464 1.941 1.941 0 0 1 1.765.948 3.57 3.57 0 0 1-.309 3.462 10.498 10.498 0 0 1-5.227 3.946l-.441.177-6.55.97z"/>
        <path fill="#2A2B7C" d="M450.526 434.753c1.433-6.614-1.809-17.153-4.411-23.437-.839-2.05-5.426-8.819-8.337-7.474-2.912 1.345 1.058 8.599 2.205 10.274a5.096 5.096 0 0 0-3.904-1.786c-2.823 0-2.205.596-1.94 2.91.44 3.594 3.153 5.579 5.646 7.695-1.853-.683-4.786-.573-4.698 2.205.088 2.778 15.439 9.613 15.439 9.613z"/>
        <path fill="#FFF" d="M302.775 54.143H249.51c-1 0-1.809.809-1.809 1.807v16.646c0 .999.81 1.808 1.809 1.808h19.254l-11.248 34.726 19.012-34.726h26.246c.999 0 1.808-.809 1.808-1.808V55.884a1.808 1.808 0 0 0-1.808-1.741z"/>
        <path fill="#FA9A95" d="M261.09 67.195l-2.912-1.411-2.845 1.61.463-3.242-2.426-2.183 3.22-.573 1.346-2.954 1.522 2.866 3.242.353-2.25 2.359zM273.022 67.195l-2.934-1.411-2.823 1.61.441-3.242-2.404-2.183 3.198-.573 1.346-2.954 1.544 2.866 3.242.353-2.272 2.359zM284.954 67.195l-2.933-1.411-2.846 1.61.464-3.242-2.405-2.183 3.199-.573 1.345-2.954 1.544 2.866 3.22.353-2.25 2.359zM296.886 67.195l-2.933-1.411-2.846 1.61.464-3.242-2.404-2.183 3.198-.573 1.345-2.954 1.522 2.866 3.242.353-2.25 2.359z"/>
        <path fill="#A8BCFF" d="M422.581 75.088h15.44a5.535 5.535 0 0 1 5.513 5.512v13.03a5.535 5.535 0 0 1-5.536 5.512h-4.874l6.462 10.12-12.13-10.208h-4.875a5.515 5.515 0 0 1-5.536-5.512V80.6a5.511 5.511 0 0 1 5.536-5.512z"/>
        <path fill="#FFF" d="M430.565 94.071a8.45 8.45 0 0 1-5.315-1.984.75.75 0 0 1 1.014-1.103 6.618 6.618 0 0 0 8.955-.264.75.75 0 1 1 .948 1.146 8.692 8.692 0 0 1-5.602 2.205zM428.007 84.216a1.632 1.632 0 1 1-1.61-1.852 1.764 1.764 0 0 1 1.61 1.852zM436.19 84.216a1.632 1.632 0 1 1-1.61-1.852c.954.07 1.673.897 1.61 1.852z"/>
        <path fill="#ECB49F" d="M430.08 246.421c-3.066-2.976-9.13 10.803-10.19 16.25-1.257 6.239-.154 10.45 1.346 16.16 1.852 6.945 7.433 14.64-1.235 16.933-5.801 1.521-12.682-1.5-18.439-2.073-4.764-.485-9.33.42-10.476-4.034-2.559-9.922 11.932-19.623 3.705-27.538-7.08-7.408-4.411-20.593-3.242-27.273 4.896-6.46 9.638-3.263 11.028-12.325a62.416 62.416 0 0 1 6.815-1.234 10.009 10.009 0 0 0 4.411 8.598c3.838 2.58 8.822-.44 12.042 1.83 3.22 2.271 4.94 11.09 4.235 14.706z"/>
        <path fill="#ECB49F" d="M390.226 233.898c4.41-1.257 6.241 4.41 7.41 11.024 1.28 7.187 2.426 15.764 2.426 15.764-1.235 3.99-2.668 9.657-3.903 13.625-1.72 5.512-5.36 10.429-6.617 16.051-.596 2.624 1.433 6.394-2.206 7.563-5.447 1.72-3.021-3.22-2.514-5.512a623.152 623.152 0 0 0 1.985-9.238c1.411-6.747 2.867-13.516 4.058-20.306-.11-.067-6.683-27.295-.64-28.971z"/>
        <path fill="#2A2B7C" d="M390.226 233.898c4.41-1.257 6.241 4.41 7.41 11.024 1.28 7.187 2.426 15.764 2.426 15.764-1.235 3.99-2.668 9.657-3.903 13.625-.287.97-5.536 12.92-5.117 13.053-3.132-.926-5.603-1.918-5.603-1.918s2.405-7.805 2.912-10.319c.816-4.079 1.676-8.157 2.404-12.258 0-.067-6.573-27.295-.53-28.971z"/>
        <path fill="#2A2B7C" d="M430.08 246.421c-2.382 0-9.13 10.803-10.19 16.25-1.257 6.239 1.853 11.023 3.353 16.755.573 2.205 1.742 4.94-.838 5.997-1.57.464-3.194.723-4.83.772a88.695 88.695 0 0 1-20.534-1.212c-.794-.177-5.294 0-5.14-.949.442-3.086-.11-5.93 1.523-8.223a13.556 13.556 0 0 0 2.933-7.85c0-2.535-3.132-5.886-6.308-12.412-3.176-6.526 1.125-18.697.177-20.527-1.875-3.285 4.41-3.461 6.616-4.63-2.205 7.056-2.536 8.621 4.676 9.459 7.212.838 12.748-11.752 20.975-9.856 6.308 1.478 8.668 10.76 7.587 16.426z"/>
        <path fill="#ECB49F" d="M409.348 222.08v-.793a62.416 62.416 0 0 0-6.815 1.234 10.89 10.89 0 0 1-1.831 4.873c3.132.926 6.44-1.522 8.646-5.314z" style="mix-blend-mode:multiply"/>
        <path fill="#ECB49F" d="M397.526 198.842a29.314 29.314 0 0 0 2.206 20.041c4.058 7.386 10.19 3.925 13.079-2.425 2.404-5.247 4.146-15.896-.839-20.218a11.627 11.627 0 0 0-9.44-1.72c-4.83 1.61-4.41 4.851-4.41 9.217l-.596-4.895z"/>
        <path fill="#2E3054" d="M411.377 193.749a14.11 14.11 0 0 1 7.256 11.53 12.457 12.457 0 0 1-7.785 12.899 7.626 7.626 0 0 0 .242-7.827 8.332 8.332 0 0 1-1.19-7.342c-1.81 4.608-6.618 1.852-9.97 3.792a6.062 6.062 0 0 0-2.36 7.827c-5.16-6.394-5.867-11.663-.838-18.123 2.757-3.462 10.785-4.696 14.645-2.756z"/>
        <path fill="#F5B29C" d="M392.497 380.736l-5.536-1.147c-.22 1.28-.44 2.558-.728 3.793-1.61 7.672-10.674 9.81-10.608 12.368.066 2.558 15.593-3.682 15.593-3.682s.926-10.384 1.28-11.332zM415.413 381.86l-4.654-2.204c-.419 1.345-.44 4.255-.683 5.578-1.456 8.554-8.823 8.444-9.043 10.715-.265 2.734 14.579-2.425 14.579-2.425s-.728-10.716-.199-11.664z"/>
        <path fill="#0B1238" d="M389.498 287.165L384.8 384.44l8.381-.265 10.675-77.453 5.227 79.217 6.22.441s19.166-76.395 6.286-112.2a59.857 59.857 0 0 1-27.614 1.961 17.392 17.392 0 0 0-4.477 11.024z"/>
        <path fill="#FA7071" d="M443.622 271.401l-15.328 8.312a15.433 15.433 0 0 0-7.102 10.583l-1.83 17.33c-.442 3.924-3.133 4.916-6 2.204l-12.638-12.016a15.266 15.266 0 0 0-12.263-3.461l-17.071 3.594a5.075 5.075 0 0 1-2.977-.11c-1.655-.64-2.206-2.47-.949-4.917l3.154-6.615 4.411-9.105a15.428 15.428 0 0 0 .794-9.194 12.3 12.3 0 0 0-1.279-3.55l-.485-.86-8.205-14.22c-1.963-3.418-.375-5.8 3.551-5.292l17.292 2.205a15.442 15.442 0 0 0 11.976-4.41l11.667-12.942c2.669-2.932 5.426-2.205 6.132 1.742l2.316 12.457.816 4.41v.286a15.278 15.278 0 0 0 4.587 7.783c.975.9 2.084 1.644 3.287 2.205l11.027 4.894 4.94 2.205c3.552 1.72 3.662 4.586.177 6.482z"/>
        <path fill="#FFF" d="M438.44 262.825c-19.63 18.564-55.14 30.558-70.027 35.011-1.655-.639-2.206-2.469-.949-4.916l3.154-6.615c20.203-7.077 41.399-21.562 53.551-30.624.975.9 2.084 1.644 3.286 2.205l10.984 4.939zM418.721 243.224a269.897 269.897 0 0 1-44.662 20.372l.507.882a12.3 12.3 0 0 1 1.28 3.55 159.555 159.555 0 0 0 43.758-20.394l-.883-4.41z" opacity=".15"/>
        <path fill="#ECB49F" d="M433.609 247.325c2.206 4.41 8.513 10.649 7.565 15.433-1.323 6.615-7.256 11.818-12.108 16.095a20.503 20.503 0 0 0-5.404 9.282c-.397 1.235-1.169 6.372-3.375 4.167-5.381-5.401 2.846-13.008 5.867-16.734a71.167 71.167 0 0 0 7.3-11.53 41.224 41.224 0 0 0-4.19-8.048c-3.617-5.292-8.006-10.208-8.205-16.867 0-2.205.662-8.003 4.411-7.055 2.978.661 6.661 12.325 8.139 15.257z"/>
        <path fill="#2A2B7C" d="M433.609 247.325c2.206 4.41 8.513 10.649 7.565 15.433-1.367 6.901-7.631 11.62-12.13 16.514-.596-1.631-2.008-2.05-3.199-3.042a141.098 141.098 0 0 0 7.61-12.193 41.224 41.224 0 0 0-4.19-8.047c-3.618-5.292-8.007-10.208-8.206-16.867 0-2.205.662-8.003 4.411-7.055 2.978.661 6.661 12.325 8.139 15.257z"/>
        <path fill="#2E3054" d="M391.505 389.004l-.375.176c-8.955 4.961-9.683 2.492-9.638 1.39-2.89 2.336-5.911 3.703-5.867 5.18 0 2.558 15.593-3.682 15.593-3.682s.11-1.322.287-3.064zM415.325 390.459c-3.926 2.205-3.485 2.205-6.904 2.822-3.418.617-1.918-1.102-1.962-1.279-2.67 1.786-5.272 2.404-5.426 3.991-.265 2.734 14.579-2.425 14.579-2.425s-.045-.904-.287-3.109z"/>
        <path fill="#ECB49F" d="M383.697 295.279c.397-1.521 2.801-5.556 4.61-5.865 3.088-.529.64 4.145.64 6.02l-5.25-.155z"/>
        <path fill="#A8BCFF" d="M72.933 429.682c0 1.455-7.477 2.668-16.674 2.668s-16.696-1.213-16.696-2.668 7.477-2.668 16.696-2.668c9.22 0 16.674 1.19 16.674 2.668z" opacity=".3"/>
        <path fill="#FFC5C0" d="M58.266 429.77c4.94 0 16.718-.485 14.954-8.312a33.757 33.757 0 0 0-4.676-.242c8.183-3.241 8.094-11.686 7.675-19.645a22.732 22.732 0 0 0-9.043 11.906c-4.41-4.255-5.535 1.653-6.616 5.335-1.522 5.138-2.669 8.4-7.676 11.553l5.382-.595z"/>
        <path fill="#9DAFE2" d="M55.465 430.321c-1.301-.419 5.602-18.52 5.602-20.24 0-8.003-4.521-9.634-6.043-.992 1.852-7.606.287-22.973-6.75-27.625-4.19 3.483-3.594 11.023-2.403 16.072 1.39 5.91 4.41 31.066 9.594 32.785z"/>
        <path fill="#2A2B7C" d="M53.127 426.551c-4.08-12.545-6.043-25.31-23.225-23.9-.33 5.975 5.867 9.04 10.631 11.024-3.771-.573-6.727 1.367-4.587 4.63 1.61 2.448 7.653 2.536 10.123 2.999-6.021 3.792 4.61 7.65 7.742 8.113l-.684-2.866z"/>
        <path fill="#2E3054" d="M133.343 385.542c.287 4.41 7.411 6.35 9.617 9.834-2.206.948-10.344.529-12.572-1.015-3.066-2.204-.794-7.496-4.411-10.56l7.366 1.741zM81.998 384.131c-.22 3.484.97 6.901.772 10.495a76.052 76.052 0 0 1-15.197 1.477c1.258-3.285 4.059-3.902 6.97-5.864 4.698-3.175 2.47-5.38 4.147-9.79l3.308 3.682z"/>
        <path fill="#ECB49F" d="M93.202 194.763s-.551 12.92-2.051 15.434c-1.94 3.219-6.043 1.3-6.97 5.445-.204 2.95.64 5.878 2.382 8.268 4.147 6.416 11.602 5.556 18.439 6.747a8.073 8.073 0 0 0 9.418-5.115c.93-3.954.128-8.118-2.206-11.443-1.367-1.587-3.882-1.984-5.448-3.395a12.764 12.764 0 0 1-3.992-9.194c.397-5.27-6.616-9.657-9.572-6.747z"/>
        <path fill="#3D4166" d="M117.596 261.766l18.416 124.79-9.065.31-28.165-83.782-14.248 85.611-8.403-.595s-.662-56.685-.33-74.279c.33-17.594-.64-42.045 6.792-52.496 0 .066 24.592 6.328 35.003.441z"/>
        <path fill="#ECB49F" d="M103.943 206.647a6.904 6.904 0 0 1-5.006 2.734c-2.6.2-5.135-.877-6.794-2.888.75-4.697 1.06-11.73 1.06-11.73a3.42 3.42 0 0 1 2.381-.882 9.64 9.64 0 0 1 4.411 1.808 7.253 7.253 0 0 1 2.868 5.82 10.558 10.558 0 0 0 1.08 5.138z" style="mix-blend-mode:multiply"/>
        <path fill="#ECB49F" d="M105.597 187.113s5.647 16.69-1.19 19.688c-6.838 2.999-11.16-5.6-14.16-11.928-3.375-7.077-3.617-9.502 4.41-13.228 8.03-3.726 10.94 5.468 10.94 5.468z"/>
        <path fill="#BFD4F8" d="M98.495 265.272c-.392-.045-.783-.111-1.168-.199a86.042 86.042 0 0 1-10.433-2.778c-3.727-1.234-5.315-1.896-5.845-6.129-.419-3.219-.397-6.614-.75-9.811a67.93 67.93 0 0 0-2.205-10.473 37.887 37.887 0 0 1 1.698-22.048c.574-1.675.596-3.748 2.603-4.41a8.053 8.053 0 0 1 3.463-.705c2.012.46 4.067.711 6.131.75l7.786 39.906s8.337-35.144 6.616-39.686c.331.904 8.955-.683 9.97-.793 2.558-.331 5.094 0 6.175 2.205a20.917 20.917 0 0 1 1.698 11.927 126.931 126.931 0 0 1-2.205 12.876c-.904 3.594.287 7.452 0 11.267-.53 5.115-1.809 10.031-2.206 15.168-7.653-.683-13.807 3.88-21.328 2.933z"/>
        <path fill="#ECB49F" d="M108.862 279.713l-7.058 4.542 2.779.242s-5.316 7.21-4.632 8.952c.684 1.742.927 2.315 4.058 1.742 3.132-.574 6.507-10.627 10.345-12.81a5.89 5.89 0 0 0-5.492-2.668z"/>
        <path fill="#9DAFE2" d="M119.228 209.623s4.565-.397 7.72 11.928c3.153 12.325 3.484 35.43 3.484 35.43l-18.02 27.516-5.05-3.704 12.814-23.15s-7.256-36.577-.948-48.02z"/>
        <path fill="#ECB49F" d="M101.098 241.99a8.03 8.03 0 0 0-7.962 2.733c-.706.728-2.206 2.205-2.206 3.616s1.765 2.999 2.206 3.925c1.323-1.301 2.206-2.977 3.86-3.726a13.389 13.389 0 0 0 4.19-2.47l-.088-4.079z"/>
        <path fill="#BFD4F8" d="M106.766 210.615l-2.117-2.601-5.867 4.343-6.903-4.608-.728 2.425 6.86 48.902 3.837-.771z"/>
        <path fill="#2A2B7C" d="M98.518 212.357l1.654 3.506-.949 2.116 4.213 37.327-3.816 8.62-4.984-8.421 2.867-37.922-.375-1.72z"/>
        <path fill="#2E3054" d="M98.363 178.14c.438.348.952.59 1.5.705.419 0 .992-.53 1.456-.53a6.619 6.619 0 0 1 3.198.353c7.19 3.484 3.087 12.038-2.978 13.67-2.823.772-5.734-1.036-8.47 0a3.791 3.791 0 0 1-2.977 5.578c-7.653 1.014-8.557-11.509-5.028-15.632 2.205-2.602 8.667-6.107 11.998-4.917.463.204.9.463 1.301.772zM82.571 258.635c1.72.486 3.706.794 5.426 1.147 2.713.551 5.47.992 8.227 1.345 3.887.529 7.812.728 11.733.595a42.183 42.183 0 0 0 10.367-2.205c.154 1.456-.331 3.285-.31 4.873a61.026 61.026 0 0 0-7.123 1.257 69.61 69.61 0 0 1-10.102.771 53.392 53.392 0 0 1-13.233-2.425c-1.368-.353-4.411-.44-5.558-1.389-1.147-.948 0-4.145-.243-4.233l.816.264z"/>
        <path fill="#9DAFE2" d="M98.782 212.357l1.39 3.506 6.131-2.866-6.881 3.836zM98.518 212.357l-1.39 3.506-6.131-2.866 6.88 3.836z"/>
        <path fill="#FA7071" d="M128.624 258.944l-14.58 7.496a14.485 14.485 0 0 0-6.859 9.812l-2.205 16.27c-.463 3.705-3.022 4.587-5.668 1.963L87.666 282.91a14.45 14.45 0 0 0-11.358-3.506h-.331l-15.792 2.955c-3.661.705-5.271-1.455-3.595-4.785l1.301-2.601 6.087-12.038a13.225 13.225 0 0 0 1.17-6.372 13.423 13.423 0 0 0-.971-4.806l-.397-.816-7.874-14.397c-1.786-3.286-.22-5.49 3.463-4.917l16.21 2.513a14.494 14.494 0 0 0 11.36-3.902l11.248-11.928c2.558-2.712 5.139-1.918 5.734 1.764l2.051 12.611.574 3.572c0 .243 0 .485.154.728a14.926 14.926 0 0 0 4.897 7.584 9.771 9.771 0 0 0 2.205 1.389l11.844 5.622 3 1.411c3.264 1.544 3.308 4.233-.022 5.953z"/>
        <path fill="#FFF" d="M125.536 251.536c-12.859 12.325-33.084 21.74-49.625 27.935l-15.792 2.954c-3.662.706-5.272-1.455-3.595-4.784l1.3-2.602c20.513-7.121 42.017-21.74 53.795-30.47a9.771 9.771 0 0 0 2.183 1.389l11.734 5.578zM106.634 237.139a162.29 162.29 0 0 1-41.553 19.578 13.423 13.423 0 0 0-.97-4.806 254.743 254.743 0 0 0 41.905-19.071l.618 4.299z" opacity=".15"/>
        <path fill="#ECB49F" d="M101.076 262.406c4.963-3.793 8.491-.816 10.565.926.683.55 2.095 1.697 1.83 3.042-.264 1.345-2.316 3.109-3 4.057-1.279-1.014-2.006-2.425-3.749-2.844a10.832 10.832 0 0 1-4.256-1.61l-1.39-3.571z"/>
        <path fill="#9DAFE2" d="M82.02 209.998s-6.374-1.808-8.822 37.15c-.618 9.988 8.27 10.54 15.439 13.847 4.764 2.204 9.572 3.726 14.49 5.754-.75-.309 2.47-5.137 2.691-5.754-6.198-3.793-14.27-5.071-19.365-10.605-4.411-4.675-2.47-14.993-.507-20.527 1.39-4.277 1.544-20.923-3.926-19.865z"/>
        <path fill="#ECB49F" d="M106.391 281.058c-1.213.507-5.8 2.58-5.47 4.035.331 1.455 4.103-1.235 3.11.793-.992 2.029-4.212 3.418-5.205 6.13a4.941 4.941 0 0 0 3.507-1.5c-.926.949-2.205 2.205-2.205 3.616 1.367.375 2.073-1.146 2.779-2.028-.177.705-1.235 3.77.22 3.66.794 0 2.206-2.955 2.47-3.55l.794-11.156z"/>
        <path fill="#FFF" d="M214.64 170.62c0 4.993-4.048 9.04-9.042 9.04s-9.043-4.047-9.043-9.04c0-4.992 4.049-9.039 9.043-9.039a9.023 9.023 0 0 1 9.043 9.04z" opacity=".3"/>
        <path fill="#FFF" d="M164.883 201.157c0 3.75-3.041 6.79-6.793 6.79a6.792 6.792 0 1 1 0-13.58 6.792 6.792 0 0 1 6.793 6.79z" opacity=".6"/>
        <path fill="#F5B29C" d="M213.053 336.155s.727 50.225 2.91 54.436c2.184 4.211 13.036 7.188 13.587 6.284.552-.904-4.698-4.41-5.999-6.857a10.8 10.8 0 0 1-2.206-9.238c.574-6.13 6.463-55.274 6.463-55.274l-14.755 9.834v.815zM210.185 337.302s-7.322 51.018-9.33 53.377c-2.006 2.36-9.483 7.276-12.152 6.438-2.669-.837 3.573-5.225 5.117-7.43 1.544-2.204 3.242-2.734 3.33-8.819.089-6.085-1.918-41.317-1.918-41.317l14.997-2.977-.044.728z"/>
        <path fill="#2E3054" d="M194.46 194.697a11.661 11.661 0 0 0-3.265 8.202 10.602 10.602 0 0 0 .883 4.674 27.667 27.667 0 0 1 2.205 4.079 7.037 7.037 0 0 0-5.205 1.741c-5.095 5.027-5.337 16.867 1.875 19.998a5.317 5.317 0 0 0 3.926.264c-2.426-1.653-5.514 3.594-3.485 6.328 2.382 3.219 8.249 3.33 11.645 3.506 3.882.22 9.749.97 12.903-1.963 2.426-2.204 3.705-6.989 4.235-10.274.97 2.602 1.985 5.843 4.41 6.79a5.912 5.912 0 0 0 6.617-3.02 7.648 7.648 0 0 0-.551-7.584c-.662-.992-4.544-6.35-5.624-5.865 4.852-2.205 4.874-8.18 3.882-13.802-3-16.778-23.556-25.134-34.451-13.228v.154z"/>
        <path fill="#ECB49F" d="M214 198.974c1.192 1.19.244 9.062.618 11.024.993 5.203 6.242 6.02 7.896 10.164.373 2.004.15 4.074-.64 5.953-1.08 3.417-3.285 8.378-7.101 9.326-2.051.507-5.095.485-7.345.794a14.297 14.297 0 0 1-8.469-.992c-5.315-2.624-6.617-8.246-4.654-13.582 1.368-3.77 3.617-3.505 6.286-5.82a12.917 12.917 0 0 0 3.926-10.186c-.287-5.226 6.595-9.569 9.484-6.68z"/>
        <path fill="#ECB49F" d="M214.905 205.544l-.198-4.563c-2.89-2.889-10.61-1.566-10.322 3.66v.948c.97 1.631 3.33 5.445 4.896 5.225 3.33-.485 4.543-2.337 5.624-5.27z" style="mix-blend-mode:multiply"/>
        <path fill="#ECB49F" d="M200.613 192.36s2.206 16.117 8.315 16.558c6.11.44 8.183-8.82 8.668-15.08.53-7.078-.132-9.239-8.822-9.658-8.69-.419-8.16 8.18-8.16 8.18z"/>
        <path fill="#2E3054" d="M219.338 190.111c0 .507-.22 1.058-.33 1.61 2.205 0 2.205 3.505 1.433 4.74-.132.22-.926.882-.926 1.036 0 .154.86.397.75 1.102a2.05 2.05 0 0 1-2.537 1.456c-.794-.31-.617-1.213-.728-1.919a5.952 5.952 0 0 0-2.205-3.77c-.904-.904-2.559-2.205-2.669-3.461a7.456 7.456 0 0 1-8.491 2.822c-.42 1.808 0 2.8-1.897 3.858-1.897 1.059-2.03.133-3.463-.816a4.122 4.122 0 0 1 1.61-3.704c-2.205-2.05-.33-5.269 1.677-7.408a10.567 10.567 0 0 1 8.932-3.461 8.67 8.67 0 0 1 4.985 2.028 4.41 4.41 0 0 1 2.007 3.44c1.83.22 2.029 1.19 1.852 2.447z"/>
        <path fill="#FFF" d="M201.584 214.76l-1.346 1.345s2.338 2.977 9.065 3.131a14.516 14.516 0 0 0 10.256-3.44l-1.853-1.19s-9.572 5.666-16.122.154z"/>
        <path fill="#ECB49F" d="M185.307 199.04c0-.463-1.125-2.028-1.17-2.469-.374-3.858-.308-6.614-.595-10.407-.287-3.792-.154-8.069-.551-12.104-.287-2.976 0-5.82 0-8.819 0-2.006-.177-5.534-2.956-5.424a6.132 6.132 0 0 0-4.036 2.756c-1.345 2.492.728 5.755 1.08 8.224.883 6.438-.154 13.229-.396 19.843-.012 3.58.41 7.149 1.257 10.627.287 1.125 1.456 1.125 1.367 2.205 2.493-.419 3.772-2.8 6.374-2.602a7.406 7.406 0 0 0-.374-1.83zM229.66 202.215c-2.36-1.587-1.08-5.997-.816-8.819a147.34 147.34 0 0 1 2.559-16.977 8.397 8.397 0 0 0 0-4.608c-.574-1.455-1.853-2.491-2.007-4.145-.21-1.6.035-3.227.706-4.696 2.205-2.205 4.234 2.712 4.631 3.969.46 2.471.666 4.983.618 7.496.33 3.506.242 19.05.33 23.459 0 1.345.398 2.734-.507 3.77a4.986 4.986 0 0 1-3.44 1.169 4.125 4.125 0 0 1-2.074-.618z"/>
        <path fill="#2A2B7C" d="M221.588 241.262c.662-2.36 1.919-4.586 2.536-6.901.442-1.616.73-3.27.86-4.939a35.577 35.577 0 0 1 4.809-13.956c1.235-2.205 6.616-16.293 6.616-16.293s-6.991 0-8.403-1.235c-2.205 7.276-5.139 16.778-12.836 19.843-8.536 3.484-13.586-.661-19.056-6.99-2.051-2.38-4.058-4.784-6.198-7.099-1.853-1.984-3.242-4.41-5.095-6.283-.75.727-6.903 3.748-6.616 4.63a89.064 89.064 0 0 0 6.77 12.082c1.986 3.395 5.625 7.188 6.22 11.024.331 2.205-.198 4.41.22 6.614a31.83 31.83 0 0 0 2.405 5.82 29.67 29.67 0 0 1 2.558 6.174 9.786 9.786 0 0 1 0 5.05c-.33 1.432-.55 3.328-.86 4.761-.419 1.83-2.426 3.705-.132 4.013 4.61.662 9.352.97 14.005 1.301 3.439.572 6.932.75 10.41.53 1.478-.221 3.838 1.102 3.728-.42a46.55 46.55 0 0 0-1.323-5.644 23.98 23.98 0 0 1-.618-12.082z"/>
        <path fill="#7AB6F6" d="M195.408 253.587s-18.747 42.265-23.842 62.152c-5.095 19.887 7.83 25.4 14.843 25.796 7.014.397 19.542 10.737 31.628 1.19 12.087-9.546 18.88.133 27.062-6.614 8.183-6.746 3.662-23.37-3.771-37.701s-18.836-44.493-18.836-44.493-18.02 2.448-27.084-.33z"/>
        <path fill="#2E3054" d="M190.865 392.73c-1.985 1.918-3.86 3.858-2.206 4.41 2.669.837 10.124-4.101 12.153-6.438a15.209 15.209 0 0 0 1.213-4.013c-5.514 6.857-10.455 6.173-11.16 6.04zM229.594 396.875c.287-.485-1.169-1.808-2.779-3.307-1.654.154-6.22 0-11.447-5.71.098.934.313 1.852.64 2.733 2.206 4.19 13.035 7.188 13.586 6.284z"/>
        <path fill="#FA7071" d="M251.98 132.875l-14.313 10.517a14.97 14.97 0 0 0-4.411 6.13 14.062 14.062 0 0 0-1.17 5.555l.552 17.638c.132 4.035-2.448 5.402-5.735 3.065l-14.424-10.362a15.642 15.642 0 0 0-9.22-2.448 12.554 12.554 0 0 0-3.638.64l-16.719 5.997c-3.793 1.367-5.888-.662-4.653-4.41l3.22-10.12 2.205-6.79c.92-3.703.49-7.61-1.213-11.024-.295-.6-.65-1.169-1.058-1.698l-3.794-4.895-7.08-9.127c-2.47-3.197-1.19-5.821 2.845-5.843h17.645a15.727 15.727 0 0 0 11.469-6.107l9.991-14.684c2.206-3.33 5.161-2.91 6.418.904l5.007 15.125.573 1.741a14.375 14.375 0 0 0 4.014 5.667 13.896 13.896 0 0 0 5.316 3.197l5.8 1.697 11.249 3.263c3.882 1.125 4.389 3.99 1.125 6.372z"/>
        <path fill="#FFF" d="M251.98 132.875l-14.313 10.517a14.97 14.97 0 0 0-4.411 6.13 213.558 213.558 0 0 1-29.996 13.536 12.554 12.554 0 0 0-3.64.64l-16.718 5.997c-3.793 1.367-5.888-.662-4.653-4.41l3.22-10.12c23.82-7.474 48.566-24.781 58.05-31.925l11.249 3.263c3.97 1.125 4.477 3.99 1.213 6.372zM182.329 137.196a150.406 150.406 0 0 0 46.162-18.85l-4.61-7.563a314.882 314.882 0 0 1-46.316 19.843l4.764 6.57z" opacity=".15"/>
        <path fill="#ECB49F" d="M177.433 165.462a5.777 5.777 0 0 0 2.426 3.064c.198-1.234-.706-1.984-1.125-3.02.644.82 1.385 1.56 2.206 2.205.22-1.169-1.015-2.492-1.368-3.572.97.727 1.522 2.513 2.911 2.535 0-1.279-1.632-2.601-2.205-3.726.97.485 1.478 1.521 2.624 1.544.133-1.367-2.58-3.837-3.462-4.41l-2.007 5.38zM233.322 166.807c.154.463.308 2.359-.243 2.778-.551.418-2.007 0-2.647.176-.64.176-2.646.904-2.735.154-.088-.75 3.154-1.234 3.11-1.61-.044-.374-3.374 1.037-3.44.221-.067-.815 4.234-1.587 4.102-1.83-.132-.242-4.3.882-3.948-.308.353-1.19 4.014-1.522 3.904-1.433-.11.088-4.147.727-4.235-.331-.088-1.058 4.676-1.72 5.669-1.544l.463 3.727z"/>
        <path fill="#2E3054" d="M275.867 386.27c-.243 4.41-6.44 6.107-8.36 9.458 1.986.882 9 .485 11.029-.992 2.69-2.028.683-7.165 3.793-10.12l-6.462 1.654zM320.574 384.859c.198 3.33-.838 6.614-.662 10.032a60.387 60.387 0 0 0 13.234 1.433c-1.103-3.153-3.551-3.748-6.088-5.622-4.08-3.021-2.205-5.116-3.595-9.459l-2.89 3.616z"/>
        <path fill="#AD704D" d="M310.825 209.337s.485 11.244 1.787 13.405c1.698 2.822 5.271 1.146 6.065 4.762a11.021 11.021 0 0 1-2.073 7.121c-3.617 5.6-10.102 4.851-16.057 5.887a7.014 7.014 0 0 1-8.182-4.41 12.365 12.365 0 0 1 1.896-9.943c1.191-1.367 3.397-1.72 4.742-2.954a11.022 11.022 0 0 0 3.397-7.937c-.243-4.586 5.867-8.467 8.425-5.931z"/>
        <path fill="#ECB49F" d="M305.84 220.493a5.668 5.668 0 0 0 5.559-3.462c-.397-3.704-.574-7.694-.574-7.694-2.558-2.536-8.668 1.278-8.425 5.864a8.948 8.948 0 0 1-.33 2.91 4.764 4.764 0 0 0 3.77 2.382z" style="mix-blend-mode:multiply"/>
        <path fill="#AD704D" d="M296.555 201.179s.816 17.153 8.073 17.44c7.256.286 8.138-9.062 8.623-15.853.53-7.606-.11-9.921-8.623-10.362-8.514-.441-8.073 8.775-8.073 8.775z"/>
        <path fill="#FFF" d="M301.01 212.467a7.59 7.59 0 0 0 7.323 0s-3.485 7.254-7.323 0z"/>
        <path fill="#AD704D" d="M281.646 253.19c-.287.595.33 1.278.176 1.697-.882 2.47-2.713 5.005-3.463 7.519-1.235 4.034-2.668 8.378-4.278 12.28a33.062 33.062 0 0 0-2.338 8.82c-.199 1.477.176 5.07-.816 6.04-.839-.396-.75-5.269-2.096-1.852-1.036 2.602-2.889 7.342-3.837 7.32-.949-.022 1.19-4.123.573-4.63-.618-.507-3.044 4.873-3.705 4.41-.662-.463 2.205-4.939 1.5-5.336-1.015-.705-2.074 3.153-2.89 2.822-.816-.33 1.147-3.02 1.28-4.41-1.39-.11-2.338 3.242-2.934 1.897-.595-1.345 3.44-4.63 4.411-6.284a23.145 23.145 0 0 0 3.33-9.965 84.616 84.616 0 0 1 3.948-17.44c1.28-4.035 3.794-7.981 5.382-11.73a11.537 11.537 0 0 1 7.058 2.999c.684 1.235-.42 3.858-1.301 5.843z"/>
        <path fill="#FFF" d="M282.572 223.91l-12.506 32.058-4.742 21.298 7.566 3.175 10.035-26.766 5.293-21.298s-2.117-10.076-5.646-8.467z"/>
        <path fill="#FFF" d="M312.06 272.636a30.578 30.578 0 0 1 4.83-1.279c1.28 0 2.206.595 3.066-.11l.243-.243c.794-.904.595-4.41.706-5.49.397-3.77.75-7.518 1.147-11.266a62.75 62.75 0 0 1 1.962-9.128c1.897-7.474 3.86-13.78-.617-20.659a5.338 5.338 0 0 0-5.536-3.219c-1.95.457-3.935.76-5.933.904a7.784 7.784 0 0 1-5.955 5.931c-4.852.728-8.094-1.808-6.617-5.71a45.867 45.867 0 0 0-9.065-2.205 7.015 7.015 0 0 0-7.565 3.087c-2.624 4.41 1.368 8.444 2.096 12.832.992 5.908 2.315 12.126 2.955 18.079.397 3.748 1.059 8.444 1.456 12.192.11 1.147-.397 3.66.397 4.564.063.097.146.18.242.243.86.705 1.765 0 3.066.11 1.642.296 3.257.724 4.83 1.279l14.292.088z"/>
        <path fill="#2E3054" d="M299.864 190.508a4.08 4.08 0 0 1-1.125 1.168c-.353.199-1.103-.132-1.522 0a6.617 6.617 0 0 0-2.78 1.456c-5.27 5.71 1.5 11.994 7.566 11.332 2.823-.286 4.83-2.976 7.72-2.954a3.681 3.681 0 0 0 4.675 4.012c7.3-1.807 3.661-13.493-.992-15.962-2.956-1.588-10.014-2.47-12.638-.22-.346.352-.65.744-.904 1.168zM320.067 264.941c-1.5.441-3.22.684-4.72.992-2.36.485-4.742.86-7.146 1.169-3.382.473-6.8.65-10.212.529a36.734 36.734 0 0 1-9.043-1.94c-.132 1.279.287 2.866.265 4.233 2.092.248 4.17.616 6.22 1.102 2.92.441 5.868.67 8.822.684a45.692 45.692 0 0 0 11.535-2.205c1.19-.309 3.926-.375 4.83-1.213.904-.837 0-3.615.22-3.682l-.771.331z"/>
        <path fill="#2A2B7C" d="M289.586 267.72L273.55 387.261l7.896.287 24.526-80.298 12.395 82.017 7.323-.573s.573-54.303.286-71.148c-.286-16.844.574-40.303-5.933-50.29 0 0-21.46 6.084-30.458.462z"/>
        <path fill="#2E3054" d="M299.356 222.367s-.661 5.027 4.19 5.181a9.506 9.506 0 0 0 8.757-5.843l1.345.265s-2.426 7.695-9.726 7.166c-7.3-.53-5.933-5.27-5.536-6.88l.97.11z"/>
        <path fill="#AD704D" d="M340.975 174.92a17.833 17.833 0 0 1 1.92-5.203 50.853 50.853 0 0 1 1.94-5.225 33.435 33.435 0 0 1-.595 5.07c1.918-1.036 2.845-4.299 3.396-6.217a15.539 15.539 0 0 1-1.39 6.614 10.384 10.384 0 0 0 2.758-4.21c-.397 5.092-4.412 9.656-3.993 15.102l-4.036-5.93z"/>
        <path fill="#FA7071" d="M369.229 166.145l-17.645 1.08a15.594 15.594 0 0 0-11.028 6.615l-9.109 15.125c-2.05 3.439-4.962 3.196-6.44-.53l-5.139-13.03-1.323-3.329a15.592 15.592 0 0 0-9.793-8.422l-17.093-3.947c-3.904-.904-4.566-3.726-1.478-6.283l3.705-3.065 9.903-8.18a13.075 13.075 0 0 0 2.956-3.682 15.275 15.275 0 0 0 2.029-8.224l-1.544-17.638c-.33-4.012 2.206-5.512 5.536-3.351l14.888 9.458a15.444 15.444 0 0 0 12.88 1.059l16.255-6.901a6.905 6.905 0 0 1 1.522-.463c2.735-.507 4.213 1.367 3.375 4.674l-.883 3.461-3.529 13.648c-.09.37-.157.746-.198 1.124a15.76 15.76 0 0 0 3.176 11.443l4.786 5.512 6.793 7.805c2.537 3.109 1.412 5.799-2.602 6.041z"/>
        <path fill="#FFF" d="M364.928 152.387c-13.234 10.076-30.746 17.837-45.06 23.062l-1.323-3.329a15.592 15.592 0 0 0-9.793-8.422c20.512-8.378 40.009-22.048 48.324-28.243a15.76 15.76 0 0 0 3.176 11.442l4.676 5.49zM361.575 117.2l-.882 3.46c-15.902 11.62-39.832 25.62-66.917 29.721l9.903-8.18a13.075 13.075 0 0 0 2.956-3.682c16.585-6.305 36.127-15.08 51.566-25.994 2.735-.507 4.212 1.367 3.374 4.674z" opacity=".15"/>
        <path fill="#AD704D" d="M339.034 185.37c-.816-1.41-.132-4.938-.463-6.856a14.921 14.921 0 0 1-.53-6.901 11.376 11.376 0 0 0 2.008 3.087c1.698.705 3.55-1.94 5.05-.309.839.926.354 2.205.133 3.263a29.776 29.776 0 0 0-.397 5.049c0 1.808-.33 3.572-.33 5.424l-5.47-2.756z"/>
        <path fill="#FFF" d="M316.714 227.284c-.154 3.682-.132 13.228 3.44 13.338 1.192 0 3.949-6.482 5.67-7.231 6.902-2.999 15.703-10.186 18.68-17.197 2.978-7.012 1.787-32.631 1.787-32.631l-8.25.286-3.682 28.508s-10.08 8.026-14.359 9.657c-4.278 1.632-3.286 3.307-3.286 5.27z"/>
        <path fill="#ECB49F" d="M505.224 213.173s.485 11.355 1.808 13.537c1.699 2.844 5.294 1.147 6.11 4.785a11.021 11.021 0 0 1-2.074 7.21c-3.66 5.644-10.19 4.894-16.21 5.93a7.08 7.08 0 0 1-8.271-4.52 12.41 12.41 0 0 1 1.94-10.031c1.192-1.39 3.397-1.742 4.765-2.999a11.022 11.022 0 0 0 3.44-7.981c-.264-4.63 5.911-8.422 8.492-5.931z"/>
        <path fill="#ECB49F" d="M506.393 221.198l-.199-4.608c-3.242-2.91-11.028 1.478-10.697 6.615a5.36 5.36 0 0 0 4.235 2.932 6.616 6.616 0 0 0 6.66-4.939z" style="mix-blend-mode:multiply"/>
        <path fill="#ECB49F" d="M492.63 206.801s.728 15.434 7.278 15.72c6.55.287 7.345-8.157 7.764-14.287.485-6.857 0-8.819-7.764-9.326-7.763-.507-7.278 7.893-7.278 7.893z"/>
        <path fill="#2E3054" d="M509.216 204.376c0 .44-.177.926-.287 1.411 1.963 0 1.897 3.109 1.28 4.211 0 .176-.839.772-.839.904s.772.353.684.992a1.83 1.83 0 0 1-2.206 1.279c-.683-.265-.529-1.058-.64-1.698a5.247 5.247 0 0 0-1.874-3.35c-.816-.795-2.206-1.897-2.382-3.066a6.618 6.618 0 0 1-7.521 2.514c-.375 1.61 0 2.47-1.676 3.417-1.676.948-1.809 0-3.088-.727-.287-1.301 1.544-1.544 2.206-2.205-1.875-1.83-1.125-5.865.661-7.76a9.375 9.375 0 0 1 7.918-3.066 7.655 7.655 0 0 1 4.411 1.808 3.88 3.88 0 0 1 1.765 3.043c1.566.309 1.742 1.168 1.588 2.293zM500.04 215.973a8.185 8.185 0 0 0-6.351-.375s-1.17 9.834 6.352 9.834c8.69 0 6.77-10.032 6.77-10.032a9.266 9.266 0 0 0-6.77.573z"/>
        <path fill="#FFF" d="M496.644 216.987a6.817 6.817 0 0 0 6.617 0s-3.154 6.548-6.617 0z"/>
        <path fill="#E7A588" d="M478.095 176.904c.387-1.235.653-2.505.794-3.792a17.39 17.39 0 0 1 2.096-8.025c.374-.551 1.323-1.72.11-1.962-.155 0-1.059.727-1.301.815-.404.122-.817.21-1.236.265.193-.358.406-.704.64-1.036.323-.614.589-1.256.794-1.918.22-.552.86-1.456.485-2.029a5.779 5.779 0 0 0-1.235.882c0-.463.199-2.205-.132-2.646-1.015-1.014-1.676 2.205-2.448 1.918-.772-.286.926-3.108-.883-2.204-1.146.529-1.036 2.359-2.205 2.998-.155-.353 0-1.234-.574-1.3-.573-.067-.683.793-.772 1.146-.088.353-.64 6.13-.727 7.695-.133 2.359-.662 4.872-.993 7.253a13.577 13.577 0 0 0-.595 3.528c.22.992 1.477 1.587 2.933 1.984 1.456.397 3.617.706 4.566 1.036.397-1.41 0-2.8.463-4.167l.22-.44zM530.08 182.968c1.302 0 2.449-.353 2.824-1.169.168-1.035.212-2.086.132-3.13.198-3.308 2.205-17.639-4.279-17.418-.397 1.609 0 4.122-.794 5.534-.53.86-3.308 1.565-2.933.529-.287 1.389.75 3.285.97 4.696.169 1.338.206 2.69.11 4.035 0 1.124.42 2.05.508 3.196 0 1.522-.662 2.205-.53 3.749.838-.11 2.515.066 3.992-.022z"/>
        <path fill="#0B1238" d="M520.64 386.931v9.812s11.293 4.564 17.932 1.962c6.639-2.602-9.97-2.624-7.962-11.024 2.007-8.4-9.97-.75-9.97-.75zM480.632 384.264v9.789s-11.293 4.586-17.932 1.962c-6.638-2.624 9.948-2.602 7.963-11.024-1.986-8.422 9.969-.727 9.969-.727z"/>
        <path fill="#7AB6F6" d="M497.57 276.494a45.494 45.494 0 0 0 9.749-1.455c1.6-.505 3.237-.88 4.896-1.124 1.302 0 2.206.507 3.088-.11.099-.06.188-.135.265-.221.604-1.479.983-3.04 1.125-4.63.97-6.107 1.544-12.28 2.205-18.41.397-4.211-.595-5.865 2.647-11.663 3.242-5.799 11.778-26.193 12.329-31.97.551-5.776-.287-31.704-.287-31.704l-4.41-.551-4.412.286s.551 27.824-1.654 33.623c-2.206 5.799-4.874 20.615-8.403 18.983a8.23 8.23 0 0 0-6-.727c.353 2.535-4.543 6.923-7.807 6.724h.353c-3.265.199-8.16-4.189-7.808-6.724a5.934 5.934 0 0 1-6.617-1.764c-2.933-3.263-7.896-18.146-8.998-22.842-1.103-4.696.551-26.457.551-26.457l-7.72-1.367s-5.778 20.394-1.102 32.234c3.683 9.282 10.719 32.278 11.866 33.821 2.69 3.572 1.367 5.887 1.764 10.098.618 6.13 1.191 12.303 2.206 18.41a15.429 15.429 0 0 0 1.125 4.63c.076.086.166.16.264.22.86.618 1.787 0 3.088.11 1.66.244 3.297.62 4.896 1.125a45.494 45.494 0 0 0 9.749 1.455h-6.948z"/>
        <path fill="#2E3054" d="M485.153 272.04c0 10.848-16.453 99.215-15.88 117.868 4.411.97 9.506 0 13.652 1.61 0-5.954 11.028-81.136 16.807-85.392 1.323 2.205 17.644 76.793 20.07 85.303 1.191-.264 13.234.22 13.234 0 .706-8.091-14.822-112.2-18.328-119.807l-29.555.419z"/>
        <path fill="#FA7071" d="M526.375 167.975l-17.358-1.72a15.442 15.442 0 0 0-11.822 4.785l-11.248 13.228c-2.558 3.02-5.337 2.337-6.198-1.543l-3.462-15.896-.243-1.125a15.433 15.433 0 0 0-5.845-8.378 11.382 11.382 0 0 0-2.382-1.367l-16.144-6.614a5.823 5.823 0 0 1-2.206-1.477 2.535 2.535 0 0 1 .11-3.55 6.616 6.616 0 0 1 1.654-1.323l15.042-8.82a15.433 15.433 0 0 0 6.75-10.803l1.257-17.395c.308-3.947 2.955-5.027 5.91-2.381l12.97 11.685c3.49 2.755 7.999 3.872 12.372 3.065l5.03-1.235 9.218-2.205 2.691-.661c3.838-.948 5.69 1.234 4.103 4.872l-.331.75-6.617 15.213a15.098 15.098 0 0 0-.551 9.061 12.565 12.565 0 0 0 1.455 3.638l9.175 14.816c2.118 3.33.596 5.755-3.33 5.38z"/>
        <path fill="#FFF" d="M519.626 135.036a15.098 15.098 0 0 0-.551 9.061c-12.22 9.745-28.673 17.418-42.81 22.82l-.243-1.125a15.433 15.433 0 0 0-5.845-8.378 276.721 276.721 0 0 0 49.228-31.815s3.154-2.866 6.882-5.776l-6.661 15.213zM519.847 114.862c-15.44 11.972-40.98 28.31-70.38 33.072a2.535 2.535 0 0 1 .11-3.55c17.535-5.644 41.906-14.86 61.05-27.317l9.22-2.205z" opacity=".15"/>
        <path fill="#E7A588" d="M527.698 159.134c-1.632-.154-4.41.683-4.41 1.3 0 .618 2.91-.154 3.11.794.198.949-4.258.993-4.214 1.985.045.992 4.61.264 4.897.661.287.397-3.286.485-2.956 1.544.331 1.058 4.412-.574 4.786.154.375.727-2.823.838-2.58 1.61.243.771 3.64-.706 4.786 1.565.97-.551 1.08-1.235 1.235-2.448a29.757 29.757 0 0 0-1.39-4.21c-1.146-3.131-3.264-2.955-3.264-2.955zM475.515 167.688c2.492-2.204 3.198-8.532 4.036-2.49.507 3.57-2.36 5.467-2.007 8.642l-2.03-6.152z"/>
        <path fill="#FFF" d="M206.26 203.759a6.773 6.773 0 0 0 6.616 0s-3.176 6.548-6.617 0zM399.6 216.634a6.884 6.884 0 0 0 6.616 0s-3.154 6.549-6.617 0z"/>
        <path fill="#ABCBF3" d="M230.035 69.4l-10.542-27.714h5.073a2.205 2.205 0 0 0 2.205-2.205V2.374A2.205 2.205 0 0 0 224.566.17h-44.884a2.205 2.205 0 0 0-2.205 2.204V39.46c0 1.217.987 2.204 2.205 2.204h31.628L230.035 69.4z" opacity=".5"/>
        <path fill="#FFF" d="M186.189 16.11h30.878v1.83h-30.878zM186.189 21.799h30.878v1.83h-30.878zM186.189 27.487h30.878v1.83h-30.878z"/>
        <path fill="#FA9A95" d="M343.18 31.433a9.531 9.531 0 0 1-2.205-.242c-5.347-1.218-8.695-6.538-7.477-11.884 1.219-5.345 6.541-8.692 11.888-7.474a.75.75 0 1 1-.308 1.455 8.404 8.404 0 0 0-9.252 4.21 8.398 8.398 0 0 0 1.575 10.04 8.405 8.405 0 0 0 10.097 1.176 8.399 8.399 0 0 0 3.843-9.407.727.727 0 0 1 .53-.904.728.728 0 0 1 .904.53 9.764 9.764 0 0 1 0 4.784 9.924 9.924 0 0 1-9.594 7.716z"/>
        <path fill="#FA9A95" d="M343.18 23.65a.684.684 0 0 1-.484-.198l-5.426-4.895a.75.75 0 0 1 0-1.058.706.706 0 0 1 1.037 0l4.874 4.41 12.285-13.714a.75.75 0 0 1 1.059 0 .705.705 0 0 1 0 1.036l-12.793 14.287a.794.794 0 0 1-.507.243l-.044-.11z"/>
    </g>
</svg>
