<svg xmlns="http://www.w3.org/2000/svg" xmlns:xlink="http://www.w3.org/1999/xlink" width="89" zoomAndPan="magnify" viewBox="0 0 66.75 65.249999" height="87" preserveAspectRatio="xMidYMid meet" version="1.0"><defs><clipPath id="c0e3d5be79"><path d="M 0.917969 0.480469 L 66 0.480469 L 66 63.503906 L 0.917969 63.503906 Z M 0.917969 0.480469 " clip-rule="nonzero"/></clipPath></defs><g clip-path="url(#c0e3d5be79)"><path fill="#0f4482" d="M 33.570312 28.425781 C 33.667969 28.457031 33.773438 28.472656 33.875 28.472656 C 33.976562 28.46875 34.078125 28.457031 34.175781 28.429688 C 37.199219 27.429688 39.796875 25.761719 41.960938 23.421875 C 44.207031 21.050781 45.441406 18.527344 45.441406 16.308594 L 45.441406 7.199219 C 45.441406 6.769531 45.253906 6.457031 44.871094 6.257812 L 34.371094 0.710938 C 34.039062 0.535156 33.710938 0.535156 33.378906 0.710938 L 22.949219 6.222656 C 22.753906 6.308594 22.601562 6.441406 22.484375 6.617188 C 22.371094 6.796875 22.3125 6.988281 22.3125 7.203125 L 22.3125 16.308594 C 22.3125 18.527344 23.546875 21.054688 25.792969 23.425781 C 27.957031 25.757812 30.546875 27.425781 33.570312 28.425781 Z M 24.449219 7.84375 L 33.878906 2.859375 L 43.300781 7.84375 L 43.300781 16.308594 C 43.300781 17.984375 42.277344 19.992188 40.414062 21.960938 C 38.582031 23.933594 36.402344 25.375 33.875 26.292969 C 31.347656 25.375 29.167969 23.933594 27.335938 21.960938 C 25.472656 19.992188 24.449219 17.984375 24.449219 16.308594 Z M 27.972656 15.953125 C 27.886719 15.839844 27.828125 15.710938 27.792969 15.574219 C 27.757812 15.433594 27.753906 15.292969 27.777344 15.152344 C 27.796875 15.011719 27.847656 14.878906 27.921875 14.757812 C 27.996094 14.636719 28.09375 14.535156 28.210938 14.453125 C 28.328125 14.367188 28.453125 14.3125 28.59375 14.28125 C 28.734375 14.25 28.875 14.246094 29.015625 14.269531 C 29.15625 14.296875 29.285156 14.347656 29.40625 14.421875 C 29.527344 14.5 29.625 14.597656 29.707031 14.71875 L 31.207031 16.8125 L 38.15625 9.851562 C 38.367188 9.648438 38.621094 9.550781 38.910156 9.546875 C 39.203125 9.546875 39.453125 9.648438 39.664062 9.847656 C 39.765625 9.945312 39.84375 10.0625 39.894531 10.191406 C 39.949219 10.324219 39.976562 10.457031 39.980469 10.601562 C 39.980469 10.742188 39.953125 10.878906 39.898438 11.007812 C 39.84375 11.136719 39.769531 11.253906 39.667969 11.355469 L 31.828125 19.207031 C 31.726562 19.304688 31.613281 19.382812 31.484375 19.4375 C 31.351562 19.492188 31.214844 19.519531 31.074219 19.519531 C 30.933594 19.519531 30.796875 19.492188 30.667969 19.441406 C 30.539062 19.386719 30.421875 19.308594 30.320312 19.210938 C 30.277344 19.167969 30.238281 19.121094 30.203125 19.070312 Z M 65.898438 30.464844 C 65.902344 29.8125 65.777344 29.183594 65.527344 28.578125 C 65.28125 27.976562 64.925781 27.445312 64.464844 26.980469 L 64.464844 26.976562 C 63.53125 26.046875 62.40625 25.570312 61.089844 25.542969 C 61.054688 25.222656 60.984375 24.90625 60.886719 24.59375 C 60.636719 23.84375 60.226562 23.191406 59.664062 22.632812 L 59.660156 22.632812 C 59.199219 22.171875 58.664062 21.820312 58.0625 21.570312 C 57.457031 21.320312 56.832031 21.199219 56.175781 21.199219 L 56.175781 21.195312 C 55.523438 21.195312 54.894531 21.316406 54.292969 21.566406 C 53.6875 21.816406 53.15625 22.171875 52.691406 22.632812 L 40.234375 35.089844 L 17.65625 35.109375 C 17.628906 35.105469 17.597656 35.101562 17.570312 35.097656 C 16.859375 35.050781 16.167969 35.152344 15.5 35.398438 C 14.863281 35.636719 14.296875 35.992188 13.808594 36.464844 L 13.742188 36.523438 L 1.226562 49.042969 C 1 49.269531 0.902344 49.542969 0.925781 49.859375 L 0.925781 62.664062 L 0.917969 62.757812 C 0.917969 62.894531 0.945312 63.027344 1 63.15625 C 1.050781 63.285156 1.128906 63.398438 1.226562 63.496094 C 1.324219 63.59375 1.4375 63.667969 1.566406 63.722656 C 1.691406 63.773438 1.824219 63.800781 1.964844 63.800781 L 13.363281 63.800781 C 13.660156 63.800781 13.910156 63.695312 14.113281 63.480469 L 16.953125 60.527344 L 43.058594 53.957031 C 43.976562 53.640625 44.816406 53.183594 45.582031 52.582031 C 46.398438 51.957031 47.164062 51.269531 47.875 50.527344 L 47.886719 50.511719 C 47.921875 50.488281 47.949219 50.460938 47.976562 50.429688 L 64.460938 33.949219 C 64.925781 33.484375 65.28125 32.953125 65.53125 32.347656 C 65.78125 31.746094 65.902344 31.117188 65.902344 30.464844 Z M 54.175781 24.113281 C 54.730469 23.558594 55.402344 23.285156 56.183594 23.285156 L 56.183594 23.28125 C 56.484375 23.285156 56.777344 23.332031 57.0625 23.425781 C 57.347656 23.515625 57.613281 23.652344 57.859375 23.828125 C 58.101562 24.003906 58.3125 24.210938 58.492188 24.453125 C 58.671875 24.695312 58.808594 24.957031 58.90625 25.242188 C 58.980469 25.46875 59.023438 25.699219 59.03125 25.9375 C 58.453125 26.1875 57.945312 26.53125 57.5 26.976562 L 45.539062 38.9375 C 45.328125 38.007812 44.886719 37.203125 44.210938 36.53125 C 43.789062 36.109375 43.304688 35.773438 42.757812 35.527344 Z M 63.816406 30.46875 C 63.816406 31.253906 63.542969 31.921875 62.988281 32.476562 L 46.507812 48.957031 C 46.492188 48.972656 46.476562 48.988281 46.460938 49.007812 C 46.445312 49.023438 46.414062 49.050781 46.386719 49.074219 C 45.753906 49.742188 45.070312 50.355469 44.339844 50.914062 C 43.78125 51.359375 43.164062 51.703125 42.496094 51.949219 L 16.15625 58.578125 C 15.945312 58.628906 15.765625 58.738281 15.621094 58.90625 L 12.925781 61.714844 L 3.003906 61.714844 L 3.003906 50.21875 L 15.265625 37.957031 C 15.542969 37.691406 15.863281 37.492188 16.226562 37.355469 C 16.613281 37.214844 17.015625 37.15625 17.429688 37.183594 C 17.449219 37.183594 17.46875 37.183594 17.488281 37.183594 C 17.53125 37.191406 17.578125 37.195312 17.621094 37.195312 L 40.726562 37.175781 L 40.726562 37.179688 C 41.511719 37.179688 42.175781 37.457031 42.730469 38.011719 L 42.730469 38.015625 C 43.285156 38.566406 43.566406 39.234375 43.570312 40.019531 L 43.5625 40.019531 C 43.5625 40.394531 43.488281 40.757812 43.34375 41.105469 C 43.199219 41.453125 42.996094 41.757812 42.730469 42.023438 C 42.464844 42.289062 42.15625 42.496094 41.808594 42.640625 C 41.460938 42.785156 41.101562 42.855469 40.722656 42.859375 L 24.644531 42.859375 C 24.503906 42.859375 24.371094 42.882812 24.242188 42.9375 C 24.117188 42.992188 24.003906 43.066406 23.90625 43.164062 C 23.804688 43.261719 23.730469 43.375 23.675781 43.503906 C 23.625 43.632812 23.597656 43.765625 23.597656 43.902344 C 23.597656 44.042969 23.625 44.175781 23.675781 44.304688 C 23.730469 44.429688 23.804688 44.542969 23.90625 44.640625 C 24.003906 44.742188 24.117188 44.816406 24.242188 44.867188 C 24.371094 44.921875 24.503906 44.949219 24.644531 44.949219 L 40.726562 44.949219 C 41.628906 44.945312 42.46875 44.710938 43.246094 44.25 C 44.019531 43.789062 44.625 43.160156 45.054688 42.371094 L 58.972656 28.457031 C 59.527344 27.902344 60.195312 27.628906 60.980469 27.628906 L 60.980469 27.625 C 61.359375 27.625 61.722656 27.695312 62.070312 27.839844 C 62.417969 27.984375 62.726562 28.1875 62.992188 28.457031 C 63.257812 28.722656 63.464844 29.03125 63.605469 29.378906 C 63.75 29.726562 63.820312 30.089844 63.816406 30.46875 Z M 63.816406 30.46875 " fill-opacity="1" fill-rule="nonzero"/></g></svg>