<svg xmlns="http://www.w3.org/2000/svg" xmlns:xlink="http://www.w3.org/1999/xlink" width="42" zoomAndPan="magnify" viewBox="0 0 31.5 31.499999" height="42" preserveAspectRatio="xMidYMid meet" version="1.0"><defs><clipPath id="ece5890a29"><path d="M 0.574219 0.1875 L 30.917969 0.1875 L 30.917969 30.53125 L 0.574219 30.53125 Z M 0.574219 0.1875 " clip-rule="nonzero"/></clipPath><clipPath id="82485152c3"><path d="M 8.695312 0.1875 L 22.796875 0.1875 C 24.949219 0.1875 27.015625 1.042969 28.539062 2.566406 C 30.0625 4.089844 30.917969 6.15625 30.917969 8.308594 L 30.917969 22.410156 C 30.917969 24.5625 30.0625 26.628906 28.539062 28.152344 C 27.015625 29.675781 24.949219 30.53125 22.796875 30.53125 L 8.695312 30.53125 C 6.539062 30.53125 4.476562 29.675781 2.953125 28.152344 C 1.429688 26.628906 0.574219 24.5625 0.574219 22.410156 L 0.574219 8.308594 C 0.574219 6.15625 1.429688 4.089844 2.953125 2.566406 C 4.476562 1.042969 6.539062 0.1875 8.695312 0.1875 Z M 8.695312 0.1875 " clip-rule="nonzero"/></clipPath><clipPath id="642566a2f0"><path d="M 0.574219 0.1875 L 30.84375 0.1875 L 30.84375 30.457031 L 0.574219 30.457031 Z M 0.574219 0.1875 " clip-rule="nonzero"/></clipPath><clipPath id="4cc703c305"><path d="M 8.691406 0.1875 L 22.792969 0.1875 C 24.945312 0.1875 27.011719 1.042969 28.535156 2.566406 C 30.054688 4.089844 30.910156 6.152344 30.910156 8.308594 L 30.910156 22.40625 C 30.910156 24.558594 30.054688 26.625 28.535156 28.148438 C 27.011719 29.671875 24.945312 30.527344 22.792969 30.527344 L 8.691406 30.527344 C 6.539062 30.527344 4.472656 29.671875 2.953125 28.148438 C 1.429688 26.625 0.574219 24.558594 0.574219 22.40625 L 0.574219 8.308594 C 0.574219 6.152344 1.429688 4.089844 2.953125 2.566406 C 4.472656 1.042969 6.539062 0.1875 8.691406 0.1875 Z M 8.691406 0.1875 " clip-rule="nonzero"/></clipPath><clipPath id="a1fab2361d"><path d="M 4.4375 8.039062 L 27.324219 8.039062 L 27.324219 22.804688 L 4.4375 22.804688 Z M 4.4375 8.039062 " clip-rule="nonzero"/></clipPath></defs><g clip-path="url(#ece5890a29)"><g clip-path="url(#82485152c3)"><path fill="#dee9f1" d="M 0.574219 0.1875 L 30.917969 0.1875 L 30.917969 30.53125 L 0.574219 30.53125 Z M 0.574219 0.1875 " fill-opacity="1" fill-rule="nonzero"/></g></g><g clip-path="url(#642566a2f0)"><g clip-path="url(#4cc703c305)"><path stroke-linecap="butt" transform="matrix(0.738281, 0, 0, 0.738281, 0.573279, 0.187829)" fill="none" stroke-linejoin="miter" d="M 10.995982 -0.000446134 L 30.096513 -0.000446134 C 33.011857 -0.000446134 35.810799 1.158284 37.874291 3.221776 C 39.932493 5.285269 41.091223 8.07892 41.091223 10.999555 L 41.091223 30.094794 C 41.091223 33.010138 39.932493 35.80908 37.874291 37.872573 C 35.810799 39.936065 33.011857 41.094795 30.096513 41.094795 L 10.995982 41.094795 C 8.080638 41.094795 5.281696 39.936065 3.223495 37.872573 C 1.160003 35.80908 0.00127265 33.010138 0.00127265 30.094794 L 0.00127265 10.999555 C 0.00127265 8.07892 1.160003 5.285269 3.223495 3.221776 C 5.281696 1.158284 8.080638 -0.000446134 10.995982 -0.000446134 Z M 10.995982 -0.000446134 " stroke="#dce2e6" stroke-width="2" stroke-opacity="1" stroke-miterlimit="4"/></g></g><g clip-path="url(#a1fab2361d)"><path fill="#0f4482" d="M 9.6875 19.832031 C 8.441406 19.832031 8.695312 20.003906 8.679688 18.136719 L 8.679688 16.746094 C 8.679688 16.335938 9.238281 16.441406 9.6875 16.441406 C 10.574219 16.441406 11.011719 17.515625 10.414062 18.136719 C 10.996094 18.757812 10.574219 19.832031 9.6875 19.832031 Z M 20.6875 20.851562 L 10.800781 20.851562 L 10.800781 21.457031 C 10.800781 22.132812 10.242188 22.675781 9.582031 22.675781 L 5.664062 22.675781 C 4.988281 22.675781 4.445312 22.132812 4.445312 21.457031 L 4.445312 18.453125 C 4.445312 17.792969 4.988281 17.238281 5.664062 17.238281 L 7.238281 17.238281 L 7.238281 16.640625 C 7.238281 15.964844 7.78125 15.421875 8.457031 15.421875 L 23.027344 15.421875 C 23.703125 15.421875 24.246094 15.964844 24.246094 16.640625 L 24.246094 17.238281 L 25.820312 17.238281 C 26.484375 17.238281 27.039062 17.792969 27.039062 18.453125 L 27.039062 21.457031 C 27.039062 22.132812 26.484375 22.675781 25.820312 22.675781 L 21.902344 22.675781 C 21.230469 22.675781 20.6875 22.132812 20.6875 21.457031 Z M 24.246094 17.859375 L 24.246094 19.632812 C 24.246094 20.253906 23.730469 20.835938 23.121094 20.851562 L 21.308594 20.851562 L 21.308594 21.457031 C 21.308594 21.789062 21.574219 22.054688 21.902344 22.054688 L 25.820312 22.054688 C 26.152344 22.054688 26.417969 21.789062 26.417969 21.457031 L 26.417969 18.453125 C 26.417969 18.125 26.152344 17.859375 25.820312 17.859375 Z M 8.457031 16.03125 C 8.125 16.03125 7.859375 16.308594 7.859375 16.640625 L 7.859375 19.632812 C 7.859375 19.964844 8.125 20.242188 8.457031 20.242188 L 23.027344 20.242188 C 23.359375 20.242188 23.625 19.964844 23.625 19.632812 L 23.625 16.640625 C 23.625 16.308594 23.359375 16.03125 23.027344 16.03125 Z M 5.664062 17.859375 C 5.332031 17.859375 5.066406 18.125 5.066406 18.453125 L 5.066406 21.457031 C 5.066406 21.789062 5.332031 22.054688 5.664062 22.054688 L 9.582031 22.054688 C 9.914062 22.054688 10.175781 21.789062 10.175781 21.457031 L 10.175781 20.851562 L 8.457031 20.851562 C 7.78125 20.851562 7.238281 20.308594 7.238281 19.632812 L 7.238281 17.859375 Z M 14.160156 14.640625 C 13.671875 14.640625 13.289062 14.179688 13.378906 13.703125 L 13.644531 12.351562 L 12.640625 11.414062 C 12.164062 10.964844 12.425781 10.128906 13.074219 10.050781 L 14.4375 9.878906 L 15.019531 8.632812 C 15.300781 8.039062 16.171875 8.039062 16.464844 8.632812 L 17.03125 9.878906 L 18.410156 10.050781 C 19.058594 10.128906 19.324219 10.964844 18.847656 11.414062 L 17.839844 12.351562 L 18.105469 13.703125 C 18.222656 14.339844 17.523438 14.855469 16.941406 14.535156 L 15.734375 13.875 L 14.542969 14.535156 C 14.414062 14.601562 14.28125 14.640625 14.160156 14.640625 Z M 15.734375 8.792969 C 15.667969 8.792969 15.617188 8.832031 15.589844 8.898438 L 14.929688 10.300781 C 14.890625 10.394531 14.796875 10.460938 14.691406 10.472656 L 13.15625 10.660156 C 13.007812 10.683594 12.957031 10.855469 13.0625 10.964844 L 14.1875 12.007812 C 14.265625 12.089844 14.292969 12.195312 14.28125 12.300781 L 13.988281 13.808594 C 13.960938 13.953125 14.109375 14.074219 14.238281 13.992188 L 15.589844 13.253906 C 15.683594 13.199219 15.789062 13.199219 15.894531 13.253906 L 17.246094 13.992188 C 17.363281 14.074219 17.523438 13.953125 17.496094 13.808594 L 17.203125 12.300781 C 17.179688 12.195312 17.21875 12.089844 17.285156 12.007812 L 18.421875 10.964844 C 18.527344 10.855469 18.460938 10.683594 18.316406 10.660156 L 16.792969 10.472656 C 16.6875 10.460938 16.597656 10.394531 16.542969 10.289062 L 15.894531 8.898438 C 15.867188 8.832031 15.816406 8.792969 15.734375 8.792969 Z M 20.328125 14.550781 C 19.957031 14.550781 19.667969 14.207031 19.734375 13.835938 L 19.878906 13.082031 C 19.46875 12.710938 19.003906 12.417969 19.152344 11.941406 C 19.308594 11.453125 19.867188 11.503906 20.40625 11.441406 C 20.644531 10.9375 20.777344 10.394531 21.28125 10.394531 C 21.785156 10.394531 21.917969 10.9375 22.140625 11.441406 C 22.699219 11.503906 23.242188 11.453125 23.398438 11.941406 C 23.558594 12.417969 23.082031 12.710938 22.683594 13.082031 C 22.789062 13.625 23.003906 14.140625 22.59375 14.429688 C 22.183594 14.734375 21.769531 14.378906 21.28125 14.101562 C 21.042969 14.230469 20.582031 14.550781 20.328125 14.550781 Z M 21.28125 13.4375 C 21.453125 13.4375 22.035156 13.820312 22.222656 13.914062 C 21.96875 12.65625 21.863281 13 22.789062 12.140625 C 21.519531 11.980469 21.824219 12.195312 21.28125 11.042969 C 20.738281 12.195312 21.03125 11.980469 19.757812 12.140625 C 20.699219 13 20.582031 12.65625 20.34375 13.914062 C 20.527344 13.808594 21.109375 13.4375 21.28125 13.4375 Z M 22.832031 12.140625 Z M 9.238281 14.550781 C 8.878906 14.550781 8.589844 14.207031 8.65625 13.835938 L 8.800781 13.082031 C 8.390625 12.710938 7.925781 12.417969 8.074219 11.941406 C 8.230469 11.453125 8.785156 11.503906 9.328125 11.441406 C 9.566406 10.9375 9.699219 10.394531 10.203125 10.394531 C 10.707031 10.394531 10.839844 10.9375 11.0625 11.441406 C 11.621094 11.503906 12.164062 11.453125 12.320312 11.941406 C 12.480469 12.417969 12.003906 12.710938 11.605469 13.082031 C 11.710938 13.625 11.925781 14.140625 11.511719 14.429688 C 11.101562 14.734375 10.679688 14.378906 10.203125 14.101562 C 9.964844 14.230469 9.5 14.550781 9.238281 14.550781 Z M 10.203125 13.4375 C 10.363281 13.4375 10.957031 13.820312 11.128906 13.914062 C 10.890625 12.65625 10.773438 13 11.710938 12.140625 C 10.441406 11.980469 10.734375 12.195312 10.203125 11.042969 C 9.660156 12.195312 9.953125 11.980469 8.679688 12.140625 C 9.621094 13 9.5 12.65625 9.261719 13.914062 C 9.4375 13.808594 10.019531 13.4375 10.203125 13.4375 Z M 11.75 12.140625 Z M 19.335938 19.832031 C 19.230469 19.832031 19.136719 19.792969 19.085938 19.710938 L 17.617188 17.699219 L 17.617188 19.527344 C 17.617188 19.921875 17.007812 19.921875 17.007812 19.527344 L 17.007812 16.761719 C 17.007812 16.46875 17.390625 16.335938 17.5625 16.574219 L 19.019531 18.585938 L 19.019531 16.761719 C 19.019531 16.363281 19.640625 16.363281 19.640625 16.761719 L 19.640625 19.527344 C 19.640625 19.699219 19.496094 19.832031 19.335938 19.832031 Z M 21.480469 19.832031 L 20.472656 19.832031 C 20.300781 19.832031 20.167969 19.699219 20.167969 19.527344 L 20.167969 16.761719 C 20.167969 16.589844 20.300781 16.457031 20.472656 16.457031 L 21.480469 16.457031 C 22.207031 16.457031 22.804688 17.039062 22.804688 17.765625 L 22.804688 18.519531 C 22.804688 19.25 22.207031 19.832031 21.480469 19.832031 Z M 20.777344 19.222656 L 21.480469 19.222656 C 21.878906 19.222656 22.183594 18.90625 22.183594 18.519531 L 22.183594 17.78125 C 22.183594 17.382812 21.878906 17.078125 21.480469 17.078125 L 20.777344 17.078125 Z M 16.171875 19.832031 C 15.761719 19.832031 15.867188 19.273438 15.867188 18.878906 L 14.757812 18.878906 C 14.757812 19.273438 14.863281 19.84375 14.453125 19.84375 C 14.28125 19.84375 14.132812 19.699219 14.132812 19.527344 L 14.132812 17.605469 C 14.132812 16.957031 14.664062 16.441406 15.3125 16.441406 C 15.960938 16.441406 16.476562 16.957031 16.476562 17.605469 L 16.476562 19.527344 C 16.476562 19.699219 16.34375 19.832031 16.171875 19.832031 Z M 15.867188 18.257812 L 15.867188 17.605469 C 15.867188 16.878906 14.757812 16.878906 14.757812 17.605469 L 14.757812 18.257812 Z M 11.511719 19.832031 C 11.339844 19.832031 11.210938 19.699219 11.210938 19.527344 L 11.210938 16.746094 C 11.210938 16.574219 11.355469 16.441406 11.527344 16.441406 L 12.519531 16.441406 C 13.738281 16.441406 14.015625 18.109375 12.929688 18.546875 L 13.261719 19.421875 C 13.394531 19.804688 12.8125 20.015625 12.679688 19.632812 L 12.308594 18.625 L 11.832031 18.625 L 11.832031 19.527344 C 11.832031 19.699219 11.6875 19.832031 11.511719 19.832031 Z M 11.832031 17.050781 L 11.832031 18.019531 C 12.242188 18.019531 12.996094 18.148438 12.996094 17.527344 C 12.996094 17.261719 12.785156 17.050781 12.519531 17.050781 Z M 9.289062 17.832031 C 9.59375 17.832031 10.070312 17.886719 10.070312 17.433594 C 10.070312 17 9.59375 17.050781 9.289062 17.050781 Z M 9.289062 19.222656 C 9.59375 19.222656 10.070312 19.273438 10.070312 18.839844 C 10.070312 18.386719 9.59375 18.441406 9.289062 18.441406 Z M 9.6875 18.441406 Z M 9.6875 18.441406 " fill-opacity="1" fill-rule="evenodd"/></g></svg>