<svg xmlns="http://www.w3.org/2000/svg" xmlns:xlink="http://www.w3.org/1999/xlink" width="82" zoomAndPan="magnify" viewBox="0 0 61.5 65.249999" height="87" preserveAspectRatio="xMidYMid meet" version="1.0"><defs><clipPath id="3ca72ebc6d"><path d="M 1 5 L 59.980469 5 L 59.980469 63.503906 L 1 63.503906 Z M 1 5 " clip-rule="nonzero"/></clipPath></defs><g clip-path="url(#3ca72ebc6d)"><path fill="#0f4482" d="M 42.65625 20.414062 C 42.65625 13.757812 37.242188 8.339844 30.582031 8.339844 C 14.570312 9.007812 14.570312 31.820312 30.582031 32.488281 C 37.242188 32.488281 42.65625 27.074219 42.65625 20.414062 Z M 30.59375 31.265625 C 24.613281 31.265625 19.742188 26.40625 19.742188 20.414062 C 20.339844 6.027344 40.847656 6.027344 41.433594 20.414062 C 41.433594 26.394531 36.574219 31.265625 30.59375 31.265625 Z M 57.945312 23.640625 C 56.652344 23.226562 55.132812 23.894531 54.570312 25.128906 L 47.75 39.320312 C 46.652344 38.085938 44.625 38.007812 43.429688 39.148438 C 43.429688 39.148438 37.714844 44.515625 37.714844 44.515625 C 37.242188 44.964844 36.882812 45.53125 36.699219 46.164062 L 34.15625 54.621094 C 33.164062 54.226562 32.023438 54.734375 31.710938 55.773438 L 31.195312 57.511719 C 30.894531 58.433594 31.46875 59.503906 32.402344 59.769531 C 32.402344 59.769531 44.601562 63.457031 44.601562 63.457031 C 45.535156 63.746094 46.574219 63.214844 46.863281 62.246094 L 47.378906 60.507812 C 47.679688 59.585938 47.113281 58.523438 46.183594 58.261719 C 46.597656 56.808594 47.058594 55.09375 48.222656 54.042969 C 48.222656 54.042969 52.554688 49.757812 52.554688 49.757812 C 53.773438 48.546875 54.648438 47.027344 55.085938 45.367188 C 55.085938 45.367188 59.867188 27.085938 59.867188 27.085938 C 60.261719 25.585938 59.40625 24.089844 57.945312 23.640625 Z M 46.203125 60.148438 L 45.6875 61.890625 C 45.59375 62.199219 45.261719 62.375 44.960938 62.28125 L 32.761719 58.59375 C 32.449219 58.503906 32.277344 58.167969 32.367188 57.867188 L 32.886719 56.128906 C 32.980469 55.816406 33.3125 55.644531 33.613281 55.738281 L 45.8125 59.425781 C 46.125 59.515625 46.296875 59.839844 46.203125 60.148438 Z M 58.683594 26.761719 L 53.902344 45.046875 C 53.519531 46.496094 52.75 47.824219 51.6875 48.882812 L 47.355469 53.167969 C 46.492188 54.019531 45.859375 55.082031 45.511719 56.246094 L 45.019531 57.890625 L 35.964844 55.160156 L 35.328125 54.976562 L 37.886719 46.519531 C 38.023438 46.070312 38.277344 45.667969 38.636719 45.355469 C 38.636719 45.355469 44.28125 40.046875 44.28125 40.046875 C 44.753906 39.609375 45.433594 39.445312 46.042969 39.632812 C 47.34375 39.976562 47.761719 41.785156 46.746094 42.660156 L 42.21875 46.925781 C 41.976562 47.15625 41.964844 47.546875 42.195312 47.789062 C 42.425781 48.03125 42.816406 48.042969 43.058594 47.8125 L 47.585938 43.558594 C 48.382812 42.824219 48.703125 41.714844 48.464844 40.679688 L 55.6875 25.65625 C 56.515625 23.929688 59.164062 24.898438 58.683594 26.761719 Z M 29.464844 55.773438 C 29.15625 54.734375 28.015625 54.226562 27.023438 54.621094 L 24.476562 46.164062 C 24.292969 45.542969 23.933594 44.964844 23.464844 44.515625 L 17.75 39.148438 C 16.5625 38.007812 14.523438 38.078125 13.441406 39.320312 L 6.609375 25.128906 C 6.320312 24.515625 5.8125 24.03125 5.203125 23.757812 C 3.117188 22.777344 0.664062 24.839844 1.320312 27.0625 C 1.320312 27.0625 6.101562 45.34375 6.101562 45.34375 C 6.539062 47.003906 7.414062 48.523438 8.636719 49.734375 L 12.96875 54.019531 C 14.132812 55.070312 14.59375 56.773438 15.007812 58.238281 C 14.0625 58.535156 13.519531 59.539062 13.808594 60.484375 L 14.328125 62.222656 C 14.617188 63.191406 15.652344 63.722656 16.585938 63.433594 L 28.785156 59.746094 C 29.71875 59.480469 30.292969 58.421875 29.996094 57.488281 Z M 13.820312 53.167969 L 9.5 48.882812 C 8.429688 47.824219 7.667969 46.496094 7.289062 45.046875 L 2.496094 26.761719 C 2.011719 24.898438 4.660156 23.929688 5.503906 25.65625 C 5.503906 25.65625 12.726562 40.679688 12.726562 40.679688 C 12.484375 41.714844 12.816406 42.824219 13.601562 43.558594 L 18.128906 47.8125 C 18.371094 48.042969 18.761719 48.03125 18.992188 47.789062 C 19.222656 47.546875 19.210938 47.15625 18.96875 46.925781 L 14.441406 42.671875 C 13.441406 41.796875 13.855469 39.988281 15.144531 39.644531 C 15.753906 39.457031 16.4375 39.621094 16.90625 40.058594 C 16.90625 40.058594 22.554688 45.367188 22.554688 45.367188 C 22.898438 45.679688 23.164062 46.082031 23.300781 46.53125 L 25.859375 54.988281 C 24.972656 55.253906 17.265625 57.582031 16.171875 57.914062 C 15.710938 56.234375 15.132812 54.367188 13.820312 53.167969 Z M 28.429688 58.59375 L 16.226562 62.28125 C 15.917969 62.375 15.59375 62.199219 15.503906 61.890625 L 14.984375 60.148438 C 14.890625 59.839844 15.066406 59.515625 15.375 59.425781 L 27.574219 55.738281 C 27.632812 55.726562 27.691406 55.714844 27.75 55.714844 C 28.003906 55.714844 28.234375 55.875 28.3125 56.128906 L 28.84375 57.867188 C 28.914062 58.167969 28.726562 58.503906 28.429688 58.59375 Z M 37.34375 39.457031 C 37.242188 39.25 37.035156 39.113281 36.792969 39.113281 L 34.28125 39.113281 L 34.28125 34.929688 C 40.847656 33.261719 45.570312 27.234375 45.570312 20.402344 C 44.753906 0.53125 16.425781 0.542969 15.605469 20.414062 C 15.605469 27.234375 20.328125 33.273438 26.894531 34.941406 L 26.894531 39.125 L 24.386719 39.125 C 23.890625 39.113281 23.589844 39.722656 23.902344 40.105469 L 30.109375 48.261719 C 30.226562 48.410156 30.410156 48.503906 30.59375 48.503906 C 30.789062 48.503906 30.964844 48.410156 31.078125 48.261719 L 37.289062 40.105469 C 37.425781 39.90625 37.449219 39.667969 37.34375 39.457031 Z M 30.59375 46.878906 L 25.628906 40.335938 L 27.519531 40.335938 C 27.851562 40.335938 28.128906 40.058594 28.128906 39.722656 L 28.128906 34.445312 C 28.128906 34.160156 27.933594 33.90625 27.644531 33.847656 C 21.378906 32.476562 16.839844 26.832031 16.839844 20.402344 C 17.585938 2.15625 43.601562 2.144531 44.363281 20.402344 C 44.363281 26.820312 39.8125 32.476562 33.554688 33.847656 C 33.277344 33.90625 33.070312 34.160156 33.070312 34.445312 L 33.070312 39.722656 C 33.070312 40.058594 33.347656 40.335938 33.683594 40.335938 L 35.570312 40.335938 Z M 33.84375 15.207031 C 34.636719 15.207031 34.636719 13.988281 33.84375 13.988281 L 31.203125 13.988281 L 31.203125 12.859375 C 31.203125 12.523438 30.929688 12.246094 30.59375 12.246094 C 30.261719 12.246094 29.984375 12.523438 29.984375 12.859375 L 29.984375 14 C 25.675781 14.332031 25.6875 20.519531 29.984375 20.851562 L 29.984375 25.300781 L 27.34375 25.300781 C 27.011719 25.300781 26.734375 25.578125 26.734375 25.910156 C 26.734375 26.246094 27.011719 26.519531 27.34375 26.519531 L 29.984375 26.519531 L 29.984375 27.648438 C 29.984375 27.984375 30.261719 28.261719 30.59375 28.261719 C 30.929688 28.261719 31.203125 27.984375 31.203125 27.648438 L 31.203125 26.507812 C 35.515625 26.164062 35.503906 19.988281 31.203125 19.65625 L 31.203125 15.207031 Z M 29.972656 19.621094 C 28.84375 19.527344 27.945312 18.582031 27.945312 17.417969 C 27.945312 16.269531 28.84375 15.324219 29.972656 15.21875 Z M 33.234375 23.078125 C 33.234375 24.226562 32.335938 25.171875 31.203125 25.277344 L 31.203125 20.886719 C 32.335938 20.980469 33.234375 21.925781 33.234375 23.078125 Z M 33.234375 23.078125 " fill-opacity="1" fill-rule="nonzero"/></g></svg>