<svg xmlns="http://www.w3.org/2000/svg" xmlns:xlink="http://www.w3.org/1999/xlink" width="50" zoomAndPan="magnify" viewBox="0 0 37.5 39.749999" height="53" preserveAspectRatio="xMidYMid meet" version="1.0"><defs><clipPath id="a9202cf06f"><path d="M 0.546875 0.585938 L 36.628906 0.585938 L 36.628906 38.734375 L 0.546875 38.734375 Z M 0.546875 0.585938 " clip-rule="nonzero"/></clipPath><clipPath id="66bed8a868"><path d="M 8.691406 0.585938 L 28.488281 0.585938 C 30.644531 0.585938 32.71875 1.445312 34.242188 2.972656 C 35.769531 4.5 36.628906 6.570312 36.628906 8.730469 L 36.628906 30.589844 C 36.628906 32.75 35.769531 34.820312 34.242188 36.347656 C 32.71875 37.875 30.644531 38.734375 28.488281 38.734375 L 8.691406 38.734375 C 6.53125 38.734375 4.460938 37.875 2.933594 36.347656 C 1.40625 34.820312 0.546875 32.75 0.546875 30.589844 L 0.546875 8.730469 C 0.546875 6.570312 1.40625 4.5 2.933594 2.972656 C 4.460938 1.445312 6.53125 0.585938 8.691406 0.585938 Z M 8.691406 0.585938 " clip-rule="nonzero"/></clipPath><clipPath id="eab8a0dc39"><path d="M 0.546875 0.589844 L 36.816406 0.589844 L 36.816406 39 L 0.546875 39 Z M 0.546875 0.589844 " clip-rule="nonzero"/></clipPath><clipPath id="2bc1f0d97d"><path d="M 8.6875 0.589844 L 28.480469 0.589844 C 30.636719 0.589844 32.707031 1.449219 34.234375 2.972656 C 35.761719 4.5 36.617188 6.570312 36.617188 8.730469 L 36.617188 30.585938 C 36.617188 32.742188 35.761719 34.8125 34.234375 36.339844 C 32.707031 37.867188 30.636719 38.722656 28.480469 38.722656 L 8.6875 38.722656 C 6.527344 38.722656 4.457031 37.867188 2.933594 36.339844 C 1.40625 34.8125 0.546875 32.742188 0.546875 30.585938 L 0.546875 8.730469 C 0.546875 6.570312 1.40625 4.5 2.933594 2.972656 C 4.457031 1.449219 6.527344 0.589844 8.6875 0.589844 Z M 8.6875 0.589844 " clip-rule="nonzero"/></clipPath><clipPath id="f168c053bc"><path d="M 5.109375 6 L 31.753906 6 L 31.753906 33.378906 L 5.109375 33.378906 Z M 5.109375 6 " clip-rule="nonzero"/></clipPath></defs><g clip-path="url(#a9202cf06f)"><g clip-path="url(#66bed8a868)"><path fill="#dee9f1" d="M 0.546875 0.585938 L 36.628906 0.585938 L 36.628906 38.734375 L 0.546875 38.734375 Z M 0.546875 0.585938 " fill-opacity="1" fill-rule="nonzero"/></g></g><g clip-path="url(#eab8a0dc39)"><g clip-path="url(#2bc1f0d97d)"><path stroke-linecap="butt" transform="matrix(0.740132, 0, 0, 0.740132, 0.548287, 0.590199)" fill="none" stroke-linejoin="miter" d="M 10.99698 -0.000479345 L 37.73948 -0.000479345 C 40.652813 -0.000479345 43.450035 1.160632 45.513646 3.218965 C 47.577257 5.282576 48.733091 8.079798 48.733091 10.998409 L 48.733091 40.527575 C 48.733091 43.440909 47.577257 46.238131 45.513646 48.301742 C 43.450035 50.365353 40.652813 51.521186 37.73948 51.521186 L 10.99698 51.521186 C 8.078369 51.521186 5.281147 50.365353 3.222814 48.301742 C 1.159203 46.238131 -0.00190836 43.440909 -0.00190836 40.527575 L -0.00190836 10.998409 C -0.00190836 8.079798 1.159203 5.282576 3.222814 3.218965 C 5.281147 1.160632 8.078369 -0.000479345 10.99698 -0.000479345 Z M 10.99698 -0.000479345 " stroke="#dce2e6" stroke-width="2" stroke-opacity="1" stroke-miterlimit="4"/></g></g><g clip-path="url(#f168c053bc)"><path fill="#0f4482" d="M 21.042969 22.703125 C 22.28125 22.308594 22.835938 22.796875 23.140625 23.308594 C 24.273438 23.019531 24.726562 23.542969 24.957031 23.792969 C 25 23.824219 25.121094 23.988281 25.363281 23.945312 C 26.25 23.796875 26.84375 24.398438 26.859375 24.972656 L 27.015625 30.167969 C 27.027344 30.550781 26.972656 30.875 26.847656 31.238281 L 26.378906 32.601562 C 26.230469 33.039062 25.835938 33.320312 25.375 33.320312 L 19.640625 33.320312 C 19.253906 33.320312 18.925781 33.132812 18.726562 32.804688 L 17.03125 29.964844 C 16.816406 29.605469 16.664062 29.277344 16.527344 28.882812 L 15.179688 24.988281 C 14.429688 23.160156 16.53125 22.410156 17.265625 23.980469 L 18.695312 26.96875 L 18.179688 17.632812 C 18.058594 16.140625 19.859375 15.988281 20.027344 17.433594 L 20.613281 22.464844 C 20.644531 22.742188 20.90625 22.746094 21.042969 22.703125 Z M 27.738281 13.515625 C 30.121094 13.515625 32.054688 15.449219 32.054688 17.835938 C 32.054688 20.21875 30.121094 22.152344 27.738281 22.152344 C 25.351562 22.152344 23.417969 20.21875 23.417969 17.835938 C 23.417969 15.449219 25.351562 13.515625 27.738281 13.515625 Z M 9.429688 13.515625 C 11.8125 13.515625 13.746094 15.449219 13.746094 17.835938 C 13.746094 20.21875 11.8125 22.152344 9.429688 22.152344 C 7.042969 22.152344 5.109375 20.21875 5.109375 17.835938 C 5.109375 15.449219 7.042969 13.515625 9.429688 13.515625 Z M 19.699219 6.613281 C 22.003906 7.230469 23.371094 9.597656 22.753906 11.898438 C 22.136719 14.203125 19.769531 15.570312 17.464844 14.953125 C 15.164062 14.335938 13.796875 11.96875 14.414062 9.664062 C 15.03125 7.359375 17.398438 5.996094 19.699219 6.613281 Z M 17.046875 10.09375 L 17.964844 11.152344 L 20.214844 8.855469 C 20.3125 8.757812 20.476562 8.761719 20.570312 8.863281 L 21.09375 9.410156 C 21.191406 9.511719 21.183594 9.667969 21.085938 9.769531 L 18.375 12.488281 C 18.054688 12.796875 17.714844 12.769531 17.453125 12.460938 L 16.09375 10.917969 C 16 10.8125 16.015625 10.652344 16.121094 10.5625 L 16.691406 10.066406 C 16.742188 10.019531 16.804688 10 16.875 10.007812 C 16.945312 10.011719 17.003906 10.039062 17.046875 10.09375 Z M 17.046875 10.09375 " fill-opacity="1" fill-rule="evenodd"/></g></svg>