<svg xmlns="http://www.w3.org/2000/svg" xmlns:xlink="http://www.w3.org/1999/xlink" width="74" zoomAndPan="magnify" viewBox="0 0 55.5 54" height="72" preserveAspectRatio="xMidYMid meet" version="1.0"><defs><clipPath id="d0e17f191f"><path d="M 0.613281 42 L 17 42 L 17 50 L 0.613281 50 Z M 0.613281 42 " clip-rule="nonzero"/></clipPath><clipPath id="430fe780ee"><path d="M 39 42 L 54.75 42 L 54.75 50 L 39 50 Z M 39 42 " clip-rule="nonzero"/></clipPath><clipPath id="634c3651ee"><path d="M 23 0.433594 L 32 0.433594 L 32 12 L 23 12 Z M 23 0.433594 " clip-rule="nonzero"/></clipPath><clipPath id="8c2f3bad5a"><path d="M 26 51 L 29 51 L 29 53.019531 L 26 53.019531 Z M 26 51 " clip-rule="nonzero"/></clipPath></defs><g clip-path="url(#d0e17f191f)"><path fill="#2298d5" d="M 12.046875 42.730469 C 12.152344 42.78125 12.257812 42.828125 12.367188 42.878906 C 12.734375 43.109375 13.117188 43.300781 13.542969 43.402344 C 13.613281 43.519531 13.738281 43.515625 13.847656 43.542969 C 14.160156 43.675781 14.472656 43.816406 14.785156 43.949219 C 14.933594 44.0625 15.082031 44.179688 15.230469 44.289062 C 15.441406 44.621094 15.652344 44.949219 15.863281 45.28125 C 15.875 45.414062 15.867188 45.558594 15.96875 45.671875 C 16.019531 46.082031 16.066406 46.488281 16.117188 46.898438 C 16.125 47.074219 16.132812 47.253906 16.136719 47.433594 C 16.121094 47.925781 16.109375 48.421875 16.175781 48.917969 C 16.160156 49.164062 16.132812 49.40625 15.78125 49.351562 C 15.25 49.351562 14.71875 49.355469 14.183594 49.355469 C 14.007812 49.355469 13.828125 49.351562 13.648438 49.351562 C 13.117188 49.351562 12.585938 49.355469 12.050781 49.355469 C 11.875 49.355469 11.695312 49.351562 11.515625 49.351562 C 10.984375 49.351562 10.449219 49.355469 9.917969 49.355469 C 9.738281 49.355469 9.558594 49.351562 9.382812 49.351562 C 8.847656 49.351562 8.316406 49.355469 7.785156 49.355469 C 7.605469 49.355469 7.425781 49.351562 7.25 49.351562 C 6.714844 49.351562 6.183594 49.355469 5.652344 49.355469 C 5.472656 49.355469 5.292969 49.351562 5.113281 49.351562 C 4.582031 49.351562 4.050781 49.355469 3.515625 49.355469 C 3.335938 49.355469 3.160156 49.351562 2.980469 49.351562 C 2.324219 49.347656 1.667969 49.332031 1.011719 49.339844 C 0.769531 49.339844 0.65625 49.285156 0.667969 49.015625 C 0.703125 48.0625 0.699219 47.113281 0.796875 46.164062 C 0.925781 44.953125 1.515625 44.089844 2.675781 43.640625 C 2.972656 43.574219 3.257812 43.472656 3.511719 43.300781 C 4.15625 43.101562 4.722656 42.75 5.316406 42.453125 C 5.449219 42.390625 5.5625 42.160156 5.765625 42.335938 C 5.8125 42.484375 5.855469 42.632812 5.902344 42.777344 C 6.027344 43.160156 6.15625 43.546875 6.285156 43.929688 C 6.265625 44.089844 6.339844 44.222656 6.410156 44.351562 C 6.535156 44.75 6.65625 45.140625 6.78125 45.535156 C 6.8125 45.640625 6.847656 45.742188 6.878906 45.847656 C 7.007812 46.320312 7.117188 46.804688 7.382812 47.328125 C 7.574219 46.78125 7.71875 46.3125 7.90625 45.863281 C 8.007812 45.621094 7.941406 45.464844 7.769531 45.3125 C 7.703125 45.203125 7.636719 45.097656 7.574219 44.988281 C 7.53125 44.855469 7.492188 44.722656 7.449219 44.589844 C 7.25 43.953125 7.46875 43.585938 8.117188 43.4375 C 8.445312 43.363281 8.742188 43.472656 9.050781 43.535156 C 9.160156 43.636719 9.265625 43.742188 9.375 43.84375 C 9.546875 44.492188 9.1875 44.988281 8.894531 45.503906 C 8.757812 45.773438 8.945312 45.972656 9.046875 46.1875 C 9.164062 46.558594 9.28125 46.929688 9.445312 47.445312 C 9.699219 46.601562 9.910156 45.902344 10.121094 45.199219 C 10.238281 44.964844 10.328125 44.722656 10.339844 44.457031 C 10.476562 44.082031 10.617188 43.703125 10.75 43.320312 C 10.863281 42.992188 10.875 42.503906 11.101562 42.359375 C 11.398438 42.175781 11.691406 42.671875 12.046875 42.730469 Z M 12.046875 42.730469 " fill-opacity="1" fill-rule="nonzero"/></g><g clip-path="url(#430fe780ee)"><path fill="#2298d5" d="M 53.746094 44.179688 C 54.402344 44.796875 54.632812 45.601562 54.699219 46.453125 C 54.761719 47.3125 54.765625 48.175781 54.792969 49.035156 C 54.796875 49.171875 54.820312 49.324219 54.617188 49.355469 C 54.476562 49.351562 54.332031 49.351562 54.191406 49.351562 C 53.65625 49.351562 53.125 49.355469 52.59375 49.355469 C 52.414062 49.355469 52.234375 49.351562 52.058594 49.351562 C 51.523438 49.351562 50.992188 49.355469 50.457031 49.355469 C 50.28125 49.355469 50.101562 49.351562 49.921875 49.351562 C 49.390625 49.351562 48.859375 49.355469 48.324219 49.355469 C 48.144531 49.355469 47.96875 49.351562 47.789062 49.351562 C 47.257812 49.351562 46.722656 49.355469 46.191406 49.355469 C 46.011719 49.355469 45.835938 49.351562 45.65625 49.351562 C 45.125 49.351562 44.589844 49.355469 44.058594 49.355469 C 43.878906 49.355469 43.699219 49.351562 43.519531 49.351562 C 42.988281 49.351562 42.457031 49.355469 41.925781 49.355469 C 41.746094 49.355469 41.566406 49.351562 41.386719 49.351562 C 40.855469 49.351562 40.324219 49.355469 39.789062 49.355469 C 39.648438 49.351562 39.507812 49.34375 39.367188 49.339844 C 39.351562 48.878906 39.339844 48.421875 39.328125 47.960938 C 39.332031 47.785156 39.335938 47.605469 39.335938 47.425781 C 39.386719 46.863281 39.4375 46.296875 39.488281 45.730469 C 39.585938 45.449219 39.683594 45.164062 39.78125 44.882812 C 40.058594 44.449219 40.433594 44.113281 40.863281 43.835938 C 41.144531 43.722656 41.429688 43.609375 41.714844 43.496094 C 42.648438 43.191406 43.488281 42.6875 44.355469 42.242188 C 44.402344 42.347656 44.449219 42.449219 44.492188 42.546875 C 44.574219 42.992188 44.707031 43.421875 44.898438 43.828125 C 44.902344 43.945312 44.886719 44.066406 45 44.144531 C 45.054688 44.550781 45.207031 44.929688 45.351562 45.308594 C 45.378906 45.496094 45.417969 45.683594 45.539062 45.84375 C 45.625 46.335938 45.792969 46.804688 46.015625 47.332031 C 46.1875 46.863281 46.316406 46.453125 46.488281 46.066406 C 46.644531 45.722656 46.621094 45.4375 46.335938 45.183594 C 46.257812 45.035156 46.183594 44.886719 46.105469 44.738281 C 45.941406 43.855469 46.140625 43.507812 46.878906 43.425781 C 47.050781 43.40625 47.230469 43.433594 47.40625 43.441406 C 47.570312 43.527344 47.738281 43.613281 47.902344 43.699219 C 48.222656 44.148438 48.015625 44.570312 47.84375 44.996094 C 47.757812 45.277344 47.3125 45.445312 47.570312 45.839844 C 47.65625 46.339844 47.890625 46.789062 48.09375 47.421875 C 48.378906 46.484375 48.617188 45.683594 48.859375 44.882812 C 48.984375 44.652344 49.070312 44.410156 49.085938 44.144531 C 49.304688 43.519531 49.523438 42.894531 49.746094 42.257812 C 49.972656 42.363281 50.191406 42.46875 50.414062 42.570312 C 50.570312 42.660156 50.730469 42.75 50.886719 42.835938 C 51.230469 43.015625 51.5625 43.214844 51.949219 43.304688 C 52.066406 43.421875 52.21875 43.46875 52.378906 43.492188 C 52.730469 43.648438 53.082031 43.800781 53.4375 43.953125 C 53.539062 44.03125 53.640625 44.105469 53.746094 44.179688 Z M 53.746094 44.179688 " fill-opacity="1" fill-rule="nonzero"/></g><path fill="#2298d5" d="M 30.613281 18.183594 C 30.4375 18.183594 30.257812 18.179688 30.078125 18.179688 C 29.546875 18.179688 29.015625 18.179688 28.480469 18.183594 C 28.300781 18.183594 28.125 18.179688 27.945312 18.179688 C 27.414062 18.179688 26.878906 18.179688 26.347656 18.183594 C 26.167969 18.183594 25.992188 18.179688 25.8125 18.179688 C 25.277344 18.179688 24.746094 18.179688 24.214844 18.183594 C 24.035156 18.183594 23.855469 18.179688 23.675781 18.179688 C 23.144531 18.179688 22.613281 18.179688 22.078125 18.183594 C 21.902344 18.183594 21.722656 18.179688 21.542969 18.179688 C 21.046875 18.175781 20.546875 18.171875 20.050781 18.167969 C 20.027344 18.058594 20.003906 17.949219 19.980469 17.839844 C 20.066406 17.3125 20.03125 16.785156 20.03125 16.257812 C 20.03125 16.078125 20.035156 15.902344 20.035156 15.722656 C 20.121094 15.039062 20.210938 14.351562 20.484375 13.707031 C 20.765625 13.300781 21.105469 12.957031 21.539062 12.703125 C 22.515625 12.296875 23.527344 11.953125 24.421875 11.371094 C 24.488281 11.347656 24.5625 11.339844 24.613281 11.296875 C 24.949219 11.027344 25.089844 11.140625 25.183594 11.523438 C 25.28125 11.910156 25.445312 12.28125 25.582031 12.65625 C 25.636719 13.0625 25.792969 13.4375 25.933594 13.816406 C 26.148438 14.597656 26.375 15.378906 26.683594 16.140625 C 27.1875 15.203125 27.46875 14.289062 26.761719 13.359375 C 26.742188 13.335938 26.726562 13.304688 26.707031 13.273438 C 26.707031 12.523438 26.878906 12.363281 27.839844 12.222656 C 27.914062 12.234375 27.988281 12.25 28.0625 12.265625 C 28.460938 12.398438 28.746094 12.628906 28.792969 13.074219 C 28.71875 13.320312 28.644531 13.566406 28.570312 13.8125 C 28.046875 14.578125 28.046875 14.585938 28.808594 16.171875 C 29.148438 15.0625 29.472656 14.015625 29.792969 12.964844 C 29.929688 12.699219 30.007812 12.414062 30.0625 12.121094 C 30.183594 11.777344 30.308594 11.4375 30.433594 11.09375 C 30.605469 11.171875 30.761719 11.246094 30.921875 11.320312 C 30.976562 11.347656 31.03125 11.375 31.085938 11.402344 C 31.46875 11.664062 31.875 11.871094 32.320312 12.007812 C 32.398438 12.105469 32.507812 12.136719 32.625 12.148438 C 32.949219 12.347656 33.300781 12.46875 33.664062 12.566406 C 33.816406 12.644531 33.960938 12.726562 34.109375 12.804688 C 34.359375 13.039062 34.609375 13.273438 34.859375 13.507812 C 34.917969 13.617188 34.972656 13.726562 35.03125 13.832031 C 35.132812 14.230469 35.238281 14.625 35.339844 15.019531 C 35.367188 15.183594 35.394531 15.351562 35.421875 15.515625 C 35.433594 16.042969 35.441406 16.574219 35.449219 17.101562 C 35.457031 17.28125 35.460938 17.460938 35.464844 17.636719 C 35.53125 18.097656 35.296875 18.238281 34.882812 18.1875 C 34.703125 18.183594 34.523438 18.183594 34.34375 18.179688 C 33.8125 18.183594 33.28125 18.183594 32.746094 18.1875 C 32.566406 18.183594 32.390625 18.183594 32.210938 18.179688 C 31.679688 18.179688 31.148438 18.179688 30.613281 18.183594 Z M 30.613281 18.183594 " fill-opacity="1" fill-rule="nonzero"/><path fill="#2298d5" d="M 43.183594 35.128906 C 43.589844 33.1875 44.835938 32.085938 46.722656 31.617188 C 46.898438 31.617188 47.078125 31.613281 47.257812 31.613281 C 47.699219 31.609375 48.113281 31.753906 48.53125 31.847656 C 48.589844 31.945312 48.6875 31.957031 48.785156 31.976562 C 49.089844 32.214844 49.394531 32.457031 49.699219 32.695312 C 49.742188 32.800781 49.789062 32.898438 49.910156 32.9375 C 50.273438 33.082031 50.5625 33.320312 50.777344 33.644531 C 50.839844 33.789062 50.902344 33.929688 50.964844 34.074219 C 51.007812 34.53125 51.050781 34.988281 51.089844 35.445312 C 51.066406 35.660156 51.039062 35.871094 51.011719 36.085938 C 50.730469 36.582031 51.125 37.003906 51.164062 37.46875 C 51.113281 37.714844 51.066406 37.960938 51.015625 38.207031 C 50.785156 38.640625 50.832031 39.261719 50.175781 39.421875 C 50.125 39.4375 50.101562 39.605469 50.078125 39.707031 C 49.925781 40.359375 49.636719 40.949219 49.21875 41.476562 C 49.164062 41.53125 49.109375 41.585938 49.054688 41.640625 C 48.378906 42.199219 47.585938 42.421875 46.726562 42.425781 C 46.597656 42.320312 46.445312 42.335938 46.292969 42.339844 C 45.941406 42.191406 45.585938 42.042969 45.234375 41.894531 C 45.132812 41.8125 45.03125 41.734375 44.929688 41.65625 C 44.707031 41.390625 44.480469 41.125 44.257812 40.859375 C 44.199219 40.75 44.136719 40.640625 44.078125 40.53125 C 43.933594 40.089844 43.789062 39.648438 43.644531 39.207031 C 43.574219 39.15625 43.503906 39.101562 43.433594 39.046875 C 43.285156 38.695312 43.140625 38.34375 42.992188 37.992188 C 43 37.839844 42.988281 37.691406 42.882812 37.570312 C 42.921875 37.328125 42.769531 36.992188 42.960938 36.855469 C 43.417969 36.535156 43.25 36.15625 43.183594 35.769531 C 43.183594 35.554688 43.183594 35.339844 43.183594 35.128906 Z M 43.183594 35.128906 " fill-opacity="1" fill-rule="nonzero"/><g clip-path="url(#634c3651ee)"><path fill="#2298d5" d="M 30.039062 10.191406 C 29.90625 10.328125 29.769531 10.460938 29.636719 10.59375 C 29.285156 10.773438 28.929688 10.953125 28.578125 11.132812 C 28.050781 11.242188 27.519531 11.277344 26.988281 11.175781 C 26.414062 10.972656 25.886719 10.695312 25.421875 10.300781 C 25.207031 9.984375 24.992188 9.664062 24.777344 9.347656 C 24.753906 9.234375 24.746094 9.117188 24.640625 9.042969 C 24.496094 8.640625 24.59375 8.132812 24.128906 7.867188 C 24.070312 7.761719 24.011719 7.652344 23.957031 7.542969 C 23.835938 7.160156 23.710938 6.777344 23.589844 6.390625 C 23.582031 6.214844 23.570312 6.039062 23.5625 5.863281 C 24.0625 5.449219 23.953125 4.90625 23.894531 4.367188 C 23.878906 4.230469 23.886719 4.09375 23.882812 3.953125 C 23.925781 3.742188 23.964844 3.53125 24.003906 3.320312 C 24.515625 2.058594 25.4375 1.199219 26.664062 0.640625 C 26.914062 0.578125 27.164062 0.515625 27.414062 0.453125 C 27.914062 0.445312 28.414062 0.480469 28.90625 0.558594 C 28.988281 0.660156 29.101562 0.675781 29.222656 0.679688 C 29.5 0.855469 29.785156 1.03125 30.066406 1.203125 C 30.207031 1.351562 30.351562 1.5 30.492188 1.648438 C 30.675781 1.921875 31.039062 1.917969 31.242188 2.15625 C 31.347656 2.308594 31.449219 2.464844 31.554688 2.617188 C 31.632812 2.992188 31.710938 3.367188 31.789062 3.742188 C 31.792969 3.917969 31.792969 4.097656 31.796875 4.273438 C 31.734375 4.65625 31.699219 5.042969 31.601562 5.414062 C 31.542969 5.648438 31.722656 5.71875 31.804688 5.859375 C 31.832031 6.003906 31.859375 6.144531 31.882812 6.285156 C 31.75 6.734375 31.703125 7.207031 31.492188 7.632812 C 31.371094 7.882812 31.257812 8.09375 30.976562 8.246094 C 30.671875 8.410156 30.738281 8.84375 30.621094 9.148438 C 30.425781 9.496094 30.230469 9.84375 30.039062 10.191406 Z M 30.039062 10.191406 " fill-opacity="1" fill-rule="nonzero"/></g><path fill="#2298d5" d="M 12.503906 37.667969 C 12.457031 37.917969 12.40625 38.164062 12.355469 38.410156 C 12.144531 38.722656 12.148438 39.207031 11.746094 39.351562 C 11.546875 39.421875 11.507812 39.511719 11.476562 39.664062 C 11.085938 41.339844 10.070312 42.304688 8.316406 42.449219 C 8.175781 42.417969 8.03125 42.390625 7.886719 42.363281 C 7.535156 42.246094 7.183594 42.132812 6.832031 42.019531 C 6.683594 41.917969 6.539062 41.820312 6.394531 41.71875 C 6.152344 41.449219 5.90625 41.179688 5.664062 40.910156 C 5.664062 40.839844 5.652344 40.769531 5.570312 40.742188 C 5.425781 40.351562 5.28125 39.964844 5.136719 39.574219 C 5.179688 39.300781 5.023438 39.148438 4.808594 39.027344 C 4.671875 38.710938 4.539062 38.398438 4.402344 38.082031 C 4.371094 37.941406 4.402344 37.78125 4.289062 37.664062 C 4.320312 37.273438 4.085938 36.835938 4.636719 36.554688 C 4.839844 36.453125 4.558594 36.113281 4.570312 35.871094 C 4.5625 35.691406 4.558594 35.515625 4.554688 35.335938 C 4.808594 33.355469 6.304688 31.875 8.316406 31.609375 C 8.496094 31.613281 8.671875 31.613281 8.851562 31.613281 C 9.296875 31.652344 9.710938 31.8125 10.128906 31.949219 C 10.210938 32.058594 10.324219 32.113281 10.453125 32.152344 C 10.691406 32.371094 10.933594 32.589844 11.171875 32.808594 C 11.238281 33.035156 11.472656 33 11.628906 33.085938 C 11.878906 33.265625 12.058594 33.507812 12.214844 33.769531 C 12.269531 33.902344 12.324219 34.039062 12.378906 34.171875 C 12.40625 34.667969 12.433594 35.164062 12.460938 35.660156 C 12.359375 35.863281 12.363281 36.078125 12.382812 36.292969 C 12.347656 36.472656 12.164062 36.664062 12.328125 36.832031 C 12.570312 37.085938 12.503906 37.378906 12.503906 37.667969 Z M 12.503906 37.667969 " fill-opacity="1" fill-rule="nonzero"/><path fill="#2298d5" d="M 8.375 29.90625 C 8.316406 29.808594 8.253906 29.710938 8.195312 29.613281 C 8.222656 28.800781 8.425781 28.582031 9.164062 28.582031 C 9.269531 28.648438 9.375 28.71875 9.480469 28.789062 C 9.722656 29.191406 9.742188 29.585938 9.378906 29.925781 C 9.054688 30.226562 8.707031 30.140625 8.375 29.90625 Z M 8.375 29.90625 " fill-opacity="1" fill-rule="nonzero"/><path fill="#2298d5" d="M 44.894531 22.761719 C 44.902344 22.839844 44.914062 22.910156 45.003906 22.9375 C 45.0625 23.738281 44.820312 24 44.066406 23.964844 C 43.960938 23.894531 43.855469 23.820312 43.753906 23.75 C 43.628906 23.46875 43.4375 23.207031 43.617188 22.867188 C 43.867188 22.394531 44.359375 22.347656 44.894531 22.761719 Z M 44.894531 22.761719 " fill-opacity="1" fill-rule="nonzero"/><path fill="#2298d5" d="M 21.746094 50.015625 C 21.8125 50.125 21.878906 50.230469 21.945312 50.335938 C 21.945312 51.121094 21.632812 51.355469 20.8125 51.195312 C 20.738281 51.140625 20.660156 51.085938 20.585938 51.035156 C 20.375 50.699219 20.300781 50.351562 20.601562 50.039062 C 20.964844 49.664062 21.359375 49.804688 21.746094 50.015625 Z M 21.746094 50.015625 " fill-opacity="1" fill-rule="nonzero"/><path fill="#2298d5" d="M 36.875 49.839844 C 36.4375 49.382812 36.382812 49.039062 36.703125 48.691406 C 37.054688 48.308594 37.441406 48.324219 37.957031 48.738281 C 37.996094 48.832031 38.03125 48.929688 38.066406 49.023438 C 38.019531 49.597656 37.691406 49.875 37.125 49.902344 C 37.042969 49.878906 36.960938 49.859375 36.875 49.839844 Z M 36.875 49.839844 " fill-opacity="1" fill-rule="nonzero"/><path fill="#2298d5" d="M 37.332031 15.492188 C 37.414062 15.511719 37.492188 15.53125 37.570312 15.550781 C 37.953125 15.792969 38.199219 16.09375 38.023438 16.582031 C 37.902344 16.699219 37.78125 16.820312 37.660156 16.941406 C 37.269531 17.089844 36.972656 16.910156 36.6875 16.679688 C 36.636719 16.535156 36.585938 16.394531 36.535156 16.25 C 36.601562 15.789062 36.851562 15.523438 37.332031 15.492188 Z M 37.332031 15.492188 " fill-opacity="1" fill-rule="nonzero"/><g clip-path="url(#8c2f3bad5a)"><path fill="#2298d5" d="M 28.492188 52.351562 C 28.503906 52.574219 28.433594 52.777344 28.335938 52.972656 C 28.304688 52.996094 28.277344 53.023438 28.25 53.050781 C 28.054688 53.148438 27.847656 53.214844 27.628906 53.214844 C 27.289062 53.15625 27.050781 52.972656 26.953125 52.640625 C 26.9375 52.394531 27 52.167969 27.128906 51.960938 L 27.132812 51.960938 C 27.347656 51.820312 27.589844 51.777344 27.839844 51.742188 C 28.15625 51.839844 28.402344 52.015625 28.492188 52.351562 Z M 28.492188 52.351562 " fill-opacity="1" fill-rule="nonzero"/></g><path fill="#2298d5" d="M 43.074219 20.183594 C 43.109375 20.289062 43.144531 20.390625 43.175781 20.492188 C 43.105469 20.902344 42.917969 21.210938 42.457031 21.265625 C 42.324219 21.234375 42.191406 21.203125 42.054688 21.171875 C 41.773438 20.941406 41.582031 20.667969 41.640625 20.277344 C 41.75 20.054688 41.917969 19.878906 42.136719 19.753906 C 42.546875 19.6875 42.835938 19.882812 43.074219 20.183594 Z M 43.074219 20.183594 " fill-opacity="1" fill-rule="nonzero"/><path fill="#2298d5" d="M 9.199219 26.683594 C 9.160156 26.632812 9.125 26.585938 9.089844 26.535156 C 8.996094 25.609375 9.371094 25.269531 10.230469 25.5 C 10.300781 25.570312 10.367188 25.644531 10.4375 25.714844 C 10.589844 26.113281 10.546875 26.476562 10.207031 26.757812 C 9.859375 27.042969 9.519531 26.921875 9.199219 26.683594 Z M 9.199219 26.683594 " fill-opacity="1" fill-rule="nonzero"/><path fill="#2298d5" d="M 39.691406 17.449219 C 39.867188 17.4375 40.042969 17.425781 40.214844 17.417969 C 40.480469 17.578125 40.714844 17.761719 40.796875 18.082031 C 40.789062 18.601562 40.542969 18.898438 40 18.917969 C 39.667969 18.851562 39.453125 18.644531 39.296875 18.359375 C 39.300781 18.195312 39.308594 18.03125 39.3125 17.871094 C 39.441406 17.730469 39.566406 17.589844 39.691406 17.449219 Z M 39.691406 17.449219 " fill-opacity="1" fill-rule="nonzero"/><path fill="#2298d5" d="M 14.828125 18.574219 C 14.558594 17.757812 15.011719 17.261719 15.875 17.429688 C 15.980469 17.535156 16.085938 17.640625 16.195312 17.746094 C 16.289062 18.621094 15.878906 18.992188 15.039062 18.789062 C 14.96875 18.71875 14.902344 18.644531 14.828125 18.574219 Z M 14.828125 18.574219 " fill-opacity="1" fill-rule="nonzero"/><path fill="#2298d5" d="M 12.480469 20.914062 C 12.304688 20.5625 12.332031 20.234375 12.601562 19.9375 C 12.863281 19.648438 13.183594 19.644531 13.527344 19.761719 C 13.625 19.871094 13.722656 19.976562 13.824219 20.085938 C 13.925781 20.929688 13.53125 21.292969 12.695312 21.113281 C 12.625 21.046875 12.550781 20.980469 12.480469 20.914062 Z M 12.480469 20.914062 " fill-opacity="1" fill-rule="nonzero"/><path fill="#2298d5" d="M 46.167969 25.59375 C 46.226562 25.667969 46.28125 25.742188 46.339844 25.816406 C 46.5625 26.734375 46.246094 27.082031 45.355469 26.90625 C 45.285156 26.851562 45.214844 26.796875 45.144531 26.746094 C 44.980469 26.390625 44.835938 26.027344 45.160156 25.683594 C 45.464844 25.363281 45.816406 25.421875 46.167969 25.59375 Z M 46.167969 25.59375 " fill-opacity="1" fill-rule="nonzero"/><path fill="#2298d5" d="M 18.128906 15.476562 C 18.300781 15.507812 18.472656 15.539062 18.640625 15.570312 C 18.9375 15.804688 19.050781 16.101562 18.9375 16.472656 C 18.808594 16.609375 18.683594 16.742188 18.554688 16.878906 C 18.171875 17.03125 17.835938 16.96875 17.558594 16.65625 C 17.523438 16.484375 17.484375 16.316406 17.445312 16.144531 C 17.535156 15.785156 17.789062 15.585938 18.128906 15.476562 Z M 18.128906 15.476562 " fill-opacity="1" fill-rule="nonzero"/><path fill="#2298d5" d="M 47.113281 28.886719 C 47.167969 28.988281 47.21875 29.089844 47.273438 29.191406 C 47.285156 29.933594 47.164062 30.085938 46.464844 30.210938 C 46.304688 30.113281 46.140625 30.019531 45.980469 29.921875 C 45.808594 29.53125 45.71875 29.136719 46.101562 28.824219 C 46.445312 28.542969 46.792969 28.652344 47.113281 28.886719 Z M 47.113281 28.886719 " fill-opacity="1" fill-rule="nonzero"/><path fill="#2298d5" d="M 25.050781 50.964844 C 25.058594 51.039062 25.070312 51.113281 25.152344 51.144531 C 25.179688 51.882812 24.976562 52.09375 24.214844 52.113281 C 24.109375 52.066406 24.003906 52.023438 23.898438 51.976562 C 23.609375 51.636719 23.5 51.277344 23.828125 50.90625 C 24.113281 50.585938 24.535156 50.613281 25.050781 50.964844 Z M 25.050781 50.964844 " fill-opacity="1" fill-rule="nonzero"/><path fill="#2298d5" d="M 10.542969 23.574219 C 10.507812 23.429688 10.472656 23.289062 10.433594 23.144531 C 10.554688 22.757812 10.742188 22.441406 11.195312 22.382812 C 11.339844 22.417969 11.484375 22.453125 11.625 22.488281 C 11.933594 22.75 12.027344 23.070312 11.878906 23.449219 C 11.761719 23.578125 11.644531 23.703125 11.527344 23.828125 C 11.136719 23.976562 10.808594 23.886719 10.542969 23.574219 Z M 10.542969 23.574219 " fill-opacity="1" fill-rule="nonzero"/><path fill="#2298d5" d="M 34.660156 49.886719 C 34.765625 49.996094 34.867188 50.105469 34.972656 50.214844 C 35.046875 51.070312 34.746094 51.339844 33.847656 51.230469 C 33.734375 51.113281 33.625 51 33.511719 50.882812 C 33.441406 50.027344 33.757812 49.753906 34.660156 49.886719 Z M 34.660156 49.886719 " fill-opacity="1" fill-rule="nonzero"/><path fill="#2298d5" d="M 31.433594 50.734375 C 31.535156 50.839844 31.636719 50.945312 31.742188 51.050781 C 31.875 51.90625 31.550781 52.203125 30.621094 52.074219 C 30.546875 52.007812 30.476562 51.941406 30.402344 51.875 C 30.078125 51.015625 30.453125 50.601562 31.433594 50.734375 Z M 31.433594 50.734375 " fill-opacity="1" fill-rule="nonzero"/><path fill="#2298d5" d="M 18.675781 48.59375 C 18.75 48.699219 18.824219 48.808594 18.902344 48.917969 C 18.925781 49.675781 18.707031 49.886719 17.921875 49.855469 C 17.816406 49.78125 17.710938 49.710938 17.605469 49.640625 C 17.363281 49.289062 17.289062 48.941406 17.628906 48.605469 C 17.96875 48.265625 18.324219 48.378906 18.675781 48.59375 Z M 18.675781 48.59375 " fill-opacity="1" fill-rule="nonzero"/></svg>