<svg xmlns="http://www.w3.org/2000/svg" xmlns:xlink="http://www.w3.org/1999/xlink" width="71" zoomAndPan="magnify" viewBox="0 0 53.25 53.25" height="71" preserveAspectRatio="xMidYMid meet" version="1.0"><defs><clipPath id="b860f0730d"><path d="M 0.214844 0.292969 L 51.988281 0.292969 L 51.988281 52.0625 L 0.214844 52.0625 Z M 0.214844 0.292969 " clip-rule="nonzero"/></clipPath></defs><path fill="#2298d5" d="M 18.335938 17.546875 L 20.0625 17.546875 L 20.0625 19.273438 L 18.335938 19.273438 Z M 18.335938 17.546875 " fill-opacity="1" fill-rule="nonzero"/><path fill="#2298d5" d="M 18.335938 21 L 20.0625 21 L 20.0625 22.726562 L 18.335938 22.726562 Z M 18.335938 21 " fill-opacity="1" fill-rule="nonzero"/><path fill="#2298d5" d="M 18.335938 24.449219 L 20.0625 24.449219 L 20.0625 26.175781 L 18.335938 26.175781 Z M 18.335938 24.449219 " fill-opacity="1" fill-rule="nonzero"/><path fill="#2298d5" d="M 18.335938 27.902344 L 20.0625 27.902344 L 20.0625 29.628906 L 18.335938 29.628906 Z M 18.335938 27.902344 " fill-opacity="1" fill-rule="nonzero"/><path fill="#2298d5" d="M 21.789062 17.546875 L 23.511719 17.546875 L 23.511719 19.273438 L 21.789062 19.273438 Z M 21.789062 17.546875 " fill-opacity="1" fill-rule="nonzero"/><path fill="#2298d5" d="M 21.789062 21 L 23.511719 21 L 23.511719 22.726562 L 21.789062 22.726562 Z M 21.789062 21 " fill-opacity="1" fill-rule="nonzero"/><path fill="#2298d5" d="M 21.789062 24.449219 L 23.511719 24.449219 L 23.511719 26.175781 L 21.789062 26.175781 Z M 21.789062 24.449219 " fill-opacity="1" fill-rule="nonzero"/><path fill="#2298d5" d="M 21.789062 27.902344 L 23.511719 27.902344 L 23.511719 29.628906 L 21.789062 29.628906 Z M 21.789062 27.902344 " fill-opacity="1" fill-rule="nonzero"/><path fill="#2298d5" d="M 25.238281 17.546875 L 26.964844 17.546875 L 26.964844 19.273438 L 25.238281 19.273438 Z M 25.238281 17.546875 " fill-opacity="1" fill-rule="nonzero"/><path fill="#2298d5" d="M 25.238281 21 L 26.964844 21 L 26.964844 22.726562 L 25.238281 22.726562 Z M 25.238281 21 " fill-opacity="1" fill-rule="nonzero"/><path fill="#2298d5" d="M 25.238281 24.449219 L 26.964844 24.449219 L 26.964844 26.175781 L 25.238281 26.175781 Z M 25.238281 24.449219 " fill-opacity="1" fill-rule="nonzero"/><path fill="#2298d5" d="M 25.238281 27.902344 L 26.964844 27.902344 L 26.964844 29.628906 L 25.238281 29.628906 Z M 25.238281 27.902344 " fill-opacity="1" fill-rule="nonzero"/><path fill="#2298d5" d="M 28.691406 17.546875 L 30.417969 17.546875 L 30.417969 19.273438 L 28.691406 19.273438 Z M 28.691406 17.546875 " fill-opacity="1" fill-rule="nonzero"/><path fill="#2298d5" d="M 21.789062 14.097656 L 23.511719 14.097656 L 23.511719 15.824219 L 21.789062 15.824219 Z M 21.789062 14.097656 " fill-opacity="1" fill-rule="nonzero"/><path fill="#2298d5" d="M 25.238281 14.097656 L 26.964844 14.097656 L 26.964844 15.824219 L 25.238281 15.824219 Z M 25.238281 14.097656 " fill-opacity="1" fill-rule="nonzero"/><path fill="#2298d5" d="M 28.691406 14.097656 L 30.417969 14.097656 L 30.417969 15.824219 L 28.691406 15.824219 Z M 28.691406 14.097656 " fill-opacity="1" fill-rule="nonzero"/><path fill="#2298d5" d="M 28.691406 21 L 30.417969 21 L 30.417969 22.726562 L 28.691406 22.726562 Z M 28.691406 21 " fill-opacity="1" fill-rule="nonzero"/><path fill="#2298d5" d="M 28.691406 24.449219 L 30.417969 24.449219 L 30.417969 26.175781 L 28.691406 26.175781 Z M 28.691406 24.449219 " fill-opacity="1" fill-rule="nonzero"/><path fill="#2298d5" d="M 28.691406 27.902344 L 30.417969 27.902344 L 30.417969 29.628906 L 28.691406 29.628906 Z M 28.691406 27.902344 " fill-opacity="1" fill-rule="nonzero"/><path fill="#2298d5" d="M 32.140625 17.546875 L 33.867188 17.546875 L 33.867188 19.273438 L 32.140625 19.273438 Z M 32.140625 17.546875 " fill-opacity="1" fill-rule="nonzero"/><path fill="#2298d5" d="M 32.140625 21 L 33.867188 21 L 33.867188 22.726562 L 32.140625 22.726562 Z M 32.140625 21 " fill-opacity="1" fill-rule="nonzero"/><path fill="#2298d5" d="M 32.140625 24.449219 L 33.867188 24.449219 L 33.867188 26.175781 L 32.140625 26.175781 Z M 32.140625 24.449219 " fill-opacity="1" fill-rule="nonzero"/><path fill="#2298d5" d="M 32.140625 27.902344 L 33.867188 27.902344 L 33.867188 29.628906 L 32.140625 29.628906 Z M 32.140625 27.902344 " fill-opacity="1" fill-rule="nonzero"/><g clip-path="url(#b860f0730d)"><path fill="#2298d5" d="M 51.125 13.234375 L 38.183594 13.234375 L 38.183594 1.152344 C 38.183594 0.675781 37.796875 0.292969 37.320312 0.292969 L 14.886719 0.292969 C 14.40625 0.292969 14.023438 0.675781 14.023438 1.152344 L 14.023438 13.234375 L 1.078125 13.234375 C 0.601562 13.234375 0.214844 13.621094 0.214844 14.097656 L 0.214844 45.160156 C 0.214844 45.636719 0.601562 46.023438 1.078125 46.023438 L 2.882812 46.023438 C 2.835938 46.304688 2.804688 46.589844 2.804688 46.886719 L 2.804688 51.199219 C 2.804688 51.675781 3.191406 52.0625 3.667969 52.0625 L 48.535156 52.0625 C 49.011719 52.0625 49.398438 51.675781 49.398438 51.199219 L 49.398438 46.886719 C 49.398438 46.589844 49.367188 46.304688 49.320312 46.023438 L 51.125 46.023438 C 51.601562 46.023438 51.988281 45.636719 51.988281 45.160156 L 51.988281 14.097656 C 51.988281 13.621094 51.601562 13.234375 51.125 13.234375 Z M 37.320312 37.394531 C 37.320312 38.34375 36.546875 39.121094 35.59375 39.121094 C 34.640625 39.121094 33.867188 38.34375 33.867188 37.394531 C 33.867188 36.441406 34.640625 35.667969 35.59375 35.667969 C 36.546875 35.667969 37.320312 36.441406 37.320312 37.394531 Z M 16.609375 35.667969 C 17.5625 35.667969 18.335938 36.441406 18.335938 37.394531 C 18.335938 38.34375 17.5625 39.121094 16.609375 39.121094 C 15.660156 39.121094 14.886719 38.34375 14.886719 37.394531 C 14.886719 36.441406 15.660156 35.667969 16.609375 35.667969 Z M 11.433594 50.335938 L 4.53125 50.335938 L 4.53125 46.886719 C 4.53125 44.980469 6.078125 43.433594 7.980469 43.433594 C 9.886719 43.433594 11.433594 44.980469 11.433594 46.886719 Z M 6.257812 39.980469 C 6.257812 39.03125 7.03125 38.257812 7.980469 38.257812 C 8.933594 38.257812 9.707031 39.03125 9.707031 39.980469 C 9.707031 40.933594 8.933594 41.707031 7.980469 41.707031 C 7.03125 41.707031 6.257812 40.933594 6.257812 39.980469 Z M 11.566406 43.15625 C 11.242188 42.84375 10.875 42.570312 10.480469 42.351562 C 11.066406 41.734375 11.433594 40.902344 11.433594 39.980469 C 11.433594 38.078125 9.886719 36.53125 7.980469 36.53125 C 6.078125 36.53125 4.53125 38.078125 4.53125 39.980469 C 4.53125 40.902344 4.898438 41.734375 5.484375 42.351562 C 4.660156 42.808594 3.976562 43.484375 3.503906 44.296875 L 1.941406 44.296875 L 1.941406 14.960938 L 14.023438 14.960938 L 14.023438 35.132812 C 13.492188 35.742188 13.160156 36.527344 13.160156 37.394531 C 13.160156 38.3125 13.527344 39.144531 14.113281 39.765625 C 12.839844 40.46875 11.894531 41.695312 11.566406 43.15625 Z M 20.0625 50.335938 L 13.160156 50.335938 L 13.160156 44.296875 C 13.160156 42.394531 14.707031 40.84375 16.609375 40.84375 C 18.515625 40.84375 20.0625 42.394531 20.0625 44.296875 Z M 30.417969 50.335938 L 21.789062 50.335938 L 21.789062 44.296875 C 21.789062 41.917969 23.722656 39.980469 26.101562 39.980469 C 28.480469 39.980469 30.417969 41.917969 30.417969 44.296875 Z M 23.511719 35.667969 C 23.511719 34.242188 24.675781 33.078125 26.101562 33.078125 C 27.527344 33.078125 28.691406 34.242188 28.691406 35.667969 C 28.691406 37.09375 27.527344 38.257812 26.101562 38.257812 C 24.675781 38.257812 23.511719 37.09375 23.511719 35.667969 Z M 31.355469 41.328125 C 30.78125 40.3125 29.917969 39.480469 28.882812 38.941406 C 29.8125 38.148438 30.417969 36.984375 30.417969 35.667969 C 30.417969 33.289062 28.480469 31.355469 26.101562 31.355469 C 23.722656 31.355469 21.789062 33.289062 21.789062 35.667969 C 21.789062 36.984375 22.390625 38.148438 23.324219 38.941406 C 22.285156 39.480469 21.421875 40.3125 20.847656 41.328125 C 20.394531 40.683594 19.800781 40.148438 19.109375 39.765625 C 19.695312 39.144531 20.0625 38.3125 20.0625 37.394531 C 20.0625 35.488281 18.515625 33.941406 16.609375 33.941406 C 16.3125 33.941406 16.027344 33.992188 15.746094 34.066406 L 15.746094 2.015625 L 36.457031 2.015625 L 36.457031 34.066406 C 36.179688 33.992188 35.894531 33.941406 35.59375 33.941406 C 33.691406 33.941406 32.140625 35.488281 32.140625 37.394531 C 32.140625 38.3125 32.507812 39.144531 33.097656 39.765625 C 32.40625 40.148438 31.808594 40.683594 31.355469 41.328125 Z M 39.042969 46.886719 L 39.042969 50.335938 L 32.140625 50.335938 L 32.140625 44.296875 C 32.140625 42.394531 33.691406 40.84375 35.59375 40.84375 C 37.496094 40.84375 39.042969 42.394531 39.042969 44.296875 Z M 47.671875 50.335938 L 40.769531 50.335938 L 40.769531 46.886719 C 40.769531 44.980469 42.320312 43.433594 44.222656 43.433594 C 46.125 43.433594 47.671875 44.980469 47.671875 46.886719 Z M 42.496094 39.980469 C 42.496094 39.03125 43.269531 38.257812 44.222656 38.257812 C 45.171875 38.257812 45.949219 39.03125 45.949219 39.980469 C 45.949219 40.933594 45.171875 41.707031 44.222656 41.707031 C 43.269531 41.707031 42.496094 40.933594 42.496094 39.980469 Z M 50.261719 44.296875 L 48.699219 44.296875 C 48.226562 43.484375 47.542969 42.808594 46.71875 42.351562 C 47.304688 41.734375 47.671875 40.902344 47.671875 39.980469 C 47.671875 38.078125 46.125 36.53125 44.222656 36.53125 C 42.320312 36.53125 40.769531 38.078125 40.769531 39.980469 C 40.769531 40.902344 41.136719 41.734375 41.726562 42.351562 C 41.328125 42.574219 40.964844 42.84375 40.640625 43.15625 C 40.3125 41.695312 39.367188 40.46875 38.089844 39.765625 C 38.679688 39.144531 39.042969 38.3125 39.042969 37.394531 C 39.042969 36.527344 38.710938 35.742188 38.183594 35.132812 L 38.183594 14.960938 L 50.261719 14.960938 Z M 50.261719 44.296875 " fill-opacity="1" fill-rule="nonzero"/></g><path fill="#2298d5" d="M 40.769531 20.136719 L 42.496094 20.136719 L 42.496094 33.941406 L 40.769531 33.941406 Z M 40.769531 20.136719 " fill-opacity="1" fill-rule="nonzero"/><path fill="#2298d5" d="M 45.949219 20.136719 L 47.671875 20.136719 L 47.671875 33.941406 L 45.949219 33.941406 Z M 45.949219 20.136719 " fill-opacity="1" fill-rule="nonzero"/><path fill="#2298d5" d="M 4.53125 20.136719 L 6.257812 20.136719 L 6.257812 33.941406 L 4.53125 33.941406 Z M 4.53125 20.136719 " fill-opacity="1" fill-rule="nonzero"/><path fill="#2298d5" d="M 9.707031 20.136719 L 11.433594 20.136719 L 11.433594 33.941406 L 9.707031 33.941406 Z M 9.707031 20.136719 " fill-opacity="1" fill-rule="nonzero"/><path fill="#2298d5" d="M 20.925781 12.371094 L 31.277344 12.371094 C 31.757812 12.371094 32.140625 11.984375 32.140625 11.507812 L 32.140625 4.605469 C 32.140625 4.128906 31.757812 3.742188 31.277344 3.742188 L 20.925781 3.742188 C 20.449219 3.742188 20.0625 4.128906 20.0625 4.605469 L 20.0625 11.507812 C 20.0625 11.984375 20.449219 12.371094 20.925781 12.371094 Z M 21.789062 5.46875 L 30.417969 5.46875 L 30.417969 10.644531 L 21.789062 10.644531 Z M 21.789062 5.46875 " fill-opacity="1" fill-rule="nonzero"/></svg>