<svg xmlns="http://www.w3.org/2000/svg" xmlns:xlink="http://www.w3.org/1999/xlink" width="73" zoomAndPan="magnify" viewBox="0 0 54.75 54.749999" height="73" preserveAspectRatio="xMidYMid meet" version="1.0"><defs><clipPath id="92f6148c17"><path d="M 0.214844 0.578125 L 54.214844 0.578125 L 54.214844 54.5 L 0.214844 54.5 Z M 0.214844 0.578125 " clip-rule="nonzero"/></clipPath></defs><g clip-path="url(#92f6148c17)"><path fill="#2298d5" d="M 27.214844 52.824219 C 13.296875 52.824219 1.96875 41.5 1.96875 27.578125 C 1.96875 13.65625 13.296875 2.332031 27.214844 2.332031 C 41.136719 2.332031 52.460938 13.65625 52.460938 27.578125 C 52.460938 41.5 41.136719 52.824219 27.214844 52.824219 Z M 27.214844 0.578125 C 12.328125 0.578125 0.214844 12.691406 0.214844 27.578125 C 0.214844 42.46875 12.328125 54.578125 27.214844 54.578125 C 42.105469 54.578125 54.214844 42.46875 54.214844 27.578125 C 54.214844 12.691406 42.105469 0.578125 27.214844 0.578125 " fill-opacity="1" fill-rule="nonzero"/></g><path fill="#2298d5" d="M 37.730469 29.242188 C 37.5 29.066406 37.675781 28.765625 37.464844 28.550781 C 37.125 29.070312 37.042969 29.875 36.648438 30.179688 C 36.324219 29.921875 36.210938 29.570312 36.042969 29.257812 C 35.867188 28.933594 35.730469 28.589844 35.664062 28.183594 C 35.394531 28.378906 35.273438 28.257812 35.164062 28.027344 C 35.046875 27.78125 34.980469 27.511719 34.855469 27.273438 C 34.761719 27.089844 34.515625 27.042969 34.363281 27.183594 C 33.910156 27.597656 33.613281 28.269531 33.652344 28.910156 C 33.703125 29.710938 34.128906 30.316406 34.671875 30.902344 C 34.734375 30.972656 34.851562 30.953125 34.886719 30.867188 C 34.933594 30.757812 34.972656 30.671875 35.007812 30.585938 C 35.085938 31.117188 35.101562 31.597656 35.402344 32.039062 C 35.945312 32.828125 36.613281 33.542969 36.824219 34.53125 C 37.242188 34.210938 37.65625 33.4375 37.738281 32.867188 C 37.808594 32.378906 37.78125 31.882812 37.8125 31.390625 C 37.832031 31.121094 37.820312 30.839844 38.011719 30.597656 C 38.054688 30.777344 38.085938 30.894531 38.117188 31.03125 C 38.152344 31.175781 38.175781 31.34375 38.328125 31.394531 C 38.503906 31.453125 38.578125 31.277344 38.648438 31.15625 C 38.964844 30.632812 39.261719 30.097656 39.441406 29.511719 C 39.757812 28.5 39.347656 27.417969 38.464844 26.921875 C 38.445312 26.910156 38.417969 26.898438 38.394531 26.894531 C 38.21875 26.847656 38.054688 27.011719 38.113281 27.183594 C 38.117188 27.191406 38.117188 27.199219 38.121094 27.203125 C 38.351562 27.707031 38.304688 28.273438 38.101562 28.800781 C 38.03125 28.976562 37.949219 29.167969 37.730469 29.242188 " fill-opacity="1" fill-rule="nonzero"/><path fill="#2298d5" d="M 45.914062 32.941406 C 45.5 32.21875 44.808594 32.007812 43.960938 32.371094 C 43.546875 32.546875 38.257812 35.210938 36.171875 36.25 C 35.820312 36.425781 35.476562 36.625 35.144531 36.832031 C 34.625 37.15625 34.105469 37.339844 33.476562 37.34375 C 31.558594 37.34375 26.261719 37.355469 25.535156 37.359375 C 25.21875 37.359375 24.863281 37.335938 24.855469 36.957031 C 24.847656 36.546875 25.1875 36.535156 25.496094 36.535156 C 25.632812 36.535156 31.035156 36.554688 33.601562 36.535156 C 34.644531 36.527344 35.339844 35.878906 35.308594 34.957031 C 35.28125 34.078125 34.589844 33.511719 33.570312 33.503906 C 32.382812 33.492188 31.195312 33.476562 30.007812 33.511719 C 29.457031 33.527344 29.042969 33.375 28.617188 33.019531 C 27.195312 31.824219 25.597656 30.925781 23.746094 30.617188 C 21.601562 30.257812 19.433594 30.472656 17.21875 30.4375 L 17.21875 39.28125 C 18.535156 40.023438 23.75 42.90625 26.75 43.765625 C 27.480469 43.972656 28.304688 44.113281 28.9375 43.941406 C 30.238281 43.585938 31.527344 43.109375 32.765625 42.519531 C 36.414062 40.773438 44.695312 35.445312 45.414062 34.921875 C 46.136719 34.402344 46.3125 33.625 45.914062 32.941406 " fill-opacity="1" fill-rule="nonzero"/><path fill="#2298d5" d="M 14.191406 38.992188 L 12.867188 39.757812 L 11.539062 38.992188 L 11.539062 37.460938 L 12.867188 36.695312 L 14.191406 37.460938 Z M 15.574219 29.316406 L 10.15625 29.316406 C 9.929688 29.316406 9.75 29.5 9.75 29.726562 L 9.75 40.554688 C 9.75 40.78125 9.929688 40.964844 10.15625 40.964844 L 15.574219 40.964844 C 15.800781 40.964844 15.984375 40.78125 15.984375 40.554688 L 15.984375 29.726562 C 15.984375 29.5 15.800781 29.316406 15.574219 29.316406 " fill-opacity="1" fill-rule="nonzero"/><path fill="#2298d5" d="M 36.601562 14.316406 C 37.515625 14.316406 38.253906 15.058594 38.253906 15.972656 C 38.253906 16.886719 37.515625 17.628906 36.601562 17.628906 C 35.6875 17.628906 34.945312 16.886719 34.945312 15.972656 C 34.945312 15.058594 35.6875 14.316406 36.601562 14.316406 Z M 31.152344 27.691406 C 31.21875 27.695312 31.285156 27.679688 31.34375 27.644531 C 31.351562 27.636719 31.359375 27.632812 31.367188 27.628906 C 31.371094 27.625 31.488281 27.53125 31.542969 27.484375 C 32.085938 27.027344 32.628906 26.578125 33.164062 26.117188 C 33.324219 25.980469 33.484375 25.925781 33.695312 25.929688 C 34.664062 25.933594 38.539062 25.933594 39.507812 25.929688 C 39.71875 25.925781 39.878906 25.980469 40.035156 26.117188 C 40.570312 26.578125 41.117188 27.027344 41.65625 27.484375 C 41.714844 27.535156 41.847656 27.628906 41.859375 27.636719 C 41.867188 27.640625 41.878906 27.644531 41.886719 27.652344 C 41.929688 27.671875 41.976562 27.679688 42.023438 27.679688 C 42.203125 27.683594 42.328125 27.613281 42.386719 27.464844 C 42.398438 27.433594 42.40625 27.402344 42.414062 27.363281 C 42.421875 27.308594 42.421875 27.25 42.417969 27.195312 C 42.414062 27.15625 42.410156 27.121094 42.40625 27.078125 C 42.382812 26.878906 42.269531 26.359375 42.253906 26.300781 C 41.867188 24.613281 41.109375 23.097656 39.949219 21.769531 C 39.800781 21.597656 39.734375 21.433594 39.738281 21.207031 C 39.742188 19.921875 39.730469 15.980469 39.730469 15.84375 C 39.777344 15.332031 39.671875 14.855469 39.421875 14.40625 C 38.644531 12.980469 37.863281 11.554688 37.082031 10.128906 C 36.980469 9.949219 36.90625 9.726562 36.667969 9.703125 C 36.589844 9.695312 36.605469 9.695312 36.535156 9.703125 C 36.292969 9.730469 36.21875 9.949219 36.117188 10.128906 C 35.339844 11.554688 34.558594 12.980469 33.777344 14.40625 C 33.53125 14.855469 33.421875 15.332031 33.472656 15.84375 C 33.472656 15.980469 33.460938 20.90625 33.464844 21.207031 C 33.464844 21.433594 33.398438 21.597656 33.25 21.769531 C 32.089844 23.097656 31.332031 24.613281 30.945312 26.300781 C 30.933594 26.359375 30.828125 26.882812 30.796875 27.078125 C 30.789062 27.132812 30.777344 27.195312 30.777344 27.25 C 30.777344 27.332031 30.792969 27.40625 30.8125 27.464844 C 30.871094 27.605469 30.984375 27.6875 31.152344 27.691406 " fill-opacity="1" fill-rule="nonzero"/></svg>