<svg xmlns="http://www.w3.org/2000/svg" xmlns:xlink="http://www.w3.org/1999/xlink" width="29" zoomAndPan="magnify" viewBox="0 0 21.75 29.25" height="39" preserveAspectRatio="xMidYMid meet" version="1.0"><defs><clipPath id="beacf9cb29"><path d="M 0.355469 1.890625 L 20.832031 1.890625 L 20.832031 28 L 0.355469 28 Z M 0.355469 1.890625 " clip-rule="nonzero"/></clipPath></defs><g clip-path="url(#beacf9cb29)"><path fill="#2298d5" d="M 18.003906 20.097656 L 20.695312 24.757812 L 16.5625 23.925781 L 15.21875 27.917969 L 12.316406 22.886719 C 14.496094 22.535156 16.457031 21.535156 18.003906 20.097656 Z M 10.546875 1.890625 C 4.917969 1.890625 0.355469 6.453125 0.355469 12.082031 C 0.355469 17.710938 4.917969 22.273438 10.546875 22.273438 C 16.175781 22.273438 20.738281 17.710938 20.738281 12.082031 C 20.738281 6.453125 16.175781 1.890625 10.546875 1.890625 Z M 10.546875 7.566406 L 11.820312 10.804688 L 15.289062 11.015625 L 12.605469 13.226562 L 13.476562 16.59375 L 10.546875 14.726562 L 7.613281 16.59375 L 8.484375 13.226562 L 5.800781 11.015625 L 9.273438 10.804688 Z M 10.546875 4.230469 C 14.882812 4.230469 18.398438 7.746094 18.398438 12.082031 C 18.398438 16.417969 14.882812 19.933594 10.546875 19.933594 C 6.210938 19.933594 2.695312 16.417969 2.695312 12.082031 C 2.695312 7.746094 6.210938 4.230469 10.546875 4.230469 Z M 10.546875 4.988281 C 14.464844 4.988281 17.636719 8.164062 17.636719 12.082031 C 17.636719 16 14.464844 19.171875 10.546875 19.171875 C 6.628906 19.171875 3.453125 16 3.453125 12.082031 C 3.453125 8.164062 6.628906 4.988281 10.546875 4.988281 Z M 3.089844 20.097656 C 4.632812 21.535156 6.597656 22.535156 8.773438 22.886719 L 5.984375 27.722656 L 4.640625 23.730469 L 0.507812 24.5625 Z M 3.089844 20.097656 " fill-opacity="1" fill-rule="evenodd"/></g></svg>