<svg xmlns="http://www.w3.org/2000/svg" xmlns:xlink="http://www.w3.org/1999/xlink" width="30" zoomAndPan="magnify" viewBox="0 0 22.5 24.75" height="33" preserveAspectRatio="xMidYMid meet" version="1.0"><defs><clipPath id="533fbb8654"><path d="M 0.65625 0.761719 L 22.011719 0.761719 L 22.011719 22.511719 L 0.65625 22.511719 Z M 0.65625 0.761719 " clip-rule="nonzero"/></clipPath></defs><path fill="#0f4482" d="M 17.070312 5.65625 C 17.613281 5.65625 18.089844 5.214844 18.089844 4.636719 C 18.089844 4.160156 17.75 3.75 17.308594 3.648438 C 17.273438 3.648438 17.207031 3.648438 17.171875 3.648438 C 16.59375 3.617188 16.085938 4.058594 16.085938 4.667969 C 16.050781 5.214844 16.527344 5.65625 17.070312 5.65625 Z M 16.933594 4.160156 L 17.171875 4.160156 C 17.378906 4.226562 17.546875 4.429688 17.546875 4.636719 C 17.546875 4.90625 17.308594 5.144531 17.039062 5.144531 C 16.765625 5.144531 16.527344 4.90625 16.527344 4.636719 C 16.5625 4.429688 16.730469 4.226562 16.933594 4.160156 Z M 16.933594 4.160156 " fill-opacity="1" fill-rule="nonzero"/><path fill="#0f4482" d="M 14.589844 5.65625 C 15.132812 5.65625 15.609375 5.214844 15.609375 4.636719 C 15.609375 4.160156 15.269531 3.71875 14.792969 3.648438 C 14.082031 3.480469 13.46875 4.125 13.605469 4.839844 C 13.671875 5.316406 14.113281 5.65625 14.589844 5.65625 Z M 14.453125 4.160156 C 14.625 4.160156 14.691406 4.125 14.863281 4.226562 C 15 4.328125 15.101562 4.464844 15.101562 4.667969 C 15.101562 4.941406 14.863281 5.179688 14.589844 5.179688 C 14.320312 5.179688 14.082031 4.941406 14.082031 4.667969 C 14.082031 4.429688 14.25 4.226562 14.453125 4.160156 Z M 14.453125 4.160156 " fill-opacity="1" fill-rule="nonzero"/><path fill="#0f4482" d="M 7.113281 10.957031 C 8.371094 10.957031 9.390625 9.9375 9.390625 8.679688 C 9.390625 7.421875 8.371094 6.402344 7.113281 6.402344 C 5.855469 6.402344 4.835938 7.421875 4.835938 8.679688 C 4.835938 9.9375 5.855469 10.957031 7.113281 10.957031 Z M 7.113281 6.914062 C 8.097656 6.914062 8.882812 7.695312 8.882812 8.679688 C 8.882812 9.664062 8.097656 10.445312 7.113281 10.445312 C 6.128906 10.445312 5.347656 9.664062 5.347656 8.679688 C 5.347656 7.695312 6.164062 6.914062 7.113281 6.914062 Z M 7.113281 6.914062 " fill-opacity="1" fill-rule="nonzero"/><g clip-path="url(#533fbb8654)"><path fill="#0f4482" d="M 22.136719 10.34375 C 21.558594 10.140625 21.117188 9.800781 20.910156 9.324219 C 21.796875 8.613281 22.304688 7.625 22.304688 6.574219 C 22.304688 4.769531 20.84375 3.242188 18.769531 2.867188 C 17.953125 1.578125 16.359375 0.761719 14.589844 0.761719 C 12.449219 0.761719 10.613281 1.949219 10.003906 3.648438 L 2.21875 3.648438 C 1.371094 3.648438 0.691406 4.328125 0.691406 5.179688 C 0.691406 6.300781 0.691406 1.03125 0.691406 17.039062 C 0.691406 17.890625 1.371094 18.570312 2.21875 18.570312 L 7.757812 18.570312 L 7.148438 20.199219 L 6.773438 20.199219 C 5.925781 20.199219 5.210938 20.878906 5.210938 21.761719 L 5.210938 22.238281 C 5.210938 22.375 5.3125 22.511719 5.484375 22.511719 L 15.746094 22.511719 C 15.882812 22.511719 16.019531 22.410156 16.019531 22.238281 L 16.019531 21.761719 C 16.019531 20.914062 15.339844 20.199219 14.453125 20.199219 L 14.082031 20.199219 L 13.46875 18.570312 L 19.042969 18.570312 C 19.925781 18.570312 20.570312 17.855469 20.570312 17.039062 C 20.570312 8.984375 20.570312 11.398438 20.570312 10.921875 C 21.183594 10.992188 21.796875 10.921875 22.101562 10.785156 C 22.371094 10.753906 22.371094 10.414062 22.136719 10.34375 Z M 14.589844 1.269531 C 16.222656 1.269531 17.683594 2.019531 18.429688 3.242188 C 19.859375 5.585938 17.785156 8.40625 14.589844 8.40625 C 14.554688 8.40625 14.554688 8.40625 14.523438 8.40625 C 14.214844 8.40625 13.910156 8.375 13.605469 8.304688 C 13.535156 8.304688 13.46875 8.304688 13.402344 8.339844 C 12.449219 9.019531 11.496094 9.121094 10.851562 9.085938 C 11.429688 8.714844 11.703125 8.203125 11.871094 7.828125 C 11.90625 7.726562 11.871094 7.59375 11.769531 7.523438 C 10.816406 6.84375 10.273438 5.859375 10.273438 4.839844 C 10.273438 4.566406 10.308594 4.261719 10.410156 3.988281 C 10.886719 2.390625 12.621094 1.269531 14.589844 1.269531 Z M 2.21875 4.160156 L 9.867188 4.160156 C 9.796875 4.398438 9.796875 4.601562 9.796875 4.839844 C 9.796875 5.960938 10.34375 7.046875 11.328125 7.828125 C 11.089844 8.375 10.613281 8.746094 9.96875 8.953125 C 9.730469 9.019531 9.730469 9.359375 9.96875 9.425781 C 10.886719 9.734375 12.382812 9.664062 13.605469 8.816406 C 13.875 8.847656 14.113281 8.882812 14.386719 8.882812 C 15.40625 10.003906 17.070312 10.515625 18.769531 10.242188 C 19.179688 10.515625 19.621094 10.71875 20.097656 10.820312 L 20.097656 16.191406 L 11.835938 16.191406 L 11.835938 14.625 C 11.835938 12.691406 10.242188 11.09375 8.269531 11.09375 C 8.167969 11.09375 8.097656 11.160156 8.03125 11.226562 L 7.113281 13.03125 L 6.195312 11.226562 C 6.164062 11.125 6.058594 11.09375 5.957031 11.09375 C 4.019531 11.09375 2.425781 12.691406 2.425781 14.625 L 2.425781 16.191406 L 1.199219 16.191406 L 1.199219 5.179688 C 1.199219 4.636719 1.640625 4.160156 2.21875 4.160156 Z M 1.199219 17.039062 L 1.199219 16.699219 C 4.835938 16.699219 15.679688 16.699219 20.128906 16.699219 L 20.128906 17.039062 C 20.128906 17.582031 19.6875 18.058594 19.109375 18.058594 C 11.566406 18.058594 9.902344 18.058594 2.253906 18.058594 C 1.640625 18.058594 1.199219 17.617188 1.199219 17.039062 Z M 11.328125 16.191406 L 10.273438 16.191406 L 10.070312 14.59375 C 10.035156 14.457031 9.933594 14.355469 9.796875 14.390625 C 9.664062 14.421875 9.5625 14.523438 9.59375 14.660156 L 9.796875 16.191406 L 4.496094 16.191406 L 4.699219 14.660156 C 4.734375 14.523438 4.632812 14.390625 4.496094 14.390625 C 4.359375 14.390625 4.226562 14.457031 4.226562 14.59375 L 4.019531 16.191406 L 2.933594 16.191406 L 2.933594 14.625 C 2.933594 13.03125 4.226562 11.703125 5.824219 11.601562 L 6.910156 13.710938 C 7.011719 13.878906 7.285156 13.878906 7.351562 13.710938 L 8.4375 11.636719 C 10.035156 11.703125 11.328125 13.03125 11.328125 14.660156 Z M 15.507812 21.761719 L 15.507812 22 L 5.789062 22 L 5.789062 21.761719 C 5.789062 21.1875 6.265625 20.710938 6.84375 20.710938 C 9.933594 20.710938 11.429688 20.710938 14.523438 20.710938 C 15.03125 20.742188 15.507812 21.21875 15.507812 21.761719 Z M 13.570312 20.234375 L 7.726562 20.234375 L 8.335938 18.601562 L 12.992188 18.601562 Z M 18.972656 9.765625 C 18.941406 9.734375 18.871094 9.734375 18.839844 9.734375 C 18.839844 9.734375 18.804688 9.734375 18.804688 9.734375 C 17.410156 10.003906 16.085938 9.632812 15.132812 8.882812 C 18.226562 8.613281 20.199219 5.925781 19.144531 3.445312 C 20.742188 3.886719 21.828125 5.109375 21.828125 6.539062 C 21.828125 7.488281 21.320312 8.375 20.46875 9.019531 C 20.367188 9.085938 20.332031 9.1875 20.367188 9.324219 C 20.503906 9.664062 20.742188 10.105469 21.25 10.480469 C 20.503906 10.480469 19.6875 10.277344 18.972656 9.765625 Z M 18.972656 9.765625 " fill-opacity="1" fill-rule="nonzero"/></g><path fill="#0f4482" d="M 12.109375 5.65625 C 12.652344 5.65625 13.128906 5.214844 13.128906 4.636719 C 13.128906 4.160156 12.789062 3.75 12.347656 3.648438 C 11.703125 3.515625 11.125 4.023438 11.125 4.636719 C 11.089844 5.214844 11.53125 5.65625 12.109375 5.65625 Z M 12.210938 4.160156 C 12.414062 4.195312 12.585938 4.398438 12.585938 4.636719 C 12.585938 4.90625 12.347656 5.144531 12.074219 5.144531 C 11.804688 5.144531 11.566406 4.90625 11.566406 4.636719 C 11.601562 4.058594 12.175781 4.195312 12.210938 4.160156 Z M 12.210938 4.160156 " fill-opacity="1" fill-rule="nonzero"/><path fill="#0f4482" d="M 10.273438 17.652344 L 11.023438 17.652344 C 11.15625 17.652344 11.292969 17.550781 11.292969 17.378906 C 11.292969 17.242188 11.191406 17.109375 11.023438 17.109375 L 10.273438 17.109375 C 10.136719 17.109375 10.003906 17.210938 10.003906 17.378906 C 10.003906 17.550781 10.105469 17.652344 10.273438 17.652344 Z M 10.273438 17.652344 " fill-opacity="1" fill-rule="nonzero"/></svg>