<svg xmlns="http://www.w3.org/2000/svg" xmlns:xlink="http://www.w3.org/1999/xlink" width="42" zoomAndPan="magnify" viewBox="0 0 31.5 31.499999" height="42" preserveAspectRatio="xMidYMid meet" version="1.0"><defs><clipPath id="a67f40a9d7"><path d="M 0.355469 0.429688 L 30.699219 0.429688 L 30.699219 30.773438 L 0.355469 30.773438 Z M 0.355469 0.429688 " clip-rule="nonzero"/></clipPath><clipPath id="214bf06511"><path d="M 8.476562 0.429688 L 22.578125 0.429688 C 24.730469 0.429688 26.796875 1.285156 28.320312 2.808594 C 29.839844 4.332031 30.699219 6.394531 30.699219 8.550781 L 30.699219 22.652344 C 30.699219 24.804688 29.839844 26.871094 28.320312 28.394531 C 26.796875 29.914062 24.730469 30.773438 22.578125 30.773438 L 8.476562 30.773438 C 6.320312 30.773438 4.257812 29.914062 2.734375 28.394531 C 1.210938 26.871094 0.355469 24.804688 0.355469 22.652344 L 0.355469 8.550781 C 0.355469 6.394531 1.210938 4.332031 2.734375 2.808594 C 4.257812 1.285156 6.320312 0.429688 8.476562 0.429688 Z M 8.476562 0.429688 " clip-rule="nonzero"/></clipPath><clipPath id="4e0e76d751"><path d="M 0.355469 0.429688 L 30.625 0.429688 L 30.625 30.699219 L 0.355469 30.699219 Z M 0.355469 0.429688 " clip-rule="nonzero"/></clipPath><clipPath id="16c5ee48eb"><path d="M 8.472656 0.429688 L 22.574219 0.429688 C 24.726562 0.429688 26.792969 1.285156 28.316406 2.808594 C 29.835938 4.328125 30.691406 6.394531 30.691406 8.546875 L 30.691406 22.648438 C 30.691406 24.800781 29.835938 26.867188 28.316406 28.390625 C 26.792969 29.910156 24.726562 30.765625 22.574219 30.765625 L 8.472656 30.765625 C 6.320312 30.765625 4.253906 29.910156 2.734375 28.390625 C 1.210938 26.867188 0.355469 24.800781 0.355469 22.648438 L 0.355469 8.546875 C 0.355469 6.394531 1.210938 4.328125 2.734375 2.808594 C 4.253906 1.285156 6.320312 0.429688 8.472656 0.429688 Z M 8.472656 0.429688 " clip-rule="nonzero"/></clipPath><clipPath id="c0eb87ec00"><path d="M 16 12 L 23 12 L 23 23.46875 L 16 23.46875 Z M 16 12 " clip-rule="nonzero"/></clipPath><clipPath id="b97efed3f3"><path d="M 7.03125 17 L 18 17 L 18 20 L 7.03125 20 Z M 7.03125 17 " clip-rule="nonzero"/></clipPath><clipPath id="1d0b8c0bd2"><path d="M 8 20 L 12 20 L 12 23.46875 L 8 23.46875 Z M 8 20 " clip-rule="nonzero"/></clipPath></defs><g clip-path="url(#a67f40a9d7)"><g clip-path="url(#214bf06511)"><path fill="#dee9f1" d="M 0.355469 0.429688 L 30.699219 0.429688 L 30.699219 30.773438 L 0.355469 30.773438 Z M 0.355469 0.429688 " fill-opacity="1" fill-rule="nonzero"/></g></g><g clip-path="url(#4e0e76d751)"><g clip-path="url(#16c5ee48eb)"><path stroke-linecap="butt" transform="matrix(0.738281, 0, 0, 0.738281, 0.354421, 0.428501)" fill="none" stroke-linejoin="miter" d="M 10.996128 0.00160698 L 30.096659 0.00160698 C 33.012003 0.00160698 35.810945 1.160337 37.874437 3.223829 C 39.932639 5.282031 41.091369 8.080973 41.091369 10.996317 L 41.091369 30.096847 C 41.091369 33.012191 39.932639 35.811133 37.874437 37.874626 C 35.810945 39.932827 33.012003 41.091557 30.096659 41.091557 L 10.996128 41.091557 C 8.080784 41.091557 5.281842 39.932827 3.223641 37.874626 C 1.160149 35.811133 0.00141866 33.012191 0.00141866 30.096847 L 0.00141866 10.996317 C 0.00141866 8.080973 1.160149 5.282031 3.223641 3.223829 C 5.281842 1.160337 8.080784 0.00160698 10.996128 0.00160698 Z M 10.996128 0.00160698 " stroke="#dce2e6" stroke-width="2" stroke-opacity="1" stroke-miterlimit="4"/></g></g><g clip-path="url(#c0eb87ec00)"><path fill="#0f4482" d="M 22.421875 21.4375 L 17.230469 12.558594 L 16.652344 13.546875 C 16.242188 14.253906 16.242188 15.125 16.652344 15.832031 L 20.566406 22.523438 C 20.878906 23.0625 21.589844 23.222656 22.101562 22.867188 C 22.566406 22.546875 22.707031 21.925781 22.421875 21.4375 " fill-opacity="1" fill-rule="nonzero"/></g><path fill="#0f4482" d="M 14.738281 12.558594 L 15.984375 10.425781 L 14.957031 8.667969 C 14.644531 8.128906 13.9375 7.96875 13.421875 8.324219 C 12.957031 8.644531 12.816406 9.265625 13.101562 9.753906 L 14.738281 12.558594 " fill-opacity="1" fill-rule="nonzero"/><path fill="#0f4482" d="M 23.96875 18.5625 C 23.933594 18 23.46875 17.5625 22.902344 17.558594 L 19.15625 17.53125 L 20.421875 19.691406 L 22.890625 19.707031 C 23.515625 19.710938 24.011719 19.183594 23.96875 18.5625 " fill-opacity="1" fill-rule="nonzero"/><g clip-path="url(#b97efed3f3)"><path fill="#0f4482" d="M 16.65625 17.515625 L 8.1875 17.460938 C 7.550781 17.457031 7.03125 17.972656 7.03125 18.609375 C 7.03125 19.160156 7.476562 19.609375 8.027344 19.613281 L 17.917969 19.675781 C 18.058594 18.902344 17.699219 18.125 17.019531 17.726562 L 16.65625 17.515625 " fill-opacity="1" fill-rule="nonzero"/></g><path fill="#0f4482" d="M 12.792969 18.472656 L 17.890625 9.753906 C 18.171875 9.265625 18.035156 8.644531 17.570312 8.324219 C 17.054688 7.96875 16.347656 8.128906 16.03125 8.667969 L 10.3125 18.457031 L 12.792969 18.472656 " fill-opacity="1" fill-rule="nonzero"/><g clip-path="url(#1d0b8c0bd2)"><path fill="#0f4482" d="M 9.058594 20.597656 L 8.566406 21.4375 C 8.285156 21.925781 8.421875 22.546875 8.886719 22.867188 C 9.402344 23.222656 10.109375 23.0625 10.425781 22.523438 L 11.539062 20.617188 L 11.078125 20.359375 C 10.421875 19.996094 9.609375 20.09375 9.058594 20.597656 " fill-opacity="1" fill-rule="nonzero"/></g></svg>