<svg xmlns="http://www.w3.org/2000/svg" xmlns:xlink="http://www.w3.org/1999/xlink" width="62" zoomAndPan="magnify" viewBox="0 0 46.5 48.749998" height="65" preserveAspectRatio="xMidYMid meet" version="1.0"><defs><clipPath id="a750c28065"><path d="M 0.683594 0.734375 L 46.003906 0.734375 L 46.003906 48.367188 L 0.683594 48.367188 Z M 0.683594 0.734375 " clip-rule="nonzero"/></clipPath></defs><g clip-path="url(#a750c28065)"><path fill="#0f4482" d="M 25.738281 27.488281 L 26.128906 27.488281 C 26.414062 25.914062 27.195312 24.199219 27.195312 22.472656 C 27.195312 19.984375 24.707031 18.664062 23.273438 19.285156 C 22.6875 19.527344 22.277344 20.148438 22.277344 21.203125 C 22.277344 27.03125 19.675781 30.074219 15.140625 30.90625 L 15.140625 45.351562 C 16.617188 45.898438 19.996094 46.875 21.386719 46.875 L 23.261719 46.875 C 22.585938 45.644531 22.738281 44.042969 23.691406 43.007812 C 22.195312 41.902344 22.011719 39.574219 23.25 38.195312 C 21.5 36.945312 21.519531 34.09375 23.300781 32.875 C 21.664062 30.988281 22.625 27.488281 25.738281 27.488281 Z M 27.734375 27.488281 L 32.988281 27.488281 C 35.90625 27.488281 36.960938 30.59375 35.652344 32.5625 C 37.84375 33.414062 38.230469 36.460938 36.5625 37.972656 C 38.28125 39.535156 37.8125 42.722656 35.445312 43.453125 C 36.675781 45.433594 35.609375 48.449219 32.734375 48.449219 L 21.378906 48.449219 C 19.894531 48.449219 16.789062 47.59375 15.109375 47.015625 C 15 47.980469 14.160156 48.730469 13.164062 48.730469 L 8.046875 48.730469 C 6.96875 48.730469 6.089844 47.859375 6.089844 46.792969 L 6.089844 29.507812 C 6.089844 28.441406 6.96875 27.566406 8.046875 27.566406 L 13.164062 27.566406 C 14.167969 27.566406 15.007812 28.328125 15.109375 29.304688 C 16.164062 29.082031 17.375 28.664062 18.367188 27.78125 C 19.667969 26.632812 20.660156 24.65625 20.660156 21.191406 C 20.660156 17.933594 23.476562 16.867188 25.902344 17.984375 C 27.449219 18.695312 28.761719 20.269531 28.761719 22.472656 C 28.78125 24.320312 28.105469 25.871094 27.734375 27.488281 Z M 33 33.910156 L 25.164062 33.910156 C 23.734375 33.910156 23.273438 35.273438 23.660156 36.246094 C 23.875 36.773438 24.378906 37.179688 25.164062 37.179688 L 34.390625 37.179688 C 35.824219 37.179688 36.285156 35.820312 35.886719 34.847656 C 35.671875 34.316406 35.179688 33.910156 34.390625 33.910156 Z M 32.988281 29.070312 L 25.730469 29.070312 C 24.296875 29.070312 23.835938 30.429688 24.222656 31.40625 C 24.4375 31.921875 24.929688 32.339844 25.707031 32.339844 L 32.988281 32.339844 C 34.414062 32.339844 34.871094 30.976562 34.472656 30.003906 C 34.277344 29.476562 33.777344 29.070312 32.988281 29.070312 Z M 25.648438 38.753906 C 24.214844 38.753906 23.753906 40.113281 24.140625 41.089844 C 24.355469 41.617188 24.859375 42.023438 25.648438 42.023438 L 34.382812 42.023438 C 35.816406 42.023438 36.277344 40.664062 35.875 39.6875 C 35.660156 39.160156 35.171875 38.753906 34.382812 38.753906 Z M 29.078125 46.875 L 32.734375 46.875 C 34.167969 46.875 34.628906 45.515625 34.238281 44.539062 C 34.023438 44.011719 33.519531 43.605469 32.734375 43.605469 L 26.058594 43.605469 C 24.625 43.605469 24.164062 44.964844 24.5625 45.941406 C 24.777344 46.457031 25.269531 46.875 26.046875 46.875 Z M 13.175781 29.140625 L 8.054688 29.140625 C 7.851562 29.140625 7.6875 29.304688 7.6875 29.507812 L 7.6875 46.78125 C 7.6875 46.984375 7.851562 47.148438 8.054688 47.148438 L 13.175781 47.148438 C 13.378906 47.148438 13.542969 46.984375 13.542969 46.78125 L 13.542969 29.507812 C 13.542969 29.3125 13.378906 29.140625 13.175781 29.140625 Z M 41.355469 13.074219 L 42.890625 15.425781 L 45.632812 16.160156 C 46.1875 16.300781 46.433594 16.96875 46.023438 17.4375 L 44.253906 19.597656 L 44.40625 22.421875 C 44.4375 22.980469 43.875 23.417969 43.300781 23.183594 L 40.667969 22.175781 L 38.015625 23.191406 C 37.472656 23.394531 36.910156 22.980469 36.941406 22.421875 L 37.09375 19.597656 L 35.304688 17.40625 C 34.933594 16.960938 35.171875 16.289062 35.710938 16.160156 L 38.46875 15.425781 L 40.011719 13.0625 C 40.332031 12.574219 41.046875 12.585938 41.355469 13.074219 Z M 41.734375 16.535156 L 40.679688 14.929688 L 39.644531 16.503906 C 39.542969 16.675781 39.378906 16.808594 39.164062 16.859375 L 37.300781 17.347656 L 38.496094 18.808594 C 38.621094 18.960938 38.703125 19.152344 38.691406 19.355469 L 38.589844 21.265625 L 40.390625 20.574219 C 40.566406 20.503906 40.769531 20.503906 40.964844 20.574219 L 42.757812 21.265625 L 42.65625 19.355469 C 42.644531 19.171875 42.707031 18.980469 42.828125 18.816406 L 44.046875 17.335938 L 42.183594 16.847656 C 42.011719 16.816406 41.835938 16.707031 41.734375 16.535156 Z M 7.082031 13.074219 L 8.617188 15.425781 L 11.375 16.160156 C 11.925781 16.300781 12.171875 16.96875 11.761719 17.4375 L 9.992188 19.597656 L 10.144531 22.421875 C 10.175781 22.980469 9.613281 23.417969 9.039062 23.183594 L 6.40625 22.175781 L 3.753906 23.191406 C 3.210938 23.394531 2.648438 22.980469 2.679688 22.421875 L 2.832031 19.597656 L 1.042969 17.40625 C 0.683594 16.960938 0.910156 16.289062 1.453125 16.160156 L 4.195312 15.425781 L 5.742188 13.0625 C 6.070312 12.574219 6.785156 12.585938 7.082031 13.074219 Z M 7.460938 16.535156 L 6.417969 14.929688 L 5.382812 16.503906 C 5.28125 16.675781 5.117188 16.808594 4.902344 16.859375 L 3.039062 17.347656 L 4.238281 18.808594 C 4.371094 18.960938 4.441406 19.152344 4.429688 19.355469 L 4.328125 21.265625 L 6.121094 20.574219 C 6.292969 20.503906 6.5 20.503906 6.695312 20.574219 L 8.496094 21.265625 L 8.394531 19.355469 C 8.382812 19.171875 8.445312 18.980469 8.566406 18.816406 L 9.785156 17.335938 L 7.933594 16.847656 C 7.738281 16.816406 7.574219 16.707031 7.460938 16.535156 Z M 24.222656 1.238281 L 26.414062 4.605469 L 30.335938 5.640625 C 30.890625 5.785156 31.136719 6.453125 30.726562 6.921875 L 28.195312 10.015625 L 28.410156 14.035156 C 28.441406 14.59375 27.878906 15.03125 27.304688 14.796875 L 23.546875 13.355469 L 19.757812 14.796875 C 19.21875 15 18.652344 14.585938 18.683594 14.027344 L 18.898438 10.007812 L 16.339844 6.890625 C 15.972656 6.445312 16.207031 5.773438 16.75 5.640625 L 20.679688 4.605469 L 22.882812 1.226562 C 23.199219 0.738281 23.917969 0.757812 24.222656 1.238281 Z M 25.257812 5.714844 L 23.546875 3.09375 L 21.859375 5.683594 C 21.757812 5.855469 21.59375 5.988281 21.378906 6.039062 L 18.347656 6.839844 L 20.300781 9.234375 C 20.433594 9.386719 20.507812 9.582031 20.496094 9.792969 L 20.324219 12.898438 L 23.25 11.785156 C 23.425781 11.710938 23.628906 11.710938 23.824219 11.785156 L 26.753906 12.898438 L 26.578125 9.792969 C 26.570312 9.609375 26.628906 9.417969 26.753906 9.253906 L 28.730469 6.839844 L 25.699219 6.039062 C 25.535156 5.996094 25.371094 5.886719 25.257812 5.714844 Z M 25.257812 5.714844 " fill-opacity="1" fill-rule="nonzero"/></g></svg>