<svg xmlns="http://www.w3.org/2000/svg" xmlns:xlink="http://www.w3.org/1999/xlink" width="76" zoomAndPan="magnify" viewBox="0 0 56.879997 53.25" height="71" preserveAspectRatio="xMidYMid meet" version="1.0"><defs><clipPath id="c72988928b"><path d="M 12 5 L 56.296875 5 L 56.296875 46 L 12 46 Z M 12 5 " clip-rule="nonzero"/></clipPath><clipPath id="9f783d8292"><path d="M 0.828125 32 L 31 32 L 31 52.511719 L 0.828125 52.511719 Z M 0.828125 32 " clip-rule="nonzero"/></clipPath></defs><g clip-path="url(#c72988928b)"><path fill="#0f4482" d="M 55.140625 45.402344 L 28.5625 45.402344 L 28.5625 43.066406 L 53.988281 43.066406 L 53.988281 8.054688 L 14.695312 8.054688 L 14.695312 17.390625 L 12.386719 17.390625 L 12.386719 6.886719 C 12.386719 6.242188 12.902344 5.722656 13.539062 5.722656 L 55.140625 5.722656 C 55.777344 5.722656 56.296875 6.242188 56.296875 6.886719 L 56.296875 44.234375 C 56.296875 44.878906 55.777344 45.402344 55.140625 45.402344 Z M 55.140625 45.402344 " fill-opacity="1" fill-rule="nonzero"/></g><path fill="#0f4482" d="M 15.851562 36.066406 C 10.117188 36.066406 5.453125 31.351562 5.453125 25.5625 C 5.453125 19.773438 10.117188 15.058594 15.851562 15.058594 C 21.585938 15.058594 26.253906 19.773438 26.253906 25.5625 C 26.253906 31.351562 21.585938 36.066406 15.851562 36.066406 Z M 15.851562 17.390625 C 11.390625 17.390625 7.761719 21.058594 7.761719 25.5625 C 7.761719 30.066406 11.390625 33.730469 15.851562 33.730469 C 20.3125 33.730469 23.941406 30.066406 23.941406 25.5625 C 23.941406 21.058594 20.3125 17.390625 15.851562 17.390625 Z M 15.851562 17.390625 " fill-opacity="1" fill-rule="nonzero"/><g clip-path="url(#9f783d8292)"><path fill="#0f4482" d="M 29.71875 52.40625 L 1.984375 52.40625 C 1.347656 52.40625 0.828125 51.882812 0.828125 51.238281 L 0.828125 46.957031 C 0.828125 40.539062 4.898438 34.773438 10.960938 32.609375 C 11.46875 32.429688 12.03125 32.632812 12.316406 33.085938 L 15.855469 38.707031 L 19.429688 33.054688 C 19.714844 32.605469 20.269531 32.40625 20.773438 32.578125 C 26.816406 34.640625 30.878906 40.261719 30.878906 46.566406 L 30.878906 51.234375 C 30.875 51.882812 30.355469 52.40625 29.71875 52.40625 Z M 3.140625 50.070312 L 28.5625 50.070312 L 28.5625 46.570312 C 28.5625 41.5625 25.507812 37.066406 20.871094 35.109375 L 16.824219 41.507812 C 16.613281 41.84375 16.246094 42.042969 15.851562 42.042969 C 15.457031 42.042969 15.089844 41.839844 14.878906 41.507812 L 10.878906 35.152344 C 6.214844 37.199219 3.144531 41.828125 3.144531 46.960938 Z M 3.140625 50.070312 " fill-opacity="1" fill-rule="nonzero"/></g><path fill="#0f4482" d="M 44.742188 15.058594 L 30.875 15.058594 C 30.238281 15.058594 29.71875 14.535156 29.71875 13.890625 C 29.71875 13.246094 30.238281 12.722656 30.875 12.722656 L 44.742188 12.722656 C 45.378906 12.722656 45.898438 13.246094 45.898438 13.890625 C 45.898438 14.535156 45.378906 15.058594 44.742188 15.058594 Z M 44.742188 15.058594 " fill-opacity="1" fill-rule="nonzero"/><path fill="#0f4482" d="M 49.363281 22.058594 L 30.875 22.058594 C 30.238281 22.058594 29.71875 21.539062 29.71875 20.894531 C 29.71875 20.25 30.238281 19.726562 30.875 19.726562 L 49.363281 19.726562 C 50 19.726562 50.519531 20.25 50.519531 20.894531 C 50.519531 21.539062 50 22.058594 49.363281 22.058594 Z M 49.363281 22.058594 " fill-opacity="1" fill-rule="nonzero"/><path fill="#0f4482" d="M 49.363281 29.0625 L 30.875 29.0625 C 30.238281 29.0625 29.71875 28.539062 29.71875 27.894531 C 29.71875 27.25 30.238281 26.730469 30.875 26.730469 L 49.363281 26.730469 C 50 26.730469 50.519531 27.25 50.519531 27.894531 C 50.519531 28.539062 50 29.0625 49.363281 29.0625 Z M 49.363281 29.0625 " fill-opacity="1" fill-rule="nonzero"/><path fill="#0f4482" d="M 27.605469 39.367188 C 27.3125 39.367188 27.015625 39.25 26.789062 39.023438 C 26.339844 38.574219 26.339844 37.832031 26.789062 37.375 L 33.328125 30.773438 C 33.777344 30.324219 34.511719 30.324219 34.960938 30.773438 C 35.410156 31.230469 35.410156 31.972656 34.960938 32.425781 L 28.421875 39.023438 C 28.199219 39.25 27.902344 39.367188 27.605469 39.367188 Z M 27.605469 39.367188 " fill-opacity="1" fill-rule="nonzero"/></svg>