<svg xmlns="http://www.w3.org/2000/svg" xmlns:xlink="http://www.w3.org/1999/xlink" width="55" zoomAndPan="magnify" viewBox="0 0 41.25 40.5" height="54" preserveAspectRatio="xMidYMid meet" version="1.0"><defs><clipPath id="e76bfac55c"><path d="M 0.332031 0.6875 L 39.914062 0.6875 L 39.914062 39.21875 L 0.332031 39.21875 Z M 0.332031 0.6875 " clip-rule="nonzero"/></clipPath><clipPath id="63bcfeea1c"><path d="M 8.433594 0.6875 L 31.8125 0.6875 C 36.285156 0.6875 39.914062 4.316406 39.914062 8.789062 L 39.914062 31.113281 C 39.914062 35.589844 36.285156 39.21875 31.8125 39.21875 L 8.433594 39.21875 C 3.957031 39.21875 0.332031 35.589844 0.332031 31.113281 L 0.332031 8.789062 C 0.332031 4.316406 3.957031 0.6875 8.433594 0.6875 Z M 8.433594 0.6875 " clip-rule="nonzero"/></clipPath><clipPath id="a2df4ac02a"><path d="M 0.332031 0.6875 L 40 0.6875 L 40 38.992188 L 0.332031 38.992188 Z M 0.332031 0.6875 " clip-rule="nonzero"/></clipPath><clipPath id="1c2a921f1f"><path d="M 8.433594 0.6875 L 31.808594 0.6875 C 36.28125 0.6875 39.910156 4.316406 39.910156 8.789062 L 39.910156 31.109375 C 39.910156 35.582031 36.28125 39.210938 31.808594 39.210938 L 8.433594 39.210938 C 3.960938 39.210938 0.332031 35.582031 0.332031 31.109375 L 0.332031 8.789062 C 0.332031 4.316406 3.960938 0.6875 8.433594 0.6875 Z M 8.433594 0.6875 " clip-rule="nonzero"/></clipPath><clipPath id="ea6dcbb40e"><path d="M 7.539062 5.851562 L 32 5.851562 L 32 33.378906 L 7.539062 33.378906 Z M 7.539062 5.851562 " clip-rule="nonzero"/></clipPath></defs><g clip-path="url(#e76bfac55c)"><g clip-path="url(#63bcfeea1c)"><path fill="#dee9f1" d="M 0.332031 0.6875 L 39.914062 0.6875 L 39.914062 39.21875 L 0.332031 39.21875 Z M 0.332031 0.6875 " fill-opacity="1" fill-rule="nonzero"/></g></g><g clip-path="url(#a2df4ac02a)"><g clip-path="url(#1c2a921f1f)"><path stroke-linecap="butt" transform="matrix(0.736607, 0, 0, 0.736607, 0.333495, 0.688306)" fill="none" stroke-linejoin="miter" d="M 10.996499 -0.00109461 L 42.729833 -0.00109461 C 48.801803 -0.00109461 53.728318 4.925421 53.728318 10.997391 L 53.728318 41.298907 C 53.728318 47.370877 48.801803 52.297392 42.729833 52.297392 L 10.996499 52.297392 C 4.924529 52.297392 -0.00198677 47.370877 -0.00198677 41.298907 L -0.00198677 10.997391 C -0.00198677 4.925421 4.924529 -0.00109461 10.996499 -0.00109461 Z M 10.996499 -0.00109461 " stroke="#dce2e6" stroke-width="2" stroke-opacity="1" stroke-miterlimit="4"/></g></g><g clip-path="url(#ea6dcbb40e)"><path fill="#0f4482" d="M 18.066406 5.84375 C 17.75 5.847656 17.496094 6.113281 17.5 6.4375 L 17.5 9.933594 C 17.496094 10.144531 17.605469 10.339844 17.785156 10.445312 C 17.964844 10.550781 18.1875 10.550781 18.367188 10.445312 C 18.546875 10.339844 18.65625 10.144531 18.652344 9.933594 L 18.652344 6.4375 C 18.65625 6.277344 18.59375 6.125 18.484375 6.015625 C 18.375 5.902344 18.222656 5.839844 18.066406 5.84375 Z M 12.878906 7.597656 C 12.644531 7.597656 12.433594 7.742188 12.34375 7.960938 C 12.257812 8.179688 12.308594 8.429688 12.480469 8.597656 L 14.785156 10.929688 C 14.929688 11.082031 15.144531 11.144531 15.347656 11.089844 C 15.546875 11.039062 15.707031 10.878906 15.757812 10.671875 C 15.8125 10.46875 15.75 10.25 15.601562 10.105469 L 13.292969 7.773438 C 13.183594 7.660156 13.035156 7.597656 12.878906 7.597656 Z M 23.253906 7.597656 C 23.105469 7.601562 22.960938 7.664062 22.859375 7.773438 L 20.550781 10.105469 C 20.402344 10.25 20.339844 10.46875 20.394531 10.671875 C 20.445312 10.878906 20.601562 11.039062 20.808594 11.089844 C 21.007812 11.144531 21.222656 11.082031 21.367188 10.929688 L 23.675781 8.597656 C 23.84375 8.429688 23.894531 8.175781 23.800781 7.953125 C 23.710938 7.730469 23.496094 7.585938 23.253906 7.597656 Z M 29.132812 8.191406 C 28.566406 8.191406 28 8.40625 27.570312 8.839844 L 17.054688 19.476562 C 16.878906 19.152344 16.792969 18.984375 16.472656 18.425781 C 15.9375 17.503906 15.339844 16.5 14.796875 15.953125 C 13.960938 15.109375 12.808594 14.523438 11.726562 14.226562 C 11.191406 14.078125 10.667969 14 10.191406 14.019531 C 9.710938 14.039062 9.25 14.140625 8.898438 14.492188 L 7.863281 15.539062 C 7.640625 15.765625 7.640625 16.136719 7.863281 16.367188 L 11.03125 19.566406 L 13.492188 27.03125 C 13.523438 27.117188 13.570312 27.195312 13.632812 27.257812 L 18.160156 31.835938 C 20.019531 33.71875 23.050781 33.71875 24.914062 31.835938 L 25.910156 30.828125 L 25.671875 30.828125 C 25.824219 30.828125 25.972656 30.765625 26.078125 30.65625 L 31.269531 25.410156 C 32.128906 24.542969 32.128906 23.121094 31.269531 22.25 C 30.925781 21.902344 30.488281 21.734375 30.039062 21.667969 C 30.316406 20.878906 30.160156 19.960938 29.539062 19.335938 C 29.195312 18.988281 28.757812 18.816406 28.3125 18.75 C 28.585938 17.960938 28.429688 17.046875 27.8125 16.421875 C 27.535156 16.140625 27.195312 15.988281 26.847656 15.886719 L 30.695312 11.996094 C 31.550781 11.128906 31.550781 9.707031 30.695312 8.839844 C 30.265625 8.40625 29.699219 8.191406 29.132812 8.191406 Z M 29.132812 9.347656 C 29.402344 9.347656 29.667969 9.453125 29.878906 9.664062 C 30.296875 10.085938 30.296875 10.75 29.878906 11.171875 L 24.6875 16.421875 C 24.46875 16.648438 24.472656 17.011719 24.695312 17.234375 C 24.917969 17.460938 25.273438 17.464844 25.503906 17.246094 C 25.917969 16.824219 26.578125 16.824219 26.996094 17.246094 C 27.410156 17.664062 27.410156 18.332031 26.996094 18.753906 L 26.417969 19.335938 C 26.199219 19.566406 26.203125 19.925781 26.425781 20.152344 C 26.648438 20.375 27.007812 20.382812 27.234375 20.160156 C 27.652344 19.738281 28.308594 19.738281 28.722656 20.160156 C 29.140625 20.582031 29.140625 21.246094 28.722656 21.667969 L 28.148438 22.25 C 27.929688 22.480469 27.933594 22.84375 28.15625 23.066406 C 28.378906 23.292969 28.734375 23.296875 28.964844 23.078125 C 29.378906 22.65625 30.039062 22.65625 30.457031 23.078125 C 30.871094 23.496094 30.871094 24.164062 30.457031 24.585938 L 25.265625 29.832031 L 24.097656 31.011719 C 22.679688 32.449219 20.394531 32.449219 18.976562 31.011719 L 14.542969 26.53125 L 12.082031 19.0625 C 12.050781 18.980469 12.003906 18.902344 11.941406 18.835938 L 9.085938 15.953125 L 9.714844 15.316406 C 9.742188 15.289062 9.917969 15.195312 10.234375 15.1875 C 10.550781 15.175781 10.972656 15.230469 11.425781 15.355469 C 12.328125 15.601562 13.34375 16.128906 13.984375 16.777344 C 14.285156 17.085938 14.957031 18.113281 15.476562 19.011719 C 15.996094 19.910156 16.414062 20.703125 16.414062 20.703125 C 16.5 20.867188 16.65625 20.980469 16.839844 21.007812 C 17.019531 21.035156 17.203125 20.972656 17.332031 20.84375 L 28.386719 9.664062 C 28.597656 9.453125 28.867188 9.347656 29.132812 9.347656 Z M 29.132812 9.347656 " fill-opacity="1" fill-rule="nonzero"/></g></svg>