<svg xmlns="http://www.w3.org/2000/svg" xmlns:xlink="http://www.w3.org/1999/xlink" width="42" zoomAndPan="magnify" viewBox="0 0 31.5 31.499999" height="42" preserveAspectRatio="xMidYMid meet" version="1.0"><defs><clipPath id="f83b5bfe91"><path d="M 0.378906 0.460938 L 30.324219 0.460938 L 30.324219 30.730469 L 0.378906 30.730469 Z M 0.378906 0.460938 " clip-rule="nonzero"/></clipPath><clipPath id="3bf8ebb445"><path d="M 8.5 0.460938 L 22.203125 0.460938 C 26.6875 0.460938 30.324219 4.097656 30.324219 8.582031 L 30.324219 22.609375 C 30.324219 27.09375 26.6875 30.730469 22.203125 30.730469 L 8.5 30.730469 C 4.011719 30.730469 0.378906 27.09375 0.378906 22.609375 L 0.378906 8.582031 C 0.378906 4.097656 4.011719 0.460938 8.5 0.460938 Z M 8.5 0.460938 " clip-rule="nonzero"/></clipPath><clipPath id="90c9f94422"><path d="M 0.378906 0.460938 L 30.3125 0.460938 L 30.3125 30.730469 L 0.378906 30.730469 Z M 0.378906 0.460938 " clip-rule="nonzero"/></clipPath><clipPath id="11bbec6554"><path d="M 8.496094 0.460938 L 22.195312 0.460938 C 26.679688 0.460938 30.3125 4.097656 30.3125 8.578125 L 30.3125 22.601562 C 30.3125 27.085938 26.679688 30.71875 22.195312 30.71875 L 8.496094 30.71875 C 4.011719 30.71875 0.378906 27.085938 0.378906 22.601562 L 0.378906 8.578125 C 0.378906 4.097656 4.011719 0.460938 8.496094 0.460938 Z M 8.496094 0.460938 " clip-rule="nonzero"/></clipPath><clipPath id="79d89b0874"><path d="M 5.746094 16 L 14 16 L 14 23.800781 L 5.746094 23.800781 Z M 5.746094 16 " clip-rule="nonzero"/></clipPath></defs><g clip-path="url(#f83b5bfe91)"><g clip-path="url(#3bf8ebb445)"><path fill="#dee9f1" d="M 0.378906 0.460938 L 30.324219 0.460938 L 30.324219 30.730469 L 0.378906 30.730469 Z M 0.378906 0.460938 " fill-opacity="1" fill-rule="nonzero"/></g></g><g clip-path="url(#90c9f94422)"><g clip-path="url(#11bbec6554)"><path stroke-linecap="butt" transform="matrix(0.738281, 0, 0, 0.738281, 0.377712, 0.461189)" fill="none" stroke-linejoin="miter" d="M 10.996328 -0.000341138 L 29.551885 -0.000341138 C 35.625959 -0.000341138 40.546594 4.925585 40.546594 10.994369 L 40.546594 29.989079 C 40.546594 36.063154 35.625959 40.983789 29.551885 40.983789 L 10.996328 40.983789 C 4.922253 40.983789 0.00161795 36.063154 0.00161795 29.989079 L 0.00161795 10.994369 C 0.00161795 4.925585 4.922253 -0.000341138 10.996328 -0.000341138 Z M 10.996328 -0.000341138 " stroke="#dce2e6" stroke-width="2" stroke-opacity="1" stroke-miterlimit="4"/></g></g><g clip-path="url(#79d89b0874)"><path fill="#0d2d4f" d="M 12.457031 16.675781 L 6.363281 21.398438 C 5.828125 21.8125 5.75 22.589844 6.191406 23.101562 L 6.464844 23.417969 C 6.902344 23.933594 7.683594 23.972656 8.171875 23.507812 L 13.765625 18.199219 C 13.511719 17.984375 13.273438 17.746094 13.050781 17.488281 C 12.828125 17.230469 12.632812 16.957031 12.457031 16.675781 " fill-opacity="1" fill-rule="nonzero"/></g><path fill="#0d2d4f" d="M 21.183594 17.441406 C 18.980469 19.332031 15.660156 19.078125 13.765625 16.875 C 11.875 14.671875 12.125 11.347656 14.332031 9.457031 C 16.535156 7.5625 19.855469 7.816406 21.75 10.023438 C 23.640625 12.226562 23.390625 15.546875 21.183594 17.441406 Z M 22.253906 9.589844 C 20.121094 7.105469 16.382812 6.820312 13.898438 8.953125 C 11.414062 11.082031 11.128906 14.824219 13.261719 17.308594 C 15.394531 19.792969 19.132812 20.078125 21.617188 17.945312 C 24.101562 15.8125 24.386719 12.070312 22.253906 9.589844 " fill-opacity="1" fill-rule="nonzero"/><path fill="#0d2d4f" d="M 21.1875 10.503906 C 20.402344 9.589844 19.304688 9.035156 18.101562 8.941406 C 16.898438 8.851562 15.734375 9.234375 14.816406 10.019531 C 14.605469 10.199219 14.582031 10.519531 14.761719 10.734375 C 14.835938 10.820312 14.929688 10.875 15.035156 10.898438 C 15.183594 10.933594 15.351562 10.898438 15.476562 10.789062 C 16.1875 10.179688 17.09375 9.882812 18.027344 9.953125 C 18.957031 10.023438 19.808594 10.453125 20.417969 11.164062 C 20.601562 11.375 20.921875 11.402344 21.132812 11.21875 C 21.34375 11.035156 21.371094 10.714844 21.1875 10.503906 " fill-opacity="1" fill-rule="nonzero"/></svg>