<svg id="Layer_1" data-name="Layer 1" xmlns="http://www.w3.org/2000/svg" viewBox="0 0 50 50"><defs><style>.cls-1{fill:#1677f0;}.cls-2{fill:#fff;}</style></defs><path class="cls-1" d="M45,25A20,20,0,1,0,21.9,44.8v-14H16.8V25h5.1V20.6c0-5,3-7.8,7.5-7.8a30.4,30.4,0,0,1,4.5.4v4.9H31.4c-2.5,0-3.3,1.6-3.3,3.1V25h5.6l-.9,5.8H28.1v14A20,20,0,0,0,45,25Z"/><path class="cls-2" d="M32.8,30.8l.9-5.8H28.1V21.2c0-1.5.8-3.1,3.3-3.1h2.5V13.2a30.4,30.4,0,0,0-4.5-.4c-4.5,0-7.5,2.8-7.5,7.8V25H16.8v5.8h5.1v14L25,45l3.1-.2v-14Z"/></svg>