<svg id="Layer_1" data-name="Layer 1" xmlns="http://www.w3.org/2000/svg" viewBox="0 0 50 50"><defs><style>.cls-1{fill:#fd0000;}.cls-2{fill:#fff;}</style></defs><circle class="cls-1" cx="25" cy="25" r="20.1"/><path class="cls-2" d="M37.8,18.6a3.3,3.3,0,0,0-2.3-2.4c-2.1-.6-10.5-.6-10.5-.6s-8.4,0-10.5.6a3.3,3.3,0,0,0-2.3,2.4,31.7,31.7,0,0,0-.6,6.4,31.7,31.7,0,0,0,.6,6.4,3.3,3.3,0,0,0,2.3,2.4c2.1.6,10.5.6,10.5.6s8.4,0,10.5-.6a3.3,3.3,0,0,0,2.3-2.4,31.7,31.7,0,0,0,.6-6.4A31.7,31.7,0,0,0,37.8,18.6ZM22.3,29V21l7,4Z"/></svg>