<svg id="Layer_1" data-name="Layer 1" xmlns="http://www.w3.org/2000/svg" viewBox="0 0 50 50"><defs><style>.cls-1{fill:#2967b0;}.cls-2{fill:#fdfdfd;}</style></defs><circle class="cls-1" cx="25" cy="25" r="20.1"/><path class="cls-2" d="M26.6,22.3l.9-1.1a5.1,5.1,0,0,1,3.7-1.5,8.5,8.5,0,0,1,2.3.3,4.6,4.6,0,0,1,3.3,3.4,12.9,12.9,0,0,1,.4,3.9v8.4a.3.3,0,0,1-.3.3H32.6c-.3,0-.3-.1-.3-.3v-8a6.2,6.2,0,0,0-.2-1.9,2.2,2.2,0,0,0-2.5-1.7c-1.7,0-2.5.9-2.8,2.6v9c0,.2-.1.3-.4.3H22.1a.3.3,0,0,1-.3-.3V20.4a.3.3,0,0,1,.3-.3h4.1c.3,0,.4.1.4.3A12,12,0,0,0,26.6,22.3Z"/><path class="cls-2" d="M18.7,28.1v7.5c0,.3,0,.4-.3.4H14.1c-.3,0-.3-.1-.3-.3V20.4c0-.2,0-.3.3-.3h4.3c.3,0,.3.1.3.4Z"/><path class="cls-2" d="M19.1,15.1a2.9,2.9,0,0,1-5.7,0,2.9,2.9,0,1,1,5.7,0Z"/></svg>