<svg xmlns="http://www.w3.org/2000/svg" xmlns:xlink="http://www.w3.org/1999/xlink" width="54" zoomAndPan="magnify" viewBox="0 0 40.5 39.749999" height="53" preserveAspectRatio="xMidYMid meet" version="1.0"><defs><clipPath id="1af6d86ce8"><path d="M 0.0859375 0.125 L 39.894531 0.125 L 39.894531 38.878906 L 0.0859375 38.878906 Z M 0.0859375 0.125 " clip-rule="nonzero"/></clipPath><clipPath id="7fdd767ec2"><path d="M 8.234375 0.125 L 31.746094 0.125 C 36.246094 0.125 39.894531 3.773438 39.894531 8.273438 L 39.894531 30.726562 C 39.894531 35.230469 36.246094 38.878906 31.746094 38.878906 L 8.234375 38.878906 C 3.734375 38.878906 0.0859375 35.230469 0.0859375 30.726562 L 0.0859375 8.273438 C 0.0859375 3.773438 3.734375 0.125 8.234375 0.125 Z M 8.234375 0.125 " clip-rule="nonzero"/></clipPath><clipPath id="b02a81f295"><path d="M 0.0859375 0.125 L 40 0.125 L 40 38.648438 L 0.0859375 38.648438 Z M 0.0859375 0.125 " clip-rule="nonzero"/></clipPath><clipPath id="048975f7eb"><path d="M 8.234375 0.125 L 31.742188 0.125 C 36.242188 0.125 39.890625 3.773438 39.890625 8.273438 L 39.890625 30.722656 C 39.890625 35.222656 36.242188 38.871094 31.742188 38.871094 L 8.234375 38.871094 C 3.738281 38.871094 0.0898438 35.222656 0.0898438 30.722656 L 0.0898438 8.273438 C 0.0898438 3.773438 3.738281 0.125 8.234375 0.125 Z M 8.234375 0.125 " clip-rule="nonzero"/></clipPath><clipPath id="7971e692fb"><path d="M 19.488281 5.320312 L 25.6875 5.320312 L 25.6875 7.320312 L 19.488281 7.320312 Z M 19.488281 5.320312 " clip-rule="nonzero"/></clipPath><clipPath id="deda73bb34"><path d="M 9 5.320312 L 19 5.320312 L 19 10.863281 L 9 10.863281 Z M 9 5.320312 " clip-rule="nonzero"/></clipPath><clipPath id="205b1656d0"><path d="M 6.015625 18 L 9.304688 18 L 9.304688 27.246094 L 6.015625 27.246094 Z M 6.015625 18 " clip-rule="nonzero"/></clipPath><clipPath id="2bb03b27e9"><path d="M 8.863281 27.246094 L 29.675781 27.246094 L 29.675781 33.226562 L 8.863281 33.226562 Z M 8.863281 27.246094 " clip-rule="nonzero"/></clipPath><clipPath id="baee7698e5"><path d="M 30.558594 11.304688 L 33.925781 11.304688 L 33.925781 27.691406 L 30.558594 27.691406 Z M 30.558594 11.304688 " clip-rule="nonzero"/></clipPath></defs><g clip-path="url(#1af6d86ce8)"><g clip-path="url(#7fdd767ec2)"><path fill="#dee9f1" d="M 0.0859375 0.125 L 39.894531 0.125 L 39.894531 38.878906 L 0.0859375 38.878906 Z M 0.0859375 0.125 " fill-opacity="1" fill-rule="nonzero"/></g></g><g clip-path="url(#b02a81f295)"><g clip-path="url(#048975f7eb)"><path stroke-linecap="butt" transform="matrix(0.740854, 0, 0, 0.740854, 0.0884661, 0.125699)" fill="none" stroke-linejoin="miter" d="M 10.995301 -0.000943072 L 42.726013 -0.000943072 C 48.800087 -0.000943072 53.724727 4.923697 53.724727 10.997771 L 53.724727 41.299599 C 53.724727 47.373673 48.800087 52.298313 42.726013 52.298313 L 10.995301 52.298313 C 4.9265 52.298313 0.00185952 47.373673 0.00185952 41.299599 L 0.00185952 10.997771 C 0.00185952 4.923697 4.9265 -0.000943072 10.995301 -0.000943072 Z M 10.995301 -0.000943072 " stroke="#dce2e6" stroke-width="2" stroke-opacity="1" stroke-miterlimit="4"/></g></g><path fill="#0f4482" d="M 29.523438 10.011719 C 29.523438 9.140625 28.8125 8.433594 27.941406 8.433594 C 27.074219 8.433594 26.363281 9.140625 26.363281 10.011719 C 26.363281 10.878906 27.074219 11.589844 27.941406 11.589844 C 28.8125 11.589844 29.523438 10.878906 29.523438 10.011719 Z M 27.097656 10.011719 C 27.097656 9.546875 27.476562 9.167969 27.941406 9.167969 C 28.40625 9.167969 28.785156 9.546875 28.785156 10.011719 C 28.785156 10.476562 28.40625 10.855469 27.941406 10.855469 C 27.476562 10.855469 27.097656 10.476562 27.097656 10.011719 Z M 27.097656 10.011719 " fill-opacity="1" fill-rule="nonzero"/><path fill="#0f4482" d="M 27.941406 7.246094 C 26.644531 7.246094 25.550781 8.136719 25.238281 9.335938 C 23.621094 8.484375 21.8125 8.035156 19.96875 8.035156 C 16.527344 8.035156 13.3125 9.574219 11.152344 12.261719 C 10.960938 12.5 10.777344 12.746094 10.605469 13 C 10.15625 12.691406 9.613281 12.511719 9.027344 12.511719 C 7.488281 12.511719 6.234375 13.765625 6.234375 15.308594 C 6.234375 16.640625 8.171875 18.964844 8.664062 19.53125 C 8.710938 22.492188 9.890625 25.261719 11.988281 27.355469 C 14.125 29.480469 16.957031 30.652344 19.96875 30.652344 C 26.207031 30.652344 31.28125 25.578125 31.28125 19.34375 C 31.28125 17.054688 30.605469 14.863281 29.324219 12.988281 C 30.003906 12.054688 30.738281 10.863281 30.738281 10.042969 C 30.738281 8.5 29.484375 7.246094 27.941406 7.246094 Z M 27.941406 7.980469 C 29.082031 7.980469 30.003906 8.90625 30.003906 10.042969 C 30.003906 10.910156 28.699219 12.65625 27.941406 13.5625 C 27.1875 12.65625 25.882812 10.910156 25.882812 10.042969 C 25.882812 8.90625 26.804688 7.980469 27.941406 7.980469 Z M 23.484375 13.523438 C 23.304688 13.078125 23.097656 12.632812 22.875 12.1875 C 22.113281 10.660156 21.285156 9.472656 20.765625 8.796875 C 22.308594 8.914062 23.808594 9.367188 25.152344 10.125 C 25.195312 10.910156 25.851562 12 26.484375 12.882812 C 25.640625 13.140625 24.707031 13.347656 23.703125 13.496094 C 23.628906 13.503906 23.558594 13.511719 23.484375 13.523438 Z M 30.539062 19.710938 C 30.464844 21.96875 29.675781 24.050781 28.390625 25.734375 C 27.148438 25.164062 25.570312 24.726562 23.808594 24.464844 C 23.792969 24.464844 23.777344 24.460938 23.761719 24.460938 C 24.277344 23.03125 24.65625 21.421875 24.703125 19.710938 Z M 23.003906 24.363281 C 22.839844 24.34375 22.675781 24.328125 22.511719 24.3125 C 22.667969 23.945312 22.765625 23.597656 22.765625 23.296875 C 22.765625 21.757812 21.511719 20.503906 19.96875 20.503906 C 18.429688 20.503906 17.175781 21.757812 17.175781 23.296875 C 17.175781 23.597656 17.273438 23.945312 17.429688 24.3125 C 17.265625 24.328125 17.101562 24.34375 16.9375 24.363281 C 16.414062 22.964844 16.023438 21.382812 15.972656 19.710938 L 23.96875 19.710938 C 23.917969 21.382812 23.527344 22.964844 23.003906 24.363281 Z M 17.21875 25.070312 C 17.40625 25.050781 17.59375 25.035156 17.785156 25.019531 C 18.472656 26.226562 19.527344 27.433594 19.695312 27.625 L 19.96875 27.9375 L 20.246094 27.625 C 20.417969 27.433594 21.464844 26.226562 22.15625 25.019531 C 22.347656 25.035156 22.535156 25.050781 22.71875 25.070312 C 21.742188 27.378906 20.46875 29.085938 19.96875 29.710938 C 19.472656 29.085938 18.199219 27.378906 17.21875 25.070312 Z M 19.96875 26.820312 C 19.078125 25.753906 17.910156 24.089844 17.910156 23.296875 C 17.910156 22.160156 18.835938 21.238281 19.96875 21.238281 C 21.109375 21.238281 22.03125 22.160156 22.03125 23.296875 C 22.03125 24.164062 20.726562 25.910156 19.96875 26.820312 Z M 16.132812 14.222656 C 16.152344 14.222656 16.167969 14.222656 16.183594 14.226562 C 15.597656 15.835938 15.28125 17.425781 15.238281 18.976562 L 9.851562 18.976562 C 10.605469 18.042969 11.824219 16.363281 11.824219 15.308594 C 11.824219 14.617188 11.574219 13.984375 11.15625 13.496094 C 11.28125 13.3125 11.410156 13.128906 11.546875 12.949219 C 12.789062 13.523438 14.367188 13.960938 16.132812 14.222656 Z M 15.238281 19.710938 C 15.285156 21.421875 15.660156 23.03125 16.179688 24.460938 C 16.164062 24.460938 16.148438 24.464844 16.132812 24.464844 C 14.371094 24.726562 12.796875 25.164062 11.554688 25.734375 C 10.269531 24.046875 9.480469 21.964844 9.402344 19.710938 Z M 15.972656 18.976562 C 16.019531 17.304688 16.414062 15.722656 16.9375 14.324219 C 17.921875 14.433594 18.9375 14.492188 19.96875 14.492188 C 21.003906 14.492188 22.023438 14.433594 23.007812 14.324219 C 23.53125 15.722656 23.917969 17.304688 23.96875 18.976562 Z M 19.96875 13.757812 C 19.035156 13.757812 18.113281 13.710938 17.21875 13.617188 C 18.191406 11.320312 19.460938 9.613281 19.96875 8.976562 C 20.480469 9.613281 21.75 11.320312 22.722656 13.617188 C 21.828125 13.710938 20.90625 13.757812 19.96875 13.757812 Z M 19.179688 8.796875 C 18.660156 9.472656 17.828125 10.660156 17.066406 12.1875 C 16.839844 12.632812 16.640625 13.078125 16.457031 13.523438 C 16.382812 13.511719 16.3125 13.503906 16.242188 13.496094 C 14.625 13.257812 13.179688 12.867188 12.027344 12.363281 C 13.863281 10.269531 16.414062 9.003906 19.179688 8.796875 Z M 9.027344 13.246094 C 10.164062 13.246094 11.089844 14.167969 11.089844 15.308594 C 11.089844 16.171875 9.785156 17.917969 9.027344 18.828125 C 8.269531 17.917969 6.964844 16.171875 6.964844 15.308594 C 6.964844 14.167969 7.890625 13.246094 9.027344 13.246094 Z M 12.035156 26.320312 C 13.1875 25.816406 14.628906 25.429688 16.242188 25.191406 C 16.308594 25.183594 16.382812 25.171875 16.449219 25.164062 C 17.332031 27.3125 18.484375 28.984375 19.175781 29.890625 C 16.339844 29.675781 13.8125 28.339844 12.035156 26.320312 Z M 20.765625 29.890625 C 21.460938 28.984375 22.609375 27.3125 23.492188 25.164062 C 23.5625 25.171875 23.632812 25.183594 23.703125 25.191406 C 25.3125 25.429688 26.757812 25.820312 27.910156 26.324219 C 26.132812 28.339844 23.601562 29.675781 20.765625 29.890625 Z M 30.539062 18.976562 L 24.703125 18.976562 C 24.660156 17.425781 24.34375 15.835938 23.757812 14.226562 C 23.773438 14.222656 23.792969 14.222656 23.808594 14.222656 C 24.949219 14.050781 26.003906 13.8125 26.953125 13.503906 C 27.300781 13.949219 27.585938 14.277344 27.667969 14.371094 L 27.941406 14.679688 L 28.21875 14.371094 C 28.292969 14.28125 28.542969 14 28.855469 13.605469 C 29.898438 15.210938 30.476562 17.050781 30.539062 18.976562 Z M 30.539062 18.976562 " fill-opacity="1" fill-rule="nonzero"/><g clip-path="url(#7971e692fb)"><path fill="#0f4482" d="M 25.3125 7.316406 C 25.0625 7.199219 24.804688 7.085938 24.550781 6.984375 L 24.820312 6.304688 C 25.089844 6.410156 25.363281 6.527344 25.625 6.652344 Z M 23.765625 6.703125 C 23.503906 6.617188 23.234375 6.539062 22.964844 6.472656 L 23.148438 5.761719 C 23.429688 5.832031 23.714844 5.917969 23.992188 6.007812 Z M 22.152344 6.289062 C 21.882812 6.238281 21.605469 6.195312 21.332031 6.160156 L 21.421875 5.433594 C 21.710938 5.46875 22.003906 5.515625 22.289062 5.570312 Z M 20.5 6.085938 C 20.234375 6.070312 19.960938 6.058594 19.691406 6.058594 L 19.667969 6.058594 L 19.667969 5.328125 L 19.691406 5.328125 C 19.976562 5.328125 20.261719 5.335938 20.546875 5.351562 Z M 20.5 6.085938 " fill-opacity="1" fill-rule="nonzero"/></g><g clip-path="url(#deda73bb34)"><path fill="#0f4482" d="M 10.5625 9.699219 C 12.828125 7.546875 15.777344 6.265625 18.910156 6.082031 L 18.863281 5.351562 C 15.550781 5.542969 12.429688 6.902344 10.039062 9.1875 L 9.960938 7.871094 L 9.230469 7.914062 L 9.378906 10.503906 L 11.976562 10.351562 L 11.933594 9.617188 Z M 10.5625 9.699219 " fill-opacity="1" fill-rule="nonzero"/></g><g clip-path="url(#205b1656d0)"><path fill="#0f4482" d="M 8.429688 27.246094 C 8.265625 27.003906 8.105469 26.757812 7.957031 26.503906 L 8.589844 26.128906 C 8.730469 26.367188 8.878906 26.605469 9.035156 26.832031 Z M 7.535156 25.734375 C 7.402344 25.476562 7.273438 25.207031 7.160156 24.941406 L 7.832031 24.648438 C 7.941406 24.902344 8.058594 25.15625 8.1875 25.402344 Z M 6.832031 24.125 C 6.734375 23.851562 6.644531 23.566406 6.5625 23.289062 L 7.265625 23.082031 C 7.34375 23.347656 7.429688 23.613281 7.523438 23.875 Z M 6.34375 22.4375 C 6.28125 22.152344 6.226562 21.863281 6.179688 21.574219 L 6.902344 21.460938 C 6.949219 21.734375 7 22.007812 7.058594 22.277344 Z M 6.070312 20.703125 C 6.042969 20.414062 6.027344 20.121094 6.015625 19.828125 L 6.75 19.804688 C 6.757812 20.082031 6.773438 20.359375 6.800781 20.632812 Z M 6.75 18.972656 L 6.015625 18.949219 C 6.027344 18.65625 6.042969 18.363281 6.070312 18.074219 L 6.800781 18.140625 C 6.773438 18.414062 6.757812 18.695312 6.75 18.972656 Z M 6.75 18.972656 " fill-opacity="1" fill-rule="nonzero"/></g><g clip-path="url(#2bb03b27e9)"><path fill="#0f4482" d="M 26.710938 29.101562 L 26.625 29.828125 L 27.910156 29.980469 C 25.632812 31.6875 22.835938 32.621094 19.980469 32.621094 C 15.855469 32.621094 12.035156 30.75 9.507812 27.480469 L 8.929688 27.929688 C 10.207031 29.582031 11.863281 30.949219 13.722656 31.878906 C 15.675781 32.859375 17.78125 33.355469 19.980469 33.355469 C 23.023438 33.355469 26.007812 32.347656 28.425781 30.511719 L 28.261719 31.898438 L 28.992188 31.984375 L 29.296875 29.40625 Z M 26.710938 29.101562 " fill-opacity="1" fill-rule="nonzero"/></g><g clip-path="url(#baee7698e5)"><path fill="#0f4482" d="M 31.390625 27.445312 L 30.792969 27.023438 C 30.941406 26.8125 31.082031 26.59375 31.21875 26.378906 L 31.84375 26.765625 C 31.699219 26.996094 31.546875 27.226562 31.390625 27.445312 Z M 32.253906 26.0625 L 31.609375 25.710938 C 31.734375 25.484375 31.851562 25.253906 31.960938 25.019531 L 32.625 25.335938 C 32.507812 25.578125 32.382812 25.824219 32.253906 26.0625 Z M 32.949219 24.585938 L 32.269531 24.3125 C 32.363281 24.074219 32.453125 23.828125 32.535156 23.585938 L 33.230469 23.820312 C 33.144531 24.078125 33.050781 24.335938 32.949219 24.585938 Z M 33.46875 23.039062 L 32.761719 22.847656 C 32.824219 22.597656 32.886719 22.34375 32.941406 22.09375 L 33.65625 22.242188 C 33.601562 22.507812 33.539062 22.777344 33.46875 23.039062 Z M 33.800781 21.441406 L 33.074219 21.332031 C 33.109375 21.078125 33.140625 20.820312 33.164062 20.566406 L 33.894531 20.628906 C 33.871094 20.898438 33.839844 21.171875 33.800781 21.441406 Z M 33.941406 19.816406 L 33.210938 19.792969 C 33.214844 19.65625 33.214844 19.519531 33.214844 19.382812 C 33.214844 19.261719 33.214844 19.140625 33.210938 19.019531 L 33.945312 19 C 33.949219 19.128906 33.949219 19.257812 33.949219 19.382812 C 33.949219 19.527344 33.949219 19.671875 33.941406 19.816406 Z M 33.167969 18.246094 C 33.148438 17.992188 33.117188 17.730469 33.078125 17.480469 L 33.804688 17.375 C 33.84375 17.640625 33.875 17.914062 33.898438 18.183594 Z M 32.949219 16.71875 C 32.898438 16.46875 32.835938 16.214844 32.773438 15.964844 L 33.480469 15.777344 C 33.550781 16.039062 33.613281 16.308594 33.667969 16.570312 Z M 32.550781 15.226562 C 32.46875 14.984375 32.382812 14.738281 32.285156 14.5 L 32.96875 14.230469 C 33.066406 14.480469 33.160156 14.738281 33.246094 14.996094 Z M 31.980469 13.789062 C 31.871094 13.558594 31.753906 13.324219 31.632812 13.101562 L 32.277344 12.75 C 32.40625 12.988281 32.53125 13.234375 32.644531 13.480469 Z M 31.246094 12.429688 C 31.113281 12.210938 30.96875 11.996094 30.820312 11.785156 L 31.421875 11.363281 C 31.574219 11.585938 31.726562 11.816406 31.871094 12.042969 Z M 31.246094 12.429688 " fill-opacity="1" fill-rule="nonzero"/></g><path fill="#0f4482" d="M 10.605469 15.277344 C 10.605469 14.40625 9.898438 13.699219 9.027344 13.699219 C 8.15625 13.699219 7.449219 14.40625 7.449219 15.277344 C 7.449219 16.144531 8.15625 16.851562 9.027344 16.851562 C 9.898438 16.851562 10.605469 16.144531 10.605469 15.277344 Z M 9.027344 16.121094 C 8.5625 16.121094 8.183594 15.742188 8.183594 15.277344 C 8.183594 14.8125 8.5625 14.433594 9.027344 14.433594 C 9.492188 14.433594 9.871094 14.8125 9.871094 15.277344 C 9.871094 15.742188 9.492188 16.121094 9.027344 16.121094 Z M 9.027344 16.121094 " fill-opacity="1" fill-rule="nonzero"/><path fill="#0f4482" d="M 19.96875 21.691406 C 19.101562 21.691406 18.394531 22.398438 18.394531 23.265625 C 18.394531 24.136719 19.101562 24.84375 19.96875 24.84375 C 20.839844 24.84375 21.546875 24.136719 21.546875 23.265625 C 21.546875 22.398438 20.839844 21.691406 19.96875 21.691406 Z M 19.96875 24.113281 C 19.503906 24.113281 19.125 23.734375 19.125 23.265625 C 19.125 22.800781 19.503906 22.421875 19.96875 22.421875 C 20.4375 22.421875 20.816406 22.800781 20.816406 23.265625 C 20.816406 23.734375 20.4375 24.113281 19.96875 24.113281 Z M 19.96875 24.113281 " fill-opacity="1" fill-rule="nonzero"/></svg>