<svg xmlns="http://www.w3.org/2000/svg" xmlns:xlink="http://www.w3.org/1999/xlink" width="86" zoomAndPan="magnify" viewBox="0 0 64.5 65.249999" height="87" preserveAspectRatio="xMidYMid meet" version="1.0"><defs><clipPath id="8fc3d45445"><path d="M 0.121094 34 L 63.144531 34 L 63.144531 63.503906 L 0.121094 63.503906 Z M 0.121094 34 " clip-rule="nonzero"/></clipPath><clipPath id="64722454e8"><path d="M 14 0.480469 L 49 0.480469 L 49 33 L 14 33 Z M 14 0.480469 " clip-rule="nonzero"/></clipPath></defs><g clip-path="url(#8fc3d45445)"><path fill="#0f4482" d="M 61.214844 53.132812 C 61.214844 53.714844 60.742188 54.1875 60.164062 54.1875 L 55.953125 54.1875 C 55.371094 54.1875 54.898438 53.714844 54.898438 53.132812 L 54.898438 38.394531 C 54.898438 37.8125 55.371094 37.34375 55.953125 37.34375 L 60.164062 37.34375 C 60.742188 37.34375 61.214844 37.8125 61.214844 38.394531 Z M 52.792969 50.453125 L 51.160156 51.542969 C 50.640625 51.886719 50.039062 52.070312 49.414062 52.070312 L 45.859375 52.082031 L 40.4375 46.660156 C 42.203125 46.710938 43.992188 46.152344 45.46875 44.972656 L 46.082031 44.480469 L 44.765625 42.835938 L 44.152344 43.328125 C 41.921875 45.113281 38.714844 44.933594 36.691406 42.914062 L 36.011719 42.234375 L 31.039062 46.378906 C 30.273438 47.019531 29.164062 46.96875 28.460938 46.265625 C 28.074219 45.878906 27.878906 45.367188 27.902344 44.824219 C 27.925781 44.28125 28.171875 43.789062 28.589844 43.441406 L 35.355469 37.800781 C 37.148438 36.308594 39.625 35.875 41.816406 36.671875 L 48.925781 39.257812 C 49.273438 39.382812 49.636719 39.449219 50.003906 39.449219 L 52.792969 39.449219 Z M 45.207031 56.074219 C 44.746094 56.535156 43.996094 56.535156 43.535156 56.074219 L 35.640625 48.179688 L 34.152344 49.667969 L 40.992188 56.511719 C 41.453125 56.972656 41.453125 57.71875 40.992188 58.179688 C 40.535156 58.640625 39.785156 58.640625 39.324219 58.179688 L 33.535156 52.390625 L 32.042969 53.878906 L 36.78125 58.617188 C 37.003906 58.839844 37.128906 59.136719 37.128906 59.453125 C 37.128906 59.765625 37.003906 60.0625 36.78125 60.285156 C 36.558594 60.507812 36.261719 60.632812 35.949219 60.632812 C 35.632812 60.632812 35.335938 60.507812 35.113281 60.285156 L 31.847656 57.019531 C 31.773438 56.289062 31.460938 55.578125 30.902344 55.023438 C 30.292969 54.414062 29.503906 54.09375 28.703125 54.0625 C 28.671875 53.234375 28.335938 52.457031 27.742188 51.863281 C 27.152344 51.273438 26.375 50.933594 25.542969 50.902344 C 25.511719 50.074219 25.175781 49.296875 24.585938 48.707031 C 23.964844 48.085938 23.140625 47.742188 22.261719 47.742188 C 21.886719 47.742188 21.523438 47.804688 21.179688 47.925781 C 21.023438 47.441406 20.757812 46.984375 20.375 46.597656 C 19.09375 45.316406 17.007812 45.316406 15.726562 46.597656 L 13.621094 48.707031 C 12.980469 49.34375 12.660156 50.183594 12.660156 51.023438 L 10.679688 51.019531 L 10.679688 39.4375 L 16.652344 39.445312 C 16.652344 39.445312 16.65625 39.445312 16.65625 39.445312 C 16.996094 39.445312 17.332031 39.394531 17.65625 39.285156 L 26.480469 36.34375 C 26.589844 36.308594 26.699219 36.289062 26.8125 36.289062 L 33.882812 36.289062 L 27.238281 41.824219 C 26.375 42.546875 25.851562 43.605469 25.796875 44.730469 C 25.746094 45.855469 26.175781 46.957031 26.972656 47.753906 C 27.757812 48.539062 28.78125 48.9375 29.8125 48.9375 C 30.71875 48.9375 31.632812 48.625 32.386719 48 L 35.882812 45.082031 L 45.207031 54.40625 C 45.664062 54.867188 45.664062 55.613281 45.207031 56.074219 Z M 31.519531 61.339844 C 31.058594 61.800781 30.308594 61.800781 29.847656 61.339844 L 29.539062 61.03125 L 30.902344 59.667969 C 31.007812 59.566406 31.101562 59.453125 31.1875 59.339844 L 31.519531 59.667969 C 31.976562 60.128906 31.976562 60.878906 31.519531 61.339844 Z M 27.308594 60.285156 C 27.082031 60.507812 26.789062 60.632812 26.472656 60.632812 C 26.15625 60.632812 25.859375 60.507812 25.636719 60.285156 C 25.414062 60.0625 25.292969 59.765625 25.292969 59.453125 C 25.292969 59.136719 25.414062 58.839844 25.636719 58.617188 L 27.742188 56.511719 C 27.964844 56.289062 28.261719 56.164062 28.578125 56.164062 C 28.894531 56.164062 29.191406 56.289062 29.414062 56.511719 C 29.636719 56.734375 29.757812 57.03125 29.757812 57.347656 C 29.757812 57.660156 29.636719 57.957031 29.414062 58.179688 Z M 23.09375 58.179688 C 22.871094 58.402344 22.574219 58.527344 22.261719 58.527344 C 21.945312 58.527344 21.648438 58.402344 21.425781 58.179688 C 21.203125 57.957031 21.078125 57.660156 21.078125 57.347656 C 21.078125 57.03125 21.203125 56.734375 21.425781 56.511719 L 24.585938 53.351562 C 24.808594 53.128906 25.105469 53.007812 25.417969 53.007812 C 25.734375 53.007812 26.03125 53.128906 26.253906 53.351562 C 26.476562 53.574219 26.601562 53.871094 26.601562 54.1875 C 26.601562 54.503906 26.476562 54.800781 26.253906 55.023438 Z M 19.101562 55.367188 C 18.789062 55.367188 18.492188 55.246094 18.265625 55.023438 C 18.042969 54.800781 17.921875 54.503906 17.921875 54.1875 C 17.921875 53.871094 18.042969 53.574219 18.265625 53.351562 L 21.425781 50.195312 C 21.648438 49.972656 21.945312 49.847656 22.261719 49.847656 C 22.574219 49.847656 22.871094 49.972656 23.09375 50.195312 C 23.320312 50.417969 23.441406 50.714844 23.441406 51.027344 C 23.441406 51.34375 23.320312 51.640625 23.09375 51.863281 L 19.9375 55.023438 C 19.714844 55.246094 19.417969 55.367188 19.101562 55.367188 Z M 15.945312 52.210938 C 15.628906 52.210938 15.332031 52.085938 15.109375 51.863281 C 14.886719 51.640625 14.761719 51.34375 14.761719 51.027344 C 14.761719 50.714844 14.886719 50.417969 15.109375 50.195312 L 17.214844 48.089844 C 17.4375 47.863281 17.734375 47.742188 18.050781 47.742188 C 18.363281 47.742188 18.660156 47.863281 18.882812 48.089844 C 19.109375 48.3125 19.230469 48.609375 19.230469 48.921875 C 19.230469 49.238281 19.109375 49.535156 18.882812 49.757812 L 16.777344 51.863281 C 16.554688 52.085938 16.257812 52.210938 15.945312 52.210938 Z M 8.574219 53.132812 C 8.574219 53.714844 8.101562 54.1875 7.519531 54.1875 L 3.308594 54.1875 C 2.730469 54.1875 2.257812 53.714844 2.257812 53.132812 L 2.257812 38.394531 C 2.257812 37.8125 2.730469 37.34375 3.308594 37.34375 L 7.519531 37.34375 C 8.101562 37.34375 8.574219 37.8125 8.574219 38.394531 Z M 60.164062 35.234375 L 55.953125 35.234375 C 54.578125 35.234375 53.410156 36.117188 52.972656 37.34375 L 50.003906 37.34375 C 49.882812 37.34375 49.761719 37.320312 49.644531 37.277344 L 42.539062 34.695312 C 41.425781 34.289062 40.257812 34.125 39.105469 34.1875 L 39.105469 34.183594 L 26.8125 34.183594 C 26.472656 34.183594 26.136719 34.238281 25.816406 34.34375 L 16.988281 37.289062 C 16.882812 37.324219 16.773438 37.34375 16.65625 37.339844 L 10.496094 37.332031 C 10.058594 36.109375 8.890625 35.234375 7.519531 35.234375 L 3.308594 35.234375 C 1.566406 35.234375 0.152344 36.652344 0.152344 38.394531 L 0.152344 53.132812 C 0.152344 54.875 1.566406 56.292969 3.308594 56.292969 L 7.519531 56.292969 C 9.261719 56.292969 10.679688 54.875 10.679688 53.132812 L 10.679688 53.125 L 13.421875 53.132812 C 13.484375 53.207031 13.550781 53.28125 13.621094 53.351562 C 14.230469 53.960938 15.019531 54.28125 15.820312 54.3125 C 15.851562 55.140625 16.1875 55.917969 16.777344 56.511719 C 17.371094 57.101562 18.148438 57.441406 18.976562 57.46875 C 19.007812 58.300781 19.347656 59.078125 19.9375 59.667969 C 20.558594 60.289062 21.382812 60.632812 22.261719 60.632812 C 22.636719 60.632812 23 60.570312 23.34375 60.449219 C 23.496094 60.933594 23.765625 61.390625 24.148438 61.773438 C 24.789062 62.414062 25.628906 62.738281 26.472656 62.738281 C 26.972656 62.738281 27.472656 62.621094 27.929688 62.398438 L 28.359375 62.828125 C 29 63.46875 29.84375 63.789062 30.683594 63.789062 C 31.523438 63.789062 32.367188 63.46875 33.007812 62.828125 C 33.300781 62.535156 33.527344 62.195312 33.6875 61.835938 C 34.320312 62.433594 35.132812 62.738281 35.949219 62.738281 C 36.789062 62.738281 37.628906 62.414062 38.269531 61.773438 C 38.648438 61.398438 38.921875 60.945312 39.078125 60.449219 C 39.429688 60.570312 39.792969 60.632812 40.160156 60.632812 C 41 60.632812 41.84375 60.308594 42.484375 59.667969 C 42.867188 59.285156 43.136719 58.828125 43.289062 58.34375 C 43.636719 58.464844 44.003906 58.523438 44.371094 58.523438 C 45.210938 58.523438 46.054688 58.203125 46.695312 57.5625 C 47.605469 56.652344 47.871094 55.328125 47.480469 54.183594 L 49.421875 54.175781 C 50.457031 54.175781 51.464844 53.871094 52.328125 53.292969 L 52.792969 52.984375 L 52.792969 53.132812 C 52.792969 54.875 54.210938 56.292969 55.953125 56.292969 L 60.164062 56.292969 C 61.90625 56.292969 63.320312 54.875 63.320312 53.132812 L 63.320312 38.394531 C 63.320312 36.652344 61.90625 35.234375 60.164062 35.234375 " fill-opacity="1" fill-rule="nonzero"/></g><g clip-path="url(#64722454e8)"><path fill="#0f4482" d="M 31.738281 11.089844 L 46.074219 16.824219 L 45.824219 17.324219 L 17.648438 17.324219 L 17.398438 16.824219 Z M 28.578125 7.847656 C 28.578125 6.109375 29.996094 4.691406 31.738281 4.691406 C 33.476562 4.691406 34.894531 6.109375 34.894531 7.847656 L 34.894531 10.085938 L 31.738281 8.820312 L 28.578125 10.085938 Z M 45.421875 29.960938 L 43.316406 29.960938 L 43.316406 19.429688 L 45.421875 19.429688 Z M 41.210938 29.960938 L 39.105469 29.960938 L 39.105469 19.429688 L 41.210938 19.429688 Z M 37 29.960938 L 34.894531 29.960938 L 34.894531 19.429688 L 37 19.429688 Z M 32.789062 29.960938 L 30.683594 29.960938 L 30.683594 19.429688 L 32.789062 19.429688 Z M 28.578125 29.960938 L 26.472656 29.960938 L 26.472656 19.429688 L 28.578125 19.429688 Z M 24.367188 29.960938 L 22.261719 29.960938 L 22.261719 19.429688 L 24.367188 19.429688 Z M 20.15625 29.960938 L 18.050781 29.960938 L 18.050781 19.429688 L 20.15625 19.429688 Z M 15.945312 29.960938 L 14.890625 29.960938 L 14.890625 32.066406 L 48.582031 32.066406 L 48.582031 29.960938 L 47.527344 29.960938 L 47.527344 18.625 L 48.980469 15.71875 L 37 10.925781 L 37 7.847656 C 37 5.308594 35.1875 3.179688 32.789062 2.691406 L 32.789062 0.480469 L 30.683594 0.480469 L 30.683594 2.691406 C 28.285156 3.179688 26.472656 5.308594 26.472656 7.847656 L 26.472656 10.925781 L 14.492188 15.71875 L 15.945312 18.625 L 15.945312 29.960938 " fill-opacity="1" fill-rule="nonzero"/></g></svg>