<svg xmlns="http://www.w3.org/2000/svg" xmlns:xlink="http://www.w3.org/1999/xlink" width="65" zoomAndPan="magnify" viewBox="0 0 48.75 48.749998" height="65" preserveAspectRatio="xMidYMid meet" version="1.0"><defs><clipPath id="a6a73d6f74"><path d="M 0.597656 0.601562 L 17 0.601562 L 17 17 L 0.597656 17 Z M 0.597656 0.601562 " clip-rule="nonzero"/></clipPath><clipPath id="dea42c64e7"><path d="M 0.597656 23 L 48.5 23 L 48.5 48.5 L 0.597656 48.5 Z M 0.597656 23 " clip-rule="nonzero"/></clipPath><clipPath id="bdbe308c41"><path d="M 32 0.601562 L 48.5 0.601562 L 48.5 17 L 32 17 Z M 32 0.601562 " clip-rule="nonzero"/></clipPath></defs><path fill="#0f4482" d="M 24.597656 25.726562 C 29.171875 25.726562 32.847656 22.050781 32.847656 17.476562 C 32.847656 12.898438 29.171875 9.226562 24.597656 9.226562 C 20.023438 9.226562 16.347656 12.898438 16.347656 17.476562 C 16.347656 22.050781 20.023438 25.726562 24.597656 25.726562 Z M 24.597656 10.726562 C 28.3125 10.726562 31.347656 13.761719 31.347656 17.476562 C 31.347656 21.1875 28.3125 24.226562 24.597656 24.226562 C 20.886719 24.226562 17.847656 21.1875 17.847656 17.476562 C 17.847656 13.761719 20.886719 10.726562 24.597656 10.726562 Z M 24.597656 10.726562 " fill-opacity="1" fill-rule="nonzero"/><g clip-path="url(#a6a73d6f74)"><path fill="#0f4482" d="M 2.359375 10.988281 C 2.097656 11.363281 1.949219 11.851562 1.984375 12.300781 C 2.023438 12.863281 2.25 13.351562 2.660156 13.761719 L 3.148438 14.25 C 3.5625 14.664062 4.160156 14.925781 4.722656 14.925781 C 5.171875 14.925781 5.585938 14.8125 5.921875 14.550781 C 6.109375 15.5625 7.011719 16.3125 8.097656 16.3125 L 8.8125 16.3125 C 9.898438 16.3125 10.796875 15.5625 10.984375 14.550781 C 11.324219 14.773438 11.734375 14.925781 12.1875 14.925781 C 12.785156 14.925781 13.347656 14.699219 13.761719 14.25 L 14.25 13.761719 C 15.035156 12.976562 15.109375 11.8125 14.546875 10.988281 C 15.5625 10.800781 16.3125 9.898438 16.3125 8.8125 L 16.3125 8.101562 C 16.3125 7.011719 15.5625 6.113281 14.546875 5.925781 C 15.109375 5.101562 15.035156 3.898438 14.25 3.148438 L 13.761719 2.664062 C 13.347656 2.25 12.75 1.988281 12.1875 1.988281 C 11.734375 1.988281 11.324219 2.101562 10.984375 2.363281 C 10.835938 1.351562 9.898438 0.601562 8.8125 0.601562 L 8.097656 0.601562 C 7.011719 0.601562 6.109375 1.351562 5.921875 2.363281 C 5.585938 2.136719 5.171875 1.988281 4.722656 1.988281 C 4.125 1.988281 3.5625 2.210938 3.148438 2.664062 L 2.660156 3.148438 C 2.25 3.5625 1.984375 4.164062 1.984375 4.726562 C 1.984375 5.175781 2.097656 5.585938 2.359375 5.925781 C 1.347656 6.113281 0.597656 7.050781 0.597656 8.136719 L 0.597656 8.851562 C 0.597656 9.898438 1.347656 10.835938 2.359375 10.988281 Z M 2.097656 8.136719 C 2.097656 7.761719 2.398438 7.425781 2.734375 7.425781 L 3.636719 7.425781 C 3.75 6.824219 4.011719 6.300781 4.3125 5.8125 L 3.671875 5.175781 C 3.410156 4.914062 3.449219 4.5 3.75 4.238281 L 4.234375 3.75 C 4.347656 3.5625 4.574219 3.488281 4.722656 3.488281 C 4.875 3.488281 5.023438 3.523438 5.136719 3.675781 L 5.773438 4.3125 C 6.261719 4.011719 6.785156 3.789062 7.386719 3.636719 L 7.386719 2.738281 C 7.421875 2.363281 7.722656 2.101562 8.136719 2.101562 L 8.847656 2.101562 C 9.222656 2.101562 9.5625 2.363281 9.5625 2.738281 L 9.5625 3.636719 C 10.160156 3.75 10.6875 3.976562 11.171875 4.3125 L 11.8125 3.675781 C 11.921875 3.5625 12.074219 3.488281 12.222656 3.488281 C 12.410156 3.488281 12.597656 3.5625 12.75 3.710938 L 13.234375 4.199219 C 13.5 4.460938 13.535156 4.914062 13.273438 5.136719 L 12.636719 5.773438 C 12.9375 6.261719 13.160156 6.789062 13.3125 7.386719 L 14.210938 7.386719 C 14.546875 7.386719 14.847656 7.6875 14.847656 8.101562 L 14.847656 8.8125 C 14.847656 9.1875 14.546875 9.523438 14.210938 9.523438 L 13.3125 9.523438 C 13.199219 10.125 12.9375 10.648438 12.636719 11.136719 L 13.273438 11.773438 C 13.535156 12.039062 13.5 12.449219 13.234375 12.710938 L 12.75 13.199219 C 12.597656 13.351562 12.410156 13.425781 12.222656 13.425781 C 12.074219 13.425781 11.921875 13.386719 11.8125 13.238281 L 11.171875 12.601562 C 10.6875 12.898438 10.160156 13.125 9.5625 13.273438 L 9.5625 14.175781 C 9.5625 14.511719 9.261719 14.8125 8.847656 14.8125 L 8.136719 14.8125 C 7.761719 14.8125 7.421875 14.511719 7.421875 14.175781 L 7.421875 13.273438 C 6.824219 13.164062 6.296875 12.898438 5.8125 12.601562 L 5.171875 13.238281 C 5.0625 13.351562 4.910156 13.425781 4.761719 13.425781 C 4.574219 13.425781 4.386719 13.351562 4.234375 13.199219 L 3.75 12.710938 C 3.484375 12.449219 3.449219 12 3.671875 11.773438 L 4.3125 11.136719 C 4.011719 10.648438 3.785156 10.125 3.636719 9.523438 L 2.734375 9.523438 C 2.398438 9.523438 2.097656 9.226562 2.097656 8.8125 Z M 2.097656 8.136719 " fill-opacity="1" fill-rule="nonzero"/></g><g clip-path="url(#dea42c64e7)"><path fill="#0f4482" d="M 47.847656 39.226562 L 41.097656 39.226562 L 41.097656 32.511719 C 41.097656 27.1875 37.6875 23.511719 32.511719 23.136719 C 32.136719 23.664062 31.6875 24.148438 31.234375 24.601562 L 31.574219 24.601562 C 36.375 24.601562 39.597656 27.789062 39.597656 32.511719 L 39.597656 39.226562 L 37.761719 39.226562 L 38.097656 33.675781 L 38.097656 33.636719 C 38.097656 32.398438 37.085938 31.351562 35.847656 31.351562 L 13.347656 31.351562 C 12.109375 31.351562 11.097656 32.363281 11.097656 33.636719 L 11.4375 39.226562 L 9.597656 39.226562 L 9.597656 32.511719 C 9.597656 27.789062 12.824219 24.601562 17.625 24.601562 L 17.960938 24.601562 C 17.472656 24.148438 17.0625 23.664062 16.6875 23.136719 C 11.511719 23.550781 8.097656 27.1875 8.097656 32.511719 L 8.097656 39.226562 L 1.347656 39.226562 C 0.9375 39.226562 0.597656 39.5625 0.597656 39.976562 C 0.597656 40.386719 0.9375 40.726562 1.347656 40.726562 L 11.511719 40.726562 L 11.847656 46.351562 C 11.847656 47.585938 12.859375 48.601562 14.097656 48.601562 L 35.097656 48.601562 C 36.335938 48.601562 37.347656 47.585938 37.347656 46.351562 L 37.6875 40.726562 L 47.847656 40.726562 C 48.261719 40.726562 48.597656 40.386719 48.597656 39.976562 C 48.597656 39.5625 48.261719 39.226562 47.847656 39.226562 Z M 35.847656 46.273438 L 35.847656 46.3125 C 35.847656 46.726562 35.511719 47.101562 35.097656 47.101562 L 14.097656 47.101562 C 13.6875 47.101562 13.347656 46.761719 13.347656 46.3125 L 12.597656 33.601562 C 12.597656 33.1875 12.9375 32.851562 13.347656 32.851562 L 35.847656 32.851562 C 36.261719 32.851562 36.597656 33.1875 36.597656 33.601562 Z M 35.847656 46.273438 " fill-opacity="1" fill-rule="nonzero"/></g><path fill="#0f4482" d="M 8.472656 11.851562 C 10.347656 11.851562 11.847656 10.351562 11.847656 8.476562 C 11.847656 6.601562 10.347656 5.101562 8.472656 5.101562 C 6.597656 5.101562 5.097656 6.601562 5.097656 8.476562 C 5.097656 10.351562 6.597656 11.851562 8.472656 11.851562 Z M 8.472656 6.601562 C 9.523438 6.601562 10.347656 7.425781 10.347656 8.476562 C 10.347656 9.523438 9.523438 10.351562 8.472656 10.351562 C 7.421875 10.351562 6.597656 9.523438 6.597656 8.476562 C 6.597656 7.425781 7.421875 6.601562 8.472656 6.601562 Z M 8.472656 6.601562 " fill-opacity="1" fill-rule="nonzero"/><g clip-path="url(#bdbe308c41)"><path fill="#0f4482" d="M 46.835938 5.960938 C 47.398438 5.136719 47.324219 3.9375 46.535156 3.1875 L 46.046875 2.699219 C 45.636719 2.289062 45.035156 2.023438 44.472656 2.023438 C 44.023438 2.023438 43.609375 2.136719 43.273438 2.398438 C 43.085938 1.351562 42.148438 0.601562 41.0625 0.601562 L 40.347656 0.601562 C 39.261719 0.601562 38.359375 1.351562 38.171875 2.363281 C 37.835938 2.136719 37.421875 1.988281 36.972656 1.988281 C 36.375 1.988281 35.8125 2.210938 35.398438 2.664062 L 34.910156 3.148438 C 34.5 3.5625 34.234375 4.164062 34.234375 4.726562 C 34.234375 5.175781 34.347656 5.585938 34.609375 5.925781 C 33.597656 6.113281 32.847656 7.050781 32.847656 8.136719 L 32.847656 8.851562 C 32.847656 9.9375 33.597656 10.835938 34.609375 11.023438 C 34.347656 11.398438 34.199219 11.886719 34.234375 12.335938 C 34.273438 12.898438 34.5 13.386719 34.910156 13.800781 L 35.398438 14.289062 C 35.8125 14.699219 36.410156 14.960938 36.972656 14.960938 C 37.421875 14.960938 37.835938 14.851562 38.171875 14.585938 C 38.359375 15.601562 39.261719 16.351562 40.347656 16.351562 L 41.0625 16.351562 C 42.148438 16.351562 43.046875 15.601562 43.234375 14.585938 C 43.574219 14.8125 43.984375 14.960938 44.4375 14.960938 C 45.035156 14.960938 45.597656 14.738281 46.011719 14.289062 L 46.5 13.800781 C 47.285156 13.011719 47.359375 11.851562 46.796875 11.023438 C 47.8125 10.835938 48.5625 9.9375 48.5625 8.851562 L 48.5625 8.136719 C 48.597656 7.050781 47.847656 6.113281 46.835938 5.960938 Z M 47.097656 8.8125 C 47.097656 9.1875 46.796875 9.523438 46.460938 9.523438 L 45.5625 9.523438 C 45.449219 10.125 45.1875 10.648438 44.886719 11.136719 L 45.523438 11.773438 C 45.785156 12.039062 45.75 12.449219 45.484375 12.710938 L 45 13.199219 C 44.847656 13.351562 44.660156 13.425781 44.472656 13.425781 C 44.324219 13.425781 44.171875 13.386719 44.0625 13.238281 L 43.421875 12.601562 C 42.9375 12.898438 42.410156 13.125 41.8125 13.273438 L 41.8125 14.175781 C 41.8125 14.511719 41.511719 14.8125 41.097656 14.8125 L 40.386719 14.8125 C 40.011719 14.8125 39.671875 14.511719 39.671875 14.175781 L 39.671875 13.273438 C 39.074219 13.164062 38.546875 12.898438 38.0625 12.601562 L 37.421875 13.238281 C 37.3125 13.351562 37.160156 13.425781 37.011719 13.425781 C 36.824219 13.425781 36.636719 13.351562 36.484375 13.199219 L 36 12.710938 C 35.734375 12.449219 35.699219 12 35.921875 11.773438 L 36.5625 11.136719 C 36.261719 10.648438 36.035156 10.125 35.886719 9.523438 L 34.984375 9.523438 C 34.648438 9.523438 34.347656 9.226562 34.347656 8.8125 L 34.347656 8.101562 C 34.347656 7.726562 34.648438 7.386719 34.984375 7.386719 L 35.886719 7.386719 C 36 6.789062 36.261719 6.261719 36.5625 5.773438 L 35.921875 5.136719 C 35.660156 4.875 35.699219 4.460938 36 4.199219 L 36.484375 3.710938 C 36.597656 3.5625 36.824219 3.488281 36.972656 3.488281 C 37.125 3.488281 37.273438 3.523438 37.386719 3.675781 L 38.023438 4.3125 C 38.511719 4.011719 39.035156 3.789062 39.636719 3.636719 L 39.636719 2.738281 C 39.636719 2.398438 39.9375 2.101562 40.347656 2.101562 L 41.0625 2.101562 C 41.4375 2.101562 41.773438 2.363281 41.773438 2.738281 L 41.773438 3.636719 C 42.375 3.75 42.898438 3.976562 43.386719 4.3125 L 44.023438 3.675781 C 44.136719 3.5625 44.285156 3.488281 44.4375 3.488281 C 44.625 3.488281 44.8125 3.5625 44.960938 3.710938 L 45.449219 4.199219 C 45.710938 4.460938 45.75 4.914062 45.484375 5.136719 L 44.847656 5.773438 C 45.148438 6.261719 45.375 6.789062 45.523438 7.386719 L 46.421875 7.386719 C 46.761719 7.386719 47.0625 7.6875 47.0625 8.101562 L 47.0625 8.8125 Z M 47.097656 8.8125 " fill-opacity="1" fill-rule="nonzero"/></g><path fill="#0f4482" d="M 40.722656 5.101562 C 38.847656 5.101562 37.347656 6.601562 37.347656 8.476562 C 37.347656 10.351562 38.847656 11.851562 40.722656 11.851562 C 42.597656 11.851562 44.097656 10.351562 44.097656 8.476562 C 44.097656 6.601562 42.597656 5.101562 40.722656 5.101562 Z M 40.722656 10.351562 C 39.671875 10.351562 38.847656 9.523438 38.847656 8.476562 C 38.847656 7.425781 39.671875 6.601562 40.722656 6.601562 C 41.773438 6.601562 42.597656 7.425781 42.597656 8.476562 C 42.597656 9.523438 41.773438 10.351562 40.722656 10.351562 Z M 40.722656 10.351562 " fill-opacity="1" fill-rule="nonzero"/><path fill="#0f4482" d="M 24.222656 37.648438 C 22.761719 37.648438 21.597656 38.8125 21.597656 40.273438 C 21.597656 41.738281 22.761719 42.898438 24.222656 42.898438 C 25.6875 42.898438 26.847656 41.738281 26.847656 40.273438 C 26.847656 38.8125 25.6875 37.648438 24.222656 37.648438 Z M 24.222656 41.398438 C 23.585938 41.398438 23.097656 40.914062 23.097656 40.273438 C 23.097656 39.636719 23.585938 39.148438 24.222656 39.148438 C 24.859375 39.148438 25.347656 39.636719 25.347656 40.273438 C 25.347656 40.914062 24.859375 41.398438 24.222656 41.398438 Z M 24.222656 41.398438 " fill-opacity="1" fill-rule="nonzero"/></svg>