<svg xmlns="http://www.w3.org/2000/svg" xmlns:xlink="http://www.w3.org/1999/xlink" width="28" zoomAndPan="magnify" viewBox="0 0 21 33.749998" height="45" preserveAspectRatio="xMidYMid meet" version="1.0"><defs><clipPath id="2f6c799aed"><path d="M 0.0898438 0.554688 L 20.191406 0.554688 L 20.191406 33 L 0.0898438 33 Z M 0.0898438 0.554688 " clip-rule="nonzero"/></clipPath><clipPath id="06c8c1fb70"><path d="M 0.0898438 0.554688 L 20.191406 0.554688 L 20.191406 33.308594 L 0.0898438 33.308594 Z M 0.0898438 0.554688 " clip-rule="nonzero"/></clipPath></defs><g clip-path="url(#2f6c799aed)"><path fill="#fbbc3f" d="M 18.972656 21.285156 C 17.945312 19.394531 17.539062 17.539062 20.039062 15.800781 C 17.390625 16.082031 16.585938 17.742188 16.25 19.28125 C 15.210938 17.949219 15.890625 17.074219 16.757812 16.277344 C 18.527344 14.648438 18.421875 12.925781 17.203125 11.195312 C 16.613281 10.359375 15.886719 9.582031 15.101562 8.871094 C 13.71875 7.613281 12.734375 6.195312 13.6875 4.097656 C 9.304688 7.367188 15.707031 9.890625 13.34375 13.398438 C 13.246094 12.035156 12.679688 9.953125 9.777344 9.0625 C 8.101562 8.546875 7.570312 6.960938 8.707031 5.449219 C 9.886719 3.878906 9.488281 2.398438 7.785156 0.886719 C 8.0625 2.570312 8.355469 3.394531 7.117188 4.515625 C 3.753906 7.5625 4.171875 8.746094 6.804688 11.25 C 8.492188 12.855469 8.964844 14.683594 6.933594 15.75 C 6.816406 13.90625 5.636719 12.824219 3.050781 12.121094 C 5.363281 14.589844 4.359375 16.613281 2.871094 18.585938 C 2.007812 19.726562 0.914062 21.492188 0.683594 22.804688 C 0.679688 22.828125 0.675781 22.855469 0.671875 22.882812 C 0.492188 23.503906 0.417969 24.210938 0.457031 25.015625 C 0.695312 29.542969 5.210938 32.984375 10.539062 32.707031 C 15.871094 32.425781 19.996094 28.527344 19.761719 24.003906 C 19.734375 23.472656 19.636719 22.996094 19.480469 22.558594 C 19.359375 22.121094 19.1875 21.691406 18.972656 21.285156 Z M 18.972656 21.285156 " fill-opacity="1" fill-rule="evenodd"/></g><g clip-path="url(#06c8c1fb70)"><path fill="#fefefe" d="M 3.941406 12.730469 C 5.488281 14.992188 4.484375 16.964844 3.117188 18.773438 C 2.230469 19.949219 1.203125 21.636719 0.992188 22.855469 L 0.980469 22.929688 C 0.976562 22.945312 0.976562 22.957031 0.972656 22.96875 C 0.796875 23.566406 0.730469 24.25 0.769531 25 C 0.988281 29.15625 5.011719 32.410156 9.933594 32.410156 C 10.128906 32.410156 10.328125 32.40625 10.523438 32.394531 C 15.671875 32.125 19.675781 28.367188 19.449219 24.019531 C 19.425781 23.535156 19.335938 23.078125 19.1875 22.664062 C 19.1875 22.65625 19.183594 22.648438 19.183594 22.640625 C 19.066406 22.226562 18.902344 21.816406 18.695312 21.429688 C 17.847656 19.867188 17.257812 18.078125 18.878906 16.371094 C 17.296875 16.945312 16.800781 18.226562 16.554688 19.347656 C 16.527344 19.46875 16.4375 19.558594 16.320312 19.585938 C 16.199219 19.613281 16.078125 19.570312 16.003906 19.472656 C 14.839844 17.976562 15.578125 16.941406 16.550781 16.046875 C 18.054688 14.660156 18.183594 13.132812 16.949219 11.375 C 16.417969 10.625 15.730469 9.859375 14.894531 9.101562 C 13.78125 8.089844 12.746094 6.839844 13.046875 5.09375 C 11.910156 6.394531 12.515625 7.535156 13.25 8.925781 C 13.964844 10.285156 14.777344 11.828125 13.605469 13.574219 C 13.53125 13.683594 13.394531 13.734375 13.265625 13.699219 C 13.136719 13.664062 13.042969 13.554688 13.035156 13.421875 C 12.882812 11.363281 11.757812 9.996094 9.683594 9.359375 C 8.78125 9.082031 8.144531 8.511719 7.898438 7.753906 C 7.644531 6.964844 7.839844 6.082031 8.457031 5.261719 C 9.324219 4.105469 9.265625 2.992188 8.257812 1.804688 C 8.433594 2.929688 8.414062 3.761719 7.328125 4.746094 C 5.722656 6.199219 5.035156 7.183594 5.023438 8.039062 C 5.015625 8.9375 5.746094 9.8125 7.019531 11.023438 C 8.148438 12.097656 8.699219 13.222656 8.5625 14.1875 C 8.492188 14.707031 8.175781 15.453125 7.078125 16.027344 C 6.984375 16.074219 6.875 16.074219 6.78125 16.023438 C 6.691406 15.972656 6.628906 15.875 6.625 15.769531 C 6.53125 14.332031 5.71875 13.386719 3.941406 12.730469 Z M 9.933594 33.03125 C 4.683594 33.03125 0.382812 29.519531 0.148438 25.03125 C 0.105469 24.222656 0.179688 23.476562 0.367188 22.8125 L 0.371094 22.800781 C 0.371094 22.785156 0.375 22.765625 0.378906 22.75 C 0.609375 21.421875 1.6875 19.628906 2.621094 18.398438 C 4.242188 16.253906 4.839844 14.492188 2.820312 12.332031 C 2.726562 12.230469 2.710938 12.078125 2.78125 11.960938 C 2.855469 11.839844 2.996094 11.78125 3.128906 11.820312 C 5.613281 12.492188 6.886719 13.558594 7.1875 15.234375 C 7.632812 14.914062 7.886719 14.535156 7.949219 14.101562 C 8.054688 13.339844 7.570312 12.40625 6.589844 11.476562 C 5.195312 10.148438 4.386719 9.15625 4.402344 8.03125 C 4.414062 6.972656 5.140625 5.886719 6.910156 4.285156 C 7.902344 3.382812 7.792969 2.757812 7.554688 1.390625 C 7.53125 1.246094 7.503906 1.09375 7.480469 0.9375 C 7.457031 0.808594 7.519531 0.675781 7.636719 0.613281 C 7.753906 0.550781 7.894531 0.566406 7.992188 0.652344 C 9.863281 2.316406 10.1875 3.992188 8.953125 5.636719 C 8.464844 6.289062 8.300781 6.972656 8.492188 7.5625 C 8.671875 8.121094 9.164062 8.546875 9.867188 8.765625 C 11.816406 9.363281 13.054688 10.59375 13.492188 12.347656 C 13.777344 11.265625 13.25 10.261719 12.699219 9.214844 C 11.851562 7.613281 10.890625 5.792969 13.5 3.847656 C 13.613281 3.761719 13.769531 3.765625 13.882812 3.855469 C 13.992188 3.945312 14.027344 4.097656 13.96875 4.226562 C 13.066406 6.210938 14.082031 7.523438 15.3125 8.640625 C 16.179688 9.429688 16.902344 10.230469 17.457031 11.015625 C 18.886719 13.042969 18.722656 14.890625 16.96875 16.503906 C 16.222656 17.195312 15.84375 17.761719 16.136719 18.496094 C 16.5625 17.1875 17.503906 15.757812 20.007812 15.488281 C 20.148438 15.472656 20.28125 15.558594 20.332031 15.691406 C 20.382812 15.824219 20.335938 15.972656 20.21875 16.054688 C 17.96875 17.617188 18.203125 19.21875 19.246094 21.136719 C 19.472656 21.5625 19.648438 22.007812 19.777344 22.464844 C 19.945312 22.933594 20.042969 23.445312 20.070312 23.984375 C 20.316406 28.675781 16.050781 32.726562 10.554688 33.015625 C 10.347656 33.027344 10.140625 33.03125 9.933594 33.03125 Z M 9.933594 33.03125 " fill-opacity="1" fill-rule="evenodd"/></g><path fill="#0f4482" d="M 5.015625 19.359375 L 6.085938 19.359375 L 6.085938 20.792969 L 6.972656 20.792969 L 6.972656 19.359375 L 8.039062 19.359375 L 8.039062 23.449219 L 6.972656 23.449219 L 6.972656 21.894531 L 6.085938 21.894531 L 6.085938 23.449219 L 5.015625 23.449219 Z M 5.015625 19.359375 " fill-opacity="1" fill-rule="evenodd"/><path fill="#0f4482" d="M 11.539062 21.40625 C 11.539062 21.265625 11.511719 21.132812 11.460938 21.007812 C 11.40625 20.882812 11.335938 20.773438 11.242188 20.675781 C 11.152344 20.578125 11.046875 20.503906 10.921875 20.445312 C 10.800781 20.386719 10.667969 20.359375 10.527344 20.359375 C 10.390625 20.359375 10.261719 20.386719 10.136719 20.441406 C 10.015625 20.496094 9.90625 20.574219 9.816406 20.667969 C 9.722656 20.761719 9.648438 20.871094 9.597656 21 C 9.542969 21.125 9.515625 21.261719 9.515625 21.40625 C 9.515625 21.550781 9.542969 21.683594 9.597656 21.8125 C 9.648438 21.9375 9.722656 22.050781 9.816406 22.144531 C 9.90625 22.238281 10.015625 22.3125 10.136719 22.367188 C 10.261719 22.421875 10.390625 22.449219 10.527344 22.449219 C 10.667969 22.449219 10.800781 22.421875 10.921875 22.367188 C 11.046875 22.308594 11.152344 22.230469 11.242188 22.136719 C 11.335938 22.039062 11.40625 21.929688 11.460938 21.804688 C 11.511719 21.679688 11.539062 21.546875 11.539062 21.40625 Z M 12.628906 21.40625 C 12.628906 21.699219 12.574219 21.980469 12.460938 22.242188 C 12.351562 22.503906 12.199219 22.730469 12.007812 22.925781 C 11.816406 23.121094 11.59375 23.273438 11.335938 23.386719 C 11.082031 23.496094 10.8125 23.554688 10.527344 23.554688 C 10.242188 23.554688 9.972656 23.496094 9.71875 23.386719 C 9.460938 23.273438 9.238281 23.121094 9.046875 22.925781 C 8.855469 22.730469 8.703125 22.503906 8.59375 22.242188 C 8.480469 21.980469 8.425781 21.699219 8.425781 21.40625 C 8.425781 21.109375 8.480469 20.832031 8.59375 20.570312 C 8.703125 20.308594 8.855469 20.082031 9.046875 19.886719 C 9.238281 19.691406 9.460938 19.539062 9.71875 19.425781 C 9.972656 19.3125 10.242188 19.257812 10.527344 19.257812 C 10.8125 19.257812 11.082031 19.3125 11.335938 19.425781 C 11.59375 19.539062 11.816406 19.691406 12.007812 19.886719 C 12.199219 20.082031 12.351562 20.308594 12.460938 20.570312 C 12.574219 20.832031 12.628906 21.109375 12.628906 21.40625 Z M 12.628906 21.40625 " fill-opacity="1" fill-rule="evenodd"/><path fill="#0f4482" d="M 12.839844 19.359375 L 15.363281 19.359375 L 15.46875 20.394531 L 14.636719 20.394531 L 14.636719 23.449219 L 13.566406 23.449219 L 13.566406 20.394531 L 12.730469 20.394531 Z M 12.839844 19.359375 " fill-opacity="1" fill-rule="evenodd"/><path fill="#0f4482" d="M 4.957031 27.148438 C 5.128906 27.121094 5.261719 27.074219 5.363281 27 C 5.464844 26.929688 5.539062 26.847656 5.589844 26.757812 C 5.640625 26.664062 5.675781 26.570312 5.691406 26.476562 C 5.707031 26.378906 5.714844 26.292969 5.714844 26.214844 C 5.714844 26.121094 5.703125 26.023438 5.683594 25.917969 C 5.660156 25.8125 5.621094 25.71875 5.566406 25.632812 C 5.511719 25.542969 5.4375 25.46875 5.339844 25.40625 C 5.238281 25.339844 5.113281 25.300781 4.957031 25.285156 Z M 3.890625 24.207031 L 4.859375 24.207031 C 5.191406 24.207031 5.476562 24.265625 5.71875 24.382812 C 5.960938 24.503906 6.164062 24.660156 6.324219 24.851562 C 6.484375 25.046875 6.605469 25.261719 6.683594 25.503906 C 6.765625 25.746094 6.804688 25.984375 6.804688 26.226562 C 6.804688 26.519531 6.753906 26.789062 6.65625 27.039062 C 6.558594 27.289062 6.417969 27.507812 6.234375 27.695312 C 6.054688 27.882812 5.835938 28.03125 5.582031 28.136719 C 5.328125 28.242188 5.046875 28.296875 4.734375 28.296875 L 3.890625 28.296875 Z M 3.890625 24.207031 " fill-opacity="1" fill-rule="evenodd"/><path fill="#0f4482" d="M 7.257812 24.207031 L 9.453125 24.207031 L 9.617188 25.285156 L 8.328125 25.285156 L 8.328125 25.710938 L 9.167969 25.710938 L 9.167969 26.789062 L 8.328125 26.789062 L 8.328125 27.214844 L 9.757812 27.214844 L 9.480469 28.296875 L 7.257812 28.296875 Z M 7.257812 24.207031 " fill-opacity="1" fill-rule="evenodd"/><path fill="#0f4482" d="M 11.792969 25.695312 L 11.78125 25.695312 L 11.410156 26.832031 L 12.171875 26.832031 Z M 11.210938 24.207031 L 12.417969 24.207031 L 13.792969 28.296875 L 12.636719 28.296875 L 12.492188 27.839844 L 11.082031 27.839844 L 10.933594 28.296875 L 9.78125 28.296875 Z M 11.210938 24.207031 " fill-opacity="1" fill-rule="evenodd"/><path fill="#0f4482" d="M 14.097656 24.207031 L 15.167969 24.207031 L 15.167969 27.214844 L 16.597656 27.214844 L 16.320312 28.296875 L 14.097656 28.296875 Z M 14.097656 24.207031 " fill-opacity="1" fill-rule="evenodd"/></svg>