<svg xmlns="http://www.w3.org/2000/svg" xmlns:xlink="http://www.w3.org/1999/xlink" width="31" zoomAndPan="magnify" viewBox="0 0 23.25 26.249998" height="35" preserveAspectRatio="xMidYMid meet" version="1.0"><defs><filter x="0%" y="0%" width="100%" height="100%" id="6c7b918cee"><feColorMatrix values="0 0 0 0 1 0 0 0 0 1 0 0 0 0 1 0 0 0 1 0" color-interpolation-filters="sRGB"/></filter><clipPath id="b304271cff"><path d="M 0.675781 0.46875 L 22.472656 0.46875 L 22.472656 23 L 0.675781 23 Z M 0.675781 0.46875 " clip-rule="nonzero"/></clipPath><clipPath id="39800cb2a2"><path d="M 0.675781 0.46875 L 12 0.46875 L 12 23 L 0.675781 23 Z M 0.675781 0.46875 " clip-rule="nonzero"/></clipPath><mask id="d3828adaeb"><g filter="url(#6c7b918cee)"><rect x="-2.325" width="27.9" fill="#000000" y="-2.625" height="31.499998" fill-opacity="0.15"/></g></mask><clipPath id="abe71a3087"><path d="M 0.675781 0.46875 L 11.625 0.46875 L 11.625 22.132812 L 0.675781 22.132812 Z M 0.675781 0.46875 " clip-rule="nonzero"/></clipPath><clipPath id="ffdfaa5a09"><rect x="0" width="12" y="0" height="23"/></clipPath></defs><path fill="#9dd6ea" d="M 7.851562 20.617188 L 11.507812 24.945312 L 15.164062 20.617188 Z M 7.851562 20.617188 " fill-opacity="1" fill-rule="nonzero"/><g clip-path="url(#b304271cff)"><path fill="#9dd6ea" d="M 22.300781 11.261719 C 22.300781 11.96875 22.230469 12.671875 22.09375 13.367188 C 21.957031 14.058594 21.75 14.734375 21.480469 15.390625 C 21.207031 16.042969 20.875 16.667969 20.484375 17.253906 C 20.089844 17.84375 19.640625 18.390625 19.140625 18.890625 C 18.640625 19.390625 18.09375 19.839844 17.503906 20.234375 C 16.914062 20.628906 16.292969 20.960938 15.640625 21.230469 C 14.984375 21.5 14.308594 21.707031 13.613281 21.84375 C 12.917969 21.984375 12.21875 22.050781 11.507812 22.050781 C 10.800781 22.050781 10.097656 21.984375 9.402344 21.84375 C 8.707031 21.707031 8.035156 21.5 7.378906 21.230469 C 6.726562 20.960938 6.101562 20.628906 5.511719 20.234375 C 4.925781 19.839844 4.378906 19.390625 3.878906 18.890625 C 3.378906 18.390625 2.929688 17.84375 2.535156 17.253906 C 2.140625 16.667969 1.808594 16.042969 1.539062 15.390625 C 1.269531 14.734375 1.0625 14.058594 0.925781 13.367188 C 0.785156 12.671875 0.71875 11.96875 0.71875 11.261719 C 0.71875 10.550781 0.785156 9.851562 0.925781 9.15625 C 1.0625 8.460938 1.269531 7.785156 1.539062 7.128906 C 1.808594 6.476562 2.140625 5.855469 2.535156 5.265625 C 2.929688 4.675781 3.378906 4.128906 3.878906 3.628906 C 4.378906 3.128906 4.925781 2.679688 5.511719 2.285156 C 6.101562 1.894531 6.726562 1.5625 7.378906 1.289062 C 8.035156 1.019531 8.707031 0.8125 9.402344 0.675781 C 10.097656 0.539062 10.800781 0.46875 11.507812 0.46875 C 12.21875 0.46875 12.917969 0.539062 13.613281 0.675781 C 14.308594 0.8125 14.984375 1.019531 15.640625 1.289062 C 16.292969 1.5625 16.914062 1.894531 17.503906 2.285156 C 18.09375 2.679688 18.640625 3.128906 19.140625 3.628906 C 19.640625 4.128906 20.089844 4.675781 20.484375 5.265625 C 20.875 5.855469 21.207031 6.476562 21.480469 7.128906 C 21.75 7.785156 21.957031 8.460938 22.09375 9.15625 C 22.230469 9.851562 22.300781 10.550781 22.300781 11.261719 Z M 22.300781 11.261719 " fill-opacity="1" fill-rule="nonzero"/></g><g clip-path="url(#39800cb2a2)"><g mask="url(#d3828adaeb)"><g transform="matrix(1, 0, 0, 1, 0, 0.000000000000000722)"><g clip-path="url(#ffdfaa5a09)"><g clip-path="url(#abe71a3087)"><path fill="#0f4482" d="M 11.507812 0.46875 C 5.550781 0.46875 0.71875 5.300781 0.71875 11.261719 C 0.71875 17.21875 5.550781 22.050781 11.507812 22.050781 Z M 11.507812 0.46875 " fill-opacity="1" fill-rule="nonzero"/></g></g></g></g></g><path fill="#9dd6ea" d="M 19.375 11.261719 C 19.375 11.777344 19.328125 12.289062 19.226562 12.796875 C 19.125 13.300781 18.976562 13.792969 18.777344 14.269531 C 18.582031 14.75 18.335938 15.203125 18.050781 15.632812 C 17.765625 16.0625 17.4375 16.457031 17.074219 16.824219 C 16.707031 17.1875 16.308594 17.515625 15.878906 17.800781 C 15.449219 18.089844 14.996094 18.332031 14.519531 18.527344 C 14.042969 18.726562 13.550781 18.875 13.042969 18.976562 C 12.539062 19.078125 12.027344 19.128906 11.507812 19.128906 C 10.992188 19.128906 10.480469 19.078125 9.972656 18.976562 C 9.46875 18.875 8.976562 18.726562 8.5 18.527344 C 8.019531 18.332031 7.566406 18.089844 7.136719 17.800781 C 6.707031 17.515625 6.3125 17.1875 5.945312 16.824219 C 5.582031 16.457031 5.253906 16.0625 4.96875 15.632812 C 4.679688 15.203125 4.4375 14.75 4.242188 14.269531 C 4.042969 13.792969 3.894531 13.300781 3.792969 12.796875 C 3.691406 12.289062 3.640625 11.777344 3.640625 11.261719 C 3.640625 10.742188 3.691406 10.230469 3.792969 9.726562 C 3.894531 9.21875 4.042969 8.726562 4.242188 8.25 C 4.4375 7.773438 4.679688 7.320312 4.96875 6.890625 C 5.253906 6.460938 5.582031 6.0625 5.945312 5.699219 C 6.3125 5.332031 6.707031 5.007812 7.136719 4.71875 C 7.566406 4.433594 8.019531 4.191406 8.5 3.992188 C 8.976562 3.792969 9.46875 3.644531 9.972656 3.542969 C 10.480469 3.445312 10.992188 3.394531 11.507812 3.394531 C 12.027344 3.394531 12.539062 3.445312 13.042969 3.542969 C 13.550781 3.644531 14.042969 3.792969 14.519531 3.992188 C 14.996094 4.191406 15.449219 4.433594 15.878906 4.71875 C 16.308594 5.007812 16.707031 5.332031 17.074219 5.699219 C 17.4375 6.0625 17.765625 6.460938 18.050781 6.890625 C 18.335938 7.320312 18.582031 7.773438 18.777344 8.25 C 18.976562 8.726562 19.125 9.21875 19.226562 9.726562 C 19.328125 10.230469 19.375 10.742188 19.375 11.261719 Z M 19.375 11.261719 " fill-opacity="1" fill-rule="nonzero"/><path fill="#0f4482" d="M 13.476562 6.945312 C 13.0625 6.507812 12.320312 6.496094 11.820312 6.921875 C 11.320312 7.347656 11.25 8.050781 11.664062 8.488281 C 12.082031 8.925781 12.824219 8.933594 13.324219 8.507812 C 13.824219 8.082031 13.894531 7.382812 13.476562 6.945312 Z M 13.476562 6.945312 " fill-opacity="1" fill-rule="nonzero"/><path fill="#0f4482" d="M 12.820312 14.058594 C 12.765625 14.058594 12.710938 14.082031 12.671875 14.117188 C 12.457031 14.3125 12.371094 14.382812 12.097656 14.570312 C 11.75 14.808594 11.511719 14.679688 11.710938 14.070312 C 11.910156 13.457031 12.226562 12.636719 12.671875 11.453125 C 13.300781 9.785156 11.84375 9.441406 10.972656 9.65625 C 10.324219 9.816406 9.769531 10.222656 9.394531 10.570312 C 9.34375 10.613281 9.3125 10.675781 9.3125 10.746094 C 9.3125 10.875 9.417969 10.976562 9.546875 10.976562 C 9.59375 10.976562 9.640625 10.960938 9.679688 10.933594 C 9.679688 10.933594 9.691406 10.925781 9.695312 10.921875 C 9.855469 10.792969 10.019531 10.671875 10.140625 10.605469 C 10.445312 10.429688 10.734375 10.546875 10.582031 10.976562 C 10.433594 11.40625 9.386719 13.675781 9.203125 14.734375 C 9.023438 15.796875 9.933594 16.242188 11.035156 15.855469 C 11.765625 15.59375 12.605469 14.832031 12.976562 14.453125 C 13.019531 14.410156 13.046875 14.351562 13.046875 14.285156 C 13.046875 14.160156 12.945312 14.058594 12.820312 14.058594 Z M 12.820312 14.058594 " fill-opacity="1" fill-rule="nonzero"/></svg>