<svg xmlns="http://www.w3.org/2000/svg" xmlns:xlink="http://www.w3.org/1999/xlink" width="45" zoomAndPan="magnify" viewBox="0 0 33.75 27.749998" height="37" preserveAspectRatio="xMidYMid meet" version="1.0"><defs><clipPath id="5d73b1fc12"><path d="M 2 0.0742188 L 31 0.0742188 L 31 25.347656 L 2 25.347656 Z M 2 0.0742188 " clip-rule="nonzero"/></clipPath><clipPath id="efe808955d"><path d="M 29 13 L 32.730469 13 L 32.730469 16 L 29 16 Z M 29 13 " clip-rule="nonzero"/></clipPath><clipPath id="072ccbfec8"><path d="M 0.0273438 13 L 4 13 L 4 16 L 0.0273438 16 Z M 0.0273438 13 " clip-rule="nonzero"/></clipPath></defs><g clip-path="url(#5d73b1fc12)"><path fill="#fbbc3f" d="M 30.4375 22.777344 L 17.796875 0.878906 C 17.648438 0.628906 17.457031 0.433594 17.238281 0.304688 C 17.015625 0.175781 16.75 0.109375 16.457031 0.109375 C 16.164062 0.109375 15.898438 0.175781 15.675781 0.304688 C 15.453125 0.433594 15.261719 0.628906 15.117188 0.878906 L 2.472656 22.777344 L 2.472656 22.78125 C 2.332031 23.027344 2.261719 23.289062 2.261719 23.550781 C 2.261719 23.8125 2.332031 24.074219 2.472656 24.324219 L 2.472656 24.328125 C 2.617188 24.574219 2.808594 24.769531 3.03125 24.898438 L 3.035156 24.898438 C 3.257812 25.027344 3.519531 25.09375 3.8125 25.09375 L 29.097656 25.09375 C 29.390625 25.09375 29.65625 25.027344 29.875 24.898438 L 29.878906 24.898438 C 30.105469 24.769531 30.296875 24.574219 30.4375 24.328125 C 30.582031 24.082031 30.652344 23.816406 30.652344 23.550781 C 30.652344 23.285156 30.582031 23.023438 30.4375 22.777344 Z M 30.4375 22.777344 " fill-opacity="1" fill-rule="nonzero"/></g><path fill="#fefefe" d="M 15.78125 16.523438 C 15.835938 16.957031 16.082031 17.199219 16.457031 17.199219 C 16.851562 17.199219 17.097656 16.957031 17.152344 16.523438 L 17.789062 9.25 C 17.867188 8.515625 17.488281 8.007812 16.757812 8.007812 L 16.15625 8.007812 C 15.421875 8.007812 15.046875 8.515625 15.121094 9.25 Z M 15.121094 20.058594 C 15.121094 20.789062 15.703125 21.355469 16.457031 21.355469 C 17.226562 21.355469 17.789062 20.789062 17.789062 20.058594 L 17.789062 19.867188 C 17.789062 19.136719 17.226562 18.574219 16.457031 18.574219 C 15.703125 18.574219 15.121094 19.136719 15.121094 19.867188 Z M 15.121094 20.058594 " fill-opacity="1" fill-rule="nonzero"/><path fill="#fbbc3f" d="M 28.601562 12.042969 C 28.246094 12.246094 27.792969 12.125 27.589844 11.769531 C 27.386719 11.414062 27.507812 10.960938 27.863281 10.757812 L 30.1875 9.417969 C 30.542969 9.214844 30.996094 9.335938 31.199219 9.6875 C 31.402344 10.042969 31.28125 10.496094 30.925781 10.699219 Z M 28.601562 12.042969 " fill-opacity="1" fill-rule="nonzero"/><g clip-path="url(#efe808955d)"><path fill="#fbbc3f" d="M 29.902344 15.039062 C 29.492188 15.039062 29.160156 14.707031 29.160156 14.296875 C 29.160156 13.886719 29.492188 13.550781 29.902344 13.550781 L 32.144531 13.550781 C 32.550781 13.550781 32.886719 13.886719 32.886719 14.296875 C 32.886719 14.707031 32.550781 15.039062 32.144531 15.039062 Z M 29.902344 15.039062 " fill-opacity="1" fill-rule="nonzero"/></g><path fill="#fbbc3f" d="M 27.199219 8.875 C 26.996094 9.230469 26.546875 9.351562 26.191406 9.148438 C 25.835938 8.941406 25.714844 8.492188 25.917969 8.136719 L 27.039062 6.195312 C 27.242188 5.84375 27.695312 5.71875 28.046875 5.921875 C 28.402344 6.128906 28.523438 6.582031 28.320312 6.933594 Z M 27.199219 8.875 " fill-opacity="1" fill-rule="nonzero"/><path fill="#fbbc3f" d="M 5.054688 10.757812 C 5.40625 10.964844 5.527344 11.417969 5.324219 11.773438 C 5.117188 12.125 4.664062 12.246094 4.308594 12.042969 L 1.984375 10.699219 C 1.628906 10.496094 1.507812 10.039062 1.714844 9.6875 C 1.917969 9.332031 2.371094 9.210938 2.726562 9.417969 Z M 5.054688 10.757812 " fill-opacity="1" fill-rule="nonzero"/><g clip-path="url(#072ccbfec8)"><path fill="#fbbc3f" d="M 3.011719 13.550781 C 3.421875 13.550781 3.753906 13.886719 3.753906 14.296875 C 3.753906 14.707031 3.421875 15.039062 3.011719 15.039062 L 0.769531 15.039062 C 0.359375 15.039062 0.0273438 14.707031 0.0273438 14.296875 C 0.0273438 13.886719 0.359375 13.550781 0.769531 13.550781 Z M 3.011719 13.550781 " fill-opacity="1" fill-rule="nonzero"/></g><path fill="#fbbc3f" d="M 6.996094 8.136719 C 7.199219 8.492188 7.074219 8.941406 6.722656 9.148438 C 6.367188 9.351562 5.914062 9.230469 5.710938 8.875 L 4.59375 6.933594 C 4.386719 6.582031 4.511719 6.128906 4.863281 5.921875 C 5.21875 5.71875 5.671875 5.84375 5.875 6.195312 Z M 6.996094 8.136719 " fill-opacity="1" fill-rule="nonzero"/></svg>