<svg xmlns="http://www.w3.org/2000/svg" xmlns:xlink="http://www.w3.org/1999/xlink" width="61" zoomAndPan="magnify" viewBox="0 0 45.75 48.749998" height="65" preserveAspectRatio="xMidYMid meet" version="1.0"><defs><clipPath id="4b93d426e9"><path d="M 1 0.609375 L 38 0.609375 L 38 48.492188 L 1 48.492188 Z M 1 0.609375 " clip-rule="nonzero"/></clipPath><clipPath id="31587fd703"><path d="M 42 24 L 45.5 24 L 45.5 31 L 42 31 Z M 42 24 " clip-rule="nonzero"/></clipPath></defs><g clip-path="url(#4b93d426e9)"><path fill="#0f4482" d="M 24.757812 0.804688 C 24 1.179688 23.59375 2.050781 23.800781 2.886719 C 23.898438 3.277344 24.027344 3.476562 24.539062 3.992188 L 25.164062 4.621094 L 23.367188 4.664062 C 19.851562 4.769531 17.1875 5.414062 14.078125 6.933594 C 5.1875 11.261719 0.304688 20.933594 2.109375 30.632812 C 2.910156 34.925781 5.019531 38.9375 8.097656 42.019531 C 11.511719 45.441406 15.722656 47.558594 20.722656 48.363281 C 22.195312 48.609375 25.597656 48.609375 27.050781 48.375 C 28.554688 48.121094 29.820312 47.8125 31.117188 47.371094 C 33.648438 46.507812 37.179688 44.511719 37.585938 43.714844 C 38.191406 42.535156 37.324219 41.203125 36 41.308594 C 35.585938 41.335938 35.386719 41.429688 34.675781 41.90625 C 31.378906 44.15625 27.867188 45.242188 23.886719 45.253906 C 20.695312 45.253906 18.125 44.625 15.195312 43.144531 C 12.371094 41.703125 10.082031 39.6875 8.277344 37.023438 C 6.160156 33.894531 5.085938 30.390625 5.085938 26.613281 C 5.085938 19.117188 9.535156 12.40625 16.460938 9.472656 C 18.652344 8.546875 20.816406 8.066406 23.339844 7.957031 L 24.785156 7.890625 L 24.378906 8.339844 C 24.160156 8.582031 23.933594 8.957031 23.878906 9.171875 C 23.492188 10.617188 24.992188 11.917969 26.355469 11.320312 C 26.75 11.140625 30.285156 8.003906 30.90625 7.269531 C 31.398438 6.691406 31.457031 5.902344 31.039062 5.171875 C 30.9375 4.984375 29.867188 3.917969 28.675781 2.808594 C 26.449219 0.730469 26.269531 0.609375 25.492188 0.609375 C 25.3125 0.609375 24.984375 0.703125 24.757812 0.804688 Z M 24.757812 0.804688 " fill-opacity="1" fill-rule="nonzero"/></g><path fill="#0f4482" d="M 33.855469 7.769531 C 33.230469 8.050781 32.804688 8.808594 32.902344 9.464844 C 32.996094 10.054688 33.261719 10.390625 34.0625 10.925781 C 34.46875 11.199219 35.148438 11.683594 35.574219 12.011719 C 36.757812 12.921875 37.179688 13.042969 37.929688 12.707031 C 38.777344 12.324219 39.136719 11.347656 38.730469 10.511719 C 38.496094 10.035156 37.664062 9.332031 36.132812 8.3125 C 35.300781 7.757812 35.140625 7.691406 34.667969 7.664062 C 34.355469 7.644531 34.027344 7.683594 33.855469 7.769531 Z M 33.855469 7.769531 " fill-opacity="1" fill-rule="nonzero"/><path fill="#0f4482" d="M 40.894531 14.730469 C 40.554688 14.871094 40.214844 15.179688 40.042969 15.507812 C 39.714844 16.15625 39.78125 16.511719 40.546875 18.03125 C 40.914062 18.777344 41.320312 19.621094 41.441406 19.886719 C 42.160156 21.515625 44.597656 21.027344 44.597656 19.265625 C 44.597656 18.761719 44.34375 18.105469 43.464844 16.417969 C 42.707031 14.957031 42.472656 14.730469 41.613281 14.691406 C 41.300781 14.683594 40.96875 14.691406 40.894531 14.730469 Z M 40.894531 14.730469 " fill-opacity="1" fill-rule="nonzero"/><path fill="#0f4482" d="M 21.382812 16.15625 C 20.910156 16.363281 20.523438 16.800781 20.390625 17.269531 C 20.257812 17.757812 20.257812 29.105469 20.402344 29.59375 C 20.570312 30.203125 20.996094 30.550781 22.234375 31.101562 C 27.164062 33.277344 29.945312 34.4375 30.207031 34.4375 C 30.558594 34.4375 31.125 34.222656 31.378906 33.988281 C 32.089844 33.359375 32.089844 32.160156 31.378906 31.503906 C 31.210938 31.355469 29.6875 30.632812 27.46875 29.667969 L 23.839844 28.085938 L 23.792969 22.667969 C 23.753906 17.851562 23.726562 17.214844 23.585938 16.960938 C 23.378906 16.578125 23.054688 16.296875 22.640625 16.117188 C 22.175781 15.929688 21.847656 15.941406 21.382812 16.15625 Z M 21.382812 16.15625 " fill-opacity="1" fill-rule="nonzero"/><g clip-path="url(#31587fd703)"><path fill="#0f4482" d="M 43.632812 24.214844 C 43.457031 24.308594 43.179688 24.542969 43.019531 24.730469 L 42.738281 25.085938 L 42.671875 27.242188 C 42.613281 29.285156 42.613281 29.425781 42.792969 29.761719 C 43.332031 30.8125 44.84375 30.941406 45.570312 29.996094 C 45.910156 29.554688 46.015625 28.835938 46.023438 26.941406 C 46.035156 25.152344 45.996094 24.992188 45.457031 24.488281 C 44.957031 24.007812 44.21875 23.894531 43.632812 24.214844 Z M 43.632812 24.214844 " fill-opacity="1" fill-rule="nonzero"/></g><path fill="#0f4482" d="M 41.792969 33.820312 C 41.375 34.007812 41.074219 34.375 40.5625 35.328125 C 40.316406 35.789062 39.902344 36.5 39.636719 36.902344 C 39.050781 37.8125 38.976562 38.300781 39.308594 38.9375 C 39.828125 39.929688 41.09375 40.144531 41.914062 39.378906 C 42.21875 39.097656 43.019531 37.832031 43.605469 36.714844 C 43.964844 36.011719 44.105469 35.648438 44.105469 35.375 C 44.105469 34.167969 42.867188 33.34375 41.792969 33.820312 Z M 41.792969 33.820312 " fill-opacity="1" fill-rule="nonzero"/></svg>