<svg xmlns="http://www.w3.org/2000/svg" xmlns:xlink="http://www.w3.org/1999/xlink" width="54" zoomAndPan="magnify" viewBox="0 0 40.5 40.5" height="54" preserveAspectRatio="xMidYMid meet" version="1.0"><defs><clipPath id="f22270f006"><path d="M 0.0859375 0.574219 L 39.894531 0.574219 L 39.894531 39.328125 L 0.0859375 39.328125 Z M 0.0859375 0.574219 " clip-rule="nonzero"/></clipPath><clipPath id="0c3d4ff442"><path d="M 8.234375 0.574219 L 31.746094 0.574219 C 36.246094 0.574219 39.894531 4.222656 39.894531 8.726562 L 39.894531 31.179688 C 39.894531 35.679688 36.246094 39.328125 31.746094 39.328125 L 8.234375 39.328125 C 3.734375 39.328125 0.0859375 35.679688 0.0859375 31.179688 L 0.0859375 8.726562 C 0.0859375 4.222656 3.734375 0.574219 8.234375 0.574219 Z M 8.234375 0.574219 " clip-rule="nonzero"/></clipPath><clipPath id="70476363d5"><path d="M 0.0859375 0.574219 L 40 0.574219 L 40 39.101562 L 0.0859375 39.101562 Z M 0.0859375 0.574219 " clip-rule="nonzero"/></clipPath><clipPath id="b23039c7f1"><path d="M 8.234375 0.574219 L 31.742188 0.574219 C 36.242188 0.574219 39.890625 4.222656 39.890625 8.722656 L 39.890625 31.171875 C 39.890625 35.671875 36.242188 39.320312 31.742188 39.320312 L 8.234375 39.320312 C 3.738281 39.320312 0.0898438 35.671875 0.0898438 31.171875 L 0.0898438 8.722656 C 0.0898438 4.222656 3.738281 0.574219 8.234375 0.574219 Z M 8.234375 0.574219 " clip-rule="nonzero"/></clipPath><clipPath id="e9a6903d18"><path d="M 4.808594 4.316406 L 34.660156 4.316406 L 34.660156 34.234375 L 4.808594 34.234375 Z M 4.808594 4.316406 " clip-rule="nonzero"/></clipPath></defs><g clip-path="url(#f22270f006)"><g clip-path="url(#0c3d4ff442)"><path fill="#dee9f1" d="M 0.0859375 0.574219 L 39.894531 0.574219 L 39.894531 39.328125 L 0.0859375 39.328125 Z M 0.0859375 0.574219 " fill-opacity="1" fill-rule="nonzero"/></g></g><g clip-path="url(#70476363d5)"><g clip-path="url(#b23039c7f1)"><path stroke-linecap="butt" transform="matrix(0.740854, 0, 0, 0.740854, 0.0884661, 0.575534)" fill="none" stroke-linejoin="miter" d="M 10.995301 -0.00177502 L 42.726013 -0.00177502 C 48.800087 -0.00177502 53.724727 4.922865 53.724727 10.996939 L 53.724727 41.298767 C 53.724727 47.372841 48.800087 52.297481 42.726013 52.297481 L 10.995301 52.297481 C 4.9265 52.297481 0.00185952 47.372841 0.00185952 41.298767 L 0.00185952 10.996939 C 0.00185952 4.922865 4.9265 -0.00177502 10.995301 -0.00177502 Z M 10.995301 -0.00177502 " stroke="#dce2e6" stroke-width="2" stroke-opacity="1" stroke-miterlimit="4"/></g></g><path fill="#0f4482" d="M 23.65625 25.378906 C 24.09375 25.597656 24.351562 25.835938 24.351562 26.097656 C 24.351562 26.855469 22.285156 27.472656 19.734375 27.472656 C 17.1875 27.472656 15.121094 26.855469 15.121094 26.097656 C 15.121094 25.835938 15.375 25.578125 15.816406 25.378906 C 13.945312 25.800781 12.710938 26.515625 12.710938 27.316406 C 12.710938 28.609375 15.855469 29.648438 19.734375 29.648438 C 23.613281 29.648438 26.757812 28.609375 26.757812 27.316406 C 26.757812 26.515625 25.527344 25.800781 23.65625 25.378906 Z M 23.65625 25.378906 " fill-opacity="1" fill-rule="nonzero"/><path fill="#0f4482" d="M 19.734375 25.519531 C 19.140625 25.519531 18.5 25.300781 18.203125 24.863281 C 17.742188 25.019531 17.425781 25.28125 17.425781 25.640625 C 17.425781 26.316406 18.621094 26.632812 19.734375 26.632812 C 20.851562 26.632812 22.042969 26.316406 22.042969 25.640625 C 22.042969 25.28125 21.726562 25.019531 21.265625 24.863281 C 20.96875 25.300781 20.332031 25.519531 19.734375 25.519531 Z M 19.734375 25.519531 " fill-opacity="1" fill-rule="nonzero"/><path fill="#0f4482" d="M 18.164062 22.46875 C 18.28125 22.648438 18.402344 22.828125 18.519531 22.988281 C 19.121094 23.863281 19.59375 24.5625 19.734375 24.78125 C 19.894531 24.539062 20.351562 23.863281 20.949219 22.988281 C 21.070312 22.828125 21.1875 22.648438 21.308594 22.46875 C 22.417969 20.8125 23.816406 18.71875 24.511719 17.558594 C 25.664062 15.605469 25.144531 13.511719 25.144531 13.511719 C 24.890625 12.335938 24.332031 11.238281 23.476562 10.441406 C 22.839844 9.839844 22.082031 9.421875 21.265625 9.164062 C 20.570312 8.945312 19.855469 8.84375 19.140625 8.945312 C 18.839844 8.984375 18.519531 9.066406 18.222656 9.144531 C 17.386719 9.402344 16.613281 9.820312 15.976562 10.441406 C 15.121094 11.257812 14.601562 12.335938 14.324219 13.492188 C 14.324219 13.492188 13.808594 15.585938 14.960938 17.539062 C 15.636719 18.738281 17.050781 20.832031 18.164062 22.46875 Z M 19.734375 11.539062 C 21.347656 11.539062 22.640625 12.835938 22.640625 14.449219 C 22.640625 16.066406 21.347656 17.363281 19.734375 17.363281 C 18.125 17.363281 16.832031 16.066406 16.832031 14.449219 C 16.832031 12.835938 18.125 11.539062 19.734375 11.539062 Z M 19.734375 11.539062 " fill-opacity="1" fill-rule="nonzero"/><g clip-path="url(#e9a6903d18)"><path fill="#0f4482" d="M 19.734375 4.316406 C 11.496094 4.316406 4.808594 11.019531 4.808594 19.273438 C 4.808594 27.535156 11.496094 34.234375 19.734375 34.234375 C 27.972656 34.234375 34.660156 27.535156 34.660156 19.273438 C 34.660156 11.019531 27.972656 4.316406 19.734375 4.316406 Z M 19.734375 33.175781 C 12.09375 33.175781 5.867188 26.9375 5.867188 19.273438 C 5.867188 11.617188 12.09375 5.371094 19.734375 5.371094 C 27.375 5.371094 33.605469 11.617188 33.605469 19.273438 C 33.605469 26.9375 27.375 33.175781 19.734375 33.175781 Z M 19.734375 33.175781 " fill-opacity="1" fill-rule="nonzero"/></g></svg>