<svg xmlns="http://www.w3.org/2000/svg" xmlns:xlink="http://www.w3.org/1999/xlink" width="55" zoomAndPan="magnify" viewBox="0 0 41.25 40.5" height="54" preserveAspectRatio="xMidYMid meet" version="1.0"><defs><clipPath id="d8c3af4f5f"><path d="M 0.574219 0.6875 L 40.160156 0.6875 L 40.160156 39.21875 L 0.574219 39.21875 Z M 0.574219 0.6875 " clip-rule="nonzero"/></clipPath><clipPath id="a2d765439f"><path d="M 8.679688 0.6875 L 32.054688 0.6875 C 36.53125 0.6875 40.160156 4.316406 40.160156 8.789062 L 40.160156 31.113281 C 40.160156 35.589844 36.53125 39.21875 32.054688 39.21875 L 8.679688 39.21875 C 4.203125 39.21875 0.574219 35.589844 0.574219 31.113281 L 0.574219 8.789062 C 0.574219 4.316406 4.203125 0.6875 8.679688 0.6875 Z M 8.679688 0.6875 " clip-rule="nonzero"/></clipPath><clipPath id="5dfe6d0f4f"><path d="M 0.574219 0.6875 L 40.351562 0.6875 L 40.351562 38.992188 L 0.574219 38.992188 Z M 0.574219 0.6875 " clip-rule="nonzero"/></clipPath><clipPath id="e5e11f1fec"><path d="M 8.679688 0.6875 L 32.054688 0.6875 C 36.527344 0.6875 40.152344 4.316406 40.152344 8.789062 L 40.152344 31.109375 C 40.152344 35.582031 36.527344 39.210938 32.054688 39.210938 L 8.679688 39.210938 C 4.207031 39.210938 0.578125 35.582031 0.578125 31.109375 L 0.578125 8.789062 C 0.578125 4.316406 4.207031 0.6875 8.679688 0.6875 Z M 8.679688 0.6875 " clip-rule="nonzero"/></clipPath><clipPath id="878ffdf486"><path d="M 6.242188 7 L 34.160156 7 L 34.160156 34.507812 L 6.242188 34.507812 Z M 6.242188 7 " clip-rule="nonzero"/></clipPath></defs><g clip-path="url(#d8c3af4f5f)"><g clip-path="url(#a2d765439f)"><path fill="#dee9f1" d="M 0.574219 0.6875 L 40.160156 0.6875 L 40.160156 39.21875 L 0.574219 39.21875 Z M 0.574219 0.6875 " fill-opacity="1" fill-rule="nonzero"/></g></g><g clip-path="url(#5dfe6d0f4f)"><g clip-path="url(#e5e11f1fec)"><path stroke-linecap="butt" transform="matrix(0.736607, 0, 0, 0.736607, 0.57903, 0.688306)" fill="none" stroke-linejoin="miter" d="M 10.997256 -0.00109461 L 42.730591 -0.00109461 C 48.802561 -0.00109461 53.723773 4.925421 53.723773 10.997391 L 53.723773 41.298907 C 53.723773 47.370877 48.802561 52.297392 42.730591 52.297392 L 10.997256 52.297392 C 4.925286 52.297392 -0.00122915 47.370877 -0.00122915 41.298907 L -0.00122915 10.997391 C -0.00122915 4.925421 4.925286 -0.00109461 10.997256 -0.00109461 Z M 10.997256 -0.00109461 " stroke="#dce2e6" stroke-width="2" stroke-opacity="1" stroke-miterlimit="4"/></g></g><g clip-path="url(#878ffdf486)"><path fill="#0f4482" d="M 25.960938 14.078125 C 25.960938 10.921875 23.398438 8.355469 20.246094 8.355469 C 12.664062 8.671875 12.664062 19.488281 20.246094 19.804688 C 23.398438 19.804688 25.960938 17.238281 25.960938 14.078125 Z M 20.25 19.222656 C 17.421875 19.222656 15.113281 16.921875 15.113281 14.078125 C 15.398438 7.257812 25.105469 7.257812 25.382812 14.078125 C 25.382812 16.914062 23.082031 19.222656 20.25 19.222656 Z M 33.199219 15.609375 C 32.585938 15.414062 31.867188 15.730469 31.601562 16.3125 L 28.371094 23.042969 C 27.851562 22.457031 26.894531 22.421875 26.328125 22.960938 C 26.328125 22.960938 23.621094 25.507812 23.621094 25.507812 C 23.398438 25.71875 23.226562 25.988281 23.140625 26.289062 L 21.9375 30.296875 C 21.46875 30.109375 20.929688 30.351562 20.78125 30.84375 L 20.535156 31.667969 C 20.394531 32.105469 20.664062 32.613281 21.105469 32.738281 C 21.105469 32.738281 26.882812 34.488281 26.882812 34.488281 C 27.324219 34.625 27.816406 34.371094 27.953125 33.914062 L 28.195312 33.089844 C 28.339844 32.652344 28.070312 32.148438 27.628906 32.023438 C 27.828125 31.335938 28.046875 30.523438 28.597656 30.023438 C 28.597656 30.023438 30.648438 27.992188 30.648438 27.992188 C 31.222656 27.417969 31.636719 26.695312 31.84375 25.910156 C 31.84375 25.910156 34.109375 17.242188 34.109375 17.242188 C 34.296875 16.53125 33.890625 15.820312 33.199219 15.609375 Z M 27.640625 32.917969 L 27.394531 33.746094 C 27.351562 33.890625 27.195312 33.972656 27.050781 33.929688 L 21.277344 32.179688 C 21.128906 32.140625 21.046875 31.980469 21.089844 31.835938 L 21.335938 31.011719 C 21.378906 30.863281 21.539062 30.78125 21.679688 30.828125 L 27.457031 32.574219 C 27.601562 32.617188 27.683594 32.773438 27.640625 32.917969 Z M 33.546875 17.089844 L 31.285156 25.757812 C 31.101562 26.445312 30.738281 27.074219 30.234375 27.578125 L 28.183594 29.609375 C 27.777344 30.011719 27.476562 30.515625 27.3125 31.066406 L 27.078125 31.847656 L 22.792969 30.554688 L 22.492188 30.464844 L 23.703125 26.457031 C 23.769531 26.242188 23.886719 26.050781 24.058594 25.90625 C 24.058594 25.90625 26.730469 23.386719 26.730469 23.386719 C 26.953125 23.179688 27.277344 23.101562 27.5625 23.191406 C 28.179688 23.355469 28.378906 24.210938 27.898438 24.625 L 25.753906 26.648438 C 25.640625 26.757812 25.632812 26.945312 25.742188 27.058594 C 25.851562 27.171875 26.035156 27.179688 26.152344 27.070312 L 28.292969 25.050781 C 28.671875 24.703125 28.824219 24.179688 28.710938 23.6875 L 32.128906 16.5625 C 32.523438 15.746094 33.777344 16.203125 33.546875 17.089844 Z M 19.714844 30.84375 C 19.570312 30.351562 19.03125 30.109375 18.5625 30.296875 L 17.355469 26.289062 C 17.269531 25.992188 17.097656 25.71875 16.875 25.507812 L 14.171875 22.960938 C 13.609375 22.421875 12.644531 22.453125 12.132812 23.042969 L 8.898438 16.3125 C 8.761719 16.023438 8.519531 15.792969 8.230469 15.664062 C 7.246094 15.199219 6.082031 16.175781 6.394531 17.230469 C 6.394531 17.230469 8.65625 25.898438 8.65625 25.898438 C 8.863281 26.6875 9.277344 27.40625 9.855469 27.980469 L 11.90625 30.011719 C 12.457031 30.511719 12.675781 31.316406 12.871094 32.011719 C 12.425781 32.152344 12.167969 32.628906 12.304688 33.078125 L 12.550781 33.902344 C 12.6875 34.359375 13.179688 34.613281 13.621094 34.476562 L 19.394531 32.726562 C 19.835938 32.601562 20.109375 32.101562 19.96875 31.65625 Z M 12.3125 29.609375 L 10.265625 27.578125 C 9.757812 27.074219 9.398438 26.445312 9.21875 25.757812 L 6.949219 17.089844 C 6.722656 16.203125 7.976562 15.746094 8.375 16.5625 C 8.375 16.5625 11.792969 23.6875 11.792969 23.6875 C 11.679688 24.179688 11.835938 24.703125 12.207031 25.050781 L 14.351562 27.070312 C 14.464844 27.179688 14.648438 27.171875 14.757812 27.058594 C 14.867188 26.945312 14.863281 26.757812 14.746094 26.648438 L 12.605469 24.632812 C 12.132812 24.21875 12.328125 23.359375 12.9375 23.195312 C 13.226562 23.109375 13.550781 23.1875 13.773438 23.394531 C 13.773438 23.394531 16.445312 25.910156 16.445312 25.910156 C 16.609375 26.058594 16.734375 26.25 16.796875 26.460938 L 18.011719 30.472656 C 17.589844 30.597656 13.941406 31.703125 13.425781 31.859375 C 13.207031 31.0625 12.933594 30.175781 12.3125 29.609375 Z M 19.226562 32.179688 L 13.449219 33.929688 C 13.304688 33.972656 13.152344 33.890625 13.109375 33.746094 L 12.863281 32.917969 C 12.816406 32.773438 12.902344 32.617188 13.046875 32.574219 L 18.820312 30.828125 C 18.847656 30.820312 18.878906 30.816406 18.90625 30.816406 C 19.023438 30.816406 19.132812 30.890625 19.171875 31.011719 L 19.421875 31.835938 C 19.457031 31.980469 19.367188 32.140625 19.226562 32.179688 Z M 23.445312 23.109375 C 23.398438 23.007812 23.300781 22.945312 23.183594 22.945312 L 21.996094 22.945312 L 21.996094 20.960938 C 25.105469 20.171875 27.339844 17.3125 27.339844 14.074219 C 26.953125 4.652344 13.542969 4.65625 13.15625 14.078125 C 13.15625 17.3125 15.390625 20.175781 18.5 20.96875 L 18.5 22.949219 L 17.3125 22.949219 C 17.078125 22.945312 16.933594 23.234375 17.082031 23.414062 L 20.023438 27.28125 C 20.078125 27.351562 20.164062 27.398438 20.25 27.398438 C 20.34375 27.398438 20.425781 27.351562 20.480469 27.28125 L 23.421875 23.414062 C 23.484375 23.320312 23.496094 23.207031 23.445312 23.109375 Z M 20.25 26.625 L 17.902344 23.523438 L 18.796875 23.523438 C 18.953125 23.523438 19.085938 23.394531 19.085938 23.234375 L 19.085938 20.730469 C 19.085938 20.597656 18.992188 20.476562 18.855469 20.449219 C 15.890625 19.796875 13.742188 17.121094 13.742188 14.074219 C 14.09375 5.421875 26.410156 5.417969 26.769531 14.074219 C 26.769531 17.117188 24.613281 19.796875 21.652344 20.449219 C 21.519531 20.476562 21.421875 20.597656 21.421875 20.730469 L 21.421875 23.234375 C 21.421875 23.394531 21.554688 23.523438 21.714844 23.523438 L 22.605469 23.523438 Z M 21.789062 11.609375 C 22.164062 11.609375 22.164062 11.03125 21.789062 11.03125 L 20.539062 11.03125 L 20.539062 10.496094 C 20.539062 10.335938 20.410156 10.207031 20.25 10.207031 C 20.09375 10.207031 19.960938 10.335938 19.960938 10.496094 L 19.960938 11.039062 C 17.921875 11.195312 17.929688 14.128906 19.960938 14.285156 L 19.960938 16.394531 L 18.710938 16.394531 C 18.554688 16.394531 18.425781 16.527344 18.425781 16.683594 C 18.425781 16.84375 18.554688 16.972656 18.710938 16.972656 L 19.960938 16.972656 L 19.960938 17.507812 C 19.960938 17.667969 20.09375 17.800781 20.25 17.800781 C 20.410156 17.800781 20.539062 17.667969 20.539062 17.507812 L 20.539062 16.96875 C 22.582031 16.804688 22.574219 13.878906 20.539062 13.71875 L 20.539062 11.609375 Z M 19.957031 13.703125 C 19.421875 13.660156 18.996094 13.210938 18.996094 12.660156 C 18.996094 12.113281 19.421875 11.664062 19.957031 11.617188 Z M 21.5 15.34375 C 21.5 15.886719 21.074219 16.335938 20.539062 16.382812 L 20.539062 14.304688 C 21.074219 14.347656 21.5 14.796875 21.5 15.34375 Z M 21.5 15.34375 " fill-opacity="1" fill-rule="nonzero"/></g></svg>