<svg xmlns="http://www.w3.org/2000/svg" xmlns:xlink="http://www.w3.org/1999/xlink" width="51" zoomAndPan="magnify" viewBox="0 0 38.25 38.999999" height="52" preserveAspectRatio="xMidYMid meet" version="1.0"><defs><clipPath id="5abd9e35e7"><path d="M 0.195312 0.542969 L 37.515625 0.542969 L 37.515625 38.058594 L 0.195312 38.058594 Z M 0.195312 0.542969 " clip-rule="nonzero"/></clipPath></defs><g clip-path="url(#5abd9e35e7)"><path fill="#0f4482" d="M 33.480469 35.773438 L 33.480469 29.507812 C 33.480469 29.21875 33.289062 29.027344 33 29.027344 L 25.769531 29.027344 C 25.480469 29.027344 25.289062 29.21875 25.289062 29.507812 L 25.289062 35.773438 L 23.359375 35.773438 L 23.359375 22.28125 L 25.289062 22.28125 L 25.289062 25.652344 C 25.289062 25.941406 25.480469 26.136719 25.769531 26.136719 L 31.554688 26.136719 C 31.839844 26.136719 32.035156 25.941406 32.035156 25.652344 L 32.035156 22.28125 L 32.804688 22.28125 L 36.375 25.84375 L 36.375 35.773438 Z M 26.253906 35.773438 L 26.253906 29.992188 L 32.515625 29.992188 L 32.515625 35.773438 Z M 5.046875 32.402344 C 4.757812 32.402344 4.5625 32.207031 4.5625 31.917969 L 4.5625 28.546875 C 4.5625 28.253906 4.757812 28.0625 5.046875 28.0625 L 22.394531 28.0625 L 22.394531 32.402344 Z M 27.214844 22.28125 L 27.214844 25.171875 L 26.253906 25.171875 L 26.253906 22.28125 Z M 31.070312 22.28125 L 31.070312 25.171875 L 28.179688 25.171875 L 28.179688 22.28125 Z M 37.289062 25.460938 C 37.242188 25.414062 37.242188 25.363281 37.191406 25.316406 L 33.335938 21.457031 C 33.242188 21.363281 33.144531 21.316406 33 21.316406 L 22.878906 21.316406 C 22.589844 21.316406 22.394531 21.507812 22.394531 21.796875 L 22.394531 23.726562 L 12.273438 23.726562 C 11.984375 23.726562 11.792969 23.917969 11.792969 24.207031 C 11.792969 24.496094 11.984375 24.6875 12.273438 24.6875 L 22.394531 24.6875 L 22.394531 27.097656 L 5.046875 27.097656 C 4.226562 27.097656 3.601562 27.722656 3.601562 28.546875 L 3.601562 31.917969 C 3.601562 32.738281 4.226562 33.363281 5.046875 33.363281 L 22.394531 33.363281 L 22.394531 36.257812 C 22.394531 36.542969 22.589844 36.738281 22.878906 36.738281 L 36.855469 36.738281 C 37.144531 36.738281 37.335938 36.542969 37.335938 36.257812 L 37.335938 25.652344 C 37.335938 25.605469 37.335938 25.507812 37.289062 25.460938 Z M 19.988281 20.351562 C 20.273438 20.351562 20.46875 20.542969 20.46875 20.832031 C 20.46875 21.121094 20.273438 21.316406 19.988281 21.316406 L 12.273438 21.316406 C 11.984375 21.316406 11.792969 21.121094 11.792969 20.832031 C 11.792969 20.542969 11.984375 20.351562 12.273438 20.351562 Z M 24.804688 17.941406 L 12.273438 17.941406 C 11.984375 17.941406 11.792969 17.75 11.792969 17.460938 C 11.792969 17.171875 11.984375 16.976562 12.273438 16.976562 L 24.804688 16.976562 C 25.09375 16.976562 25.289062 17.171875 25.289062 17.460938 C 25.289062 17.75 25.09375 17.941406 24.804688 17.941406 Z M 8.902344 18.425781 L 8.902344 23.242188 C 8.902344 23.53125 8.710938 23.726562 8.417969 23.726562 L 5.046875 23.726562 C 4.757812 23.726562 4.5625 23.53125 4.5625 23.242188 L 4.5625 18.425781 C 4.5625 18.132812 4.757812 17.941406 5.046875 17.941406 L 8.417969 17.941406 C 8.710938 17.941406 8.902344 18.132812 8.902344 18.425781 Z M 5.046875 16.976562 C 4.226562 16.976562 3.601562 17.601562 3.601562 18.425781 L 3.601562 23.242188 C 3.601562 24.0625 4.226562 24.6875 5.046875 24.6875 L 8.417969 24.6875 C 9.238281 24.6875 9.867188 24.0625 9.867188 23.242188 L 9.867188 18.425781 C 9.867188 17.601562 9.238281 16.976562 8.417969 16.976562 Z M 25.289062 14.085938 C 25.289062 14.375 25.09375 14.566406 24.804688 14.566406 L 4.082031 14.566406 C 3.792969 14.566406 3.601562 14.375 3.601562 14.085938 C 3.601562 13.796875 3.792969 13.605469 4.082031 13.605469 L 24.804688 13.605469 C 25.09375 13.605469 25.289062 13.796875 25.289062 14.085938 Z M 3.601562 10.710938 C 3.601562 10.421875 3.792969 10.230469 4.082031 10.230469 L 16.132812 10.230469 C 16.421875 10.230469 16.613281 10.421875 16.613281 10.710938 C 16.613281 11 16.421875 11.195312 16.132812 11.195312 L 4.082031 11.195312 C 3.792969 11.195312 3.601562 11 3.601562 10.710938 Z M 3.601562 7.339844 C 3.601562 7.050781 3.792969 6.855469 4.082031 6.855469 L 16.132812 6.855469 C 16.421875 6.855469 16.613281 7.050781 16.613281 7.339844 C 16.613281 7.628906 16.421875 7.820312 16.132812 7.820312 L 4.082031 7.820312 C 3.792969 7.820312 3.601562 7.628906 3.601562 7.339844 Z M 28.46875 10.230469 L 20.46875 10.230469 L 20.46875 2.230469 Z M 22.394531 37.21875 L 1.671875 37.21875 C 1.382812 37.21875 1.191406 37.027344 1.191406 36.738281 L 1.191406 2.039062 C 1.191406 1.746094 1.382812 1.554688 1.671875 1.554688 L 19.503906 1.554688 L 19.503906 10.710938 C 19.503906 11 19.699219 11.195312 19.988281 11.195312 L 29.144531 11.195312 L 29.144531 19.871094 C 29.144531 20.15625 29.335938 20.351562 29.625 20.351562 C 29.914062 20.351562 30.109375 20.15625 30.109375 19.871094 L 30.109375 10.710938 C 30.109375 10.710938 30.109375 10.710938 30.109375 10.664062 C 30.109375 10.613281 30.109375 10.566406 30.0625 10.519531 L 30.0625 10.472656 C 30.0625 10.421875 30.011719 10.375 29.960938 10.328125 L 20.324219 0.6875 C 20.273438 0.636719 20.226562 0.589844 20.179688 0.589844 L 20.132812 0.589844 C 20.082031 0.589844 20.035156 0.589844 19.988281 0.542969 L 1.671875 0.542969 C 0.851562 0.542969 0.226562 1.167969 0.226562 1.988281 L 0.226562 36.738281 C 0.226562 37.558594 0.851562 38.183594 1.671875 38.183594 L 22.394531 38.183594 C 22.683594 38.183594 22.878906 37.992188 22.878906 37.703125 C 22.878906 37.414062 22.683594 37.21875 22.394531 37.21875 " fill-opacity="1" fill-rule="nonzero"/></g></svg>