<svg xmlns="http://www.w3.org/2000/svg" xmlns:xlink="http://www.w3.org/1999/xlink" width="89" zoomAndPan="magnify" viewBox="0 0 66.75 63.749997" height="85" preserveAspectRatio="xMidYMid meet" version="1.0"><defs><clipPath id="12c3e6421a"><path d="M 28 0.484375 L 38 0.484375 L 38 10 L 28 10 Z M 28 0.484375 " clip-rule="nonzero"/></clipPath><clipPath id="8126b92812"><path d="M 0.675781 20 L 10 20 L 10 31 L 0.675781 31 Z M 0.675781 20 " clip-rule="nonzero"/></clipPath><clipPath id="a682697583"><path d="M 56.703125 20.964844 L 65.671875 20.964844 L 65.671875 30.140625 L 56.703125 30.140625 Z M 56.703125 20.964844 " clip-rule="nonzero"/></clipPath><clipPath id="4e79d94c83"><path d="M 46.117188 53.765625 L 55.324219 53.765625 L 55.324219 62.945312 L 46.117188 62.945312 Z M 46.117188 53.765625 " clip-rule="nonzero"/></clipPath><clipPath id="e9d3c607cd"><path d="M 11.691406 53.765625 L 20.898438 53.765625 L 20.898438 62.945312 L 11.691406 62.945312 Z M 11.691406 53.765625 " clip-rule="nonzero"/></clipPath></defs><g clip-path="url(#12c3e6421a)"><path fill="#0f4482" d="M 33.296875 2.296875 C 34.824219 2.296875 36.066406 3.542969 36.066406 5.070312 C 36.066406 6.597656 34.824219 7.839844 33.296875 7.839844 C 31.765625 7.839844 30.523438 6.597656 30.523438 5.070312 C 30.523438 3.542969 31.765625 2.296875 33.296875 2.296875 Z M 33.296875 9.65625 C 35.824219 9.65625 37.882812 7.597656 37.882812 5.070312 C 37.882812 2.539062 35.824219 0.484375 33.296875 0.484375 C 30.765625 0.484375 28.707031 2.539062 28.707031 5.070312 C 28.707031 7.597656 30.765625 9.65625 33.296875 9.65625 " fill-opacity="1" fill-rule="nonzero"/></g><g clip-path="url(#8126b92812)"><path fill="#0f4482" d="M 5.28125 28.324219 C 3.75 28.324219 2.507812 27.082031 2.507812 25.554688 C 2.507812 24.023438 3.75 22.78125 5.28125 22.78125 C 6.808594 22.78125 8.050781 24.023438 8.050781 25.554688 C 8.050781 27.082031 6.808594 28.324219 5.28125 28.324219 Z M 5.28125 20.964844 C 2.75 20.964844 0.691406 23.023438 0.691406 25.554688 C 0.691406 28.082031 2.75 30.140625 5.28125 30.140625 C 7.808594 30.140625 9.867188 28.082031 9.867188 25.554688 C 9.867188 23.023438 7.808594 20.964844 5.28125 20.964844 " fill-opacity="1" fill-rule="nonzero"/></g><g clip-path="url(#a682697583)"><path fill="#0f4482" d="M 61.3125 28.324219 C 59.78125 28.324219 58.539062 27.082031 58.539062 25.554688 C 58.539062 24.023438 59.78125 22.78125 61.3125 22.78125 C 62.839844 22.78125 64.082031 24.023438 64.082031 25.554688 C 64.082031 27.082031 62.839844 28.324219 61.3125 28.324219 Z M 61.3125 20.964844 C 58.78125 20.964844 56.722656 23.023438 56.722656 25.554688 C 56.722656 28.082031 58.78125 30.140625 61.3125 30.140625 C 63.839844 30.140625 65.898438 28.082031 65.898438 25.554688 C 65.898438 23.023438 63.839844 20.964844 61.3125 20.964844 " fill-opacity="1" fill-rule="nonzero"/></g><g clip-path="url(#4e79d94c83)"><path fill="#0f4482" d="M 50.730469 61.128906 C 49.203125 61.128906 47.957031 59.886719 47.957031 58.359375 C 47.957031 56.832031 49.203125 55.585938 50.730469 55.585938 C 52.257812 55.585938 53.5 56.832031 53.5 58.359375 C 53.5 59.886719 52.257812 61.128906 50.730469 61.128906 Z M 50.730469 53.773438 C 48.199219 53.773438 46.140625 55.828125 46.140625 58.359375 C 46.140625 60.886719 48.199219 62.945312 50.730469 62.945312 C 53.257812 62.945312 55.316406 60.886719 55.316406 58.359375 C 55.316406 55.828125 53.257812 53.773438 50.730469 53.773438 " fill-opacity="1" fill-rule="nonzero"/></g><g clip-path="url(#e9d3c607cd)"><path fill="#0f4482" d="M 16.28125 61.128906 C 14.753906 61.128906 13.511719 59.886719 13.511719 58.359375 C 13.511719 56.832031 14.753906 55.585938 16.28125 55.585938 C 17.8125 55.585938 19.054688 56.832031 19.054688 58.359375 C 19.054688 59.886719 17.8125 61.128906 16.28125 61.128906 Z M 16.28125 53.773438 C 13.753906 53.773438 11.695312 55.828125 11.695312 58.359375 C 11.695312 60.886719 13.753906 62.945312 16.28125 62.945312 C 18.8125 62.945312 20.871094 60.886719 20.871094 58.359375 C 20.871094 55.828125 18.8125 53.773438 16.28125 53.773438 " fill-opacity="1" fill-rule="nonzero"/></g><path fill="#0f4482" d="M 25.382812 45.332031 C 24.972656 45.039062 24.40625 45.132812 24.113281 45.539062 L 23.921875 45.8125 C 23.628906 46.21875 23.71875 46.785156 24.128906 47.078125 C 24.289062 47.195312 24.472656 47.25 24.65625 47.25 C 24.9375 47.25 25.21875 47.117188 25.394531 46.871094 L 25.589844 46.597656 C 25.882812 46.191406 25.789062 45.625 25.382812 45.332031 " fill-opacity="1" fill-rule="nonzero"/><path fill="#0f4482" d="M 23.234375 48.320312 C 22.828125 48.027344 22.261719 48.121094 21.96875 48.527344 L 21.773438 48.800781 C 21.480469 49.207031 21.574219 49.773438 21.984375 50.066406 C 22.144531 50.183594 22.328125 50.238281 22.511719 50.238281 C 22.792969 50.238281 23.070312 50.105469 23.25 49.859375 L 23.445312 49.585938 C 23.738281 49.179688 23.644531 48.613281 23.234375 48.320312 " fill-opacity="1" fill-rule="nonzero"/><path fill="#0f4482" d="M 21.089844 51.308594 C 20.683594 51.015625 20.117188 51.109375 19.824219 51.515625 L 19.71875 51.664062 C 19.425781 52.070312 19.519531 52.636719 19.925781 52.929688 C 20.085938 53.046875 20.273438 53.101562 20.457031 53.101562 C 20.738281 53.101562 21.015625 52.96875 21.191406 52.722656 L 21.300781 52.574219 C 21.589844 52.167969 21.5 51.601562 21.089844 51.308594 " fill-opacity="1" fill-rule="nonzero"/><path fill="#0f4482" d="M 18.761719 30.503906 L 19.085938 30.609375 C 19.175781 30.636719 19.269531 30.652344 19.363281 30.652344 C 19.746094 30.652344 20.101562 30.40625 20.226562 30.023438 C 20.378906 29.542969 20.117188 29.035156 19.640625 28.878906 L 19.320312 28.777344 C 18.84375 28.621094 18.332031 28.886719 18.175781 29.363281 C 18.023438 29.839844 18.285156 30.351562 18.761719 30.503906 " fill-opacity="1" fill-rule="nonzero"/><path fill="#0f4482" d="M 15.230469 29.367188 L 15.550781 29.472656 C 15.644531 29.5 15.738281 29.515625 15.828125 29.515625 C 16.214844 29.515625 16.570312 29.269531 16.695312 28.886719 C 16.847656 28.40625 16.585938 27.894531 16.109375 27.742188 L 15.785156 27.640625 C 15.308594 27.484375 14.796875 27.75 14.644531 28.226562 C 14.492188 28.703125 14.753906 29.214844 15.230469 29.367188 " fill-opacity="1" fill-rule="nonzero"/><path fill="#0f4482" d="M 12.019531 28.332031 C 12.113281 28.363281 12.207031 28.378906 12.296875 28.378906 C 12.679688 28.378906 13.039062 28.132812 13.160156 27.746094 C 13.316406 27.269531 13.050781 26.757812 12.574219 26.605469 L 12.402344 26.550781 C 11.925781 26.398438 11.414062 26.660156 11.261719 27.136719 C 11.105469 27.613281 11.367188 28.125 11.847656 28.277344 L 12.019531 28.332031 " fill-opacity="1" fill-rule="nonzero"/><path fill="#0f4482" d="M 54.1875 26.554688 L 54.015625 26.609375 C 53.539062 26.765625 53.277344 27.277344 53.429688 27.753906 C 53.554688 28.136719 53.910156 28.382812 54.292969 28.382812 C 54.386719 28.382812 54.480469 28.367188 54.574219 28.335938 L 54.746094 28.28125 C 55.222656 28.128906 55.484375 27.617188 55.332031 27.140625 C 55.175781 26.660156 54.664062 26.398438 54.1875 26.554688 " fill-opacity="1" fill-rule="nonzero"/><path fill="#0f4482" d="M 50.777344 29.519531 C 50.871094 29.519531 50.964844 29.503906 51.058594 29.472656 L 51.378906 29.371094 C 51.855469 29.214844 52.117188 28.703125 51.960938 28.226562 C 51.808594 27.75 51.296875 27.488281 50.820312 27.644531 L 50.5 27.746094 C 50.023438 27.902344 49.761719 28.410156 49.914062 28.890625 C 50.039062 29.273438 50.394531 29.519531 50.777344 29.519531 " fill-opacity="1" fill-rule="nonzero"/><path fill="#0f4482" d="M 33.296875 11.019531 C 33.292969 11.019531 33.292969 11.019531 33.292969 11.019531 C 32.792969 11.019531 32.386719 11.429688 32.386719 11.929688 L 32.386719 12.109375 C 32.390625 12.609375 32.796875 13.015625 33.296875 13.015625 C 33.800781 13.015625 34.203125 12.609375 34.203125 12.105469 L 34.203125 11.925781 C 34.203125 11.425781 33.796875 11.019531 33.296875 11.019531 " fill-opacity="1" fill-rule="nonzero"/><path fill="#0f4482" d="M 33.316406 22.007812 C 32.816406 22.011719 32.410156 22.417969 32.410156 22.917969 L 32.414062 23.257812 C 32.414062 23.757812 32.820312 24.164062 33.320312 24.164062 C 33.824219 24.160156 34.230469 23.753906 34.226562 23.253906 L 34.226562 22.914062 C 34.226562 22.414062 33.820312 22.007812 33.320312 22.007812 C 33.320312 22.007812 33.316406 22.007812 33.316406 22.007812 " fill-opacity="1" fill-rule="nonzero"/><path fill="#0f4482" d="M 33.3125 18.292969 C 33.3125 18.292969 33.308594 18.292969 33.308594 18.292969 C 32.808594 18.292969 32.402344 18.703125 32.402344 19.203125 L 32.40625 19.542969 C 32.40625 20.042969 32.8125 20.445312 33.3125 20.445312 C 33.816406 20.445312 34.21875 20.039062 34.21875 19.539062 L 34.21875 19.199219 C 34.21875 18.699219 33.8125 18.292969 33.3125 18.292969 " fill-opacity="1" fill-rule="nonzero"/><path fill="#0f4482" d="M 33.304688 14.578125 C 33.300781 14.578125 33.300781 14.578125 33.300781 14.578125 C 32.800781 14.578125 32.394531 14.988281 32.394531 15.488281 L 32.394531 15.824219 C 32.398438 16.328125 32.804688 16.730469 33.304688 16.730469 C 33.808594 16.730469 34.210938 16.324219 34.210938 15.820312 L 34.210938 15.484375 C 34.210938 14.984375 33.804688 14.578125 33.304688 14.578125 " fill-opacity="1" fill-rule="nonzero"/><path fill="#0f4482" d="M 47 52.925781 C 47.40625 52.628906 47.496094 52.0625 47.199219 51.65625 L 47.09375 51.511719 C 46.796875 51.105469 46.226562 51.015625 45.824219 51.3125 C 45.417969 51.609375 45.328125 52.175781 45.625 52.582031 L 45.734375 52.726562 C 45.910156 52.972656 46.1875 53.101562 46.46875 53.101562 C 46.652344 53.101562 46.839844 53.042969 47 52.925781 " fill-opacity="1" fill-rule="nonzero"/><path fill="#0f4482" d="M 29.667969 38.808594 C 29.804688 39.105469 30.101562 39.292969 30.417969 39.304688 C 30.472656 39.308594 30.527344 39.304688 30.582031 39.296875 C 30.660156 39.28125 30.738281 39.257812 30.808594 39.226562 C 31.238281 39.027344 31.425781 38.515625 31.226562 38.085938 L 24.578125 23.699219 L 24.5625 23.664062 C 24.417969 23.351562 24.402344 23 24.519531 22.675781 C 24.640625 22.347656 24.878906 22.089844 25.191406 21.945312 C 25.503906 21.796875 25.859375 21.785156 26.183594 21.902344 C 26.507812 22.023438 26.765625 22.261719 26.910156 22.574219 L 31.679688 32.90625 C 31.839844 33.253906 32.21875 33.453125 32.59375 33.394531 C 32.671875 33.378906 32.75 33.355469 32.820312 33.324219 C 33.03125 33.226562 33.1875 33.054688 33.265625 32.839844 C 33.347656 32.625 33.335938 32.390625 33.238281 32.183594 L 28.472656 21.851562 L 28.464844 21.839844 C 28.125 21.113281 27.527344 20.5625 26.773438 20.289062 C 26.015625 20.011719 25.199219 20.046875 24.46875 20.382812 C 23.738281 20.722656 23.183594 21.328125 22.90625 22.082031 C 22.628906 22.839844 22.664062 23.65625 23.003906 24.386719 L 29.667969 38.808594 " fill-opacity="1" fill-rule="nonzero"/><path fill="#0f4482" d="M 50.269531 42.773438 C 50.1875 44.019531 50.113281 45.199219 50.601562 46.144531 L 50.605469 46.152344 C 50.753906 46.433594 51.035156 46.605469 51.339844 46.617188 C 51.394531 46.617188 51.449219 46.613281 51.507812 46.605469 C 51.597656 46.589844 51.683594 46.5625 51.765625 46.519531 C 52.1875 46.300781 52.351562 45.78125 52.132812 45.359375 C 51.859375 44.835938 51.925781 43.796875 51.984375 42.882812 C 52.058594 41.695312 52.136719 40.46875 51.699219 39.441406 C 50.980469 37.75 46.8125 28.902344 46.601562 28.457031 L 46.597656 28.445312 C 45.960938 27.09375 44.34375 26.503906 42.988281 27.132812 C 42.738281 27.25 42.511719 27.402344 42.308594 27.582031 C 41.957031 27.902344 41.929688 28.445312 42.25 28.796875 C 42.566406 29.148438 43.109375 29.175781 43.460938 28.859375 C 43.535156 28.792969 43.621094 28.738281 43.714844 28.695312 C 44.207031 28.464844 44.796875 28.675781 45.035156 29.160156 L 45.046875 29.191406 C 45.253906 29.628906 49.425781 38.488281 50.117188 40.113281 C 50.394531 40.765625 50.332031 41.785156 50.269531 42.773438 " fill-opacity="1" fill-rule="nonzero"/><path fill="#0f4482" d="M 39.648438 49.632812 C 39.636719 49.617188 39.625 49.601562 39.613281 49.585938 C 39.242188 49.054688 38.566406 48.546875 37.355469 47.890625 C 36.535156 47.449219 35.601562 47.007812 34.609375 46.542969 C 32.558594 45.582031 30.230469 44.488281 29.464844 43.507812 L 25.925781 38.925781 C 25.914062 38.902344 25.898438 38.878906 25.886719 38.859375 C 25.683594 38.578125 25.605469 38.234375 25.664062 37.890625 C 25.722656 37.550781 25.910156 37.253906 26.191406 37.054688 C 26.441406 36.875 26.746094 36.792969 27.050781 36.816406 C 27.28125 36.835938 27.503906 36.765625 27.679688 36.621094 C 27.855469 36.472656 27.960938 36.265625 27.980469 36.035156 C 28 35.804688 27.929688 35.582031 27.78125 35.40625 C 27.632812 35.230469 27.425781 35.125 27.199219 35.105469 C 26.488281 35.042969 25.777344 35.238281 25.195312 35.652344 C 24.539062 36.117188 24.105469 36.8125 23.96875 37.605469 C 23.84375 38.347656 23.996094 39.105469 24.40625 39.742188 C 24.429688 39.792969 24.460938 39.839844 24.496094 39.886719 L 28.097656 44.542969 L 28.109375 44.5625 C 29.128906 45.875 31.546875 47.003906 33.882812 48.101562 C 34.847656 48.554688 35.761719 48.984375 36.535156 49.402344 C 37.605469 49.984375 38.050781 50.378906 38.230469 50.609375 C 38.4375 50.867188 38.574219 51.179688 38.75 51.574219 L 38.761719 51.605469 C 38.898438 51.910156 39.195312 52.105469 39.519531 52.117188 C 39.574219 52.121094 39.628906 52.117188 39.683594 52.109375 C 39.757812 52.097656 39.828125 52.074219 39.894531 52.046875 C 40.320312 51.859375 40.515625 51.367188 40.34375 50.925781 C 40.0625 50.207031 39.78125 49.820312 39.648438 49.632812 " fill-opacity="1" fill-rule="nonzero"/><path fill="#0f4482" d="M 41.742188 28.382812 C 41.40625 27.652344 40.800781 27.097656 40.046875 26.820312 C 39.289062 26.542969 38.46875 26.578125 37.738281 26.917969 C 37.378906 27.085938 37.058594 27.320312 36.789062 27.609375 C 36.632812 27.78125 36.554688 28 36.5625 28.230469 C 36.574219 28.457031 36.671875 28.671875 36.839844 28.824219 C 37.191406 29.148438 37.734375 29.125 38.054688 28.773438 C 38.171875 28.648438 38.308594 28.550781 38.464844 28.476562 C 38.777344 28.332031 39.128906 28.316406 39.453125 28.433594 C 39.777344 28.554688 40.039062 28.792969 40.183594 29.105469 L 40.476562 29.734375 C 40.613281 30.03125 40.910156 30.222656 41.226562 30.230469 C 41.28125 30.234375 41.335938 30.230469 41.390625 30.222656 C 41.46875 30.210938 41.546875 30.1875 41.617188 30.152344 C 41.824219 30.054688 41.984375 29.882812 42.0625 29.667969 C 42.140625 29.453125 42.132812 29.21875 42.035156 29.011719 L 41.742188 28.382812 " fill-opacity="1" fill-rule="nonzero"/><path fill="#0f4482" d="M 32.402344 29.679688 C 32.683594 30.0625 33.222656 30.144531 33.605469 29.863281 C 33.675781 29.808594 33.75 29.765625 33.832031 29.726562 C 34.476562 29.425781 35.25 29.710938 35.550781 30.355469 L 35.945312 31.210938 C 36.085938 31.507812 36.378906 31.695312 36.699219 31.707031 C 36.753906 31.710938 36.808594 31.707031 36.863281 31.695312 C 36.941406 31.683594 37.015625 31.660156 37.089844 31.628906 C 37.519531 31.429688 37.707031 30.917969 37.507812 30.484375 L 37.109375 29.632812 C 36.410156 28.125 34.613281 27.46875 33.105469 28.167969 C 32.921875 28.253906 32.746094 28.359375 32.582031 28.480469 C 32.398438 28.617188 32.277344 28.816406 32.242188 29.042969 C 32.207031 29.269531 32.265625 29.496094 32.402344 29.679688 " fill-opacity="1" fill-rule="nonzero"/></svg>