<svg xmlns="http://www.w3.org/2000/svg" xmlns:xlink="http://www.w3.org/1999/xlink" width="50" zoomAndPan="magnify" viewBox="0 0 37.5 37.499999" height="50" preserveAspectRatio="xMidYMid meet" version="1.0"><defs><clipPath id="c8cb0bb4a4"><path d="M 12 0.0507812 L 24 0.0507812 L 24 11 L 12 11 Z M 12 0.0507812 " clip-rule="nonzero"/></clipPath><clipPath id="5b211972bd"><path d="M 0.0117188 12 L 13 12 L 13 25 L 0.0117188 25 Z M 0.0117188 12 " clip-rule="nonzero"/></clipPath><clipPath id="888a2c2783"><path d="M 24 11 L 36.28125 11 L 36.28125 26 L 24 26 Z M 24 11 " clip-rule="nonzero"/></clipPath><clipPath id="5a467a19e9"><path d="M 5 14 L 31 14 L 31 36.316406 L 5 36.316406 Z M 5 14 " clip-rule="nonzero"/></clipPath></defs><g clip-path="url(#c8cb0bb4a4)"><path fill="#0f4482" d="M 14.355469 9.25 C 14.355469 9.25 14.382812 9.277344 14.382812 9.277344 C 15.347656 10.242188 16.679688 10.835938 18.152344 10.835938 C 19.625 10.835938 20.957031 10.242188 21.921875 9.277344 C 21.921875 9.277344 21.949219 9.25 21.949219 9.25 C 21.949219 9.25 21.976562 9.21875 21.976562 9.21875 C 22.941406 8.257812 23.539062 6.925781 23.539062 5.449219 C 23.539062 3.976562 22.941406 2.644531 21.976562 1.679688 C 21.976562 1.679688 21.949219 1.652344 21.949219 1.652344 C 21.949219 1.652344 21.921875 1.625 21.921875 1.625 C 20.957031 0.660156 19.625 0.0664062 18.152344 0.0664062 C 16.679688 0.0664062 15.347656 0.660156 14.382812 1.625 C 14.382812 1.625 14.355469 1.652344 14.355469 1.652344 C 14.355469 1.652344 14.324219 1.679688 14.324219 1.679688 C 13.363281 2.644531 12.765625 3.976562 12.765625 5.449219 C 12.765625 6.925781 13.363281 8.257812 14.324219 9.21875 C 14.324219 9.21875 14.324219 9.25 14.355469 9.25 Z M 14.46875 4.882812 L 13.929688 4.882812 C 14.042969 4.148438 14.324219 3.4375 14.75 2.871094 L 15.121094 3.238281 C 15.234375 3.355469 15.375 3.410156 15.515625 3.410156 C 15.65625 3.410156 15.800781 3.355469 15.914062 3.238281 C 16.140625 3.011719 16.140625 2.671875 15.914062 2.445312 L 15.542969 2.078125 C 16.113281 1.652344 16.792969 1.339844 17.558594 1.257812 L 17.558594 1.765625 C 17.558594 2.078125 17.8125 2.332031 18.125 2.332031 C 18.4375 2.332031 18.691406 2.078125 18.691406 1.765625 L 18.691406 1.226562 C 19.425781 1.339844 20.136719 1.625 20.703125 2.050781 L 20.335938 2.417969 C 20.109375 2.644531 20.109375 2.984375 20.335938 3.210938 C 20.449219 3.324219 20.589844 3.382812 20.730469 3.382812 C 20.871094 3.382812 21.015625 3.324219 21.128906 3.210938 L 21.496094 2.84375 C 21.921875 3.410156 22.234375 4.089844 22.320312 4.855469 L 21.835938 4.855469 C 21.523438 4.855469 21.269531 5.109375 21.269531 5.421875 C 21.269531 5.734375 21.523438 5.988281 21.835938 5.988281 L 22.375 5.988281 C 22.261719 6.726562 21.976562 7.433594 21.554688 8 L 21.183594 7.632812 C 20.957031 7.40625 20.617188 7.40625 20.390625 7.632812 C 20.164062 7.859375 20.164062 8.199219 20.390625 8.425781 L 20.757812 8.796875 C 20.191406 9.21875 19.511719 9.53125 18.746094 9.617188 L 18.746094 9.136719 C 18.746094 8.824219 18.492188 8.570312 18.179688 8.570312 C 17.867188 8.570312 17.613281 8.824219 17.613281 9.136719 L 17.613281 9.675781 C 16.875 9.558594 16.167969 9.277344 15.601562 8.851562 L 15.96875 8.484375 C 16.195312 8.257812 16.195312 7.917969 15.96875 7.691406 C 15.742188 7.464844 15.402344 7.464844 15.175781 7.691406 L 14.808594 8.058594 C 14.382812 7.492188 14.070312 6.8125 13.984375 6.046875 L 14.46875 6.046875 C 14.78125 6.046875 15.035156 5.789062 15.035156 5.480469 C 15.035156 5.167969 14.78125 4.882812 14.46875 4.882812 Z M 14.46875 4.882812 " fill-opacity="1" fill-rule="nonzero"/></g><path fill="#0f4482" d="M 16.734375 6.019531 L 18.152344 6.019531 C 18.464844 6.019531 18.71875 5.761719 18.71875 5.449219 L 18.71875 3.75 C 18.71875 3.4375 18.464844 3.183594 18.152344 3.183594 C 17.839844 3.183594 17.585938 3.4375 17.585938 3.75 L 17.585938 4.882812 L 16.734375 4.882812 C 16.421875 4.882812 16.167969 5.140625 16.167969 5.449219 C 16.167969 5.761719 16.421875 6.019531 16.734375 6.019531 Z M 16.734375 6.019531 " fill-opacity="1" fill-rule="nonzero"/><g clip-path="url(#5b211972bd)"><path fill="#0f4482" d="M 0.808594 20.160156 C 0.921875 20.5 1.0625 20.839844 1.230469 21.179688 C 1.0625 21.664062 1.148438 22.230469 1.542969 22.597656 L 2.167969 23.222656 C 2.421875 23.476562 2.761719 23.617188 3.128906 23.617188 C 3.300781 23.617188 3.441406 23.589844 3.613281 23.535156 C 3.925781 23.703125 4.265625 23.84375 4.632812 23.957031 C 4.859375 24.410156 5.3125 24.75 5.851562 24.75 L 6.730469 24.75 C 7.269531 24.75 7.75 24.441406 7.949219 23.957031 C 8.289062 23.84375 8.628906 23.703125 8.96875 23.535156 C 9.109375 23.589844 9.28125 23.617188 9.449219 23.617188 C 9.820312 23.617188 10.160156 23.476562 10.414062 23.222656 L 11.039062 22.597656 C 11.433594 22.199219 11.519531 21.664062 11.351562 21.179688 C 11.519531 20.867188 11.660156 20.527344 11.773438 20.160156 C 12.230469 19.933594 12.570312 19.480469 12.570312 18.941406 L 12.570312 18.0625 C 12.570312 17.523438 12.257812 17.042969 11.773438 16.84375 C 11.660156 16.503906 11.519531 16.164062 11.351562 15.824219 C 11.40625 15.683594 11.433594 15.511719 11.433594 15.34375 C 11.433594 14.972656 11.292969 14.632812 11.039062 14.378906 L 10.414062 13.753906 C 10.160156 13.5 9.820312 13.359375 9.449219 13.359375 C 9.28125 13.359375 9.140625 13.386719 8.96875 13.445312 C 8.65625 13.273438 8.316406 13.132812 7.949219 13.019531 C 7.722656 12.566406 7.269531 12.226562 6.730469 12.226562 L 5.851562 12.226562 C 5.3125 12.226562 4.832031 12.535156 4.632812 13.019531 C 4.292969 13.132812 3.953125 13.273438 3.613281 13.445312 C 3.414062 13.414062 3.273438 13.386719 3.101562 13.386719 C 2.734375 13.386719 2.394531 13.527344 2.140625 13.785156 L 1.515625 14.40625 C 1.289062 14.632812 1.148438 14.972656 1.148438 15.34375 C 1.148438 15.511719 1.175781 15.652344 1.230469 15.824219 C 1.0625 16.136719 0.921875 16.476562 0.808594 16.84375 C 0.324219 17.042969 0.0117188 17.496094 0.0117188 18.0625 L 0.0117188 18.941406 C 0.0117188 19.480469 0.324219 19.933594 0.808594 20.160156 Z M 1.148438 18.0625 C 1.148438 17.949219 1.230469 17.835938 1.375 17.835938 L 1.742188 17.835938 C 1.855469 17.070312 2.167969 16.363281 2.59375 15.765625 L 2.335938 15.511719 C 2.253906 15.425781 2.253906 15.285156 2.335938 15.199219 L 2.960938 14.578125 C 2.988281 14.546875 3.046875 14.519531 3.101562 14.519531 C 3.160156 14.519531 3.214844 14.546875 3.246094 14.578125 L 3.5 14.832031 C 4.09375 14.378906 4.804688 14.09375 5.566406 13.980469 L 5.566406 13.613281 C 5.566406 13.5 5.652344 13.386719 5.796875 13.386719 L 6.671875 13.386719 C 6.785156 13.386719 6.898438 13.472656 6.898438 13.613281 L 6.898438 13.980469 C 7.664062 14.09375 8.375 14.40625 8.96875 14.832031 L 9.222656 14.578125 C 9.253906 14.546875 9.308594 14.519531 9.367188 14.519531 C 9.421875 14.519531 9.480469 14.546875 9.507812 14.578125 L 10.132812 15.199219 C 10.214844 15.285156 10.214844 15.425781 10.132812 15.511719 L 9.875 15.765625 C 10.328125 16.363281 10.613281 17.070312 10.726562 17.835938 L 11.09375 17.835938 C 11.207031 17.835938 11.320312 17.921875 11.320312 18.0625 L 11.320312 18.941406 C 11.320312 19.054688 11.238281 19.167969 11.09375 19.167969 L 10.726562 19.167969 C 10.613281 19.933594 10.300781 20.640625 9.875 21.238281 L 10.132812 21.492188 C 10.214844 21.578125 10.214844 21.71875 10.132812 21.804688 L 9.507812 22.429688 C 9.507812 22.457031 9.449219 22.457031 9.394531 22.457031 C 9.335938 22.457031 9.28125 22.429688 9.253906 22.398438 L 8.996094 22.144531 C 8.402344 22.597656 7.695312 22.882812 6.929688 22.996094 L 6.929688 23.363281 C 6.929688 23.476562 6.84375 23.589844 6.703125 23.589844 L 5.824219 23.589844 C 5.710938 23.589844 5.597656 23.503906 5.597656 23.363281 L 5.597656 22.996094 C 4.832031 22.882812 4.121094 22.570312 3.527344 22.144531 L 3.273438 22.398438 C 3.214844 22.457031 3.160156 22.457031 3.101562 22.457031 C 3.046875 22.457031 2.988281 22.429688 2.960938 22.398438 L 2.335938 21.777344 C 2.253906 21.691406 2.253906 21.550781 2.335938 21.464844 L 2.59375 21.210938 C 2.140625 20.613281 1.855469 19.90625 1.742188 19.140625 L 1.375 19.140625 C 1.230469 19.140625 1.148438 19.054688 1.148438 18.914062 Z M 1.148438 18.0625 " fill-opacity="1" fill-rule="nonzero"/></g><path fill="#0f4482" d="M 6.25 21.890625 C 8.117188 21.890625 9.648438 20.359375 9.648438 18.488281 C 9.648438 16.617188 8.117188 15.085938 6.25 15.085938 C 4.378906 15.085938 2.847656 16.617188 2.847656 18.488281 C 2.847656 20.359375 4.378906 21.890625 6.25 21.890625 Z M 6.25 16.222656 C 7.496094 16.222656 8.515625 17.242188 8.515625 18.488281 C 8.515625 19.734375 7.496094 20.753906 6.25 20.753906 C 5 20.753906 3.980469 19.734375 3.980469 18.488281 C 3.980469 17.242188 5 16.222656 6.25 16.222656 Z M 6.25 16.222656 " fill-opacity="1" fill-rule="nonzero"/><path fill="#0f4482" d="M 29.234375 10.835938 L 30.566406 10.835938 C 29.148438 8.484375 27.109375 6.554688 24.640625 5.308594 C 24.640625 5.367188 24.640625 5.394531 24.640625 5.449219 C 24.640625 5.820312 24.613281 6.1875 24.558594 6.527344 C 26.457031 7.578125 28.070312 9.050781 29.234375 10.835938 Z M 29.234375 10.835938 " fill-opacity="1" fill-rule="nonzero"/><g clip-path="url(#888a2c2783)"><path fill="#0f4482" d="M 34.589844 13.101562 L 33.429688 13.101562 C 33.285156 12.453125 32.71875 11.96875 32.039062 11.96875 L 29.207031 11.96875 C 28.527344 11.96875 27.957031 12.453125 27.816406 13.101562 L 26.65625 13.101562 C 25.71875 13.101562 24.953125 13.867188 24.953125 14.804688 L 24.953125 23.304688 C 24.953125 24.242188 25.71875 25.007812 26.65625 25.007812 L 34.589844 25.007812 C 35.527344 25.007812 36.292969 24.242188 36.292969 23.304688 L 36.292969 14.804688 C 36.292969 13.867188 35.527344 13.101562 34.589844 13.101562 Z M 28.921875 13.386719 C 28.921875 13.214844 29.035156 13.101562 29.207031 13.101562 L 32.039062 13.101562 C 32.210938 13.101562 32.324219 13.214844 32.324219 13.386719 L 32.324219 13.953125 C 32.324219 14.125 32.210938 14.238281 32.039062 14.238281 L 29.207031 14.238281 C 29.035156 14.238281 28.921875 14.125 28.921875 13.953125 Z M 35.15625 23.304688 C 35.15625 23.617188 34.902344 23.875 34.589844 23.875 L 26.65625 23.875 C 26.34375 23.875 26.089844 23.617188 26.089844 23.304688 L 26.089844 14.804688 C 26.089844 14.492188 26.34375 14.238281 26.65625 14.238281 L 27.816406 14.238281 C 27.957031 14.890625 28.527344 15.371094 29.207031 15.371094 L 32.039062 15.371094 C 32.71875 15.371094 33.285156 14.890625 33.429688 14.238281 L 34.589844 14.238281 C 34.902344 14.238281 35.15625 14.492188 35.15625 14.804688 Z M 35.15625 23.304688 " fill-opacity="1" fill-rule="nonzero"/></g><path fill="#0f4482" d="M 32.890625 16.503906 L 28.355469 16.503906 C 28.042969 16.503906 27.789062 16.757812 27.789062 17.070312 C 27.789062 17.382812 28.042969 17.636719 28.355469 17.636719 L 32.890625 17.636719 C 33.203125 17.636719 33.457031 17.382812 33.457031 17.070312 C 33.457031 16.757812 33.203125 16.503906 32.890625 16.503906 Z M 32.890625 16.503906 " fill-opacity="1" fill-rule="nonzero"/><path fill="#0f4482" d="M 32.890625 18.773438 L 28.355469 18.773438 C 28.042969 18.773438 27.789062 19.027344 27.789062 19.339844 C 27.789062 19.648438 28.042969 19.90625 28.355469 19.90625 L 32.890625 19.90625 C 33.203125 19.90625 33.457031 19.648438 33.457031 19.339844 C 33.457031 19.027344 33.203125 18.773438 32.890625 18.773438 Z M 32.890625 18.773438 " fill-opacity="1" fill-rule="nonzero"/><path fill="#0f4482" d="M 32.890625 21.039062 L 28.355469 21.039062 C 28.042969 21.039062 27.789062 21.292969 27.789062 21.605469 C 27.789062 21.917969 28.042969 22.171875 28.355469 22.171875 L 32.890625 22.171875 C 33.203125 22.171875 33.457031 21.917969 33.457031 21.605469 C 33.457031 21.292969 33.203125 21.039062 32.890625 21.039062 Z M 32.890625 21.039062 " fill-opacity="1" fill-rule="nonzero"/><path fill="#0f4482" d="M 6.671875 11.121094 C 6.730469 11.121094 6.785156 11.121094 6.84375 11.121094 C 8.035156 9.21875 9.707031 7.632812 11.691406 6.527344 C 11.660156 6.1875 11.632812 5.820312 11.632812 5.449219 C 11.632812 5.394531 11.632812 5.367188 11.632812 5.308594 C 9.082031 6.613281 6.957031 8.652344 5.539062 11.148438 C 5.625 11.148438 5.710938 11.121094 5.796875 11.121094 Z M 6.671875 11.121094 " fill-opacity="1" fill-rule="nonzero"/><g clip-path="url(#5a467a19e9)"><path fill="#0f4482" d="M 30.226562 26.140625 L 28.867188 26.140625 C 27.957031 27.386719 26.824219 28.4375 25.519531 29.316406 C 24.726562 28.976562 23.90625 28.605469 23.28125 28.351562 C 22.914062 28.179688 22.628906 28.066406 22.433594 27.984375 L 21.949219 26.425781 C 23.113281 24.949219 23.820312 22.882812 23.820312 20.984375 C 23.820312 17.582031 21.410156 14.804688 18.4375 14.804688 C 15.460938 14.804688 13.050781 17.582031 13.050781 20.984375 C 13.050781 22.882812 13.757812 24.949219 14.921875 26.425781 L 14.4375 27.953125 C 14.269531 28.039062 13.957031 28.152344 13.589844 28.324219 C 12.878906 28.636719 11.917969 29.058594 11.011719 29.429688 C 9.507812 28.464844 8.203125 27.246094 7.210938 25.773438 C 7.042969 25.800781 6.871094 25.828125 6.671875 25.828125 L 5.878906 25.828125 C 6.898438 27.445312 8.203125 28.832031 9.761719 29.9375 C 9.082031 30.222656 8.574219 30.449219 8.488281 30.476562 C 8.316406 30.535156 8.175781 30.675781 8.148438 30.84375 L 6.816406 35.578125 C 6.757812 35.75 6.816406 35.945312 6.898438 36.089844 C 6.984375 36.230469 7.183594 36.316406 7.355469 36.316406 L 29.460938 36.316406 C 29.628906 36.316406 29.800781 36.230469 29.914062 36.089844 C 30.027344 35.945312 30.054688 35.777344 30 35.578125 L 28.667969 30.84375 C 28.609375 30.675781 28.496094 30.535156 28.328125 30.476562 C 28.242188 30.449219 27.5625 30.164062 26.710938 29.769531 C 28.101562 28.804688 29.289062 27.558594 30.226562 26.140625 Z M 14.183594 20.984375 C 14.183594 18.203125 16.082031 15.9375 18.4375 15.9375 C 20.789062 15.9375 22.6875 18.203125 22.6875 20.984375 C 22.6875 23.761719 20.789062 27.273438 18.4375 27.273438 C 16.082031 27.273438 14.183594 23.789062 14.183594 20.984375 Z M 27.675781 31.46875 L 28.722656 35.210938 L 8.117188 35.210938 L 9.167969 31.46875 C 9.679688 31.242188 10.925781 30.730469 14.015625 29.371094 C 15.148438 28.890625 15.148438 28.863281 15.234375 28.832031 C 15.316406 28.75 15.402344 28.664062 15.429688 28.550781 L 15.800781 27.359375 C 16.566406 28.011719 17.472656 28.40625 18.40625 28.40625 C 19.34375 28.40625 20.25 28.011719 21.015625 27.359375 L 21.382812 28.550781 C 21.410156 28.664062 21.496094 28.777344 21.582031 28.832031 C 21.636719 28.890625 21.667969 28.890625 22.773438 29.371094 C 25.917969 30.703125 27.164062 31.242188 27.675781 31.46875 Z M 27.675781 31.46875 " fill-opacity="1" fill-rule="nonzero"/></g></svg>