<svg xmlns="http://www.w3.org/2000/svg" xmlns:xlink="http://www.w3.org/1999/xlink" width="27" zoomAndPan="magnify" viewBox="0 0 20.25 19.499999" height="26" preserveAspectRatio="xMidYMid meet" version="1.0"><defs><clipPath id="08f80418ee"><path d="M 0.308594 1.023438 L 19.109375 1.023438 L 19.109375 18.910156 L 0.308594 18.910156 Z M 0.308594 1.023438 " clip-rule="nonzero"/></clipPath></defs><g clip-path="url(#08f80418ee)"><path fill="#808080" d="M 5.796875 6.222656 C 8.832031 6.222656 11.289062 8.683594 11.289062 11.714844 C 11.289062 14.75 8.832031 17.207031 5.796875 17.207031 C 5.097656 17.207031 4.425781 17.078125 3.8125 16.835938 C 3.210938 17.46875 2.152344 18.371094 0.738281 18.734375 C 0.738281 18.734375 1.636719 16.8125 1.433594 15.046875 C 0.726562 14.121094 0.308594 12.96875 0.308594 11.714844 C 0.308594 8.679688 2.765625 6.222656 5.796875 6.222656 Z M 13.675781 1.066406 C 10.910156 1.066406 8.621094 3.113281 8.242188 5.777344 C 10.574219 6.738281 12.21875 9.035156 12.21875 11.714844 C 12.21875 11.761719 12.21875 11.808594 12.214844 11.855469 C 12.679688 11.980469 13.171875 12.050781 13.675781 12.050781 C 14.378906 12.050781 15.046875 11.917969 15.664062 11.679688 C 16.265625 12.3125 17.324219 13.214844 18.734375 13.578125 C 18.734375 13.578125 17.839844 11.65625 18.042969 9.890625 C 18.75 8.964844 19.167969 7.8125 19.167969 6.558594 C 19.167969 3.527344 16.710938 1.066406 13.675781 1.066406 Z M 11.492188 5.957031 C 11.824219 5.957031 12.09375 6.226562 12.09375 6.558594 C 12.09375 6.890625 11.824219 7.160156 11.492188 7.160156 C 11.160156 7.160156 10.890625 6.890625 10.890625 6.558594 C 10.890625 6.226562 11.160156 5.957031 11.492188 5.957031 Z M 15.863281 5.957031 C 16.195312 5.957031 16.464844 6.226562 16.464844 6.558594 C 16.464844 6.890625 16.195312 7.160156 15.863281 7.160156 C 15.53125 7.160156 15.261719 6.890625 15.261719 6.558594 C 15.261719 6.226562 15.53125 5.957031 15.863281 5.957031 Z M 13.675781 5.957031 C 14.011719 5.957031 14.28125 6.226562 14.28125 6.558594 C 14.28125 6.890625 14.011719 7.160156 13.675781 7.160156 C 13.34375 7.160156 13.074219 6.890625 13.074219 6.558594 C 13.074219 6.226562 13.34375 5.957031 13.675781 5.957031 Z M 5.882812 14.148438 C 6.152344 14.148438 6.371094 14.367188 6.371094 14.636719 C 6.371094 14.910156 6.152344 15.128906 5.882812 15.128906 C 5.609375 15.128906 5.390625 14.910156 5.390625 14.636719 C 5.390625 14.367188 5.609375 14.148438 5.882812 14.148438 Z M 4.832031 10.289062 C 4.652344 10.46875 4.359375 10.46875 4.175781 10.289062 C 3.996094 10.105469 3.996094 9.8125 4.175781 9.632812 L 4.425781 9.382812 C 4.757812 9.050781 5.195312 8.886719 5.632812 8.886719 C 6.066406 8.886719 6.503906 9.050781 6.835938 9.382812 L 6.839844 9.386719 C 7.167969 9.71875 7.335938 10.15625 7.335938 10.589844 C 7.335938 11.027344 7.167969 11.464844 6.835938 11.796875 L 6.507812 12.125 C 6.449219 12.179688 6.410156 12.242188 6.382812 12.300781 C 6.359375 12.363281 6.34375 12.4375 6.34375 12.515625 L 6.34375 12.984375 C 6.34375 13.238281 6.136719 13.445312 5.882812 13.445312 C 5.625 13.445312 5.417969 13.238281 5.417969 12.984375 L 5.417969 12.515625 C 5.417969 12.316406 5.453125 12.125 5.527344 11.949219 L 5.53125 11.949219 C 5.605469 11.769531 5.710938 11.609375 5.851562 11.46875 L 6.179688 11.140625 C 6.332031 10.988281 6.40625 10.789062 6.40625 10.589844 C 6.40625 10.390625 6.332031 10.191406 6.183594 10.042969 L 6.175781 10.035156 C 6.027344 9.886719 5.828125 9.8125 5.632812 9.8125 C 5.433594 9.8125 5.234375 9.890625 5.082031 10.039062 Z M 4.832031 10.289062 " fill-opacity="1" fill-rule="evenodd"/></g></svg>