<svg xmlns="http://www.w3.org/2000/svg" xmlns:xlink="http://www.w3.org/1999/xlink" width="18" zoomAndPan="magnify" viewBox="0 0 13.5 13.5" height="18" preserveAspectRatio="xMidYMid meet" version="1.0"><defs><clipPath id="3f49f7070f"><path d="M 0.113281 0.316406 L 12.257812 0.316406 L 12.257812 12.328125 L 0.113281 12.328125 Z M 0.113281 0.316406 " clip-rule="nonzero"/></clipPath></defs><g clip-path="url(#3f49f7070f)"><path fill="#808080" d="M 2.671875 8.496094 C 2.605469 8.5625 2.605469 8.667969 2.671875 8.730469 L 3.835938 9.898438 C 3.902344 9.960938 4.003906 9.960938 4.070312 9.898438 L 7.4375 6.527344 L 8.316406 8.558594 C 8.347656 8.625 8.417969 8.667969 8.492188 8.65625 C 8.5625 8.644531 8.621094 8.585938 8.628906 8.515625 L 9.292969 3.460938 C 9.296875 3.410156 9.28125 3.359375 9.246094 3.320312 C 9.207031 3.285156 9.15625 3.269531 9.105469 3.277344 L 4.054688 3.9375 C 4.015625 3.941406 3.984375 3.957031 3.957031 3.984375 C 3.933594 4.007812 3.914062 4.039062 3.910156 4.078125 C 3.902344 4.148438 3.941406 4.222656 4.007812 4.25 L 6.039062 5.128906 Z M 1.996094 10.570312 C 4.34375 12.914062 8.15625 12.914062 10.5 10.570312 C 12.84375 8.226562 12.84375 4.410156 10.5 2.066406 C 8.15625 -0.277344 4.34375 -0.277344 1.996094 2.066406 C -0.347656 4.410156 -0.347656 8.226562 1.996094 10.570312 Z M 2.464844 2.53125 C 4.550781 0.445312 7.945312 0.445312 10.035156 2.53125 C 12.121094 4.621094 12.121094 8.015625 10.035156 10.101562 C 7.945312 12.191406 4.550781 12.191406 2.464844 10.101562 C 0.375 8.015625 0.375 4.621094 2.464844 2.53125 Z M 2.464844 2.53125 " fill-opacity="1" fill-rule="nonzero"/></g></svg>