<svg xmlns="http://www.w3.org/2000/svg" xmlns:xlink="http://www.w3.org/1999/xlink" width="89" zoomAndPan="magnify" viewBox="0 0 66.75 63.749997" height="85" preserveAspectRatio="xMidYMid meet" version="1.0"><defs><clipPath id="2e9f8a575a"><path d="M 0.644531 0.484375 L 65.636719 0.484375 L 65.636719 63 L 0.644531 63 Z M 0.644531 0.484375 " clip-rule="nonzero"/></clipPath></defs><g clip-path="url(#2e9f8a575a)"><path fill="#0f4482" d="M 65.613281 37.808594 C 65.613281 36.179688 64.964844 34.664062 63.851562 33.542969 C 65.117188 32.160156 65.757812 30.304688 65.582031 28.375 C 65.269531 24.9375 62.167969 22.238281 58.523438 22.238281 L 41.804688 22.238281 C 42.628906 19.726562 43.957031 15.113281 43.957031 11.410156 C 43.957031 5.539062 38.964844 0.582031 35.835938 0.582031 C 33.023438 0.582031 31.011719 2.164062 30.925781 2.230469 C 30.605469 2.492188 30.421875 2.878906 30.421875 3.289062 L 30.421875 12.46875 L 22.625 29.363281 L 22.300781 29.523438 L 22.300781 29.007812 C 22.300781 28.261719 21.691406 27.652344 20.945312 27.652344 L 7.410156 27.652344 C 3.679688 27.652344 0.644531 30.691406 0.644531 34.421875 L 0.644531 56.078125 C 0.644531 59.808594 3.679688 62.84375 7.410156 62.84375 L 15.53125 62.84375 C 18.460938 62.84375 20.960938 60.976562 21.902344 58.375 C 24.15625 59.53125 27.1875 60.140625 29.070312 60.140625 L 53.917969 60.140625 C 56.867188 60.140625 59.441406 58.152344 60.050781 55.410156 C 60.359375 54 60.179688 52.582031 59.5625 51.347656 C 61.558594 50.339844 62.90625 48.277344 62.90625 45.929688 C 62.90625 44.972656 62.6875 44.054688 62.269531 43.222656 C 64.265625 42.214844 65.613281 40.15625 65.613281 37.808594 Z M 15.53125 60.136719 L 7.410156 60.136719 C 5.167969 60.136719 3.351562 58.316406 3.351562 56.078125 L 3.351562 34.421875 C 3.351562 32.183594 5.171875 30.359375 7.410156 30.359375 L 7.410156 30.375 L 19.585938 30.375 L 19.585938 31.726562 C 19.585938 31.734375 19.59375 31.742188 19.59375 31.75 L 19.59375 56.078125 C 19.59375 58.316406 17.765625 60.136719 15.53125 60.136719 Z M 59.898438 41.152344 C 59.378906 41.210938 58.9375 41.566406 58.769531 42.066406 C 58.605469 42.5625 58.742188 43.117188 59.125 43.476562 C 59.816406 44.128906 60.195312 45 60.195312 45.933594 C 60.195312 47.636719 58.90625 49.074219 57.195312 49.269531 C 56.671875 49.328125 56.230469 49.683594 56.066406 50.183594 C 55.902344 50.683594 56.039062 51.234375 56.421875 51.59375 C 57.316406 52.4375 57.671875 53.617188 57.40625 54.828125 C 57.070312 56.335938 55.605469 57.429688 53.914062 57.429688 L 29.066406 57.429688 C 27.054688 57.429688 23.816406 56.5625 22.300781 55.433594 L 22.300781 32.558594 L 24.25 31.585938 C 24.523438 31.445312 24.742188 31.21875 24.875 30.941406 L 32.996094 13.34375 C 33.074219 13.167969 33.121094 12.972656 33.121094 12.777344 L 33.121094 4.039062 C 33.683594 3.730469 34.660156 3.304688 35.828125 3.304688 C 37.308594 3.304688 41.242188 6.992188 41.242188 11.425781 C 41.242188 16.1875 38.648438 23.058594 38.621094 23.125 C 38.464844 23.539062 38.519531 24.007812 38.773438 24.371094 C 39.027344 24.738281 39.441406 24.957031 39.890625 24.957031 L 58.515625 24.957031 C 60.773438 24.957031 62.691406 26.570312 62.878906 28.632812 C 63.023438 30.175781 62.289062 31.644531 60.957031 32.464844 C 60.539062 32.71875 60.296875 33.179688 60.3125 33.667969 C 60.332031 34.15625 60.613281 34.59375 61.046875 34.820312 C 62.191406 35.402344 62.898438 36.550781 62.898438 37.8125 C 62.898438 39.519531 61.609375 40.957031 59.898438 41.152344 Z M 59.898438 41.152344 " fill-opacity="1" fill-rule="nonzero"/></g></svg>