<svg xmlns="http://www.w3.org/2000/svg" xmlns:xlink="http://www.w3.org/1999/xlink" width="42" zoomAndPan="magnify" viewBox="0 0 31.5 33.749999" height="45" preserveAspectRatio="xMidYMid meet" version="1.0"><defs><clipPath id="ba6e5e111c"><path d="M 0.710938 23 L 21 23 L 21 30.996094 L 0.710938 30.996094 Z M 0.710938 23 " clip-rule="nonzero"/></clipPath><clipPath id="1fc2fea10f"><path d="M 10 1 L 30.242188 1 L 30.242188 9 L 10 9 Z M 10 1 " clip-rule="nonzero"/></clipPath></defs><g clip-path="url(#ba6e5e111c)"><path fill="#0f4482" d="M 19.738281 25.757812 C 18.554688 25.460938 16.710938 26.1875 15.808594 26.597656 C 15.554688 25.898438 14.335938 25.503906 13.613281 25.363281 C 12.320312 25.136719 9.992188 23.808594 9.988281 23.808594 C 8.828125 22.949219 7.21875 23.429688 6.148438 23.925781 L 6.128906 23.808594 C 6.113281 23.71875 6.0625 23.640625 5.988281 23.585938 C 5.914062 23.53125 5.820312 23.511719 5.730469 23.527344 L 1.089844 24.316406 C 1 24.328125 0.921875 24.378906 0.867188 24.457031 C 0.816406 24.53125 0.792969 24.621094 0.808594 24.714844 L 1.804688 30.574219 C 1.832031 30.742188 1.980469 30.863281 2.144531 30.863281 C 2.164062 30.863281 2.183594 30.859375 2.203125 30.855469 L 6.839844 30.070312 C 7.027344 30.039062 7.15625 29.859375 7.121094 29.671875 L 7.0625 29.3125 C 9.039062 29.644531 11.613281 30.523438 11.632812 30.53125 C 12.265625 30.769531 12.886719 30.859375 13.46875 30.859375 C 14.714844 30.859375 15.78125 30.4375 16.414062 30.109375 C 17.652344 29.46875 19.40625 28.828125 20.273438 27.941406 C 20.605469 27.605469 20.726562 27.097656 20.59375 26.625 C 20.46875 26.183594 20.148438 25.859375 19.738281 25.757812 Z M 2.429688 30.117188 L 1.550781 24.9375 L 5.503906 24.265625 L 6.382812 29.445312 Z M 19.777344 27.457031 C 19.019531 28.234375 17.28125 28.882812 16.097656 29.496094 C 15.269531 29.921875 13.621094 30.535156 11.867188 29.878906 C 11.746094 29.835938 9.003906 28.902344 6.941406 28.59375 L 6.269531 24.636719 C 7.074219 24.242188 8.617188 23.652344 9.609375 24.386719 C 9.707031 24.445312 12.078125 25.796875 13.488281 26.042969 C 13.921875 26.128906 15.300781 26.539062 15.148438 26.957031 C 14.53125 27.5625 13.609375 27.765625 12.601562 27.183594 C 11.773438 26.703125 10.773438 26.5625 10.734375 26.554688 C 10.546875 26.527344 10.371094 26.660156 10.34375 26.851562 C 10.316406 27.042969 10.449219 27.214844 10.640625 27.242188 C 10.648438 27.242188 11.542969 27.367188 12.253906 27.78125 C 13.496094 28.5 14.75 28.3125 15.628906 27.453125 C 16.378906 27.0625 18.480469 26.15625 19.570312 26.429688 C 19.8125 26.492188 19.902344 26.71875 19.925781 26.8125 C 19.980469 26.996094 19.96875 27.265625 19.777344 27.457031 Z M 19.777344 27.457031 " fill-opacity="1" fill-rule="nonzero"/></g><path fill="#0f4482" d="M 3.847656 25.113281 C 3.296875 25.113281 2.84375 25.5625 2.84375 26.117188 C 2.84375 26.667969 3.296875 27.117188 3.847656 27.117188 C 4.398438 27.117188 4.847656 26.667969 4.847656 26.117188 C 4.847656 25.5625 4.398438 25.113281 3.847656 25.113281 Z M 3.847656 26.425781 C 3.675781 26.425781 3.539062 26.285156 3.539062 26.117188 C 3.539062 25.945312 3.675781 25.804688 3.847656 25.804688 C 4.019531 25.804688 4.15625 25.945312 4.15625 26.117188 C 4.15625 26.285156 4.019531 26.425781 3.847656 26.425781 Z M 3.847656 26.425781 " fill-opacity="1" fill-rule="nonzero"/><g clip-path="url(#1fc2fea10f)"><path fill="#0f4482" d="M 29.296875 1.617188 C 29.265625 1.429688 29.085938 1.300781 28.898438 1.335938 L 24.257812 2.121094 C 24.167969 2.136719 24.089844 2.1875 24.035156 2.261719 C 23.984375 2.335938 23.960938 2.429688 23.976562 2.519531 L 24.035156 2.878906 C 22.058594 2.546875 19.488281 1.667969 19.46875 1.660156 C 16.960938 0.722656 14.925781 1.984375 13.664062 2.570312 C 12.632812 3.050781 11.46875 3.59375 10.828125 4.25 C 10.140625 4.949219 10.445312 6.203125 11.359375 6.433594 C 12.546875 6.730469 14.390625 6.003906 15.292969 5.59375 C 15.300781 5.617188 15.3125 5.644531 15.324219 5.667969 C 15.683594 6.433594 17.179688 6.769531 17.484375 6.832031 C 18.777344 7.054688 21.109375 8.382812 21.113281 8.382812 C 21.578125 8.726562 22.113281 8.855469 22.660156 8.855469 C 23.476562 8.855469 24.308594 8.5625 24.949219 8.265625 L 24.972656 8.382812 C 25 8.550781 25.144531 8.671875 25.3125 8.671875 C 25.332031 8.671875 25.351562 8.667969 25.371094 8.664062 L 30.007812 7.878906 C 30.097656 7.863281 30.179688 7.8125 30.230469 7.738281 C 30.285156 7.664062 30.304688 7.570312 30.289062 7.480469 Z M 21.492188 7.804688 C 21.390625 7.746094 19.019531 6.394531 17.613281 6.148438 C 17.035156 6.035156 16.105469 5.707031 15.949219 5.371094 C 15.933594 5.339844 15.929688 5.296875 15.953125 5.230469 C 16.632812 4.5625 17.578125 4.476562 18.5 5.011719 C 19.328125 5.488281 20.324219 5.628906 20.367188 5.636719 C 20.382812 5.636719 20.398438 5.640625 20.414062 5.640625 C 20.585938 5.640625 20.734375 5.515625 20.757812 5.339844 C 20.785156 5.152344 20.652344 4.976562 20.460938 4.949219 C 20.453125 4.949219 19.554688 4.820312 18.84375 4.410156 C 17.65625 3.722656 16.371094 3.851562 15.46875 4.738281 C 14.714844 5.128906 12.617188 6.035156 11.53125 5.761719 C 11.148438 5.664062 11 5.0625 11.320312 4.734375 C 11.875 4.167969 12.980469 3.652344 13.957031 3.199219 C 15.125 2.65625 16.980469 1.46875 19.234375 2.3125 C 19.355469 2.355469 22.097656 3.289062 24.160156 3.597656 L 24.832031 7.554688 C 24.027344 7.949219 22.484375 8.539062 21.492188 7.804688 Z M 25.597656 7.921875 L 24.714844 2.746094 L 28.671875 2.074219 L 29.550781 7.253906 Z M 25.597656 7.921875 " fill-opacity="1" fill-rule="nonzero"/></g><path fill="#0f4482" d="M 27.253906 5.074219 C 26.699219 5.074219 26.25 5.523438 26.25 6.074219 C 26.25 6.628906 26.699219 7.074219 27.253906 7.074219 C 27.804688 7.074219 28.253906 6.625 28.253906 6.074219 C 28.253906 5.523438 27.804688 5.074219 27.253906 5.074219 Z M 27.253906 6.382812 C 27.082031 6.382812 26.945312 6.246094 26.945312 6.074219 C 26.945312 5.90625 27.082031 5.765625 27.253906 5.765625 C 27.421875 5.765625 27.5625 5.90625 27.5625 6.074219 C 27.5625 6.246094 27.421875 6.382812 27.253906 6.382812 Z M 27.253906 6.382812 " fill-opacity="1" fill-rule="nonzero"/><path fill="#0f4482" d="M 23.832031 16.261719 C 23.832031 16.230469 23.824219 16.203125 23.816406 16.175781 C 23.777344 11.550781 20.003906 7.804688 15.378906 7.804688 C 10.746094 7.804688 6.980469 11.554688 6.9375 16.171875 C 6.929688 16.203125 6.921875 16.230469 6.921875 16.261719 C 6.921875 16.296875 6.929688 16.328125 6.941406 16.363281 C 6.96875 18.59375 7.871094 20.621094 9.320312 22.113281 C 9.355469 22.21875 9.425781 22.285156 9.527344 22.320312 C 11.011719 23.753906 13.015625 24.644531 15.230469 24.683594 C 15.328125 24.730469 15.421875 24.730469 15.523438 24.683594 C 17.734375 24.644531 19.742188 23.753906 21.226562 22.320312 C 21.328125 22.285156 21.398438 22.21875 21.433594 22.113281 C 22.882812 20.617188 23.785156 18.59375 23.8125 16.359375 C 23.824219 16.328125 23.832031 16.296875 23.832031 16.261719 Z M 22.113281 16.609375 L 23.109375 16.609375 C 23.023438 18.480469 22.269531 20.179688 21.082031 21.476562 L 20.382812 20.78125 C 20.25 20.644531 20.03125 20.644531 19.894531 20.78125 C 19.757812 20.914062 19.757812 21.132812 19.894531 21.269531 L 20.589844 21.964844 C 19.292969 23.148438 17.59375 23.898438 15.722656 23.980469 L 15.722656 22.996094 C 15.722656 22.804688 15.566406 22.652344 15.378906 22.652344 C 15.1875 22.652344 15.03125 22.804688 15.03125 22.996094 L 15.03125 23.980469 C 13.160156 23.898438 11.460938 23.148438 10.164062 21.964844 L 10.859375 21.269531 C 10.996094 21.132812 10.996094 20.914062 10.859375 20.78125 C 10.722656 20.644531 10.503906 20.644531 10.371094 20.78125 L 9.671875 21.476562 C 8.484375 20.179688 7.730469 18.480469 7.644531 16.609375 L 8.644531 16.609375 C 8.835938 16.609375 8.988281 16.453125 8.988281 16.261719 C 8.988281 16.070312 8.835938 15.917969 8.644531 15.917969 L 7.644531 15.917969 C 7.722656 14.039062 8.472656 12.335938 9.660156 11.035156 L 10.371094 11.746094 C 10.4375 11.8125 10.527344 11.847656 10.613281 11.847656 C 10.703125 11.847656 10.792969 11.8125 10.859375 11.746094 C 10.996094 11.609375 10.996094 11.390625 10.859375 11.253906 L 10.148438 10.542969 C 11.449219 9.351562 13.152344 8.597656 15.03125 8.515625 L 15.03125 9.527344 C 15.03125 9.71875 15.1875 9.875 15.378906 9.875 C 15.566406 9.875 15.722656 9.71875 15.722656 9.527344 L 15.722656 8.515625 C 17.601562 8.597656 19.304688 9.351562 20.605469 10.542969 L 19.894531 11.253906 C 19.566406 11.582031 20.066406 12.0625 20.382812 11.746094 L 21.09375 11.035156 C 22.28125 12.335938 23.03125 14.039062 23.109375 15.917969 L 22.113281 15.917969 C 21.921875 15.917969 21.765625 16.070312 21.765625 16.261719 C 21.765625 16.453125 21.921875 16.609375 22.113281 16.609375 Z M 22.113281 16.609375 " fill-opacity="1" fill-rule="nonzero"/><path fill="#0f4482" d="M 19.171875 12.820312 C 19.164062 12.804688 19.117188 12.726562 19.097656 12.707031 C 19.058594 12.667969 19.089844 12.699219 19.046875 12.671875 C 18.992188 12.632812 18.988281 12.628906 18.910156 12.613281 C 18.894531 12.613281 18.882812 12.605469 18.867188 12.601562 L 17.410156 12.535156 C 17.214844 12.527344 17.058594 12.675781 17.046875 12.863281 C 17.039062 13.054688 17.1875 13.21875 17.378906 13.226562 L 18.078125 13.257812 L 15.722656 15.742188 L 15.722656 11.558594 L 16.25 12.089844 C 16.316406 12.15625 16.40625 12.191406 16.496094 12.191406 C 16.582031 12.191406 16.671875 12.15625 16.738281 12.089844 C 16.875 11.953125 16.875 11.734375 16.738281 11.597656 L 15.621094 10.480469 C 15.589844 10.449219 15.550781 10.421875 15.507812 10.40625 C 15.425781 10.371094 15.328125 10.371094 15.242188 10.40625 C 15.203125 10.421875 15.164062 10.449219 15.132812 10.480469 L 14.011719 11.597656 C 13.878906 11.734375 13.878906 11.953125 14.011719 12.089844 C 14.148438 12.222656 14.367188 12.222656 14.503906 12.089844 L 15.03125 11.558594 L 15.03125 16.609375 C 15.03125 16.609375 15.03125 16.609375 15.03125 16.613281 C 15.035156 16.914062 15.40625 17.074219 15.625 16.847656 C 15.625 16.847656 15.625 16.847656 15.628906 16.847656 L 18.464844 13.859375 L 18.4375 14.390625 C 18.429688 14.582031 18.578125 14.742188 18.769531 14.753906 C 18.773438 14.753906 18.777344 14.753906 18.785156 14.753906 C 18.96875 14.753906 19.121094 14.609375 19.128906 14.421875 L 19.195312 12.964844 C 19.195312 12.960938 19.195312 12.957031 19.195312 12.953125 C 19.195312 12.925781 19.179688 12.835938 19.171875 12.820312 Z M 19.171875 12.820312 " fill-opacity="1" fill-rule="nonzero"/></svg>