<svg xmlns="http://www.w3.org/2000/svg" xmlns:xlink="http://www.w3.org/1999/xlink" width="32" zoomAndPan="magnify" viewBox="0 0 24 17.999999" height="24" preserveAspectRatio="xMidYMid meet" version="1.0"><defs><clipPath id="964f7929d2"><path d="M 0.328125 0.359375 L 23.578125 0.359375 L 23.578125 17.609375 L 0.328125 17.609375 Z M 0.328125 0.359375 " clip-rule="nonzero"/></clipPath><clipPath id="6433312481"><path d="M 0.328125 0.359375 L 23.578125 0.359375 L 23.578125 9 L 0.328125 9 Z M 0.328125 0.359375 " clip-rule="nonzero"/></clipPath></defs><g clip-path="url(#964f7929d2)"><path fill="#fdfdfd" d="M 23.847656 14.734375 C 23.847656 16.179688 22.679688 17.347656 21.234375 17.347656 L 2.941406 17.347656 C 1.5 17.347656 0.328125 16.179688 0.328125 14.734375 L 0.328125 2.976562 C 0.328125 1.53125 1.5 0.363281 2.941406 0.363281 L 21.234375 0.363281 C 22.679688 0.363281 23.847656 1.53125 23.847656 2.976562 Z M 23.847656 14.734375 " fill-opacity="1" fill-rule="nonzero"/></g><g clip-path="url(#6433312481)"><path fill="#ed2939" d="M 23.847656 8.855469 L 23.847656 2.976562 C 23.847656 1.53125 22.679688 0.363281 21.234375 0.363281 L 2.941406 0.363281 C 1.5 0.363281 0.328125 1.53125 0.328125 2.976562 L 0.328125 8.855469 Z M 23.847656 8.855469 " fill-opacity="1" fill-rule="nonzero"/></g><path fill="#ffffff" d="M 4.25 4.609375 C 4.25 2.921875 5.308594 1.507812 6.738281 1.121094 C 6.460938 1.054688 6.175781 1.015625 5.882812 1.015625 C 3.898438 1.015625 2.289062 2.625 2.289062 4.609375 C 2.289062 6.59375 3.898438 8.203125 5.882812 8.203125 C 6.175781 8.203125 6.460938 8.164062 6.738281 8.09375 C 5.308594 7.710938 4.25 6.296875 4.25 4.609375 Z M 4.25 4.609375 " fill-opacity="1" fill-rule="nonzero"/><path fill="#fdfdfd" d="M 8.167969 1.667969 L 8.316406 2.121094 L 8.789062 2.121094 L 8.40625 2.398438 L 8.554688 2.851562 L 8.167969 2.570312 L 7.785156 2.851562 L 7.929688 2.398438 L 7.546875 2.121094 L 8.023438 2.121094 Z M 6.863281 6.242188 L 7.007812 6.695312 L 7.484375 6.695312 L 7.097656 6.972656 L 7.246094 7.425781 L 6.863281 7.144531 L 6.476562 7.425781 L 6.625 6.972656 L 6.242188 6.695312 L 6.714844 6.695312 Z M 9.476562 6.242188 L 9.621094 6.695312 L 10.097656 6.695312 L 9.710938 6.972656 L 9.859375 7.425781 L 9.476562 7.144531 L 9.089844 7.425781 L 9.238281 6.972656 L 8.855469 6.695312 L 9.328125 6.695312 Z M 6.207031 3.628906 L 6.355469 4.082031 L 6.828125 4.082031 L 6.445312 4.359375 L 6.59375 4.8125 L 6.207031 4.53125 L 5.824219 4.8125 L 5.972656 4.359375 L 5.585938 4.082031 L 6.0625 4.082031 Z M 10.128906 3.628906 L 10.277344 4.082031 L 10.75 4.082031 L 10.367188 4.359375 L 10.511719 4.8125 L 10.128906 4.53125 L 9.746094 4.8125 L 9.890625 4.359375 L 9.507812 4.082031 L 9.980469 4.082031 Z M 10.128906 3.628906 " fill-opacity="1" fill-rule="nonzero"/></svg>