<svg xmlns="http://www.w3.org/2000/svg" xmlns:xlink="http://www.w3.org/1999/xlink" width="65" zoomAndPan="magnify" viewBox="0 0 48.75 48" height="64" preserveAspectRatio="xMidYMid meet" version="1.0"><defs><clipPath id="3978900049"><path d="M 0.890625 0.00390625 L 47.910156 0.00390625 L 47.910156 47 L 0.890625 47 Z M 0.890625 0.00390625 " clip-rule="nonzero"/></clipPath></defs><g clip-path="url(#3978900049)"><path fill="#0f4482" d="M 26.550781 0.00390625 C 14.804688 0.00390625 5.25 9.558594 5.25 21.300781 C 5.25 22.152344 5.300781 22.992188 5.402344 23.820312 C 2.636719 26.246094 0.890625 29.796875 0.890625 33.757812 C 0.890625 41.039062 6.8125 46.964844 14.097656 46.964844 C 18.054688 46.964844 21.609375 45.21875 24.03125 42.453125 C 24.859375 42.554688 25.703125 42.601562 26.550781 42.601562 C 38.296875 42.601562 47.847656 33.050781 47.847656 21.300781 C 47.847656 9.554688 38.296875 0.00390625 26.550781 0.00390625 Z M 14.097656 45.449219 C 7.648438 45.449219 2.402344 40.207031 2.402344 33.757812 C 2.402344 30.601562 3.660156 27.734375 5.695312 25.632812 C 6.105469 25.207031 6.546875 24.8125 7.019531 24.457031 C 7.464844 24.113281 7.9375 23.800781 8.433594 23.527344 C 8.898438 23.269531 9.382812 23.039062 9.882812 22.847656 C 11.191406 22.339844 12.613281 22.0625 14.097656 22.0625 C 20.546875 22.0625 25.792969 27.304688 25.792969 33.757812 C 25.792969 35.242188 25.515625 36.664062 25.007812 37.972656 C 24.816406 38.472656 24.585938 38.957031 24.328125 39.421875 C 24.054688 39.917969 23.742188 40.390625 23.398438 40.835938 C 23.042969 41.308594 22.648438 41.75 22.222656 42.160156 C 20.117188 44.195312 17.25 45.449219 14.097656 45.449219 Z M 14.097656 20.546875 C 12.597656 20.546875 11.15625 20.800781 9.808594 21.261719 C 9.832031 12.046875 17.332031 4.5625 26.550781 4.5625 C 35.769531 4.5625 43.292969 12.070312 43.292969 21.300781 C 43.292969 30.535156 35.804688 38.023438 26.589844 38.046875 C 27.054688 36.699219 27.308594 35.257812 27.308594 33.757812 C 27.308594 26.472656 21.382812 20.546875 14.097656 20.546875 Z M 26.550781 41.089844 C 26.070312 41.089844 25.589844 41.074219 25.113281 41.035156 C 25.429688 40.5625 25.714844 40.066406 25.96875 39.550781 C 26.160156 39.554688 26.355469 39.558594 26.550781 39.558594 C 36.617188 39.558594 44.804688 31.371094 44.804688 21.300781 C 44.804688 11.234375 36.617188 3.046875 26.550781 3.046875 C 16.484375 3.046875 8.296875 11.238281 8.296875 21.300781 C 8.296875 21.5 8.296875 21.695312 8.304688 21.886719 C 7.789062 22.140625 7.289062 22.425781 6.816406 22.742188 C 6.78125 22.265625 6.765625 21.785156 6.765625 21.300781 C 6.765625 10.394531 15.640625 1.519531 26.550781 1.519531 C 37.460938 1.519531 46.335938 10.394531 46.335938 21.300781 C 46.335938 32.210938 37.457031 41.089844 26.550781 41.089844 Z M 26.550781 41.089844 " fill-opacity="1" fill-rule="nonzero"/></g><path fill="#0f4482" d="M 24.628906 33.757812 C 24.628906 27.949219 19.90625 23.222656 14.097656 23.222656 C 12.660156 23.222656 11.289062 23.511719 10.035156 24.042969 C 9.542969 24.246094 9.074219 24.488281 8.625 24.761719 C 8.144531 25.054688 7.695312 25.386719 7.269531 25.75 C 6.820312 26.128906 6.402344 26.546875 6.027344 27.003906 C 4.492188 28.828125 3.566406 31.1875 3.566406 33.757812 C 3.566406 39.5625 8.292969 44.289062 14.097656 44.289062 C 16.667969 44.289062 19.023438 43.363281 20.851562 41.828125 C 21.308594 41.449219 21.722656 41.035156 22.105469 40.582031 C 22.46875 40.160156 22.796875 39.710938 23.09375 39.230469 C 23.367188 38.78125 23.609375 38.3125 23.8125 37.820312 C 24.339844 36.566406 24.628906 35.195312 24.628906 33.757812 Z M 21.527344 38.855469 C 21.214844 39.3125 20.855469 39.738281 20.464844 40.128906 C 20.046875 40.546875 19.585938 40.925781 19.09375 41.257812 C 17.660156 42.210938 15.945312 42.769531 14.097656 42.769531 C 9.125 42.769531 5.082031 38.726562 5.082031 33.757812 C 5.082031 31.90625 5.640625 30.191406 6.597656 28.757812 C 6.925781 28.265625 7.304688 27.804688 7.722656 27.386719 C 8.113281 26.992188 8.542969 26.640625 9 26.328125 C 9.425781 26.03125 9.882812 25.773438 10.359375 25.554688 C 11.496094 25.035156 12.765625 24.742188 14.097656 24.742188 C 19.070312 24.742188 23.113281 28.785156 23.113281 33.757812 C 23.113281 35.089844 22.820312 36.355469 22.300781 37.496094 C 22.082031 37.972656 21.824219 38.429688 21.527344 38.855469 Z M 21.527344 38.855469 " fill-opacity="1" fill-rule="nonzero"/><path fill="#0f4482" d="M 32.054688 28.992188 C 32.199219 29.171875 32.417969 29.261719 32.632812 29.261719 C 32.804688 29.261719 32.980469 29.203125 33.121094 29.085938 C 33.4375 28.816406 33.480469 28.339844 33.210938 28.019531 L 28.816406 22.777344 C 29.089844 22.355469 29.25 21.847656 29.25 21.300781 C 29.25 20.078125 28.429688 19.039062 27.308594 18.710938 L 27.308594 7 C 27.308594 6.582031 26.96875 6.242188 26.550781 6.242188 C 26.136719 6.242188 25.792969 6.582031 25.792969 7 L 25.792969 18.710938 C 24.671875 19.039062 23.847656 20.078125 23.847656 21.300781 C 23.847656 22.792969 25.0625 24.003906 26.550781 24.003906 C 26.949219 24.003906 27.328125 23.921875 27.664062 23.761719 Z M 26.59375 22.484375 C 26.59375 22.484375 26.566406 22.488281 26.550781 22.488281 C 25.894531 22.488281 25.363281 21.957031 25.363281 21.300781 C 25.363281 20.9375 25.53125 20.609375 25.792969 20.394531 C 26 20.222656 26.261719 20.117188 26.550781 20.117188 C 26.839844 20.117188 27.105469 20.222656 27.308594 20.394531 C 27.570312 20.605469 27.738281 20.933594 27.738281 21.300781 C 27.738281 21.363281 27.738281 21.421875 27.722656 21.476562 C 27.640625 22.035156 27.167969 22.46875 26.59375 22.484375 Z M 26.59375 22.484375 " fill-opacity="1" fill-rule="nonzero"/><path fill="#0f4482" d="M 16.796875 34.902344 C 16.609375 34.1875 16.03125 33.46875 14.855469 33.039062 L 14.855469 31.070312 C 15.246094 31.242188 15.308594 31.550781 15.308594 31.707031 C 15.300781 32.121094 15.625 32.460938 16.039062 32.476562 C 16.46875 32.496094 16.808594 32.167969 16.824219 31.75 C 16.828125 31.660156 16.835938 30.847656 16.203125 30.191406 C 15.863281 29.835938 15.414062 29.601562 14.855469 29.5 L 14.855469 29.03125 C 14.855469 28.609375 14.515625 28.273438 14.097656 28.273438 C 13.679688 28.273438 13.339844 28.609375 13.339844 29.03125 L 13.339844 29.542969 C 12.960938 29.652344 12.609375 29.847656 12.316406 30.105469 C 11.867188 30.480469 11.550781 31 11.460938 31.570312 C 11.453125 31.59375 11.453125 31.621094 11.449219 31.648438 C 11.394531 32.078125 11.394531 33.4375 13.339844 34.152344 L 13.339844 36.277344 C 13.304688 36.257812 13.273438 36.238281 13.246094 36.214844 C 13.214844 36.199219 13.191406 36.175781 13.167969 36.15625 C 13.0625 36.0625 12.984375 35.949219 12.9375 35.835938 C 12.917969 35.789062 12.898438 35.742188 12.886719 35.695312 C 12.875 35.652344 12.863281 35.609375 12.855469 35.566406 C 12.839844 35.480469 12.835938 35.40625 12.835938 35.34375 C 12.84375 34.925781 12.511719 34.578125 12.09375 34.570312 C 12.03125 34.570312 11.964844 34.578125 11.90625 34.59375 C 11.570312 34.671875 11.328125 34.957031 11.320312 35.3125 C 11.320312 35.386719 11.320312 35.867188 11.546875 36.40625 C 11.660156 36.667969 11.824219 36.945312 12.066406 37.195312 C 12.359375 37.492188 12.710938 37.707031 13.128906 37.828125 C 13.199219 37.886719 13.269531 37.941406 13.339844 38 L 13.339844 38.480469 C 13.339844 38.902344 13.679688 39.242188 14.097656 39.242188 C 14.328125 39.242188 14.535156 39.140625 14.671875 38.972656 C 14.789062 38.84375 14.855469 38.667969 14.855469 38.480469 L 14.855469 37.875 C 15.0625 37.820312 15.25 37.75 15.433594 37.660156 C 15.925781 37.421875 16.328125 37.046875 16.582031 36.589844 C 16.726562 36.335938 16.824219 36.046875 16.859375 35.746094 C 16.894531 35.476562 16.878906 35.1875 16.800781 34.902344 Z M 13.339844 31.222656 L 13.339844 32.476562 C 13.0625 32.289062 12.917969 32.066406 12.949219 31.835938 C 12.96875 31.675781 13.054688 31.511719 13.1875 31.367188 C 13.230469 31.316406 13.285156 31.265625 13.339844 31.222656 Z M 14.855469 36.253906 L 14.855469 34.722656 C 15.210938 34.957031 15.390625 35.25 15.355469 35.558594 C 15.351562 35.601562 15.339844 35.648438 15.328125 35.691406 C 15.261719 35.902344 15.097656 36.109375 14.855469 36.253906 Z M 14.855469 36.253906 " fill-opacity="1" fill-rule="nonzero"/></svg>