<svg xmlns="http://www.w3.org/2000/svg" xmlns:xlink="http://www.w3.org/1999/xlink" width="37" zoomAndPan="magnify" viewBox="0 0 27.75 24.749999" height="33" preserveAspectRatio="xMidYMid meet" version="1.0"><defs><clipPath id="3783de03a7"><path d="M 0.578125 0.226562 L 27.488281 0.226562 L 27.488281 24.199219 L 0.578125 24.199219 Z M 0.578125 0.226562 " clip-rule="nonzero"/></clipPath></defs><g clip-path="url(#3783de03a7)"><path fill="#0f4482" d="M 25.777344 11.046875 L 25.605469 11.046875 C 25.128906 5 20.136719 0.226562 14.0625 0.226562 C 7.988281 0.226562 2.996094 5 2.523438 11.046875 L 2.347656 11.046875 C 1.375 11.046875 0.585938 11.804688 0.585938 12.742188 L 0.585938 16.136719 C 0.585938 17.074219 1.375 17.835938 2.347656 17.835938 L 5.21875 17.835938 L 5.21875 11.046875 L 3.367188 11.046875 C 3.839844 5.46875 8.453125 1.074219 14.0625 1.074219 C 19.671875 1.074219 24.285156 5.46875 24.757812 11.046875 L 22.910156 11.046875 L 22.910156 17.835938 L 24.476562 17.835938 C 24.171875 18.867188 23.164062 21.230469 20.207031 22.285156 C 19.988281 21.90625 19.582031 21.65625 19.117188 21.65625 C 18.417969 21.65625 17.855469 22.226562 17.855469 22.925781 C 17.855469 23.628906 18.417969 24.199219 19.117188 24.199219 C 19.75 24.199219 20.269531 23.734375 20.363281 23.125 C 23.957031 21.898438 25.066406 18.871094 25.347656 17.835938 L 25.777344 17.835938 C 26.75 17.835938 27.542969 17.074219 27.542969 16.136719 L 27.542969 12.742188 C 27.542969 11.804688 26.75 11.046875 25.777344 11.046875 Z M 4.375 11.894531 L 4.375 16.988281 L 2.347656 16.988281 C 1.839844 16.988281 1.425781 16.605469 1.425781 16.136719 L 1.425781 12.742188 C 1.425781 12.277344 1.839844 11.894531 2.347656 11.894531 Z M 26.699219 16.136719 C 26.699219 16.605469 26.285156 16.988281 25.777344 16.988281 L 23.75 16.988281 L 23.75 11.894531 L 25.777344 11.894531 C 26.285156 11.894531 26.699219 12.277344 26.699219 12.742188 Z M 26.699219 16.136719 " fill-opacity="1" fill-rule="nonzero"/></g><path fill="#0f4482" d="M 19.234375 18.929688 C 19.589844 18.5625 19.953125 18.191406 20.3125 17.820312 C 20.746094 17.378906 20.785156 16.769531 20.40625 16.273438 L 19.859375 15.546875 C 19.96875 15.316406 20.070312 15.074219 20.152344 14.828125 C 20.457031 14.785156 20.765625 14.738281 21.070312 14.691406 C 21.660156 14.605469 22.054688 14.148438 22.054688 13.550781 L 22.054688 11.9375 C 22.054688 11.339844 21.65625 10.882812 21.070312 10.792969 L 20.152344 10.660156 C 20.058594 10.378906 19.941406 10.097656 19.804688 9.824219 L 20.335938 9.085938 C 20.707031 8.582031 20.65625 7.972656 20.207031 7.539062 C 19.839844 7.175781 19.46875 6.808594 19.097656 6.445312 C 18.671875 6.023438 18.042969 5.988281 17.566406 6.351562 C 17.566406 6.351562 17.070312 6.734375 16.847656 6.90625 C 16.613281 6.789062 16.371094 6.691406 16.132812 6.609375 C 16.09375 6.347656 15.996094 5.6875 15.996094 5.6875 C 15.914062 5.09375 15.457031 4.695312 14.859375 4.695312 L 13.265625 4.695312 C 12.671875 4.695312 12.214844 5.089844 12.128906 5.679688 C 12.128906 5.679688 12.019531 6.433594 11.996094 6.609375 C 11.710938 6.707031 11.429688 6.824219 11.164062 6.960938 C 10.929688 6.789062 10.6875 6.609375 10.425781 6.417969 C 9.949219 6.070312 9.332031 6.117188 8.914062 6.535156 C 8.660156 6.796875 7.8125 7.667969 7.8125 7.667969 C 7.378906 8.109375 7.34375 8.71875 7.71875 9.214844 C 7.71875 9.214844 8.164062 9.804688 8.265625 9.941406 C 8.152344 10.175781 8.054688 10.417969 7.972656 10.660156 L 7.054688 10.792969 C 6.46875 10.878906 6.074219 11.34375 6.074219 11.945312 L 6.074219 13.542969 C 6.074219 14.144531 6.46875 14.609375 7.0625 14.695312 L 7.972656 14.828125 C 8.070312 15.109375 8.1875 15.390625 8.324219 15.664062 C 8.203125 15.828125 7.789062 16.402344 7.789062 16.402344 C 7.417969 16.910156 7.464844 17.5 7.914062 17.945312 C 8.191406 18.21875 9.027344 19.042969 9.027344 19.042969 C 9.328125 19.332031 9.632812 19.394531 9.839844 19.394531 C 10.09375 19.394531 10.339844 19.304688 10.5625 19.132812 L 11.28125 18.582031 C 11.511719 18.695312 11.75 18.792969 11.996094 18.875 C 12.023438 19.089844 12.128906 19.796875 12.128906 19.796875 C 12.214844 20.390625 12.671875 20.792969 13.265625 20.792969 L 14.859375 20.792969 C 15.453125 20.792969 15.910156 20.398438 15.996094 19.808594 C 16.042969 19.496094 16.089844 19.1875 16.132812 18.875 C 16.410156 18.78125 16.6875 18.664062 16.960938 18.527344 C 16.960938 18.527344 17.6875 19.0625 17.6875 19.0625 C 18.183594 19.425781 18.808594 19.371094 19.234375 18.929688 Z M 18.273438 18.257812 C 18.273438 18.257812 17.371094 17.59375 17.121094 17.40625 C 17.070312 17.371094 16.980469 17.367188 16.929688 17.398438 C 16.4375 17.707031 15.914062 17.929688 15.367188 18.058594 C 15.257812 18.085938 15.234375 18.15625 15.222656 18.226562 C 15.15625 18.707031 15.085938 19.183594 15.019531 19.660156 C 15.003906 19.757812 14.960938 19.796875 14.859375 19.796875 L 13.265625 19.796875 C 13.164062 19.796875 13.125 19.757812 13.109375 19.652344 C 13.039062 19.179688 12.96875 18.703125 12.902344 18.230469 C 12.890625 18.132812 12.84375 18.082031 12.746094 18.054688 C 12.242188 17.9375 11.757812 17.738281 11.3125 17.46875 C 11.253906 17.433594 11.136719 17.4375 11.078125 17.480469 C 10.707031 17.769531 10.332031 18.054688 9.957031 18.34375 C 9.855469 18.417969 9.808594 18.417969 9.71875 18.328125 C 9.347656 17.964844 8.976562 17.601562 8.609375 17.234375 C 8.515625 17.140625 8.511719 17.09375 8.589844 16.988281 C 8.589844 16.988281 9.214844 16.121094 9.433594 15.828125 C 9.484375 15.757812 9.484375 15.699219 9.441406 15.628906 C 9.132812 15.132812 8.914062 14.605469 8.785156 14.058594 C 8.757812 13.945312 8.683594 13.921875 8.613281 13.914062 L 7.199219 13.707031 C 7.097656 13.691406 7.0625 13.648438 7.0625 13.542969 L 7.0625 11.945312 C 7.0625 11.839844 7.097656 11.796875 7.199219 11.78125 L 8.613281 11.574219 C 8.664062 11.566406 8.757812 11.554688 8.785156 11.429688 C 8.902344 10.925781 9.101562 10.429688 9.382812 9.953125 C 9.414062 9.898438 9.4375 9.835938 9.375 9.753906 C 9.171875 9.492188 8.507812 8.609375 8.507812 8.609375 C 8.429688 8.507812 8.429688 8.457031 8.519531 8.367188 C 8.519531 8.367188 9.355469 7.503906 9.613281 7.242188 C 9.691406 7.164062 9.757812 7.164062 9.84375 7.226562 C 10.230469 7.507812 10.617188 7.792969 11 8.078125 C 11.050781 8.117188 11.148438 8.117188 11.203125 8.085938 C 11.683594 7.78125 12.203125 7.5625 12.753906 7.429688 C 12.84375 7.40625 12.890625 7.355469 12.902344 7.257812 C 12.964844 6.820312 13.027344 6.382812 13.089844 5.945312 C 13.109375 5.820312 13.109375 5.691406 13.265625 5.691406 C 13.265625 5.691406 14.851562 5.691406 14.859375 5.691406 C 15 5.691406 15.015625 5.8125 15.03125 5.925781 C 15.097656 6.367188 15.160156 6.8125 15.222656 7.257812 C 15.238281 7.355469 15.285156 7.40625 15.378906 7.429688 C 15.882812 7.550781 16.367188 7.75 16.816406 8.019531 C 16.878906 8.054688 16.992188 8.050781 17.046875 8.007812 C 17.371094 7.753906 18.167969 7.144531 18.167969 7.144531 C 18.21875 7.109375 18.253906 7.089844 18.289062 7.089844 C 18.308594 7.089844 18.347656 7.097656 18.40625 7.160156 C 18.777344 7.523438 19.144531 7.886719 19.515625 8.257812 C 19.609375 8.347656 19.613281 8.394531 19.539062 8.496094 C 19.539062 8.496094 18.894531 9.390625 18.695312 9.660156 C 18.644531 9.726562 18.640625 9.789062 18.6875 9.859375 C 18.992188 10.355469 19.210938 10.882812 19.339844 11.429688 C 19.367188 11.550781 19.460938 11.566406 19.511719 11.574219 L 20.925781 11.78125 C 21.023438 11.796875 21.0625 11.839844 21.0625 11.9375 L 21.0625 13.550781 C 21.0625 13.648438 21.023438 13.691406 20.925781 13.707031 C 20.457031 13.777344 19.988281 13.84375 19.519531 13.910156 C 19.414062 13.925781 19.359375 13.972656 19.335938 14.074219 C 19.21875 14.578125 19.015625 15.070312 18.742188 15.535156 C 18.699219 15.605469 18.699219 15.667969 18.75 15.734375 C 19 16.058594 19.617188 16.878906 19.617188 16.878906 C 19.695312 16.980469 19.695312 17.03125 19.605469 17.121094 L 19.582031 17.144531 C 19.230469 17.507812 18.878906 17.871094 18.519531 18.234375 C 18.4375 18.320312 18.367188 18.328125 18.273438 18.257812 Z M 18.273438 18.257812 " fill-opacity="1" fill-rule="nonzero"/><path fill="#0f4482" d="M 14.0625 9.277344 C 12.164062 9.277344 10.621094 10.832031 10.621094 12.742188 C 10.621094 14.65625 12.164062 16.210938 14.0625 16.210938 C 15.960938 16.210938 17.503906 14.65625 17.503906 12.742188 C 17.503906 10.832031 15.960938 9.277344 14.0625 9.277344 Z M 14.0625 15.210938 C 12.710938 15.210938 11.613281 14.105469 11.613281 12.742188 C 11.613281 11.382812 12.710938 10.273438 14.0625 10.273438 C 15.414062 10.273438 16.515625 11.382812 16.515625 12.742188 C 16.515625 14.105469 15.414062 15.210938 14.0625 15.210938 Z M 14.0625 15.210938 " fill-opacity="1" fill-rule="nonzero"/></svg>