<svg xmlns="http://www.w3.org/2000/svg" xmlns:xlink="http://www.w3.org/1999/xlink" width="78" zoomAndPan="magnify" viewBox="0 0 58.5 65.249999" height="87" preserveAspectRatio="xMidYMid meet" version="1.0"><defs><clipPath id="420a39679f"><path d="M 0.582031 0.480469 L 57 0.480469 L 57 63 L 0.582031 63 Z M 0.582031 0.480469 " clip-rule="nonzero"/></clipPath></defs><g clip-path="url(#420a39679f)"><path fill="#0f4482" d="M 24.761719 0.460938 C 24.03125 0.472656 23.445312 1.074219 23.457031 1.804688 L 23.457031 9.75 C 23.453125 10.226562 23.699219 10.671875 24.113281 10.914062 C 24.527344 11.152344 25.035156 11.152344 25.449219 10.914062 C 25.863281 10.671875 26.113281 10.226562 26.105469 9.75 L 26.105469 1.804688 C 26.113281 1.445312 25.972656 1.101562 25.71875 0.847656 C 25.464844 0.59375 25.117188 0.453125 24.761719 0.460938 Z M 12.84375 4.441406 C 12.308594 4.441406 11.824219 4.769531 11.617188 5.265625 C 11.417969 5.769531 11.535156 6.335938 11.925781 6.714844 L 17.222656 12.011719 C 17.554688 12.359375 18.050781 12.5 18.511719 12.375 C 18.976562 12.257812 19.339844 11.894531 19.457031 11.429688 C 19.582031 10.96875 19.441406 10.472656 19.09375 10.140625 L 13.796875 4.839844 C 13.546875 4.582031 13.207031 4.441406 12.84375 4.441406 Z M 36.675781 4.441406 C 36.332031 4.449219 36.003906 4.59375 35.765625 4.839844 L 30.46875 10.140625 C 30.121094 10.472656 29.980469 10.96875 30.105469 11.429688 C 30.226562 11.894531 30.585938 12.257812 31.054688 12.375 C 31.511719 12.5 32.011719 12.359375 32.339844 12.011719 L 37.640625 6.714844 C 38.03125 6.332031 38.148438 5.753906 37.933594 5.25 C 37.722656 4.742188 37.226562 4.421875 36.675781 4.441406 Z M 50.175781 5.789062 C 48.878906 5.789062 47.574219 6.28125 46.589844 7.261719 L 22.433594 31.421875 C 22.035156 30.691406 21.835938 30.304688 21.097656 29.035156 C 19.867188 26.941406 18.496094 24.667969 17.25 23.417969 C 15.332031 21.503906 12.683594 20.175781 10.199219 19.5 C 8.964844 19.164062 7.765625 18.988281 6.667969 19.027344 C 5.570312 19.070312 4.507812 19.304688 3.703125 20.105469 L 1.328125 22.480469 C 0.808594 22.996094 0.808594 23.839844 1.328125 24.359375 L 8.597656 31.628906 L 14.253906 48.582031 C 14.320312 48.78125 14.429688 48.957031 14.574219 49.101562 L 24.972656 59.5 C 29.246094 63.773438 36.210938 63.773438 40.484375 59.5 L 42.777344 57.210938 L 42.230469 57.210938 C 42.582031 57.210938 42.917969 57.070312 43.164062 56.820312 L 55.085938 44.898438 C 57.054688 42.929688 57.054688 39.699219 55.085938 37.726562 C 54.296875 36.9375 53.292969 36.554688 52.261719 36.398438 C 52.894531 34.609375 52.535156 32.527344 51.113281 31.105469 C 50.320312 30.3125 49.316406 29.929688 48.289062 29.777344 C 48.917969 27.984375 48.5625 25.90625 47.140625 24.484375 C 46.507812 23.851562 45.730469 23.5 44.925781 23.273438 L 53.761719 14.433594 C 55.734375 12.464844 55.734375 9.234375 53.761719 7.261719 C 52.777344 6.28125 51.476562 5.789062 50.175781 5.789062 Z M 50.175781 8.417969 C 50.792969 8.417969 51.40625 8.65625 51.890625 9.136719 C 52.847656 10.09375 52.847656 11.605469 51.890625 12.5625 L 39.96875 24.484375 C 39.464844 25.003906 39.476562 25.828125 39.988281 26.335938 C 40.496094 26.847656 41.316406 26.859375 41.839844 26.355469 C 42.796875 25.398438 44.308594 25.398438 45.265625 26.355469 C 46.222656 27.3125 46.222656 28.824219 45.265625 29.78125 L 43.941406 31.105469 C 43.441406 31.628906 43.449219 32.449219 43.960938 32.957031 C 44.46875 33.46875 45.292969 33.480469 45.816406 32.980469 C 46.773438 32.019531 48.28125 32.019531 49.238281 32.980469 C 50.195312 33.9375 50.195312 35.445312 49.238281 36.402344 L 47.914062 37.726562 C 47.414062 38.25 47.421875 39.074219 47.9375 39.582031 C 48.441406 40.09375 49.265625 40.101562 49.789062 39.601562 C 50.746094 38.644531 52.257812 38.644531 53.214844 39.601562 C 54.171875 40.558594 54.171875 42.070312 53.214844 43.03125 L 41.292969 54.949219 L 38.613281 57.628906 C 35.351562 60.886719 30.105469 60.886719 26.847656 57.628906 L 16.667969 47.445312 L 11.011719 30.488281 C 10.945312 30.296875 10.835938 30.121094 10.691406 29.972656 L 4.136719 23.417969 L 5.574219 21.976562 C 5.636719 21.917969 6.046875 21.703125 6.769531 21.679688 C 7.496094 21.652344 8.46875 21.777344 9.507812 22.0625 C 11.582031 22.625 13.910156 23.824219 15.378906 25.296875 C 16.074219 25.992188 17.617188 28.332031 18.8125 30.371094 C 20.007812 32.414062 20.964844 34.214844 20.964844 34.214844 C 21.160156 34.585938 21.523438 34.839844 21.9375 34.902344 C 22.351562 34.964844 22.773438 34.824219 23.070312 34.53125 L 48.464844 9.136719 C 48.945312 8.65625 49.5625 8.417969 50.175781 8.417969 Z M 50.175781 8.417969 " fill-opacity="1" fill-rule="nonzero"/></g></svg>