<svg xmlns="http://www.w3.org/2000/svg" xmlns:xlink="http://www.w3.org/1999/xlink" width="54" zoomAndPan="magnify" viewBox="0 0 40.5 38.249999" height="51" preserveAspectRatio="xMidYMid meet" version="1.0"><defs><clipPath id="cddc8d876d"><path d="M 15 34 L 24 34 L 24 37.515625 L 15 37.515625 Z M 15 34 " clip-rule="nonzero"/></clipPath><clipPath id="f82f18c35d"><path d="M 30 0.425781 L 35 0.425781 L 35 4 L 30 4 Z M 30 0.425781 " clip-rule="nonzero"/></clipPath><clipPath id="384e391dbd"><path d="M 34 6 L 39.609375 6 L 39.609375 10 L 34 10 Z M 34 6 " clip-rule="nonzero"/></clipPath><clipPath id="0fddd30d7d"><path d="M 34 15 L 39.609375 15 L 39.609375 18 L 34 18 Z M 34 15 " clip-rule="nonzero"/></clipPath><clipPath id="bfc3bf038d"><path d="M 5 0.425781 L 10 0.425781 L 10 4 L 5 4 Z M 5 0.425781 " clip-rule="nonzero"/></clipPath><clipPath id="a8116419f0"><path d="M 0.144531 6 L 6 6 L 6 10 L 0.144531 10 Z M 0.144531 6 " clip-rule="nonzero"/></clipPath><clipPath id="822c023a15"><path d="M 0.144531 15 L 6 15 L 6 18 L 0.144531 18 Z M 0.144531 15 " clip-rule="nonzero"/></clipPath></defs><g clip-path="url(#cddc8d876d)"><path fill="#a5a9b5" d="M 15.132812 34.304688 C 15.132812 35.300781 15.871094 36.125 16.507812 36.445312 C 17.21875 36.800781 18.015625 36.71875 18.742188 36.96875 C 19.042969 37.070312 19.167969 37.359375 19.453125 37.484375 C 19.855469 37.652344 20.101562 37.433594 20.402344 37.207031 C 20.996094 36.757812 21.710938 37.019531 22.378906 36.820312 C 22.886719 36.675781 23.292969 36.28125 23.542969 35.816406 C 23.789062 35.355469 23.894531 34.828125 23.941406 34.304688 L 15.132812 34.304688 " fill-opacity="1" fill-rule="nonzero"/></g><path fill="#fccd4f" d="M 29.921875 21.144531 C 29.289062 22.117188 28.523438 23.085938 27.613281 23.816406 C 26.714844 24.539062 25.722656 25.128906 25.121094 26.15625 C 24.648438 26.96875 24.492188 27.96875 24.507812 28.867188 C 24.519531 29.578125 24.578125 30.289062 24.496094 30.992188 C 24.316406 32.523438 21.414062 32.183594 20.472656 32.199219 C 19.03125 32.226562 17.589844 32.101562 16.15625 31.953125 C 15.910156 31.929688 15.660156 31.902344 15.441406 31.773438 C 15.128906 31.585938 14.996094 31.320312 14.957031 31.015625 L 14.957031 31.007812 C 14.929688 30.773438 14.953125 30.515625 14.988281 30.25 C 15.097656 29.4375 15.308594 28.59375 15.300781 27.785156 C 15.296875 27.195312 15.171875 26.625 14.8125 26.097656 C 14.226562 25.246094 13.324219 24.742188 12.523438 24.121094 C 11.757812 23.53125 11.074219 22.835938 10.480469 22.078125 C 9.316406 20.589844 8.503906 18.832031 8.125 16.984375 C 6.792969 10.46875 11.265625 3.820312 17.957031 2.925781 C 19.003906 2.785156 20.070312 2.777344 21.121094 2.894531 C 23.609375 3.167969 26.042969 4.128906 28.019531 5.664062 L 28.019531 5.667969 L 28.046875 5.691406 C 28.144531 5.765625 28.238281 5.839844 28.328125 5.917969 C 28.347656 5.933594 28.367188 5.945312 28.386719 5.960938 C 28.46875 6.035156 28.554688 6.105469 28.636719 6.179688 C 28.65625 6.199219 28.679688 6.21875 28.699219 6.238281 C 28.789062 6.316406 28.878906 6.398438 28.964844 6.480469 L 28.984375 6.503906 C 29.085938 6.597656 29.183594 6.695312 29.28125 6.796875 C 29.335938 6.851562 29.394531 6.914062 29.449219 6.972656 C 29.488281 7.011719 29.523438 7.050781 29.558594 7.089844 C 29.609375 7.144531 29.660156 7.203125 29.710938 7.261719 C 29.757812 7.316406 29.804688 7.367188 29.851562 7.421875 C 29.898438 7.476562 29.941406 7.53125 29.984375 7.585938 C 30.058594 7.675781 30.128906 7.765625 30.199219 7.855469 C 30.257812 7.933594 30.316406 8.011719 30.375 8.089844 C 31.246094 9.292969 31.765625 10.660156 31.988281 12.085938 C 32.472656 15.195312 31.628906 18.523438 29.921875 21.144531 " fill-opacity="1" fill-rule="nonzero"/><path fill="#fabd48" d="M 29.921875 21.144531 C 29.289062 22.117188 28.523438 23.085938 27.613281 23.816406 C 26.714844 24.539062 25.722656 25.128906 25.121094 26.15625 C 24.648438 26.96875 24.492188 27.96875 24.507812 28.867188 C 24.519531 29.578125 24.578125 30.289062 24.496094 30.992188 C 24.316406 32.523438 21.414062 32.183594 20.472656 32.199219 C 19.03125 32.226562 17.589844 32.101562 16.15625 31.953125 C 15.910156 31.929688 15.660156 31.902344 15.441406 31.773438 C 15.183594 31.621094 15.035156 31.351562 14.957031 31.015625 L 14.957031 31.007812 C 14.929688 30.773438 14.953125 30.515625 14.988281 30.25 C 15.097656 29.4375 15.308594 28.59375 15.300781 27.785156 C 16.203125 28.449219 17.878906 28.347656 18.984375 28.152344 C 20.007812 27.972656 20.765625 27.890625 21.648438 27.347656 C 22.65625 26.722656 22.984375 25.628906 23.765625 24.800781 C 24.65625 23.859375 25.726562 23.128906 26.640625 22.214844 C 29.578125 19.28125 30.484375 14.828125 30.125 10.808594 C 29.960938 8.957031 29.414062 6.945312 28.019531 5.667969 L 28.050781 5.691406 C 28.144531 5.765625 28.238281 5.839844 28.328125 5.917969 C 28.347656 5.929688 28.367188 5.945312 28.386719 5.960938 C 28.46875 6.035156 28.554688 6.105469 28.636719 6.179688 C 28.65625 6.199219 28.679688 6.21875 28.699219 6.238281 C 28.789062 6.316406 28.878906 6.398438 28.964844 6.480469 L 28.984375 6.503906 C 29.085938 6.597656 29.183594 6.695312 29.28125 6.796875 C 29.339844 6.851562 29.394531 6.914062 29.449219 6.972656 C 29.488281 7.011719 29.523438 7.050781 29.558594 7.089844 C 29.609375 7.144531 29.660156 7.203125 29.710938 7.261719 C 29.757812 7.316406 29.804688 7.367188 29.851562 7.421875 C 29.898438 7.476562 29.941406 7.53125 29.984375 7.585938 C 30.058594 7.675781 30.128906 7.765625 30.199219 7.855469 C 30.257812 7.933594 30.316406 8.011719 30.375 8.089844 C 31.246094 9.292969 31.765625 10.660156 31.988281 12.085938 C 32.472656 15.195312 31.628906 18.523438 29.921875 21.144531 " fill-opacity="1" fill-rule="nonzero"/><path fill="#ffffff" d="M 17.289062 30.964844 C 17.699219 29.941406 17.851562 28.539062 17.851562 27.015625 C 17.851562 24.597656 17.46875 21.871094 17.097656 19.890625 C 16.976562 19.238281 16.738281 18.453125 16.308594 17.90625 C 16.226562 17.800781 16.140625 17.710938 16.042969 17.644531 C 15.945312 17.578125 15.828125 17.535156 15.699219 17.535156 C 15.601562 17.535156 15.503906 17.558594 15.398438 17.601562 C 15.230469 17.675781 15.105469 17.792969 15.03125 17.933594 C 14.957031 18.070312 14.929688 18.226562 14.929688 18.378906 C 14.929688 18.644531 15.011719 18.914062 15.117188 19.132812 C 15.246094 19.394531 15.445312 19.6875 15.675781 19.949219 C 15.910156 20.210938 16.171875 20.441406 16.445312 20.589844 C 16.796875 20.777344 17.1875 20.863281 17.578125 20.863281 C 18.328125 20.863281 19.082031 20.550781 19.617188 20.019531 C 20.179688 19.460938 20.449219 18.765625 20.703125 18.066406 C 20.761719 17.90625 20.851562 17.679688 20.929688 17.441406 C 21.003906 17.195312 21.066406 16.9375 21.066406 16.683594 C 21.066406 16.527344 21.039062 16.371094 20.972656 16.230469 C 20.902344 16.089844 20.785156 15.964844 20.625 15.882812 C 20.511719 15.828125 20.402344 15.796875 20.300781 15.796875 C 20.167969 15.796875 20.046875 15.847656 19.960938 15.925781 C 19.828125 16.042969 19.75 16.207031 19.695312 16.375 C 19.640625 16.546875 19.613281 16.722656 19.597656 16.875 C 19.578125 17.082031 19.570312 17.296875 19.570312 17.507812 C 19.570312 18.175781 19.664062 18.851562 19.851562 19.484375 C 19.949219 19.816406 20.109375 20.136719 20.332031 20.410156 C 20.554688 20.679688 20.835938 20.898438 21.171875 21.023438 C 21.375 21.101562 21.59375 21.132812 21.820312 21.132812 C 22.285156 21.132812 22.773438 20.992188 23.222656 20.789062 C 23.671875 20.585938 24.085938 20.324219 24.402344 20.066406 C 24.5625 19.929688 24.683594 19.730469 24.769531 19.511719 C 24.855469 19.292969 24.902344 19.050781 24.902344 18.828125 C 24.902344 18.644531 24.871094 18.472656 24.785156 18.328125 C 24.742188 18.257812 24.683594 18.195312 24.609375 18.152344 C 24.535156 18.109375 24.445312 18.085938 24.351562 18.085938 C 24.199219 18.089844 24.027344 18.144531 23.835938 18.253906 C 23.65625 18.359375 23.523438 18.507812 23.414062 18.65625 C 23.003906 19.183594 22.769531 19.785156 22.605469 20.398438 C 22.441406 21.015625 22.351562 21.644531 22.230469 22.238281 C 21.976562 23.46875 21.789062 24.820312 21.789062 26.273438 C 21.789062 27.699219 21.96875 29.21875 22.453125 30.824219 C 22.472656 30.894531 22.546875 30.933594 22.621094 30.914062 C 22.691406 30.890625 22.734375 30.816406 22.710938 30.746094 C 22.238281 29.171875 22.058594 27.675781 22.058594 26.273438 C 22.058594 24.84375 22.246094 23.511719 22.496094 22.292969 C 22.617188 21.6875 22.710938 21.0625 22.867188 20.46875 C 23.027344 19.871094 23.25 19.308594 23.628906 18.820312 C 23.730469 18.683594 23.84375 18.5625 23.972656 18.488281 C 24.140625 18.390625 24.265625 18.355469 24.351562 18.359375 C 24.402344 18.359375 24.441406 18.367188 24.472656 18.386719 C 24.519531 18.414062 24.558594 18.460938 24.585938 18.539062 C 24.617188 18.613281 24.632812 18.714844 24.632812 18.828125 C 24.632812 19.011719 24.589844 19.226562 24.515625 19.414062 C 24.445312 19.605469 24.339844 19.769531 24.230469 19.855469 C 23.933594 20.097656 23.539062 20.351562 23.113281 20.542969 C 22.6875 20.734375 22.230469 20.863281 21.820312 20.863281 C 21.621094 20.863281 21.4375 20.832031 21.265625 20.769531 C 20.980469 20.667969 20.738281 20.476562 20.542969 20.238281 C 20.347656 20 20.199219 19.710938 20.113281 19.410156 C 19.933594 18.804688 19.839844 18.148438 19.839844 17.507812 C 19.839844 17.304688 19.847656 17.101562 19.867188 16.898438 C 19.882812 16.71875 19.925781 16.488281 20.003906 16.320312 C 20.042969 16.238281 20.089844 16.171875 20.136719 16.128906 C 20.1875 16.085938 20.234375 16.066406 20.300781 16.066406 C 20.351562 16.066406 20.417969 16.082031 20.503906 16.125 C 20.613281 16.183594 20.679688 16.257812 20.726562 16.347656 C 20.773438 16.441406 20.792969 16.554688 20.792969 16.683594 C 20.796875 16.890625 20.742188 17.132812 20.667969 17.359375 C 20.597656 17.589844 20.511719 17.804688 20.449219 17.976562 C 20.195312 18.671875 19.9375 19.320312 19.425781 19.828125 C 18.945312 20.308594 18.25 20.59375 17.578125 20.59375 C 17.226562 20.59375 16.882812 20.515625 16.574219 20.351562 C 16.34375 20.230469 16.097656 20.015625 15.878906 19.769531 C 15.664062 19.527344 15.476562 19.25 15.363281 19.011719 C 15.269531 18.828125 15.199219 18.589844 15.199219 18.378906 C 15.199219 18.257812 15.222656 18.148438 15.269531 18.058594 C 15.320312 17.972656 15.390625 17.902344 15.507812 17.851562 C 15.582031 17.816406 15.648438 17.804688 15.699219 17.804688 C 15.769531 17.804688 15.824219 17.824219 15.890625 17.867188 C 15.953125 17.910156 16.023438 17.980469 16.09375 18.074219 C 16.480469 18.558594 16.714844 19.3125 16.832031 19.941406 C 17.199219 21.910156 17.582031 24.625 17.578125 27.015625 C 17.582031 28.519531 17.425781 29.898438 17.035156 30.863281 C 17.007812 30.933594 17.042969 31.011719 17.113281 31.039062 C 17.179688 31.066406 17.261719 31.03125 17.289062 30.964844 " fill-opacity="1" fill-rule="nonzero"/><path fill="#b3bbc8" d="M 19.007812 35.09375 C 20.867188 35.09375 22.289062 35.054688 24.148438 35.046875 C 24.375 35.046875 24.640625 35.136719 24.765625 34.761719 C 24.828125 34.578125 24.832031 34.363281 24.835938 34.15625 C 24.855469 33.125 24.996094 32.070312 24.980469 31.050781 C 24.976562 30.925781 24.976562 30.796875 24.933594 30.6875 C 24.847656 30.460938 24.640625 30.429688 24.464844 30.425781 C 21.292969 30.324219 18.101562 30.265625 14.929688 30.449219 C 14.429688 30.480469 14.34375 30.941406 14.3125 31.578125 C 14.269531 32.46875 14.261719 33.359375 14.304688 34.253906 C 14.316406 34.433594 14.328125 34.628906 14.398438 34.773438 C 14.519531 35.015625 14.753906 35.042969 14.960938 35.046875 C 16.160156 35.074219 17.804688 35.097656 19.007812 35.09375 " fill-opacity="1" fill-rule="nonzero"/><path fill="#a5a9b5" d="M 14.851562 31.777344 C 16.363281 32.03125 18.015625 31.988281 19.550781 31.976562 C 21.058594 31.964844 22.769531 32.070312 24.226562 31.636719 C 24.28125 31.621094 24.277344 31.421875 24.222656 31.417969 C 23.4375 31.367188 22.65625 31.484375 21.875 31.527344 C 21.097656 31.570312 20.320312 31.59375 19.539062 31.605469 C 18 31.628906 16.375 31.527344 14.851562 31.734375 L 14.851562 31.777344 " fill-opacity="1" fill-rule="nonzero"/><path fill="#a5a9b5" d="M 14.914062 33.488281 C 16.460938 33.714844 18.011719 33.789062 19.570312 33.824219 C 20.324219 33.839844 21.078125 33.847656 21.835938 33.84375 C 22.613281 33.84375 23.476562 33.929688 24.226562 33.691406 C 24.28125 33.675781 24.277344 33.496094 24.222656 33.480469 C 23.5 33.308594 22.695312 33.429688 21.957031 33.445312 C 21.160156 33.460938 20.359375 33.464844 19.5625 33.460938 C 18.011719 33.453125 16.464844 33.398438 14.914062 33.425781 C 14.898438 33.425781 14.898438 33.488281 14.914062 33.488281 " fill-opacity="1" fill-rule="nonzero"/><path fill="#fee684" d="M 16.8125 5.246094 C 16.316406 4.824219 16 4.960938 15.441406 5.183594 C 14.917969 5.390625 14.390625 5.640625 13.929688 5.957031 C 13.007812 6.589844 12.195312 7.445312 11.53125 8.335938 C 10.054688 10.316406 9.464844 12.5625 9.59375 15.007812 C 9.617188 15.472656 9.992188 15.75 10.085938 15.136719 C 10.203125 14.359375 10.554688 13.585938 10.867188 12.84375 C 11.246094 11.945312 11.726562 11.089844 12.328125 10.320312 C 12.933594 9.542969 13.652344 8.917969 14.433594 8.320312 C 14.828125 8.015625 15.230469 7.726562 15.664062 7.472656 C 15.882812 7.34375 16.160156 7.25 16.363281 7.101562 C 16.613281 6.914062 16.753906 6.613281 16.902344 6.351562 C 17.0625 6.066406 17.089844 5.476562 16.8125 5.246094 " fill-opacity="1" fill-rule="nonzero"/><g clip-path="url(#f82f18c35d)"><path fill="#fccd4f" d="M 31.386719 3.871094 C 32.421875 2.988281 33.4375 2.089844 34.433594 1.171875 C 34.601562 1.019531 34.609375 0.761719 34.457031 0.597656 C 34.304688 0.433594 34.046875 0.425781 33.882812 0.578125 C 32.890625 1.488281 31.882812 2.382812 30.859375 3.253906 C 30.6875 3.398438 30.667969 3.65625 30.8125 3.824219 C 30.960938 3.996094 31.214844 4.015625 31.386719 3.871094 " fill-opacity="1" fill-rule="nonzero"/></g><g clip-path="url(#384e391dbd)"><path fill="#fccd4f" d="M 34.9375 9.050781 C 36.234375 8.648438 37.527344 8.21875 38.804688 7.769531 C 39.019531 7.695312 39.128906 7.460938 39.054688 7.25 C 38.980469 7.039062 38.746094 6.929688 38.535156 7.003906 C 37.261719 7.453125 35.984375 7.878906 34.695312 8.277344 C 34.480469 8.34375 34.359375 8.570312 34.429688 8.785156 C 34.496094 9 34.722656 9.117188 34.9375 9.050781 " fill-opacity="1" fill-rule="nonzero"/></g><g clip-path="url(#0fddd30d7d)"><path fill="#fccd4f" d="M 35.089844 16.5 C 36.4375 16.699219 37.785156 16.871094 39.136719 17.019531 C 39.359375 17.042969 39.558594 16.882812 39.585938 16.660156 C 39.609375 16.4375 39.449219 16.238281 39.226562 16.214844 C 37.882812 16.066406 36.546875 15.894531 35.210938 15.699219 C 34.988281 15.664062 34.78125 15.816406 34.75 16.039062 C 34.714844 16.257812 34.871094 16.464844 35.089844 16.5 " fill-opacity="1" fill-rule="nonzero"/></g><g clip-path="url(#bfc3bf038d)"><path fill="#fccd4f" d="M 8.894531 3.253906 C 7.871094 2.382812 6.859375 1.488281 5.871094 0.578125 C 5.707031 0.425781 5.449219 0.433594 5.296875 0.597656 C 5.144531 0.761719 5.152344 1.019531 5.316406 1.171875 C 6.316406 2.089844 7.332031 2.988281 8.367188 3.871094 C 8.535156 4.015625 8.792969 3.996094 8.9375 3.824219 C 9.085938 3.65625 9.066406 3.398438 8.894531 3.253906 " fill-opacity="1" fill-rule="nonzero"/></g><g clip-path="url(#a8116419f0)"><path fill="#fccd4f" d="M 5.058594 8.277344 C 3.769531 7.878906 2.488281 7.453125 1.21875 7.003906 C 1.007812 6.929688 0.773438 7.039062 0.699219 7.25 C 0.625 7.460938 0.734375 7.695312 0.945312 7.769531 C 2.226562 8.21875 3.519531 8.648438 4.816406 9.050781 C 5.03125 9.117188 5.257812 9 5.324219 8.785156 C 5.390625 8.570312 5.273438 8.34375 5.058594 8.277344 " fill-opacity="1" fill-rule="nonzero"/></g><g clip-path="url(#822c023a15)"><path fill="#fccd4f" d="M 4.542969 15.699219 C 3.207031 15.894531 1.871094 16.066406 0.527344 16.214844 C 0.304688 16.238281 0.144531 16.4375 0.167969 16.660156 C 0.191406 16.882812 0.394531 17.042969 0.617188 17.019531 C 1.96875 16.871094 3.316406 16.699219 4.660156 16.5 C 4.882812 16.464844 5.039062 16.257812 5.003906 16.039062 C 4.972656 15.816406 4.765625 15.664062 4.542969 15.699219 " fill-opacity="1" fill-rule="nonzero"/></g></svg>