<svg xmlns="http://www.w3.org/2000/svg" xmlns:xlink="http://www.w3.org/1999/xlink" width="30" zoomAndPan="magnify" viewBox="0 0 22.5 24.75" height="33" preserveAspectRatio="xMidYMid meet" version="1.0"><defs><clipPath id="743cca8a3c"><path d="M 0.351562 0.261719 L 22.011719 0.261719 L 22.011719 22.011719 L 0.351562 22.011719 Z M 0.351562 0.261719 " clip-rule="nonzero"/></clipPath></defs><g clip-path="url(#743cca8a3c)"><path fill="#0f4482" d="M 15.371094 0.261719 C 14.777344 0.261719 14.289062 0.75 14.289062 1.34375 L 14.289062 13.019531 C 14.289062 13.027344 14.242188 13.183594 14.238281 13.191406 L 12.855469 15.40625 C 12.703125 15.648438 12.648438 15.945312 12.785156 16.191406 C 12.921875 16.441406 13.203125 16.550781 13.488281 16.550781 L 21.019531 16.550781 C 21.613281 16.550781 22.101562 16.0625 22.101562 15.46875 L 22.101562 1.34375 C 22.101562 0.75 21.613281 0.261719 21.019531 0.261719 Z M 15.371094 0.921875 L 21.019531 0.921875 C 21.257812 0.921875 21.445312 1.105469 21.445312 1.34375 L 21.445312 15.46875 C 21.445312 15.703125 21.257812 15.890625 21.019531 15.890625 L 13.488281 15.890625 C 13.402344 15.890625 13.371094 15.878906 13.363281 15.871094 C 13.363281 15.859375 13.367188 15.828125 13.414062 15.757812 L 14.796875 13.542969 C 14.902344 13.375 14.945312 13.21875 14.945312 13.019531 L 14.945312 1.34375 C 14.945312 1.105469 15.132812 0.921875 15.371094 0.921875 Z M 16.421875 3.085938 C 16.375 3.085938 16.332031 3.09375 16.292969 3.109375 C 16.253906 3.125 16.214844 3.148438 16.183594 3.179688 C 16.152344 3.210938 16.128906 3.246094 16.113281 3.289062 C 16.09375 3.328125 16.085938 3.371094 16.085938 3.414062 C 16.085938 3.457031 16.09375 3.503906 16.113281 3.542969 C 16.128906 3.582031 16.152344 3.621094 16.183594 3.648438 C 16.214844 3.679688 16.253906 3.703125 16.292969 3.722656 C 16.332031 3.738281 16.375 3.746094 16.421875 3.746094 L 20.265625 3.746094 C 20.3125 3.746094 20.355469 3.738281 20.394531 3.722656 C 20.433594 3.703125 20.472656 3.679688 20.503906 3.648438 C 20.535156 3.621094 20.558594 3.582031 20.574219 3.542969 C 20.59375 3.503906 20.601562 3.457031 20.601562 3.414062 C 20.601562 3.371094 20.59375 3.328125 20.574219 3.289062 C 20.558594 3.246094 20.535156 3.210938 20.503906 3.179688 C 20.472656 3.148438 20.433594 3.125 20.394531 3.109375 C 20.355469 3.09375 20.3125 3.085938 20.265625 3.085938 Z M 16.945312 5.535156 C 16.902344 5.53125 16.859375 5.542969 16.816406 5.558594 C 16.777344 5.574219 16.738281 5.597656 16.707031 5.628906 C 16.675781 5.660156 16.652344 5.695312 16.636719 5.734375 C 16.621094 5.777344 16.609375 5.820312 16.609375 5.863281 C 16.609375 5.90625 16.621094 5.949219 16.636719 5.992188 C 16.652344 6.03125 16.675781 6.066406 16.707031 6.097656 C 16.738281 6.128906 16.777344 6.152344 16.816406 6.167969 C 16.859375 6.183594 16.902344 6.195312 16.945312 6.191406 L 19.742188 6.191406 C 19.785156 6.195312 19.828125 6.183594 19.871094 6.167969 C 19.910156 6.152344 19.949219 6.128906 19.980469 6.097656 C 20.007812 6.066406 20.035156 6.03125 20.050781 5.992188 C 20.066406 5.949219 20.078125 5.90625 20.078125 5.863281 C 20.078125 5.820312 20.066406 5.777344 20.050781 5.734375 C 20.035156 5.695312 20.007812 5.660156 19.980469 5.628906 C 19.949219 5.597656 19.910156 5.574219 19.871094 5.558594 C 19.828125 5.542969 19.785156 5.53125 19.742188 5.535156 Z M 5.957031 6.285156 C 4.113281 6.285156 2.613281 7.789062 2.613281 9.628906 C 2.613281 11.472656 4.113281 12.972656 5.957031 12.972656 C 7.796875 12.972656 9.296875 11.472656 9.296875 9.628906 C 9.296875 7.789062 7.796875 6.285156 5.957031 6.285156 Z M 5.957031 6.945312 C 7.441406 6.945312 8.640625 8.144531 8.640625 9.628906 C 8.640625 11.117188 7.441406 12.3125 5.957031 12.3125 C 4.46875 12.3125 3.273438 11.117188 3.273438 9.628906 C 3.273438 8.144531 4.46875 6.945312 5.957031 6.945312 Z M 16.421875 7.980469 C 16.375 7.980469 16.332031 7.988281 16.292969 8.003906 C 16.253906 8.023438 16.214844 8.046875 16.183594 8.078125 C 16.152344 8.105469 16.128906 8.144531 16.113281 8.183594 C 16.09375 8.222656 16.085938 8.269531 16.085938 8.3125 C 16.085938 8.355469 16.09375 8.398438 16.113281 8.4375 C 16.128906 8.480469 16.152344 8.515625 16.183594 8.546875 C 16.214844 8.578125 16.253906 8.601562 16.292969 8.617188 C 16.332031 8.632812 16.375 8.640625 16.421875 8.640625 L 20.265625 8.640625 C 20.3125 8.640625 20.355469 8.632812 20.394531 8.617188 C 20.433594 8.601562 20.472656 8.578125 20.503906 8.546875 C 20.535156 8.515625 20.558594 8.480469 20.574219 8.4375 C 20.59375 8.398438 20.601562 8.355469 20.601562 8.3125 C 20.601562 8.269531 20.59375 8.222656 20.574219 8.183594 C 20.558594 8.144531 20.535156 8.105469 20.503906 8.078125 C 20.472656 8.046875 20.433594 8.023438 20.394531 8.003906 C 20.355469 7.988281 20.3125 7.980469 20.265625 7.980469 Z M 16.945312 10.429688 C 16.902344 10.429688 16.859375 10.4375 16.816406 10.453125 C 16.777344 10.46875 16.738281 10.492188 16.707031 10.523438 C 16.675781 10.554688 16.652344 10.59375 16.636719 10.632812 C 16.621094 10.671875 16.609375 10.714844 16.609375 10.757812 C 16.609375 10.804688 16.621094 10.847656 16.636719 10.886719 C 16.652344 10.925781 16.675781 10.964844 16.707031 10.992188 C 16.738281 11.023438 16.777344 11.050781 16.816406 11.066406 C 16.859375 11.082031 16.902344 11.089844 16.945312 11.089844 L 19.742188 11.089844 C 19.785156 11.089844 19.828125 11.082031 19.871094 11.066406 C 19.910156 11.050781 19.949219 11.023438 19.980469 10.992188 C 20.007812 10.964844 20.035156 10.925781 20.050781 10.886719 C 20.066406 10.847656 20.078125 10.804688 20.078125 10.757812 C 20.078125 10.714844 20.066406 10.671875 20.050781 10.632812 C 20.035156 10.59375 20.007812 10.554688 19.980469 10.523438 C 19.949219 10.492188 19.910156 10.46875 19.871094 10.453125 C 19.828125 10.4375 19.785156 10.429688 19.742188 10.429688 Z M 16.421875 12.878906 C 16.375 12.878906 16.332031 12.886719 16.292969 12.902344 C 16.253906 12.917969 16.214844 12.941406 16.183594 12.972656 C 16.152344 13.003906 16.128906 13.039062 16.113281 13.082031 C 16.09375 13.121094 16.085938 13.164062 16.085938 13.207031 C 16.085938 13.25 16.09375 13.292969 16.113281 13.335938 C 16.128906 13.375 16.152344 13.410156 16.183594 13.441406 C 16.214844 13.472656 16.253906 13.496094 16.292969 13.511719 C 16.332031 13.53125 16.375 13.539062 16.421875 13.535156 L 20.265625 13.535156 C 20.3125 13.539062 20.355469 13.53125 20.394531 13.511719 C 20.433594 13.496094 20.472656 13.472656 20.503906 13.441406 C 20.535156 13.410156 20.558594 13.375 20.574219 13.335938 C 20.59375 13.292969 20.601562 13.25 20.601562 13.207031 C 20.601562 13.164062 20.59375 13.121094 20.574219 13.082031 C 20.558594 13.039062 20.535156 13.003906 20.503906 12.972656 C 20.472656 12.941406 20.433594 12.917969 20.394531 12.902344 C 20.355469 12.886719 20.3125 12.878906 20.265625 12.878906 Z M 3.695312 13.820312 C 1.855469 13.820312 0.351562 15.320312 0.351562 17.160156 L 0.351562 20.929688 C 0.351562 21.523438 0.839844 22.011719 1.4375 22.011719 L 10.476562 22.011719 C 11.070312 22.011719 11.558594 21.523438 11.558594 20.929688 L 11.558594 17.160156 C 11.558594 15.320312 10.054688 13.820312 8.214844 13.820312 Z M 3.695312 14.480469 L 8.214844 14.480469 C 9.699219 14.480469 10.898438 15.675781 10.898438 17.160156 L 10.898438 20.929688 C 10.898438 21.164062 10.710938 21.351562 10.476562 21.351562 L 1.4375 21.351562 C 1.199219 21.351562 1.011719 21.164062 1.011719 20.929688 L 1.011719 17.160156 C 1.011719 15.675781 2.210938 14.480469 3.695312 14.480469 Z M 3.695312 14.480469 " fill-opacity="1" fill-rule="nonzero"/></g></svg>