<svg xmlns="http://www.w3.org/2000/svg" xmlns:xlink="http://www.w3.org/1999/xlink" width="55" zoomAndPan="magnify" viewBox="0 0 41.25 38.999999" height="52" preserveAspectRatio="xMidYMid meet" version="1.0"><defs><clipPath id="43cd64e263"><path d="M 0.195312 12 L 28 12 L 28 38 L 0.195312 38 Z M 0.195312 12 " clip-rule="nonzero"/></clipPath><clipPath id="9e648179b8"><path d="M 14 0.652344 L 39.972656 0.652344 L 39.972656 24 L 14 24 Z M 14 0.652344 " clip-rule="nonzero"/></clipPath></defs><g clip-path="url(#43cd64e263)"><path fill="#0f4482" d="M 21.597656 26.164062 C 20.835938 26.164062 20.21875 25.546875 20.21875 24.785156 C 20.21875 24.019531 20.835938 23.402344 21.597656 23.402344 C 22.363281 23.402344 22.980469 24.019531 22.980469 24.785156 C 22.980469 25.546875 22.363281 26.164062 21.597656 26.164062 Z M 14.71875 26.164062 C 13.957031 26.164062 13.335938 25.546875 13.335938 24.785156 C 13.335938 24.019531 13.957031 23.402344 14.71875 23.402344 C 15.480469 23.402344 16.101562 24.019531 16.101562 24.785156 C 16.101562 25.546875 15.480469 26.164062 14.71875 26.164062 Z M 7.835938 26.164062 C 7.074219 26.164062 6.453125 25.546875 6.453125 24.785156 C 6.453125 24.019531 7.074219 23.402344 7.835938 23.402344 C 8.597656 23.402344 9.21875 24.019531 9.21875 24.785156 C 9.21875 25.546875 8.597656 26.164062 7.835938 26.164062 Z M 7.574219 14.355469 C 2.6875 17.695312 0.925781 23.796875 2.8125 29.046875 L 0.285156 35.070312 C 0.1875 35.316406 0.417969 35.570312 0.671875 35.488281 C 2.765625 34.8125 4.933594 34.5625 7.207031 34.9375 C 11.558594 38.148438 17.667969 38.292969 22.230469 34.890625 C 27.945312 30.628906 29.023438 22.449219 24.5 16.84375 C 20.402344 11.761719 12.96875 10.664062 7.574219 14.355469 " fill-opacity="1" fill-rule="nonzero"/></g><g clip-path="url(#9e648179b8)"><path fill="#0f4482" d="M 38.746094 0.679688 L 15.867188 0.679688 C 15.273438 0.679688 14.789062 1.160156 14.789062 1.753906 L 14.789062 10.367188 L 14.867188 10.367188 C 15.492188 10.375 16.136719 10.425781 16.785156 10.523438 L 16.875 10.535156 L 16.875 2.757812 L 37.738281 2.757812 L 37.738281 20.667969 L 33.835938 17.957031 C 33.664062 17.835938 33.445312 17.765625 33.21875 17.765625 L 27.304688 17.765625 L 27.371094 17.882812 C 27.710938 18.511719 28.003906 19.15625 28.238281 19.800781 L 28.257812 19.851562 L 32.90625 19.851562 L 38.132812 23.480469 C 38.3125 23.601562 38.527344 23.667969 38.746094 23.667969 C 38.917969 23.667969 39.085938 23.628906 39.242188 23.546875 C 39.601562 23.363281 39.824219 22.996094 39.824219 22.59375 L 39.824219 1.753906 C 39.824219 1.160156 39.339844 0.679688 38.746094 0.679688 " fill-opacity="1" fill-rule="nonzero"/></g></svg>