<svg xmlns="http://www.w3.org/2000/svg" xmlns:xlink="http://www.w3.org/1999/xlink" width="41" zoomAndPan="magnify" viewBox="0 0 30.75 30.75" height="41" preserveAspectRatio="xMidYMid meet" version="1.0"><defs><clipPath id="e27d48d2e4"><path d="M 0 0 L 30.421875 0 L 30.421875 30.421875 L 0 30.421875 Z M 0 0 " clip-rule="nonzero"/></clipPath><clipPath id="c93ef46508"><path d="M 8.25 0 L 22.171875 0 C 26.726562 0 30.421875 3.695312 30.421875 8.25 L 30.421875 22.171875 C 30.421875 26.726562 26.726562 30.421875 22.171875 30.421875 L 8.25 30.421875 C 3.695312 30.421875 0 26.726562 0 22.171875 L 0 8.25 C 0 3.695312 3.695312 0 8.25 0 Z M 8.25 0 " clip-rule="nonzero"/></clipPath><clipPath id="99044854f0"><path d="M 0 0 L 30.503906 0 L 30.503906 30.503906 L 0 30.503906 Z M 0 0 " clip-rule="nonzero"/></clipPath><clipPath id="85e483941b"><path d="M 8.339844 0 L 22.410156 0 C 27.015625 0 30.75 3.734375 30.75 8.339844 L 30.75 22.410156 C 30.75 27.015625 27.015625 30.75 22.410156 30.75 L 8.339844 30.75 C 3.734375 30.75 0 27.015625 0 22.410156 L 0 8.339844 C 0 3.734375 3.734375 0 8.339844 0 Z M 8.339844 0 " clip-rule="nonzero"/></clipPath><clipPath id="81e0971b5c"><path d="M 3.8125 3.8125 L 26.3125 3.8125 L 26.3125 26.3125 L 3.8125 26.3125 Z M 3.8125 3.8125 " clip-rule="nonzero"/></clipPath></defs><g clip-path="url(#e27d48d2e4)"><g clip-path="url(#c93ef46508)"><path fill="#dee9f1" d="M 0 0 L 30.421875 0 L 30.421875 30.421875 L 0 30.421875 Z M 0 0 " fill-opacity="1" fill-rule="nonzero"/></g></g><g clip-path="url(#99044854f0)"><g clip-path="url(#85e483941b)"><path stroke-linecap="butt" transform="matrix(0.758381, 0, 0, 0.758381, 0.000000000000021316, 0.000000991935)" fill="none" stroke-linejoin="miter" d="M 10.996898 -0.00000130796 L 29.549978 -0.00000130796 C 35.622738 -0.00000130796 40.546876 4.924137 40.546876 10.996897 L 40.546876 29.549977 C 40.546876 35.622737 35.622738 40.546875 29.549978 40.546875 L 10.996898 40.546875 C 4.924138 40.546875 -0.000000000000028108 35.622737 -0.000000000000028108 29.549977 L -0.000000000000028108 10.996897 C -0.000000000000028108 4.924137 4.924138 -0.00000130796 10.996898 -0.00000130796 Z M 10.996898 -0.00000130796 " stroke="#dce2e6" stroke-width="2" stroke-opacity="1" stroke-miterlimit="4"/></g></g><g clip-path="url(#81e0971b5c)"><path fill="#0f4482" d="M 26.132812 11.78125 L 20.140625 11.78125 L 20.140625 3.988281 C 20.140625 3.890625 20.0625 3.8125 19.960938 3.8125 L 10.160156 3.8125 C 10.0625 3.8125 9.980469 3.890625 9.980469 3.988281 L 9.980469 11.78125 L 3.988281 11.78125 C 3.890625 11.78125 3.8125 11.863281 3.8125 11.960938 L 3.8125 26.132812 C 3.8125 26.230469 3.890625 26.3125 3.988281 26.3125 L 26.132812 26.3125 C 26.230469 26.3125 26.3125 26.230469 26.3125 26.132812 L 26.3125 11.960938 C 26.3125 11.863281 26.230469 11.78125 26.132812 11.78125 Z M 10.339844 4.167969 L 19.785156 4.167969 L 19.785156 7.132812 L 10.339844 7.132812 Z M 19.785156 7.488281 L 19.785156 10.453125 L 16.875 10.453125 L 16.875 7.488281 Z M 15.0625 10.8125 L 16.515625 10.8125 L 16.515625 13.777344 L 13.605469 13.777344 L 13.605469 10.8125 Z M 13.605469 10.453125 L 13.605469 7.488281 L 16.515625 7.488281 L 16.515625 10.453125 Z M 16.515625 14.132812 L 16.515625 17.097656 L 13.605469 17.097656 L 13.605469 14.132812 Z M 16.515625 17.453125 L 16.515625 18.21875 C 16.339844 18.070312 16.113281 17.984375 15.867188 17.984375 L 14.253906 17.984375 C 14.007812 17.984375 13.78125 18.070312 13.605469 18.21875 L 13.605469 17.453125 Z M 14.253906 18.339844 L 15.867188 18.339844 C 16.222656 18.339844 16.511719 18.628906 16.515625 18.984375 L 16.515625 20.675781 C 16.515625 21.03125 16.226562 21.324219 15.867188 21.324219 L 14.253906 21.324219 C 13.898438 21.324219 13.605469 21.03125 13.605469 20.675781 L 13.605469 18.988281 C 13.605469 18.628906 13.898438 18.339844 14.253906 18.339844 Z M 13.25 17.453125 L 13.265625 20.859375 L 11.660156 20.859375 L 11.660156 17.453125 Z M 11.660156 17.097656 L 11.660156 14.132812 L 13.25 14.132812 L 13.25 17.097656 Z M 10.339844 7.488281 L 13.25 7.488281 L 13.25 10.453125 L 10.339844 10.453125 Z M 4.167969 14.5 L 6.457031 14.5 L 6.457031 16.507812 L 4.167969 16.507812 Z M 4.167969 16.863281 L 6.457031 16.863281 L 6.457031 18.261719 C 6.292969 18.417969 6.179688 18.632812 6.152344 18.867188 L 4.167969 18.867188 Z M 4.167969 19.226562 L 6.144531 19.226562 L 6.144531 20.675781 C 6.144531 20.878906 6.207031 21.070312 6.3125 21.230469 L 4.167969 21.230469 Z M 5.132812 24.539062 L 5.132812 25.953125 L 4.167969 25.953125 L 4.167969 23.949219 L 5.183594 23.949219 C 5.152344 24.140625 5.132812 24.339844 5.132812 24.539062 Z M 4.167969 23.59375 L 4.167969 21.585938 L 6.691406 21.585938 C 5.988281 22.078125 5.484375 22.785156 5.261719 23.59375 Z M 9.101562 16.863281 L 9.101562 18.039062 C 8.996094 18.003906 8.882812 17.984375 8.761719 17.984375 L 7.148438 17.984375 C 7.03125 17.984375 6.917969 18.003906 6.8125 18.039062 L 6.8125 16.863281 Z M 6.8125 16.507812 L 6.8125 14.5 L 9.101562 14.5 L 9.101562 16.507812 Z M 7.148438 18.339844 L 8.761719 18.339844 C 9.121094 18.339844 9.410156 18.628906 9.410156 18.988281 L 9.410156 20.675781 C 9.410156 21.03125 9.121094 21.324219 8.761719 21.324219 L 7.148438 21.324219 C 6.792969 21.324219 6.5 21.03125 6.5 20.675781 L 6.5 18.988281 C 6.5 18.628906 6.792969 18.339844 7.148438 18.339844 Z M 10.421875 25.953125 L 5.492188 25.953125 L 5.492188 24.539062 C 5.492188 23.347656 6.152344 22.253906 7.222656 21.679688 L 8.6875 21.679688 C 9.757812 22.253906 10.421875 23.347656 10.421875 24.539062 Z M 11.304688 25.953125 L 10.777344 25.953125 L 10.777344 24.539062 C 10.777344 24.339844 10.761719 24.140625 10.730469 23.949219 L 11.304688 23.949219 Z M 11.304688 23.59375 L 10.648438 23.59375 C 10.425781 22.785156 9.925781 22.078125 9.21875 21.585938 L 11.304688 21.585938 Z M 11.304688 21.230469 L 9.601562 21.230469 C 9.707031 21.070312 9.769531 20.878906 9.769531 20.675781 L 9.769531 19.226562 L 11.304688 19.226562 Z M 11.304688 18.867188 L 9.761719 18.867188 C 9.734375 18.628906 9.621094 18.417969 9.457031 18.261719 L 9.457031 16.863281 L 11.304688 16.863281 Z M 11.304688 16.507812 L 9.457031 16.507812 L 9.457031 14.5 L 11.304688 14.5 Z M 11.304688 14.144531 L 4.167969 14.144531 L 4.167969 12.140625 L 11.304688 12.140625 Z M 11.480469 11.78125 L 10.339844 11.78125 L 10.339844 10.8125 L 13.25 10.8125 L 13.25 13.777344 L 11.660156 13.777344 L 11.660156 11.960938 C 11.660156 11.863281 11.582031 11.78125 11.480469 11.78125 Z M 12.238281 25.953125 L 11.660156 25.953125 L 11.660156 21.21875 L 13.410156 21.21875 C 13.507812 21.371094 13.648438 21.496094 13.8125 21.578125 C 12.832031 22.25 12.238281 23.351562 12.238281 24.539062 Z M 17.527344 25.953125 L 12.59375 25.953125 L 12.59375 24.539062 C 12.59375 23.347656 13.257812 22.253906 14.328125 21.679688 L 15.792969 21.679688 C 16.863281 22.253906 17.527344 23.347656 17.527344 24.539062 Z M 18.460938 25.953125 L 17.882812 25.953125 L 17.882812 24.539062 C 17.882812 23.351562 17.289062 22.25 16.308594 21.578125 C 16.476562 21.496094 16.613281 21.371094 16.714844 21.21875 L 18.460938 21.21875 Z M 18.460938 20.859375 L 16.855469 20.859375 L 16.875 17.453125 L 18.460938 17.453125 Z M 18.460938 17.097656 L 16.875 17.097656 L 16.875 14.132812 L 18.460938 14.132812 Z M 18.460938 11.960938 L 18.460938 13.777344 L 16.875 13.777344 L 16.875 10.8125 L 19.785156 10.8125 L 19.785156 11.78125 L 18.640625 11.78125 C 18.542969 11.78125 18.460938 11.863281 18.460938 11.960938 Z M 20.523438 21.230469 L 18.820312 21.230469 L 18.820312 19.226562 L 20.355469 19.226562 L 20.355469 20.675781 C 20.355469 20.878906 20.414062 21.070312 20.523438 21.230469 Z M 20.359375 18.867188 L 18.820312 18.867188 L 18.820312 16.863281 L 20.664062 16.863281 L 20.664062 18.261719 C 20.5 18.417969 20.390625 18.628906 20.359375 18.867188 Z M 18.820312 16.507812 L 18.820312 14.5 L 20.664062 14.5 L 20.664062 16.507812 Z M 19.34375 24.539062 L 19.34375 25.953125 L 18.820312 25.953125 L 18.820312 23.949219 L 19.394531 23.949219 C 19.359375 24.140625 19.34375 24.339844 19.34375 24.539062 Z M 18.820312 23.59375 L 18.820312 21.585938 L 20.902344 21.585938 C 20.199219 22.078125 19.695312 22.785156 19.472656 23.59375 Z M 23.308594 16.863281 L 23.308594 18.039062 C 23.203125 18.003906 23.089844 17.984375 22.972656 17.984375 L 21.359375 17.984375 C 21.242188 17.984375 21.128906 18.003906 21.023438 18.039062 L 21.023438 16.863281 Z M 21.023438 16.507812 L 21.023438 14.5 L 23.308594 14.5 L 23.308594 16.507812 Z M 21.359375 18.339844 L 22.972656 18.339844 C 23.328125 18.339844 23.621094 18.628906 23.621094 18.988281 L 23.621094 20.675781 C 23.621094 21.03125 23.328125 21.324219 22.972656 21.324219 L 21.359375 21.324219 C 21 21.324219 20.710938 21.03125 20.710938 20.675781 L 20.710938 18.988281 C 20.710938 18.628906 21 18.339844 21.359375 18.339844 Z M 24.632812 25.953125 L 19.699219 25.953125 L 19.699219 24.539062 C 19.699219 23.347656 20.363281 22.253906 21.433594 21.679688 L 22.898438 21.679688 C 23.96875 22.253906 24.632812 23.347656 24.632812 24.539062 Z M 25.953125 25.953125 L 24.988281 25.953125 L 24.988281 24.539062 C 24.988281 24.339844 24.972656 24.140625 24.9375 23.949219 L 25.953125 23.949219 Z M 25.953125 23.59375 L 24.859375 23.59375 C 24.636719 22.785156 24.132812 22.078125 23.429688 21.585938 L 25.953125 21.585938 Z M 25.953125 21.230469 L 23.808594 21.230469 C 23.914062 21.070312 23.976562 20.878906 23.976562 20.675781 L 23.976562 19.226562 L 25.953125 19.226562 Z M 25.953125 18.867188 L 23.96875 18.867188 C 23.941406 18.632812 23.832031 18.417969 23.667969 18.261719 L 23.667969 16.863281 L 25.953125 16.863281 Z M 25.953125 16.507812 L 23.667969 16.507812 L 23.667969 14.5 L 25.953125 14.5 Z M 25.953125 14.144531 L 18.820312 14.144531 L 18.820312 12.140625 L 25.953125 12.140625 Z M 25.953125 14.144531 " fill-opacity="1" fill-rule="nonzero"/></g></svg>