<svg xmlns="http://www.w3.org/2000/svg" xmlns:xlink="http://www.w3.org/1999/xlink" width="38" zoomAndPan="magnify" viewBox="0 0 28.5 38.999999" height="52" preserveAspectRatio="xMidYMid meet" version="1.0"><defs><clipPath id="927be7daf6"><path d="M 0.199219 0.367188 L 28 0.367188 L 28 37.960938 L 0.199219 37.960938 Z M 0.199219 0.367188 " clip-rule="nonzero"/></clipPath></defs><g clip-path="url(#927be7daf6)"><path fill="#0f4482" d="M 26.605469 36.199219 C 26.605469 36.546875 26.324219 36.828125 25.976562 36.828125 L 2.089844 36.828125 C 1.746094 36.828125 1.460938 36.546875 1.460938 36.199219 L 1.460938 9.949219 C 1.460938 9.898438 1.472656 9.847656 1.476562 9.796875 L 7.75 9.796875 C 8.789062 9.796875 9.632812 8.953125 9.632812 7.910156 L 9.632812 1.640625 C 9.6875 1.636719 9.734375 1.625 9.785156 1.625 L 25.976562 1.625 C 26.324219 1.625 26.605469 1.90625 26.605469 2.253906 Z M 8.378906 2.515625 L 8.378906 7.910156 C 8.378906 8.257812 8.09375 8.539062 7.75 8.539062 L 2.351562 8.539062 Z M 25.976562 0.367188 L 9.785156 0.367188 C 9.125 0.367188 8.476562 0.636719 8.007812 1.105469 L 0.941406 8.171875 C 0.472656 8.640625 0.203125 9.289062 0.203125 9.949219 L 0.203125 36.199219 C 0.203125 37.242188 1.050781 38.085938 2.089844 38.085938 L 25.976562 38.085938 C 27.019531 38.085938 27.863281 37.242188 27.863281 36.199219 L 27.863281 2.253906 C 27.863281 1.214844 27.019531 0.367188 25.976562 0.367188 " fill-opacity="1" fill-rule="nonzero"/></g><path fill="#0f4482" d="M 14.011719 12.296875 L 16.496094 15.457031 L 15.289062 15.457031 C 14.941406 15.457031 14.660156 15.738281 14.660156 16.085938 L 14.660156 26.140625 L 13.402344 26.140625 L 13.402344 16.085938 C 13.402344 15.738281 13.125 15.457031 12.773438 15.457031 L 11.558594 15.476562 Z M 11.472656 16.710938 C 11.476562 16.710938 11.484375 16.710938 11.488281 16.710938 L 12.144531 16.710938 L 12.144531 26.140625 C 12.144531 26.835938 12.710938 27.398438 13.402344 27.398438 L 14.660156 27.398438 C 15.355469 27.398438 15.917969 26.835938 15.917969 26.140625 L 15.917969 16.710938 L 16.585938 16.710938 C 17.054688 16.710938 17.476562 16.453125 17.679688 16.03125 C 17.886719 15.621094 17.835938 15.136719 17.550781 14.765625 L 14.996094 11.519531 C 14.53125 10.925781 13.539062 10.925781 13.066406 11.523438 L 10.523438 14.761719 C 10.234375 15.125 10.179688 15.609375 10.386719 16.03125 C 10.59375 16.453125 11.007812 16.710938 11.472656 16.710938 " fill-opacity="1" fill-rule="nonzero"/><path fill="#0f4482" d="M 21.578125 14.828125 L 19.691406 14.828125 C 19.347656 14.828125 19.0625 15.109375 19.0625 15.457031 C 19.0625 15.800781 19.347656 16.085938 19.691406 16.085938 L 21.578125 16.085938 C 21.925781 16.085938 22.207031 16.367188 22.207031 16.710938 L 22.207031 30.542969 C 22.207031 30.886719 21.925781 31.171875 21.578125 31.171875 L 6.492188 31.171875 C 6.144531 31.171875 5.863281 30.886719 5.863281 30.542969 L 5.863281 16.710938 C 5.863281 16.367188 6.144531 16.085938 6.492188 16.085938 L 8.378906 16.085938 C 8.722656 16.085938 9.003906 15.800781 9.003906 15.457031 C 9.003906 15.109375 8.722656 14.828125 8.378906 14.828125 L 6.492188 14.828125 C 5.449219 14.828125 4.605469 15.671875 4.605469 16.710938 L 4.605469 30.542969 C 4.605469 31.582031 5.449219 32.429688 6.492188 32.429688 L 21.578125 32.429688 C 22.621094 32.429688 23.464844 31.582031 23.464844 30.542969 L 23.464844 16.710938 C 23.464844 15.671875 22.621094 14.828125 21.578125 14.828125 " fill-opacity="1" fill-rule="nonzero"/></svg>