<svg xmlns="http://www.w3.org/2000/svg" xmlns:xlink="http://www.w3.org/1999/xlink" width="37" zoomAndPan="magnify" viewBox="0 0 27.75 22.5" height="30" preserveAspectRatio="xMidYMid meet" version="1.0"><defs><g/><clipPath id="11fb9333e0"><path d="M 3.222656 0.167969 L 24.605469 0.167969 L 24.605469 21.550781 L 3.222656 21.550781 Z M 3.222656 0.167969 " clip-rule="nonzero"/></clipPath><clipPath id="72e2096ad8"><path d="M 13.914062 0.167969 C 19.820312 0.167969 24.605469 4.953125 24.605469 10.859375 C 24.605469 16.761719 19.820312 21.550781 13.914062 21.550781 C 8.007812 21.550781 3.222656 16.761719 3.222656 10.859375 C 3.222656 4.953125 8.007812 0.167969 13.914062 0.167969 Z M 13.914062 0.167969 " clip-rule="nonzero"/></clipPath></defs><g clip-path="url(#11fb9333e0)"><g clip-path="url(#72e2096ad8)"><path fill="#2298d5" d="M 3.222656 0.167969 L 24.605469 0.167969 L 24.605469 21.550781 L 3.222656 21.550781 Z M 3.222656 0.167969 " fill-opacity="1" fill-rule="nonzero"/></g></g><g fill="#fdfdfd" fill-opacity="1"><g transform="translate(10.750364, 14.285022)"><g><path d="M 1.125 -4.015625 L 1.53125 -8 L 5.640625 -8 L 5.640625 -7.0625 L 2.40625 -7.0625 L 2.15625 -4.875 C 2.550781 -5.101562 3 -5.21875 3.5 -5.21875 C 4.226562 -5.21875 4.804688 -4.976562 5.234375 -4.5 C 5.660156 -4.019531 5.875 -3.367188 5.875 -2.546875 C 5.875 -1.722656 5.648438 -1.070312 5.203125 -0.59375 C 4.753906 -0.125 4.132812 0.109375 3.34375 0.109375 C 2.632812 0.109375 2.054688 -0.0820312 1.609375 -0.46875 C 1.160156 -0.863281 0.90625 -1.410156 0.84375 -2.109375 L 1.8125 -2.109375 C 1.875 -1.648438 2.035156 -1.300781 2.296875 -1.0625 C 2.554688 -0.832031 2.90625 -0.71875 3.34375 -0.71875 C 3.8125 -0.71875 4.179688 -0.878906 4.453125 -1.203125 C 4.722656 -1.523438 4.859375 -1.96875 4.859375 -2.53125 C 4.859375 -3.070312 4.710938 -3.503906 4.421875 -3.828125 C 4.128906 -4.148438 3.738281 -4.3125 3.25 -4.3125 C 2.8125 -4.3125 2.46875 -4.210938 2.21875 -4.015625 L 1.9375 -3.796875 Z M 1.125 -4.015625 "/></g></g></g></svg>