<svg xmlns="http://www.w3.org/2000/svg" xmlns:xlink="http://www.w3.org/1999/xlink" width="38" zoomAndPan="magnify" viewBox="0 0 28.5 22.5" height="30" preserveAspectRatio="xMidYMid meet" version="1.0"><defs><g/><clipPath id="1f5f4f8b1e"><path d="M 3.3125 0.222656 L 24.695312 0.222656 L 24.695312 21.605469 L 3.3125 21.605469 Z M 3.3125 0.222656 " clip-rule="nonzero"/></clipPath><clipPath id="663bd8dfb1"><path d="M 14.003906 0.222656 C 19.910156 0.222656 24.695312 5.007812 24.695312 10.914062 C 24.695312 16.816406 19.910156 21.605469 14.003906 21.605469 C 8.101562 21.605469 3.3125 16.816406 3.3125 10.914062 C 3.3125 5.007812 8.101562 0.222656 14.003906 0.222656 Z M 14.003906 0.222656 " clip-rule="nonzero"/></clipPath></defs><g clip-path="url(#1f5f4f8b1e)"><g clip-path="url(#663bd8dfb1)"><path fill="#2298d5" d="M 3.3125 0.222656 L 24.695312 0.222656 L 24.695312 21.605469 L 3.3125 21.605469 Z M 3.3125 0.222656 " fill-opacity="1" fill-rule="nonzero"/></g></g><g fill="#fdfdfd" fill-opacity="1"><g transform="translate(10.841676, 14.339867)"><g><path d="M 4.953125 -2.6875 L 6.0625 -2.6875 L 6.0625 -1.859375 L 4.953125 -1.859375 L 4.953125 0 L 3.9375 0 L 3.9375 -1.859375 L 0.296875 -1.859375 L 0.296875 -2.453125 L 3.875 -8 L 4.953125 -8 Z M 1.4375 -2.6875 L 3.9375 -2.6875 L 3.9375 -6.609375 L 3.8125 -6.390625 Z M 1.4375 -2.6875 "/></g></g></g></svg>