<svg xmlns="http://www.w3.org/2000/svg" xmlns:xlink="http://www.w3.org/1999/xlink" width="37" zoomAndPan="magnify" viewBox="0 0 27.75 22.5" height="30" preserveAspectRatio="xMidYMid meet" version="1.0"><defs><g/><clipPath id="3dd1cb5ac6"><path d="M 3.222656 0.148438 L 24.605469 0.148438 L 24.605469 21.53125 L 3.222656 21.53125 Z M 3.222656 0.148438 " clip-rule="nonzero"/></clipPath><clipPath id="f2dbf1043a"><path d="M 13.914062 0.148438 C 19.820312 0.148438 24.605469 4.933594 24.605469 10.839844 C 24.605469 16.742188 19.820312 21.53125 13.914062 21.53125 C 8.007812 21.53125 3.222656 16.742188 3.222656 10.839844 C 3.222656 4.933594 8.007812 0.148438 13.914062 0.148438 Z M 13.914062 0.148438 " clip-rule="nonzero"/></clipPath></defs><g clip-path="url(#3dd1cb5ac6)"><g clip-path="url(#f2dbf1043a)"><path fill="#2298d5" d="M 3.222656 0.148438 L 24.605469 0.148438 L 24.605469 21.53125 L 3.222656 21.53125 Z M 3.222656 0.148438 " fill-opacity="1" fill-rule="nonzero"/></g></g><g fill="#fdfdfd" fill-opacity="1"><g transform="translate(10.750364, 14.26506)"><g><path d="M 4 0 L 2.984375 0 L 2.984375 -6.765625 L 0.9375 -6.015625 L 0.9375 -6.9375 L 3.84375 -8.03125 L 4 -8.03125 Z M 4 0 "/></g></g></g></svg>