<svg xmlns="http://www.w3.org/2000/svg" xmlns:xlink="http://www.w3.org/1999/xlink" width="37" zoomAndPan="magnify" viewBox="0 0 27.75 22.5" height="30" preserveAspectRatio="xMidYMid meet" version="1.0"><defs><g/><clipPath id="1ebe94e2ff"><path d="M 3.292969 0 L 24.675781 0 L 24.675781 21.382812 L 3.292969 21.382812 Z M 3.292969 0 " clip-rule="nonzero"/></clipPath><clipPath id="7cdf9200ec"><path d="M 13.984375 0 C 19.890625 0 24.675781 4.785156 24.675781 10.691406 C 24.675781 16.597656 19.890625 21.382812 13.984375 21.382812 C 8.082031 21.382812 3.292969 16.597656 3.292969 10.691406 C 3.292969 4.785156 8.082031 0 13.984375 0 Z M 13.984375 0 " clip-rule="nonzero"/></clipPath></defs><g clip-path="url(#1ebe94e2ff)"><g clip-path="url(#7cdf9200ec)"><path fill="#2298d5" d="M 3.292969 0 L 24.675781 0 L 24.675781 21.382812 L 3.292969 21.382812 Z M 3.292969 0 " fill-opacity="1" fill-rule="nonzero"/></g></g><g fill="#fdfdfd" fill-opacity="1"><g transform="translate(10.821649, 14.117958)"><g><path d="M 5.828125 -7.421875 L 2.515625 0 L 1.453125 0 L 4.75 -7.15625 L 0.421875 -7.15625 L 0.421875 -8 L 5.828125 -8 Z M 5.828125 -7.421875 "/></g></g></g></svg>