<svg xmlns="http://www.w3.org/2000/svg" xmlns:xlink="http://www.w3.org/1999/xlink" width="38" zoomAndPan="magnify" viewBox="0 0 28.5 22.5" height="30" preserveAspectRatio="xMidYMid meet" version="1.0"><defs><g/><clipPath id="9cab0b77e5"><path d="M 3.347656 0 L 24.730469 0 L 24.730469 21.382812 L 3.347656 21.382812 Z M 3.347656 0 " clip-rule="nonzero"/></clipPath><clipPath id="bb1f509d4c"><path d="M 14.039062 0 C 19.941406 0 24.730469 4.785156 24.730469 10.691406 C 24.730469 16.597656 19.941406 21.382812 14.039062 21.382812 C 8.132812 21.382812 3.347656 16.597656 3.347656 10.691406 C 3.347656 4.785156 8.132812 0 14.039062 0 Z M 14.039062 0 " clip-rule="nonzero"/></clipPath></defs><g clip-path="url(#9cab0b77e5)"><g clip-path="url(#bb1f509d4c)"><path fill="#2298d5" d="M 3.347656 0 L 24.730469 0 L 24.730469 21.382812 L 3.347656 21.382812 Z M 3.347656 0 " fill-opacity="1" fill-rule="nonzero"/></g></g><g fill="#fdfdfd" fill-opacity="1"><g transform="translate(10.874717, 14.117958)"><g><path d="M 4.65625 -8 L 4.65625 -7.140625 L 4.46875 -7.140625 C 3.675781 -7.128906 3.046875 -6.894531 2.578125 -6.4375 C 2.109375 -5.976562 1.835938 -5.335938 1.765625 -4.515625 C 2.179688 -5.003906 2.753906 -5.25 3.484375 -5.25 C 4.179688 -5.25 4.738281 -5.003906 5.15625 -4.515625 C 5.570312 -4.023438 5.78125 -3.390625 5.78125 -2.609375 C 5.78125 -1.785156 5.554688 -1.125 5.109375 -0.625 C 4.660156 -0.132812 4.054688 0.109375 3.296875 0.109375 C 2.535156 0.109375 1.914062 -0.179688 1.4375 -0.765625 C 0.957031 -1.359375 0.71875 -2.117188 0.71875 -3.046875 L 0.71875 -3.4375 C 0.71875 -4.90625 1.03125 -6.023438 1.65625 -6.796875 C 2.289062 -7.578125 3.226562 -7.976562 4.46875 -8 Z M 3.3125 -4.40625 C 2.96875 -4.40625 2.648438 -4.300781 2.359375 -4.09375 C 2.066406 -3.882812 1.863281 -3.617188 1.75 -3.296875 L 1.75 -2.921875 C 1.75 -2.265625 1.894531 -1.734375 2.1875 -1.328125 C 2.488281 -0.929688 2.859375 -0.734375 3.296875 -0.734375 C 3.753906 -0.734375 4.113281 -0.898438 4.375 -1.234375 C 4.644531 -1.566406 4.78125 -2.007812 4.78125 -2.5625 C 4.78125 -3.113281 4.644531 -3.554688 4.375 -3.890625 C 4.113281 -4.234375 3.757812 -4.40625 3.3125 -4.40625 Z M 3.3125 -4.40625 "/></g></g></g></svg>