<svg xmlns="http://www.w3.org/2000/svg" xmlns:xlink="http://www.w3.org/1999/xlink" width="37" zoomAndPan="magnify" viewBox="0 0 27.75 22.5" height="30" preserveAspectRatio="xMidYMid meet" version="1.0"><defs><g/><clipPath id="f7d9b96b11"><path d="M 3.222656 0.117188 L 24.605469 0.117188 L 24.605469 21.5 L 3.222656 21.5 Z M 3.222656 0.117188 " clip-rule="nonzero"/></clipPath><clipPath id="3d75ef6d53"><path d="M 13.914062 0.117188 C 19.820312 0.117188 24.605469 4.902344 24.605469 10.808594 C 24.605469 16.710938 19.820312 21.5 13.914062 21.5 C 8.007812 21.5 3.222656 16.710938 3.222656 10.808594 C 3.222656 4.902344 8.007812 0.117188 13.914062 0.117188 Z M 13.914062 0.117188 " clip-rule="nonzero"/></clipPath></defs><g clip-path="url(#f7d9b96b11)"><g clip-path="url(#3d75ef6d53)"><path fill="#2298d5" d="M 3.222656 0.117188 L 24.605469 0.117188 L 24.605469 21.5 L 3.222656 21.5 Z M 3.222656 0.117188 " fill-opacity="1" fill-rule="nonzero"/></g></g><g fill="#fdfdfd" fill-opacity="1"><g transform="translate(10.750364, 14.234499)"><g><path d="M 2.140625 -4.5 L 2.90625 -4.5 C 3.382812 -4.5 3.757812 -4.617188 4.03125 -4.859375 C 4.3125 -5.109375 4.453125 -5.441406 4.453125 -5.859375 C 4.453125 -6.796875 3.984375 -7.265625 3.046875 -7.265625 C 2.609375 -7.265625 2.257812 -7.140625 2 -6.890625 C 1.738281 -6.640625 1.609375 -6.3125 1.609375 -5.90625 L 0.59375 -5.90625 C 0.59375 -6.53125 0.820312 -7.050781 1.28125 -7.46875 C 1.75 -7.894531 2.335938 -8.109375 3.046875 -8.109375 C 3.804688 -8.109375 4.398438 -7.90625 4.828125 -7.5 C 5.253906 -7.101562 5.46875 -6.550781 5.46875 -5.84375 C 5.46875 -5.5 5.351562 -5.160156 5.125 -4.828125 C 4.90625 -4.503906 4.597656 -4.265625 4.203125 -4.109375 C 4.640625 -3.960938 4.976562 -3.726562 5.21875 -3.40625 C 5.46875 -3.082031 5.59375 -2.691406 5.59375 -2.234375 C 5.59375 -1.515625 5.359375 -0.941406 4.890625 -0.515625 C 4.421875 -0.0976562 3.804688 0.109375 3.046875 0.109375 C 2.296875 0.109375 1.6875 -0.09375 1.21875 -0.5 C 0.75 -0.90625 0.515625 -1.441406 0.515625 -2.109375 L 1.53125 -2.109375 C 1.53125 -1.691406 1.664062 -1.351562 1.9375 -1.09375 C 2.21875 -0.84375 2.585938 -0.71875 3.046875 -0.71875 C 3.546875 -0.71875 3.925781 -0.84375 4.1875 -1.09375 C 4.445312 -1.351562 4.578125 -1.722656 4.578125 -2.203125 C 4.578125 -2.671875 4.429688 -3.03125 4.140625 -3.28125 C 3.859375 -3.53125 3.445312 -3.65625 2.90625 -3.65625 L 2.140625 -3.65625 Z M 2.140625 -4.5 "/></g></g></g></svg>