<svg xmlns="http://www.w3.org/2000/svg" xmlns:xlink="http://www.w3.org/1999/xlink" width="37" zoomAndPan="magnify" viewBox="0 0 27.75 22.5" height="30" preserveAspectRatio="xMidYMid meet" version="1.0"><defs><g/><clipPath id="951b44289f"><path d="M 3.222656 0.0195312 L 24.605469 0.0195312 L 24.605469 21.402344 L 3.222656 21.402344 Z M 3.222656 0.0195312 " clip-rule="nonzero"/></clipPath><clipPath id="4b475dfb2a"><path d="M 13.914062 0.0195312 C 19.820312 0.0195312 24.605469 4.804688 24.605469 10.710938 C 24.605469 16.613281 19.820312 21.402344 13.914062 21.402344 C 8.007812 21.402344 3.222656 16.613281 3.222656 10.710938 C 3.222656 4.804688 8.007812 0.0195312 13.914062 0.0195312 Z M 13.914062 0.0195312 " clip-rule="nonzero"/></clipPath></defs><g clip-path="url(#951b44289f)"><g clip-path="url(#4b475dfb2a)"><path fill="#2298d5" d="M 3.222656 0.0195312 L 24.605469 0.0195312 L 24.605469 21.402344 L 3.222656 21.402344 Z M 3.222656 0.0195312 " fill-opacity="1" fill-rule="nonzero"/></g></g><g fill="#fdfdfd" fill-opacity="1"><g transform="translate(10.750364, 14.136668)"><g><path d="M 5.90625 0 L 0.671875 0 L 0.671875 -0.734375 L 3.4375 -3.8125 C 3.84375 -4.269531 4.125 -4.644531 4.28125 -4.9375 C 4.4375 -5.226562 4.515625 -5.53125 4.515625 -5.84375 C 4.515625 -6.257812 4.382812 -6.597656 4.125 -6.859375 C 3.875 -7.128906 3.539062 -7.265625 3.125 -7.265625 C 2.625 -7.265625 2.234375 -7.117188 1.953125 -6.828125 C 1.671875 -6.546875 1.53125 -6.148438 1.53125 -5.640625 L 0.515625 -5.640625 C 0.515625 -6.378906 0.75 -6.972656 1.21875 -7.421875 C 1.695312 -7.878906 2.332031 -8.109375 3.125 -8.109375 C 3.863281 -8.109375 4.445312 -7.910156 4.875 -7.515625 C 5.3125 -7.128906 5.53125 -6.613281 5.53125 -5.96875 C 5.53125 -5.175781 5.03125 -4.238281 4.03125 -3.15625 L 1.890625 -0.828125 L 5.90625 -0.828125 Z M 5.90625 0 "/></g></g></g></svg>