<svg width="18" height="18" viewBox="0 0 18 18" fill="none" xmlns="http://www.w3.org/2000/svg">
<g clip-path="url(#clip0_1259_5)">
<path d="M9 0C6.61305 0 4.32387 0.948212 2.63604 2.63604C0.948212 4.32387 0 6.61305 0 9C0 11.3869 0.948212 13.6761 2.63604 15.364C4.32387 17.0518 6.61305 18 9 18C11.3869 18 13.6761 17.0518 15.364 15.364C17.0518 13.6761 18 11.3869 18 9C18 6.61305 17.0518 4.32387 15.364 2.63604C13.6761 0.948212 11.3869 0 9 0Z" fill="#E74C3C"/>
<path d="M9.00014 9.01462C7.72736 8.50059 7.11864 6.89209 7.64989 5.62546C7.94011 4.93189 9.01367 3.97638 10.3332 4.30595C9.82407 4.56173 9.48097 4.91344 9.813 5.41394C10.177 5.96487 10.0061 6.79248 9.29897 7.12451C8.74928 7.38399 8.26599 8.34318 9.00014 9.01462Z" fill="white"/>
<path d="M8.97924 9.03924C8.71116 8.82158 8.28198 8.58793 8.17499 7.71481L8.15778 7.43566C8.15778 6.73102 8.49964 6.32767 8.5021 6.32521L8.54755 6.32127L8.54952 6.36554C8.55051 6.36554 8.46836 6.46028 8.38597 6.64223C8.30353 6.82547 8.21995 7.09355 8.21995 7.43542L8.23717 7.70719C8.34416 8.56063 8.74259 8.76354 9.01928 8.98858L9.0242 9.03403L8.99961 9.04515L8.97875 9.03924" fill="#E74C3C"/>
<path d="M8.59799 5.57748L8.81565 5.77178L9.06898 5.62421L8.95215 5.8923L9.16982 6.08783L8.8796 6.05831L8.76031 6.32639L8.69883 6.0411L8.40738 6.01158L8.65948 5.86279L8.59799 5.57748Z" fill="#E74C3C"/>
<path d="M9.00012 9.0146C9.09973 7.64467 10.4438 6.57234 11.8113 6.68917C12.5602 6.75311 13.7998 7.48112 13.8896 8.83752C13.4911 8.43048 13.0509 8.21281 12.6758 8.68257C12.2651 9.19661 11.4239 9.28883 10.8915 8.71947C10.4758 8.27307 9.41454 8.10952 9.00012 9.0146Z" fill="white"/>
<path d="M8.9706 9.00357C9.09604 8.68015 9.18581 8.19933 9.98391 7.8304L10.2434 7.72833C10.9148 7.5119 11.4043 7.71358 11.4079 7.71604L11.4239 7.75657L11.3834 7.77379C11.3824 7.77379 11.2678 7.72588 11.0685 7.70246C10.8693 7.68033 10.5902 7.68279 10.2631 7.78736L10.011 7.88697C9.23131 8.25097 9.15998 8.69245 9.02963 9.02571L8.9891 9.04293L8.96942 9.02443L8.9704 9.00348" fill="#E74C3C"/>
<path d="M12.147 7.57708L12.0301 7.84394L12.2478 8.03947L11.9576 8.01123L11.8383 8.27809L11.7768 7.99155L11.4841 7.96322L11.7387 7.81442L11.676 7.52789L11.8949 7.72342L12.147 7.57708" fill="#E74C3C"/>
<path d="M9.00012 9.01464C10.3344 8.68876 11.767 9.63811 12.0769 10.9761C12.2442 11.709 11.9306 13.1109 10.6676 13.6139C10.9333 13.1097 11.0058 12.6252 10.4438 12.4112C9.82774 12.1775 9.48218 11.4052 9.86217 10.7227C10.1585 10.1903 9.9876 9.13023 9.00012 9.01464Z" fill="white"/>
<path d="M9.00257 8.98389C9.34813 9.00238 9.83265 8.93962 10.4291 9.58769L10.6049 9.80289C11.0181 10.376 10.9751 10.9035 10.9751 10.9072L10.9406 10.9354L10.9123 10.9023C10.9113 10.9023 10.9221 10.7768 10.8828 10.5813C10.8434 10.3846 10.7537 10.1177 10.5545 9.83978L10.3835 9.6295C9.79693 8.99864 9.35546 9.06751 8.99883 9.04537L8.96814 9.0134L8.9829 8.98881L9.00257 8.98389Z" fill="#E74C3C"/>
<path d="M11.3342 11.5688L11.0439 11.5393L10.9247 11.8061L10.8632 11.5208L10.5717 11.4902L10.825 11.3438L10.7636 11.0573L10.9824 11.2528L11.2358 11.1052L11.1165 11.3733L11.3342 11.5689" fill="#E74C3C"/>
<path d="M9.00006 9.01465C9.72192 10.1841 9.25585 11.8394 8.07653 12.544C7.43091 12.9301 5.9995 13.0617 5.13376 12.0128C5.69575 12.1111 6.18027 12.03 6.20978 11.4299C6.24303 10.7732 6.87261 10.2063 7.63751 10.3588C8.23639 10.4768 9.19313 9.98983 9.00006 9.01465Z" fill="white"/>
<path d="M9.03085 9.00602C9.11821 9.34174 9.32598 9.78322 8.89312 10.5506L8.74186 10.7842C8.32375 11.3524 7.80849 11.4741 7.8048 11.4741L7.76672 11.4508L7.79014 11.4139C7.79014 11.4129 7.91188 11.3856 8.08651 11.2872C8.26236 11.1901 8.48863 11.0228 8.69154 10.7474L8.83788 10.5199C9.25968 9.76851 9.05923 9.36884 8.96946 9.02206L8.99405 8.98389L9.01865 8.98881L9.03095 9.00602" fill="#E74C3C"/>
<path d="M7.28455 12.0201L7.22425 11.7324L6.9328 11.7028L7.18736 11.5565L7.12587 11.27L7.34353 11.4655L7.59809 11.3204L7.47757 11.5872L7.69524 11.784L7.40379 11.752L7.28451 12.0201" fill="#E74C3C"/>
<path d="M9.00015 9.0146C8.10736 10.0587 6.39064 10.1226 5.35889 9.21751C4.79321 8.72192 4.22876 7.39995 4.96045 6.25507C5.04044 6.81952 5.26543 7.25484 5.84464 7.0999C6.48164 6.93019 7.21334 7.35568 7.30311 8.13165C7.37315 8.73545 8.13072 9.49666 9.00015 9.0146Z" fill="white"/>
<path d="M9.01611 9.04166C8.72589 9.22735 8.36804 9.56061 7.50599 9.38353L7.23545 9.31092C6.5677 9.08711 6.29347 8.63457 6.29224 8.63211V8.63112L6.30207 8.58803L6.34516 8.59914C6.34615 8.59914 6.41029 8.70613 6.55545 8.84263C6.70302 8.97913 6.93175 9.14269 7.2564 9.25214L7.51834 9.321C8.36194 9.49071 8.68167 9.17835 8.98419 8.98774L9.02718 8.99758L9.02914 9.02464L9.01557 9.04185" fill="#E74C3C"/>
<path d="M5.61345 8.30382L5.86801 8.15872L5.8077 7.87096L6.02537 8.06771L6.27992 7.92261L6.15818 8.18946L6.37584 8.38622L6.08562 8.35425L5.96388 8.62356L5.90485 8.3358L5.6134 8.30382" fill="#E74C3C"/>
</g>
<defs>
<clipPath id="clip0_1259_5">
<rect width="18" height="18" fill="white"/>
</clipPath>
</defs>
</svg>
