<svg xmlns="http://www.w3.org/2000/svg" xmlns:xlink="http://www.w3.org/1999/xlink" width="240" height="419" viewBox="0 0 240 419">
    <defs>
        <path id="a" d="M.353.561h239.492V28.75H.353z"/>
        <path id="c" d="M3.657.058l12.484 5.07-6.026 10.659-7.085-3.633L.578 6.012z"/>
        <linearGradient id="d" x1="-.003%" x2="99.998%" y1="49.997%" y2="49.997%">
            <stop offset="0%" stop-color="#F9E8DB"/>
            <stop offset="100%" stop-color="#F9B8AA"/>
        </linearGradient>
        <path id="f" d="M1.434 2.864c3.423.327 6.327 1.876 8.688 4.597.97 1.12 2.363-.724 1.407-1.824C8.934 2.643 5.543.868 1.783.508a1.034 1.034 0 0 0-.111-.006C.37.502.063 2.732 1.434 2.864"/>
        <linearGradient id="g" x1="-.002%" x2="99.994%" y1="50.013%" y2="50.013%">
            <stop offset="0%" stop-color="#F9E8DB"/>
            <stop offset="100%" stop-color="#F9B8AA"/>
        </linearGradient>
        <path id="i" d="M1.126 2.382c4.17.395 7.725 2.263 10.598 5.536.981 1.121 2.39-.722 1.424-1.825C10.038 2.547 5.987.455 1.48.03a1.124 1.124 0 0 0-.114-.006c-1.317 0-1.629 2.228-.24 2.36"/>
        <linearGradient id="j" x1=".002%" x2="100.007%" y1="50.001%" y2="50.001%">
            <stop offset="0%" stop-color="#F9E8DB"/>
            <stop offset="100%" stop-color="#F9B8AA"/>
        </linearGradient>
        <path id="l" d="M1.699 3.11c4.097.395 7.588 2.263 10.41 5.536.963 1.12 2.35-.722 1.399-1.825-3.055-3.544-7.032-5.64-11.46-6.066C2.01.751 1.971.751 1.936.751c-1.292 0-1.6 2.228-.238 2.36"/>
        <linearGradient id="m" x1="0%" x2="100.001%" y1="50%" y2="50%">
            <stop offset="0%" stop-color="#F9E8DB"/>
            <stop offset="100%" stop-color="#F9B8AA"/>
        </linearGradient>
        <path id="o" d="M1.364 2.805c4.066 1.104 7.312 3.48 9.532 6.772.79 1.168 2.68-.062 1.896-1.223-2.57-3.807-6.39-6.38-11.058-7.646A1.345 1.345 0 0 0 1.398.66C.258.66.066 2.455 1.364 2.805"/>
        <linearGradient id="p" x1="-.005%" x2="100.005%" y1="50%" y2="50%">
            <stop offset="0%" stop-color="#F9E8DB"/>
            <stop offset="100%" stop-color="#F9B8AA"/>
        </linearGradient>
        <path id="r" d="M4.92 1.443C-.707 4.577-.798 12.198 2.155 17.836L28.807 74.83c.993 2.357 61.331-9.696 61.331-9.696l2.737-6.915-52.594-.38L21.478 9.978C19.475 4.648 14.515.272 9.359.272A9.038 9.038 0 0 0 4.92 1.443"/>
        <linearGradient id="s" x1="54.561%" x2="40.889%" y1="36.551%" y2="64.747%">
            <stop offset="0%" stop-color="#F9E8DB"/>
            <stop offset="100%" stop-color="#F9B8AA"/>
        </linearGradient>
        <path id="u" d="M.147 16.07l52.536 60.912v23.039l19.93 52.736 8.17 2.15L65.19 73.743S33.899 1.695 30.97.592L.148 16.07z"/>
        <linearGradient id="v" x1="56.807%" x2="46.381%" y1="126.136%" y2="17.204%">
            <stop offset="0%" stop-color="#008CA7"/>
            <stop offset="100%" stop-color="#002856"/>
        </linearGradient>
        <path id="x" d="M5.165.427C1.863 1.247.15 7.467.245 9.992c.243 6.504.781 15.148 4.514 20.181 10.392 14.002 95.26 24.637 95.26 24.637l-17.91 21.157-19.58 56.64 5.889 5.353 55.11-93.993S49.368 4.257 27.366 5.758c-3.854.265-7.772-1.238-11.432-2.739C12.56 1.633 9.402.246 6.724.246c-.54 0-1.06.057-1.56.181"/>
        <linearGradient id="y" x1="38.689%" x2="99.735%" y1="-17.488%" y2="198.652%">
            <stop offset="0%" stop-color="#008CA7"/>
            <stop offset="100%" stop-color="#002856"/>
        </linearGradient>
        <path id="A" d="M29.136 26.561c-1.01 8.441-1.63 16.916-2.41 25.378-.472 5.114-.083 12.497-2.67 17.14-4.537 8.15-15.602 26.377-21.895 36.805-2.129 3.529-3.014 7.411 1.117 7.68l55.456 3.629s1.39-22.391.01-34.82c-.976-8.768 2.7-14.209 5.261-22.498 1.182-3.83 1.56-5.812 4.419-8.979 2.759-3.062 7.911-6.648 8.915-10.919 2.104-8.953-6.181-17.142-11.07-24.578-3.31-5.04-4.69-14.276-11.245-15.055a21.925 21.925 0 0 0-2.58-.156c-14.038 0-21.854 14.223-23.308 26.373"/>
        <linearGradient id="B" x1=".001%" y1="50%" y2="50%">
            <stop offset="0%" stop-color="#FF7957"/>
            <stop offset="100%" stop-color="#D81A60"/>
        </linearGradient>
        <path id="D" d="M14.562 8.322c-1.566 4.815-5.174 8.106-5.174 8.106.108-5.985-5.111-4.45-6.38-3.147-1.27 1.305-1.518 3.46-.644 5.054.876 1.595 2.63 2.785 4.44 2.593L.21 43.755c3.534 2.072 7.235 3.83 10.868 5.687a8.399 8.399 0 0 0 1.66-3.058c1.526-4.996 4.986-9.462 6.533-9.045 3.097.843 6.065 3.789 9 2.483 2.288-1.016 2.804-3.97 2.97-6.465.161-2.494.547-5.433 2.755-6.61 1.432-.767 3.71-1.002 3.748-2.626.03-1.224-1.366-1.878-2.306-2.662-1.934-1.61-2.208-4.51-1.693-6.975.513-2.464 1.65-4.779 2-7.27.354-2.49-.336-5.41-2.545-6.618 0 0-1.85-.342-4.4-.342-4.774 0-12.009 1.197-14.24 8.068"/>
        <linearGradient id="E" x1=".003%" x2="100.003%" y1="49.999%" y2="49.999%">
            <stop offset="0%" stop-color="#F9E8DB"/>
            <stop offset="100%" stop-color="#F9B8AA"/>
        </linearGradient>
        <path id="G" d="M8.648.13c-2.65.12-5.196.96-7.702 1.79C.53 3.172.11 4.44.072 5.75.03 7.06.416 8.44 1.404 9.35c1.18 1.085 2.94 1.301 4.572 1.465 5.49.544 10.98 1.09 16.472 1.638a5780.982 5780.982 0 0 0-4.88-7.667c-.494-.778-.992-1.56-1.642-2.222C14.238.846 11.69.117 9.208.117c-.188 0-.374.004-.56.013"/>
        <linearGradient id="H" x1="-.01%" x2="100.003%" y1="49.997%" y2="49.997%">
            <stop offset="0%" stop-color="#FF7957"/>
            <stop offset="100%" stop-color="#D81A60"/>
        </linearGradient>
        <path id="J" d="M.075 5.824l1.586 6.193 6.519 4.407 7.433-9.38L3.943.545z"/>
        <linearGradient id="K" x1=".004%" x2="99.995%" y1="50.003%" y2="50.003%">
            <stop offset="0%" stop-color="#F9E8DB"/>
            <stop offset="100%" stop-color="#F9B8AA"/>
        </linearGradient>
        <path id="M" d="M1.01 2.35c3.256.837 5.863 2.805 7.805 5.856.793 1.253 2.361-.364 1.576-1.598C8.261 3.254 5.212.989 1.635.068A1.113 1.113 0 0 0 1.37.035C.232.035-.236 2.028 1.01 2.349"/>
        <linearGradient id="N" x1="-.006%" x2="100.003%" y1="49.994%" y2="49.994%">
            <stop offset="0%" stop-color="#F9E8DB"/>
            <stop offset="100%" stop-color="#F9B8AA"/>
        </linearGradient>
        <path id="P" d="M1.016 2.261c4.276.9 7.714 3.018 10.258 6.289.87 1.116 2.578-.321 1.722-1.425C10.242 3.585 6.322 1.202 1.7.232a1.5 1.5 0 0 0-.292-.031C.166.2-.342 1.977 1.016 2.26"/>
        <linearGradient id="Q" x1=".006%" x2="100.008%" y1="49.999%" y2="49.999%">
            <stop offset="0%" stop-color="#F9E8DB"/>
            <stop offset="100%" stop-color="#F9B8AA"/>
        </linearGradient>
        <path id="S" d="M1.31 2.294c4.276.918 7.716 3.084 10.26 6.43.868 1.141 2.576-.33 1.722-1.458C10.538 3.646 6.616 1.208 1.994.214a1.43 1.43 0 0 0-.288-.032C.46.182-.05 2 1.31 2.295"/>
        <linearGradient id="T" x1=".008%" x2="99.998%" y1="50.002%" y2="50.002%">
            <stop offset="0%" stop-color="#F9E8DB"/>
            <stop offset="100%" stop-color="#F9B8AA"/>
        </linearGradient>
        <path id="V" d="M.728 2.522C4.27 4.171 6.89 7.014 8.454 10.654c.555 1.295 2.44.286 1.89-.998-1.81-4.215-4.926-7.33-8.991-9.223A.98.98 0 0 0 .935.331c-.946 0-1.29 1.684-.207 2.191"/>
        <linearGradient id="W" x1=".001%" x2="100.008%" y1="49.998%" y2="49.998%">
            <stop offset="0%" stop-color="#F9E8DB"/>
            <stop offset="100%" stop-color="#F9B8AA"/>
        </linearGradient>
        <path id="Y" d="M6.693 1.568C.65 3.943-.514 11.558 1.628 17.61l18.494 60.717c.657 2.497 62.437-1.362 62.437-1.362l3.7-6.555-52.315-7.539-11.968-50.504C20.638 6.322 15.722.916 10.066.914a9.169 9.169 0 0 0-3.373.654"/>
        <linearGradient id="Z" x1="-.001%" y1="50%" y2="50%">
            <stop offset="0%" stop-color="#F9E8DB"/>
            <stop offset="100%" stop-color="#F9B8AA"/>
        </linearGradient>
        <path id="ab" d="M.916.238H24.83v43.795H.916z"/>
    </defs>
    <g fill="none" fill-rule="evenodd">
        <g transform="translate(0 390)">
            <mask id="b" fill="#fff">
                <use xlink:href="#a"/>
            </mask>
            <path fill="#005077" d="M211.912 5.322c-44.734-.512-66.366-4.949-111.02-3.947-2.494-1.98-15.563.22-20.146.633-29.37 2.633-48.014 9.04-77.35 12.123-4.058.425-4.058 4.853 0 5.278 21.968 2.31 44.218 1.96 66.344 2.745.27 3.511 3.938 6.685 11.294 6.595 52.165-.634 103.96-2.375 155.954-5.079 11.24-.583-13.53-18.216-25.076-18.348" mask="url(#b)"/>
        </g>
        <g transform="translate(134 180)">
            <mask id="e" fill="#fff">
                <use xlink:href="#c"/>
            </mask>
            <path fill="url(#d)" d="M3.657.058l12.484 5.07-6.026 10.659-7.085-3.633L.578 6.012z" mask="url(#e)"/>
        </g>
        <g transform="translate(146 184)">
            <mask id="h" fill="#fff">
                <use xlink:href="#f"/>
            </mask>
            <path fill="url(#g)" d="M1.434 2.864c3.423.327 6.327 1.876 8.688 4.597.97 1.12 2.363-.724 1.407-1.824C8.934 2.643 5.543.868 1.783.508a1.034 1.034 0 0 0-.111-.006C.37.502.063 2.732 1.434 2.864" mask="url(#h)"/>
        </g>
        <g transform="translate(145 187)">
            <mask id="k" fill="#fff">
                <use xlink:href="#i"/>
            </mask>
            <path fill="url(#j)" d="M1.126 2.382c4.17.395 7.725 2.263 10.598 5.536.981 1.121 2.39-.722 1.424-1.825C10.038 2.547 5.987.455 1.48.03a1.124 1.124 0 0 0-.114-.006c-1.317 0-1.629 2.228-.24 2.36" mask="url(#k)"/>
        </g>
        <g transform="translate(141 189)">
            <mask id="n" fill="#fff">
                <use xlink:href="#l"/>
            </mask>
            <path fill="url(#m)" d="M1.699 3.11c4.097.395 7.588 2.263 10.41 5.536.963 1.12 2.35-.722 1.399-1.825-3.055-3.544-7.032-5.64-11.46-6.066C2.01.751 1.971.751 1.936.751c-1.292 0-1.6 2.228-.238 2.36" mask="url(#n)"/>
        </g>
        <g transform="translate(137 190)">
            <mask id="q" fill="#fff">
                <use xlink:href="#o"/>
            </mask>
            <path fill="url(#p)" d="M1.364 2.805c4.066 1.104 7.312 3.48 9.532 6.772.79 1.168 2.68-.062 1.896-1.223-2.57-3.807-6.39-6.38-11.058-7.646A1.345 1.345 0 0 0 1.398.66C.258.66.066 2.455 1.364 2.805" mask="url(#q)"/>
        </g>
        <g transform="translate(45 121)">
            <mask id="t" fill="#fff">
                <use xlink:href="#r"/>
            </mask>
            <path fill="url(#s)" d="M4.92 1.443C-.707 4.577-.798 12.198 2.155 17.836L28.807 74.83c.993 2.357 61.331-9.696 61.331-9.696l2.737-6.915-52.594-.38L21.478 9.978C19.475 4.648 14.515.272 9.359.272A9.038 9.038 0 0 0 4.92 1.443" mask="url(#t)"/>
        </g>
        <g transform="translate(40 229)">
            <mask id="w" fill="#fff">
                <use xlink:href="#u"/>
            </mask>
            <path fill="url(#v)" d="M.147 16.07l52.536 60.912v23.039l19.93 52.736 8.17 2.15L65.19 73.743S33.899 1.695 30.97.592L.148 16.07z" mask="url(#w)"/>
        </g>
        <path fill="#002856" d="M97.428 395.374l3.117.305 11.509-175.97-3.12-.302zM212.272 395.374l-3.117.305-11.51-175.97 3.12-.302z"/>
        <path fill="#9E9D98" d="M84.932 217.756h139.835v-4.25H84.932z"/>
        <path fill="#002856" d="M97.745 222.008h114.211v-4.252H97.745z"/>
        <path fill="#002856" d="M84.265 409.214l3.83.327 14.146-189.808-3.831-.327zM225.437 409.214l-3.834.327-14.145-189.808 3.831-.327zM6.935 398.183v3.03c0 4.302 15.444 7.786 34.504 7.786 19.056 0 34.5-3.484 34.5-7.786v-3.03c0-4.296-15.444-7.788-34.5-7.788-19.06 0-34.504 3.492-34.504 7.788"/>
        <path fill="#CCCBC4" d="M6.935 398.183c0-4.296 15.444-7.788 34.504-7.788 3.435 0 6.749.116 9.88.325l-15.264 15.156c-16.5-.585-29.12-3.804-29.12-7.693"/>
        <path fill="#9E9D98" d="M75.939 398.183c0 4.304-15.444 7.788-34.5 7.788-1.832 0-3.63-.034-5.384-.095L51.32 390.72c14.237.962 24.62 3.94 24.62 7.463"/>
        <path fill="#002856" d="M40.11 395.805h3.566V243.953H40.11z"/>
        <path fill="#002856" d="M14.09 346.337c0 2.946 10.77 7.225 27.648 7.225s27.647-4.279 27.647-7.225c0-2.947-10.77-7.225-27.647-7.225s-27.647 4.278-27.647 7.225m-3.268 0c0-6.874 15.552-10.47 30.915-10.47s30.916 3.596 30.916 10.47c0 6.874-15.553 10.47-30.916 10.47s-30.915-3.596-30.915-10.47"/>
        <path fill="#9E9D98" d="M75.939 242.637v10.814c0 4.302-15.446 7.788-34.502 7.788-19.054 0-34.501-3.486-34.501-7.788v-10.814h69.003z"/>
        <path fill="#D6D5CA" d="M6.935 242.637c0 4.302 15.448 7.788 34.504 7.788 19.054 0 34.5-3.486 34.5-7.788s-15.446-7.788-34.5-7.788c-19.056 0-34.504 3.486-34.504 7.788"/>
        <path fill="#002856" d="M43.414 128.152c4.343 5.163 10.251 9.006 16.751 10.896 2.348.684 4.83 1.116 7.234.696 2.408-.422 4.74-1.818 5.79-4.011 1.05-2.19.49-5.167-1.57-6.477 3.458-.19 6.699-2.543 7.928-5.756 1.23-3.216.375-7.111-2.085-9.53 5.12.917 10.487-1.373 14.048-5.137 3.56-3.768 5.485-8.824 6.31-13.922 1.768-10.948-1.403-22.589-8.493-31.158 3.83-1.38 2.617-12.56-6.676-17.907-6.904-3.975-15.325-4.97-23.301-4.64-7.975.33-16.022 3.152-21.685 8.737-8.325 8.212-10.307 21.218-7.747 32.587.822 3.646 1.888 7.974-.672 10.714-1.254 1.336-3.094 1.918-4.752 2.706-1.656.791-3.335 2.052-3.586 3.861-.47 3.397 4.233 5.66 4.268 9.09.025 2.523-2.422 4.256-4.458 5.772-2.031 1.515-4.082 4.022-2.994 6.305.858 1.796 3.142 2.273 5.055 2.864 1.912.594 4.05 2.126 3.595 4.06-.398 1.696-2.573 2.442-3.163 4.084-.69 1.912 1.32 3.927 3.362 4.076 2.043.146 3.948-.938 5.702-1.983 3.383-2.017 7.756-3.91 11.14-5.927"/>
        <g transform="translate(2 208)">
            <mask id="z" fill="#fff">
                <use xlink:href="#x"/>
            </mask>
            <path fill="url(#y)" d="M5.165.427C1.863 1.247.15 7.467.245 9.992c.243 6.504.781 15.148 4.514 20.181 10.392 14.002 95.26 24.637 95.26 24.637l-17.91 21.157-19.58 56.64 5.889 5.353 55.11-93.993S49.368 4.257 27.366 5.758c-3.854.265-7.772-1.238-11.432-2.739C12.56 1.633 9.402.246 6.724.246c-.54 0-1.06.057-1.56.181" mask="url(#z)"/>
        </g>
        <path fill="#002856" d="M75.304 358.27l-4.089-10.976L64.211 341 55 345.767 79.175 371l.825-3.584z"/>
        <g transform="translate(1 104)">
            <mask id="C" fill="#fff">
                <use xlink:href="#A"/>
            </mask>
            <path fill="url(#B)" d="M29.136 26.561c-1.01 8.441-1.63 16.916-2.41 25.378-.472 5.114-.083 12.497-2.67 17.14-4.537 8.15-15.602 26.377-21.895 36.805-2.129 3.529-3.014 7.411 1.117 7.68l55.456 3.629s1.39-22.391.01-34.82c-.976-8.768 2.7-14.209 5.261-22.498 1.182-3.83 1.56-5.812 4.419-8.979 2.759-3.062 7.911-6.648 8.915-10.919 2.104-8.953-6.181-17.142-11.07-24.578-3.31-5.04-4.69-14.276-11.245-15.055a21.925 21.925 0 0 0-2.58-.156c-14.038 0-21.854 14.223-23.308 26.373" mask="url(#C)"/>
        </g>
        <g transform="translate(47 64)">
            <mask id="F" fill="#fff">
                <use xlink:href="#D"/>
            </mask>
            <path fill="url(#E)" d="M14.562 8.322c-1.566 4.815-5.174 8.106-5.174 8.106.108-5.985-5.111-4.45-6.38-3.147-1.27 1.305-1.518 3.46-.644 5.054.876 1.595 2.63 2.785 4.44 2.593L.21 43.755c3.534 2.072 7.235 3.83 10.868 5.687a8.399 8.399 0 0 0 1.66-3.058c1.526-4.996 4.986-9.462 6.533-9.045 3.097.843 6.065 3.789 9 2.483 2.288-1.016 2.804-3.97 2.97-6.465.161-2.494.547-5.433 2.755-6.61 1.432-.767 3.71-1.002 3.748-2.626.03-1.224-1.366-1.878-2.306-2.662-1.934-1.61-2.208-4.51-1.693-6.975.513-2.464 1.65-4.779 2-7.27.354-2.49-.336-5.41-2.545-6.618 0 0-1.85-.342-4.4-.342-4.774 0-12.009 1.197-14.24 8.068" mask="url(#F)"/>
        </g>
        <g transform="translate(38 103)">
            <mask id="I" fill="#fff">
                <use xlink:href="#G"/>
            </mask>
            <path fill="url(#H)" d="M8.648.13c-2.65.12-5.196.96-7.702 1.79C.53 3.172.11 4.44.072 5.75.03 7.06.416 8.44 1.404 9.35c1.18 1.085 2.94 1.301 4.572 1.465 5.49.544 10.98 1.09 16.472 1.638a5780.982 5780.982 0 0 0-4.88-7.667c-.494-.778-.992-1.56-1.642-2.222C14.238.846 11.69.117 9.208.117c-.188 0-.374.004-.56.013" mask="url(#I)"/>
        </g>
        <g transform="translate(115 188)">
            <mask id="L" fill="#fff">
                <use xlink:href="#J"/>
            </mask>
            <path fill="url(#K)" d="M.075 5.824l1.586 6.193 6.519 4.407 7.433-9.38L3.943.545z" mask="url(#L)"/>
        </g>
        <g transform="translate(128 194)">
            <mask id="O" fill="#fff">
                <use xlink:href="#M"/>
            </mask>
            <path fill="url(#N)" d="M1.01 2.35c3.256.837 5.863 2.805 7.805 5.856.793 1.253 2.361-.364 1.576-1.598C8.261 3.254 5.212.989 1.635.068A1.113 1.113 0 0 0 1.37.035C.232.035-.236 2.028 1.01 2.349" mask="url(#O)"/>
        </g>
        <g transform="translate(125 197)">
            <mask id="R" fill="#fff">
                <use xlink:href="#P"/>
            </mask>
            <path fill="url(#Q)" d="M1.016 2.261c4.276.9 7.714 3.018 10.258 6.289.87 1.116 2.578-.321 1.722-1.425C10.242 3.585 6.322 1.202 1.7.232a1.5 1.5 0 0 0-.292-.031C.166.2-.342 1.977 1.016 2.26" mask="url(#R)"/>
        </g>
        <g transform="translate(121 199)">
            <mask id="U" fill="#fff">
                <use xlink:href="#S"/>
            </mask>
            <path fill="url(#T)" d="M1.31 2.294c4.276.918 7.716 3.084 10.26 6.43.868 1.141 2.576-.33 1.722-1.458C10.538 3.646 6.616 1.208 1.994.214a1.43 1.43 0 0 0-.288-.032C.46.182-.05 2 1.31 2.295" mask="url(#U)"/>
        </g>
        <g transform="translate(119 199)">
            <mask id="X" fill="#fff">
                <use xlink:href="#V"/>
            </mask>
            <path fill="url(#W)" d="M.728 2.522C4.27 4.171 6.89 7.014 8.454 10.654c.555 1.295 2.44.286 1.89-.998-1.81-4.215-4.926-7.33-8.991-9.223A.98.98 0 0 0 .935.331c-.946 0-1.29 1.684-.207 2.191" mask="url(#X)"/>
        </g>
        <g transform="translate(34 117)">
            <mask id="aa" fill="#fff">
                <use xlink:href="#Y"/>
            </mask>
            <path fill="url(#Z)" d="M6.693 1.568C.65 3.943-.514 11.558 1.628 17.61l18.494 60.717c.657 2.497 62.437-1.362 62.437-1.362l3.7-6.555-52.315-7.539-11.968-50.504C20.638 6.322 15.722.916 10.066.914a9.169 9.169 0 0 0-3.373.654" mask="url(#aa)"/>
        </g>
        <g>
            <path fill="#EEEBD4" d="M140.214 210.574h52.497l7.831-32.202c.72-2.957-1.52-5.81-4.561-5.81H153.15a4.697 4.697 0 0 0-4.563 3.587l-8.373 34.425z"/>
            <path fill="#CCCBC4" d="M201.972 174.483a4.665 4.665 0 0 1 .781 3.89l-7.83 32.201h-28.999l36.048-36.09z"/>
            <path fill="#C5C4BB" d="M118.599 210.572h45.274l-2.645 2.65h-45.274a2.646 2.646 0 0 1 2.645-2.65"/>
            <path fill="#C0AFAE" d="M194.92 210.572a2.641 2.641 0 0 1-2.64 2.65h-31.05l2.642-2.65h31.048z"/>
            <path fill="#EEEBD4" d="M115.955 213.22h23.831c1.46 0 2.64-1.185 2.64-2.65H118.6a2.646 2.646 0 0 0-2.645 2.65"/>
            <path fill="#D6D5CA" d="M142.428 210.574l8.37-34.425a4.697 4.697 0 0 1 4.564-3.587h42.83c1.579 0 2.935.77 3.78 1.92l-36.048 36.092h-23.496z"/>
            <path fill="#FFF" d="M178.075 193.125c-.139 1.624-1.465 2.94-2.962 2.94s-2.597-1.316-2.458-2.94c.138-1.625 1.464-2.943 2.962-2.943 1.495 0 2.597 1.318 2.458 2.943"/>
            <path fill="#00ACC1" d="M214.846 173.426v14.939a.648.648 0 1 0 1.298 0v-7.47a2.273 2.273 0 0 1 2.27-2.274 2.273 2.273 0 0 1 2.268 2.275v7.629a5.03 5.03 0 0 1-5.027 5.034h-.161c-.36 0-.648.29-.648.649v6.659c0 .36-.29.65-.65.65h-.936v-30.246a2.267 2.267 0 0 1 1.586 2.155"/>
            <path fill="#00838F" d="M206.739 178.622a2.272 2.272 0 0 1 2.27 2.273v10.877a.648.648 0 1 0 1.297 0v-18.345a2.271 2.271 0 0 1 2.269-2.273c.241 0 .467.048.686.118v30.244h-2.307a.647.647 0 0 1-.648-.65v-3.25a.65.65 0 0 0-.65-.65h-.242a4.948 4.948 0 0 1-4.944-4.95v-11.121a2.27 2.27 0 0 1 2.269-2.273"/>
            <path fill="#005077" d="M202.199 206.582v-8.154h19.672v1.061l-13.68 13.699a6.637 6.637 0 0 1-5.992-6.606"/>
            <path fill="#002856" d="M221.872 199.49v7.093a6.634 6.634 0 0 1-6.63 6.638h-6.412c-.217 0-.43-.013-.638-.034l13.68-13.697z"/>
            <path fill="#D3C0BE" d="M108.69 211.328c1.026 0 1.858.83 1.858 1.86h-9.88l1.859-1.86h6.163z"/>
            <path fill="#D6D5CA" d="M91.974 211.328h10.553l-1.86 1.86H90.116c0-1.03.832-1.86 1.858-1.86"/>
            <path fill="#002856" d="M130.265 392.215l-8.677-7.676-8.912-2.245-5.513 8.41 32.428 10.816-1.007-3.506z"/>
            <path fill="#008DA7" d="M184.362 107.903l-3.63 3.637h-.002l6.845 6.853 11.566-11.578-2.641-2.691-8.851 7.355z"/>
            <path fill="#008DA7" d="M192.731 121.353h-21.215V97.355h2.52v.957c0 .508.416.924.925.924h.23a.927.927 0 0 0 .921-.924v-.957h2.696v.957c0 .508.416.924.921.924h.232c.51 0 .923-.416.923-.924v-.957h2.696v.957c0 .508.414.924.921.924h.23c.51 0 .922-.416.922-.924v-.957h2.696v.957c0 .508.416.924.923.924h.232a.927.927 0 0 0 .921-.924v-.957h.55l1.756 1.727v5.174l1.845-1.535v-4.415l-2.846-2.798h-1.305v-.935a.925.925 0 0 0-.921-.923h-.232a.926.926 0 0 0-.923.923v.935h-2.696v-.935a.923.923 0 0 0-.922-.923h-.23a.924.924 0 0 0-.921.923v.935h-2.696v-.935a.924.924 0 0 0-.923-.923h-.232a.925.925 0 0 0-.921.923v.935h-2.696v-.935a.925.925 0 0 0-.921-.923h-.23a.926.926 0 0 0-.925.923v.935h-4.364V123.2h24.904v-8.55l-1.845 1.847v4.856zM133.144 46.518v10.528l-3.893.52V46.517h3.893zm20.455 7.818l-4.44.59v-8.408h4.44v7.818zm-11.351-7.818h4.715v8.696l-4.715.626v-9.322zm-2.194 9.615l-4.716.624V46.518h4.716v9.615zm16.212 5.537l-27.015-.002v-1.331l24.81-3.293c1.326-.21 2.243-1.257 2.28-2.602v-8.197a2.47 2.47 0 0 0-2.468-2.471H129.25v-1.878a3.022 3.022 0 0 0-3.016-3.02h-4.801a1.922 1.922 0 0 0 0 3.844h3.976v19.772a3.024 3.024 0 0 0 3.02 3.02h27.836a1.922 1.922 0 0 0 0-3.842zM134.142 65.879a3.797 3.797 0 0 0-3.794 3.798c0 2.1 1.699 3.8 3.794 3.8 2.098 0 3.796-1.7 3.796-3.8a3.798 3.798 0 0 0-3.796-3.798M152.428 65.879a3.797 3.797 0 0 0-3.794 3.798c0 2.1 1.698 3.8 3.794 3.8 2.095 0 3.794-1.7 3.794-3.8a3.797 3.797 0 0 0-3.794-3.798"/>
            <g transform="translate(187.804)">
                <mask id="ac" fill="#fff">
                    <use xlink:href="#ab"/>
                </mask>
                <path fill="#008DA7" d="M10.031 44.033v-5.097c-3.592-.164-7.076-1.128-9.115-2.311l1.613-6.277c2.251 1.232 5.41 2.36 8.899 2.36 3.056 0 5.146-1.18 5.146-3.328 0-2.04-1.715-3.329-5.684-4.67-5.734-1.932-9.651-4.616-9.651-9.82 0-4.724 3.327-8.428 9.064-9.556V.237h5.249v4.72c3.594.164 6.007.916 7.776 1.775l-1.554 6.064c-1.393-.59-3.86-1.826-7.723-1.826-3.484 0-4.61 1.503-4.61 3.007 0 1.77 1.878 2.897 6.434 4.615 6.38 2.255 8.954 5.207 8.954 10.038 0 4.776-3.378 8.854-9.541 9.929v5.474h-5.257z" mask="url(#ac)"/>
            </g>
            <path fill="#008DA7" d="M177.475 153.665a.676.676 0 0 1-.516-.238 8.531 8.531 0 0 1-.737-.99.683.683 0 0 1 1.15-.734c.185.29.394.572.618.832a.68.68 0 0 1-.07.963.665.665 0 0 1-.445.167M168.875 29.575c-.02 0-.038 0-.056-.002l-.226-.017a39.622 39.622 0 0 0-1.962-.093.68.68 0 0 1-.667-.698.674.674 0 0 1 .697-.668c.679.013 1.357.047 2.03.095l.235.017a.684.684 0 0 1-.051 1.366m-11.086.728a.684.684 0 0 1-.146-1.35c.74-.164 1.484-.303 2.234-.419.374-.06.72.198.777.571a.68.68 0 0 1-.57.778c-.72.112-1.436.247-2.145.403a.673.673 0 0 1-.15.017m19.872.71a.665.665 0 0 1-.16-.02 59.555 59.555 0 0 0-2.152-.48.684.684 0 0 1 .275-1.34c.734.15 1.467.316 2.197.493a.683.683 0 0 1-.16 1.347m-28.168 2.446a.685.685 0 0 1-.342-1.276 27.14 27.14 0 0 1 2.027-1.056.682.682 0 0 1 .578 1.238c-.662.31-1.31.649-1.925 1.002a.69.69 0 0 1-.338.092m36.713.083a.694.694 0 0 1-.22-.036c-.697-.237-1.398-.471-2.103-.698a.682.682 0 1 1 .418-1.299c.708.228 1.417.464 2.126.704a.683.683 0 0 1-.22 1.33m-43.447 5.683a.684.684 0 0 1-.536-1.107c.475-.603.984-1.187 1.51-1.731a.679.679 0 0 1 .964-.02c.272.263.28.697.017.967a22.402 22.402 0 0 0-1.42 1.63.68.68 0 0 1-.535.26m-.127 33.452a.672.672 0 0 1-.576-.314c-.41-.64-.8-1.288-1.17-1.948a.683.683 0 0 1 1.191-.67c.355.638.731 1.263 1.127 1.878a.685.685 0 0 1-.572 1.054m5.629 6.896a.691.691 0 0 1-.479-.194 45.569 45.569 0 0 1-1.575-1.63.687.687 0 0 1 .042-.966.685.685 0 0 1 .965.042c.494.54 1.001 1.065 1.524 1.577a.683.683 0 0 1-.477 1.171m6.925 5.602a.668.668 0 0 1-.384-.12c-.62-.426-1.235-.86-1.837-1.307a.682.682 0 1 1 .81-1.1c.59.438 1.19.863 1.796 1.28a.685.685 0 0 1-.385 1.247m7.559 4.726a.688.688 0 0 1-.344-.093c-.64-.378-1.282-.759-1.923-1.143a.683.683 0 1 1 .703-1.172c.635.38 1.273.761 1.913 1.138a.68.68 0 0 1 .242.934.68.68 0 0 1-.591.336m7.643 4.6a.68.68 0 0 1-.367-.109 123.11 123.11 0 0 0-1.88-1.174.686.686 0 0 1-.227-.94.68.68 0 0 1 .939-.225c.636.39 1.27.785 1.901 1.188a.684.684 0 0 1-.366 1.26m14.172 36.625a.683.683 0 0 1-.555-1.082c.456-.641.85-1.235 1.201-1.817a.685.685 0 0 1 .939-.232.685.685 0 0 1 .23.938c-.37.614-.781 1.236-1.258 1.904a.684.684 0 0 1-.557.289m-5.47 7.045a.683.683 0 0 1-.555-1.08c.436-.613.894-1.212 1.361-1.807a.684.684 0 0 1 .958-.116.684.684 0 0 1 .114.96 50.994 50.994 0 0 0-1.32 1.756.68.68 0 0 1-.557.287m-3.466 8.125a.686.686 0 0 1-.678-.774 16.06 16.06 0 0 1 .49-2.278.683.683 0 1 1 1.313.382c-.207.706-.359 1.406-.45 2.08a.683.683 0 0 1-.675.59"/>
        </g>
    </g>
</svg>
