<svg xmlns="http://www.w3.org/2000/svg" width="63" height="56" viewBox="0 0 63 56">
    <g fill="#D74B4B" fill-rule="nonzero">
        <path d="M58.445 9.717h-2.447L56 5.341a5.334 5.334 0 0 0-5.325-5.33L32.097 0h-.002a3.934 3.934 0 0 0-2.8 1.16L1.56 28.894A5.293 5.293 0 0 0 0 32.662c0 1.423.554 2.76 1.56 3.767L19.56 54.428a5.312 5.312 0 0 0 3.767 1.558c1.365 0 2.73-.52 3.768-1.558l17.462-17.462a1.222 1.222 0 1 0-1.73-1.73L25.366 52.7a2.886 2.886 0 0 1-4.077 0L3.29 34.7a2.864 2.864 0 0 1-.845-2.038c0-.77.3-1.494.845-2.039L31.024 2.89a1.504 1.504 0 0 1 1.07-.444h.002l18.577.01a2.886 2.886 0 0 1 2.882 2.885l-.006 10.246H48.04c-.474 0-.903-.194-1.214-.506.512-.22.991-.536 1.408-.953a4.512 4.512 0 0 0 0-6.374 4.512 4.512 0 0 0-6.374 0 4.512 4.512 0 0 0 0 6.374 4.483 4.483 0 0 0 2.297 1.23 4.164 4.164 0 0 0 3.883 2.675h5.506l-.003 5.86c0 .405-.158.785-.444 1.07l-3.356 3.358a1.223 1.223 0 0 0 1.729 1.73l3.357-3.358a3.935 3.935 0 0 0 1.16-2.798l.003-5.862h2.452a4.162 4.162 0 0 0 4.158-4.158 4.162 4.162 0 0 0-4.158-4.157zM43.59 9.482c.403-.402.93-.603 1.459-.603a2.057 2.057 0 0 1 1.776 1.02 4.174 4.174 0 0 0-2.782 2.84 2.048 2.048 0 0 1-.453-.34 2.064 2.064 0 0 1 0-2.917zm14.855 6.104h-2.45l.001-3.423h2.45c.943 0 1.711.768 1.711 1.711 0 .944-.768 1.712-1.712 1.712z"/>
        <path d="M19.736 30.85a1.223 1.223 0 0 0 1.506.85l12.552-3.494a1.223 1.223 0 0 0-.656-2.356l-12.552 3.494c-.65.181-1.03.855-.85 1.505zM25.261 32.463a3.581 3.581 0 0 0-1.056 2.55c0 .962.375 1.867 1.056 2.548a3.595 3.595 0 0 0 2.55 1.055c.923 0 1.846-.352 2.549-1.055a3.61 3.61 0 0 0 0-5.098 3.61 3.61 0 0 0-5.099 0zm3.37 3.369a1.16 1.16 0 0 1-1.64-1.64 1.158 1.158 0 0 1 1.64 0 1.16 1.16 0 0 1 0 1.64zM30.966 25.183a3.61 3.61 0 0 0 0-5.099 3.582 3.582 0 0 0-2.55-1.056 3.58 3.58 0 0 0-2.55 1.056 3.61 3.61 0 0 0 0 5.099 3.595 3.595 0 0 0 2.55 1.054c.923 0 1.846-.351 2.55-1.054zm-3.37-3.37c.22-.219.51-.34.82-.34a1.16 1.16 0 1 1-.82 1.98 1.162 1.162 0 0 1 0-1.64z"/>
        <path d="M12.161 28.323a1.223 1.223 0 0 0-1.73 0l-3.474 3.474a1.223 1.223 0 0 0 0 1.73L22.462 49.03a1.22 1.22 0 0 0 1.73 0l23.181-23.182a1.223 1.223 0 0 0 0-1.73L31.87 8.615a1.223 1.223 0 0 0-1.73 0L17.35 21.406a1.223 1.223 0 0 0 1.729 1.73l11.926-11.927L44.78 24.984 23.327 46.437 9.551 32.662l2.61-2.61a1.223 1.223 0 0 0 0-1.73zM47.15 31.42c-.322 0-.637.131-.864.358a1.232 1.232 0 0 0-.359.865c0 .321.131.637.359.864.227.228.542.359.864.359.322 0 .637-.131.865-.359.227-.227.358-.543.358-.864 0-.321-.131-.637-.358-.865a1.233 1.233 0 0 0-.865-.358z"/>
        <path d="M15.619 26.593a1.224 1.224 0 0 0 0-1.73 1.23 1.23 0 0 0-.864-.357c-.322 0-.638.13-.865.358a1.23 1.23 0 0 0-.358.864c0 .323.13.638.358.865a1.224 1.224 0 0 0 1.729 0z"/>
    </g>
</svg>
