<svg xmlns="http://www.w3.org/2000/svg" width="80" height="52" viewBox="0 0 80 52">
    <g fill="#D74B4B" fill-rule="nonzero">
        <path d="M19.048 14.444h2.857v2.89h-2.857zM37.143 48.148H63.81v2.889H37.143zM21.667 8.988c.004-3.544 2.933-6.416 6.547-6.42H40V0H28.214c-5.06.006-9.16 4.026-9.166 8.988v2.568h2.619V8.988z"/>
        <path d="M76 5.778H28c-2.21 0-4 1.774-4 3.962v11.885h-4c-.354 0-.693.14-.943.387l-5.724 5.67v-.774c0-.73-.597-1.32-1.333-1.32H1.333c-.736 0-1.333.59-1.333 1.32v23.771C0 51.41.597 52 1.333 52H12c.736 0 1.333-.591 1.333-1.32H28c.234 0 .464-.062.667-.178l8.925-5.105H76c2.21 0 4-1.774 4-3.962V9.74c0-2.188-1.79-3.962-4-3.962zM2.667 49.358v-21.13h8v21.13h-8zm74.666-7.923c0 .73-.597 1.32-1.333 1.32H42.21l2.613-1.494c3.19-1.819 4.29-5.854 2.454-9.015-1.845-3.158-5.92-4.245-9.117-2.433l-10.827 6.194 1.334 2.286 10.821-6.19a4.085 4.085 0 0 1 2-.528 4.014 4.014 0 0 1 3.179 1.55 3.932 3.932 0 0 1-1.179 5.838l-15.845 9.075h-14.31V31.417l7.219-7.15H24v11.885h2.667V9.74c0-.73.597-1.321 1.333-1.321h48c.736 0 1.333.591 1.333 1.32v31.696z"/>
        <path d="M40.476 10.593c-4.47 0-8.095 3.664-8.095 8.185 0 4.52 3.624 8.185 8.095 8.185s8.095-3.665 8.095-8.185c-.004-4.519-3.626-8.18-8.095-8.185zm0 13.642c-2.98 0-5.397-2.444-5.397-5.457 0-3.014 2.417-5.457 5.397-5.457 2.98 0 5.397 2.443 5.397 5.457 0 3.013-2.416 5.457-5.397 5.457zM71.02 14.444H54.694c-.752 0-1.36.593-1.36 1.325v10.405c-.003 2.215 1.135 4.283 3.03 5.51l5.738 3.723a1.392 1.392 0 0 0 1.51 0l5.739-3.723c1.895-1.227 3.032-3.295 3.03-5.51V15.77c0-.732-.61-1.325-1.36-1.325zm-1.36 11.73a3.936 3.936 0 0 1-1.818 3.31l-4.985 3.232-4.985-3.234a3.936 3.936 0 0 1-1.818-3.308v-9.081H69.66v9.081z"/>
        <path d="M61.573 27.926c.34 0 .667-.142.908-.396l5.138-5.4-1.816-1.908-4.23 4.445-1.661-1.745-1.817 1.909 2.57 2.7c.24.253.567.395.908.395zM66.667 48.148h2.857v2.889h-2.857z"/>
    </g>
</svg>
