<svg xmlns="http://www.w3.org/2000/svg" width="68" height="58" viewBox="0 0 68 58">
    <g fill="#D74B4B" fill-rule="nonzero" stroke="#D74B4B" stroke-width=".6">
        <path d="M31.887 40.037l-4.206-.002v-3.043c4.393-2.55 7.361-7.295 7.361-12.73V12.694c0-3.7-2.749-6.765-6.31-7.277v-3.24a1.05 1.05 0 0 0-1.051-1.05h-8.413c-7.54 0-13.674 6.132-13.674 13.67l.002.011v9.454c0 5.436 2.968 10.181 7.362 12.73v3.043l-4.196.002-.01-.002c-4.64 0-8.414 3.774-8.414 8.413V54.76c0 1.16.943 2.103 2.103 2.103h35.756c1.16 0 2.103-.943 2.103-2.103v-6.31c0-4.639-3.774-8.413-8.413-8.413zM19.267 3.229h7.362v3.155c0 .582.47 1.052 1.052 1.052 2.9 0 5.258 2.359 5.258 5.258v4.823l-1.36-1.36-.011-.007c-.068-.066-.15-.11-.233-.155-.039-.02-.07-.054-.11-.069-.07-.028-.149-.03-.223-.044-.058-.01-.113-.03-.172-.03-.048 0-.095.02-.145.027-.087.013-.175.022-.258.056-.005.003-.009.001-.013.004-.046.02-4.67 2.015-10.096 2.015-5.407 0-10.05-1.995-10.096-2.015-.004-.003-.008-.001-.012-.004a1.102 1.102 0 0 0-.295-.064c-.035-.003-.07-.02-.107-.02-.09 0-.178.026-.265.049-.043.011-.088.01-.13.024-.05.02-.092.062-.14.09-.07.041-.144.077-.203.135-.004.004-.01.005-.013.008L7.7 17.517v-2.72l-.002-.008c.006-6.374 5.194-11.56 11.57-11.56zM7.7 24.262V20.49l2.357-2.355c1.55.587 5.587 1.922 10.263 1.922 4.675 0 8.713-1.336 10.263-1.922l2.357 2.357v3.771c0 6.96-5.661 12.62-12.62 12.62S7.7 31.222 7.7 24.262zm12.62 14.723c1.854 0 3.622-.36 5.258-.987v2.526l-2.257 1.508-2.666-.893c-.04-.014-.081-.006-.122-.015a.963.963 0 0 0-.213-.026c-.07 0-.135.012-.203.024-.043.01-.086.002-.13.017l-2.665.893-2.258-1.508v-2.526c1.634.628 3.403.987 5.256.987zM38.197 54.76H2.441V48.448a6.318 6.318 0 0 1 6.302-6.31l.008.002 4.94-.002 2.89 1.929c.05.034.106.05.158.075.038.016.073.04.113.053.102.03.206.049.31.049h.004c.101-.001.2-.021.296-.05.012-.003.023 0 .035-.005l2.821-.943 2.822.943c.011.004.022.002.034.005.097.029.196.049.296.05h.004c.104 0 .208-.018.31-.05.037-.011.07-.032.106-.048.056-.024.114-.044.167-.08l2.89-1.928 4.94.002c3.48 0 6.31 2.83 6.31 6.31v6.31z"/>
        <path d="M20.35 46.347h-.01c-.581 0-1.046.47-1.046 1.051a1.055 1.055 0 0 0 2.108 0c0-.581-.47-1.051-1.051-1.051zM20.35 50.553h-.01c-.581 0-1.046.47-1.046 1.052a1.055 1.055 0 0 0 2.108 0c0-.581-.47-1.052-1.051-1.052zM67.662 27.43a1.05 1.05 0 0 0-1.052-1.052h-.002a1.05 1.05 0 0 0-1.051 1.052v.02a2.105 2.105 0 0 1-2.102 2.083l-.01.002h-2.1c-2.87 0-5.205-2.315-5.249-5.177 0-.027.004-.054.004-.08a1.05 1.05 0 0 0-1.051-1.053l-.007.001h-.006a1.05 1.05 0 0 0-1.052 1.051c0 .027.005.054.005.081-.045 2.86-2.376 5.173-5.243 5.176h-2.119a2.105 2.105 0 0 1-2.101-2.083v-.008l-.001-.009-.001-.004a1.05 1.05 0 1 0-2.103 0l.002.02v16.812c0 .006.003.01.003.014.007 6.372 5.192 11.551 11.564 11.552a1.05 1.05 0 0 0 2.1.003h.002c6.378 0 11.568-5.19 11.568-11.569V27.45l.002-.02zM56.124 53.725c-.011 0-.022-.006-.032-.006-.383 0-.737.11-1.047.29a2.08 2.08 0 0 0-1.065-.299c-.02 0-.036.011-.055.012-5.188-.036-9.398-4.263-9.398-9.46l-.002-.01v-13.2a4.158 4.158 0 0 0 2.101.584h2.101l.01.003c2.676 0 5.016-1.44 6.304-3.58 1.29 2.14 3.628 3.58 6.304 3.58h2.11c.007 0 .013-.005.02-.005a4.17 4.17 0 0 0 2.082-.581v13.21c0 5.207-4.229 9.444-9.433 9.462z"/>
        <path d="M59.229 41.033a1.062 1.062 0 0 0-.117-.392.868.868 0 0 0-.11-.161.964.964 0 0 0-.153-.154c-.025-.02-.04-.05-.07-.07-.025-.017-.058-.02-.085-.034a1.037 1.037 0 0 0-.401-.122c-.033-.003-.062-.02-.096-.02h-4.345l3.117-4.673a1.051 1.051 0 1 0-1.75-1.168l-4.207 6.31c-.018.026-.02.059-.035.086a.992.992 0 0 0-.08.196c-.021.07-.036.137-.042.208-.003.032-.02.06-.02.093 0 .034.018.064.02.098.008.072.022.14.044.21a.913.913 0 0 0 .183.344c.046.057.096.106.153.153.026.021.041.05.07.07.036.023.074.033.112.053.036.018.069.036.109.05.117.045.24.073.361.073h4.347l-3.117 4.674a1.051 1.051 0 1 0 1.75 1.167l4.206-6.309c.02-.027.021-.06.036-.087a.992.992 0 0 0 .08-.195c.021-.07.036-.137.042-.209.003-.031.019-.06.019-.092-.001-.036-.018-.064-.021-.1z"/>
    </g>
</svg>
