<svg xmlns="http://www.w3.org/2000/svg" width="61" height="56" viewBox="0 0 61 56">
    <path fill="#D74B4B" fill-rule="nonzero" d="M49.649 0c.65 0 1.176.527 1.176 1.176v22.972l1.139-1.177a4.718 4.718 0 0 1 6.603-.527 4.712 4.712 0 0 1 .56 6.634l-10.54 12.656a1.103 1.103 0 0 1-.083.09c-1.987 1.935-4.61 3-7.385 3h-15.49a5.458 5.458 0 0 0-3.805 1.538l-1.296 1.25a5.446 5.446 0 0 1-1.58 4.415l-3.612 3.613a1.174 1.174 0 0 1-1.663 0L.345 42.33a1.178 1.178 0 0 1 .002-1.666l3.63-3.613a5.433 5.433 0 0 1 4.143-1.597c1.946-4.134 5.56-6.962 10.116-7.919V1.176c0-.65.527-1.176 1.176-1.176zm-39.59 38.717a3.12 3.12 0 0 0-4.42 0L2.844 41.5l11.66 11.644 2.782-2.781a3.12 3.12 0 0 0 0-4.42zm46.99-14.474a2.36 2.36 0 0 0-3.316.28l-.053.058c-.246.255-7.357 7.61-7.603 7.862a4.711 4.711 0 0 1-4.664 5.324H31.177a1.177 1.177 0 0 1 0-2.354h10.236a2.356 2.356 0 0 0 2.353-2.353 2.36 2.36 0 0 0-2.353-2.353h-13.64c-.379 0-.757-.075-1.124-.223-2.308-.94-4.688-1.143-7.068-.799-4.148.603-7.359 2.863-9.156 6.408.474.253.912.574 1.298.96l7.226 7.226c.273.272.515.57.722.89l.52-.5a7.799 7.799 0 0 1 5.438-2.197h15.49c2.138 0 4.16-.813 5.7-2.292l10.505-12.614a2.358 2.358 0 0 0-.274-3.323zM27.103 35.555c.46.46.46 1.205 0 1.665a1.179 1.179 0 0 1-1.665 0 1.179 1.179 0 0 1 0-1.665 1.179 1.179 0 0 1 1.665 0zm21.37-33.202H20.59v24.864c.39-.025.783-.04 1.177-.04 1.994 0 3.934.38 5.767 1.126a.65.65 0 0 0 .24.05h13.64c1.443 0 2.778.672 3.655 1.749l3.404-3.52V2.351zM27.53 7.177h2.353a1.176 1.176 0 0 1 .12 2.347l-.12.006v2.353a4.706 4.706 0 0 0 9.408.215l.004-.215V9.53a1.176 1.176 0 0 1-.12-2.347l.12-.006h2.353a1.176 1.176 0 0 1 .12 2.347l-.12.006v2.353c0 3.892-3.166 7.059-7.059 7.059a7.057 7.057 0 0 1-7.055-6.821l-.004-.238V9.53a1.176 1.176 0 0 1-.12-2.347l.12-.006h2.353z"/>
</svg>
